<svg width="215" height="90" viewBox="0 0 215 90" fill="none" xmlns="http://www.w3.org/2000/svg">
<g clip-path="url(#clip0_113_8885)">
<path d="M53.8073 26.25H38.5625V62.7083L53.8073 26.25Z" fill="#E6E6E6"/>
<path d="M64.5342 26.25H79.7591V62.7083L64.5342 26.25Z" fill="#E6E6E6"/>
<path d="M59.1694 39.6875L68.8724 62.7086H62.5063L59.6064 55.3792H52.5054L59.1694 39.6875Z" fill="#E6E6E6"/>
<path d="M104.629 49.4343L106.427 54.5887C106.486 54.7178 106.575 54.7774 106.734 54.7774H110.191C110.379 54.7774 110.409 54.688 110.379 54.4993L103.239 34.6662C103.209 34.5073 103.179 34.4775 103.02 34.4775H98.7296C98.6105 34.4775 98.5409 34.5669 98.5409 34.696C98.4813 35.7388 98.392 36.0566 98.2629 36.3645L91.8968 54.4695C91.867 54.688 91.9365 54.7774 92.1153 54.7774H95.204C95.3927 54.7774 95.4821 54.7178 95.5516 54.5291L97.2499 49.4343H104.629ZM98.2331 46.0675C99.1666 43.247 100.398 39.632 100.895 37.5662H100.924C101.54 39.7313 102.99 44.0217 103.646 46.0675H98.2331Z" fill="#E6E6E6"/>
<path d="M119.559 55.0843C121.416 55.0843 123.392 54.7467 125.398 53.8826C125.557 53.823 125.587 53.7535 125.587 53.6046C125.528 53.0484 125.458 52.244 125.458 51.6282V32.9571C125.458 32.8379 125.458 32.7783 125.309 32.7783H121.942C121.813 32.7783 121.754 32.8379 121.754 32.9968V39.3231C121.227 39.2636 120.86 39.2338 120.423 39.2338C114.99 39.2338 111.653 42.819 111.653 47.2981C111.653 52.4922 115.08 55.0843 119.559 55.0843ZM121.754 51.6282C121.197 51.807 120.582 51.8765 119.956 51.8765C117.493 51.8765 115.477 50.4861 115.477 47.1094C115.477 44.12 117.553 42.3522 120.304 42.3522C120.86 42.3522 121.346 42.4118 121.754 42.5707V51.6282Z" fill="#E6E6E6"/>
<path d="M136.327 39.2334C131.689 39.2334 128.819 42.7889 128.819 47.1786C128.819 51.1015 131.103 55.084 136.257 55.084C140.617 55.084 143.676 51.8761 143.676 47.0792C143.676 42.8484 141.084 39.2334 136.327 39.2334ZM136.138 42.3519C138.76 42.3519 139.873 44.6063 139.873 47.1786C139.873 50.3566 138.234 51.9357 136.327 51.9357C133.973 51.9357 132.583 49.9594 132.583 47.109C132.583 44.1793 134.063 42.3519 136.138 42.3519Z" fill="#E6E6E6"/>
<path d="M147.157 32.7783C147.028 32.7783 146.939 32.8379 146.939 32.9968V54.1309C146.939 54.2203 147.028 54.3792 147.157 54.409C148.637 54.8659 150.187 55.0843 151.786 55.0843C156.364 55.0843 160.813 52.244 160.813 46.5234C160.813 42.382 157.973 39.2338 153.524 39.2338C152.501 39.2338 151.547 39.3927 150.713 39.6707L150.673 33.0266C150.673 32.8081 150.614 32.7783 150.395 32.7783H147.157ZM157.009 46.9008C157.009 50.3272 154.666 51.9361 152.133 51.9361C151.607 51.9361 151.14 51.9063 150.713 51.7772V42.7594C151.2 42.5707 151.786 42.4118 152.868 42.4118C155.311 42.4118 157.009 43.9611 157.009 46.9008Z" fill="#E6E6E6"/>
<path d="M173.379 48.0128C174.888 48.0128 176.13 47.983 176.557 47.8837C176.716 47.8539 176.775 47.7943 176.805 47.6652C176.894 47.3275 176.934 46.6224 176.934 45.7584C176.934 42.8187 175.166 39.2334 170.598 39.2334C165.93 39.2334 163.338 43.0371 163.338 47.3275C163.338 51.1313 165.344 55.084 170.965 55.084C173.071 55.084 174.431 54.7463 175.603 54.1902C175.722 54.1306 175.782 54.0313 175.782 53.8525V51.2802C175.782 51.1313 175.693 51.1015 175.603 51.1611C174.431 51.6576 173.16 51.9059 171.77 51.9059C168.621 51.9059 167.191 50.1679 167.102 48.0128H173.379ZM167.102 45.3512C167.35 43.8416 168.304 42.2029 170.439 42.2029C172.793 42.2029 173.408 44.1793 173.408 45.0731C173.408 45.1029 173.408 45.232 173.408 45.3214C173.279 45.3512 172.882 45.3512 171.71 45.3512H167.102Z" fill="#E6E6E6"/>
</g>
<defs>
<clipPath id="clip0_113_8885">
<rect width="138.542" height="50" fill="white" transform="translate(38.5625 20)"/>
</clipPath>
</defs>
</svg>
