<svg width="215" height="92" viewBox="0 0 215 92" fill="none" xmlns="http://www.w3.org/2000/svg">
<g clip-path="url(#clip0_113_8881)">
<path fill-rule="evenodd" clip-rule="evenodd" d="M120.773 60.3481C114.078 65.1427 104.436 67.6174 96.1641 67.5039C84.5662 67.3448 74.1839 62.912 66.3827 55.6691C65.7698 55.0995 66.3364 54.3426 67.0751 54.7897C75.5317 59.8665 86.0312 62.995 96.9191 63.1444C104.262 63.2451 112.361 61.8367 119.832 58.7859C120.96 58.3247 121.882 59.549 120.773 60.3481Z" fill="#E6E6E6"/>
<path fill-rule="evenodd" clip-rule="evenodd" d="M123.572 57.2333C122.743 56.1394 117.979 56.6451 115.841 56.869C115.189 56.9395 115.098 56.3722 115.689 55.9731C119.514 53.3589 125.719 54.2138 126.432 55.1174C127.144 56.026 126.145 62.2443 122.545 65.1694C121.992 65.6187 121.474 65.3683 121.726 64.7659C122.553 62.781 124.406 58.3323 123.572 57.2333Z" fill="#E6E6E6"/>
<path fill-rule="evenodd" clip-rule="evenodd" d="M116.261 37.1567L116.297 34.5651C116.302 34.1728 116.604 33.9138 116.961 33.9187L128.564 34.0779C128.936 34.083 129.231 34.3551 129.225 34.7424L129.195 36.9617C129.185 37.334 128.865 37.8163 128.299 38.5782L122.169 47.08C124.403 47.056 126.757 47.421 128.767 48.5907C129.22 48.8551 129.339 49.2342 129.369 49.607L129.331 52.3724C129.326 52.7498 128.903 53.1859 128.469 52.9515C124.925 51.0308 120.186 50.7622 116.21 52.8032C115.805 53.0162 115.389 52.5735 115.395 52.1961L115.431 49.5697C115.436 49.1477 115.451 48.4279 115.882 47.7932L122.985 37.8995L116.923 37.8163C116.55 37.8112 116.256 37.544 116.261 37.1567Z" fill="#E6E6E6"/>
<path fill-rule="evenodd" clip-rule="evenodd" d="M73.714 52.7467L70.1839 52.6982C69.8467 52.6688 69.582 52.4119 69.5616 52.0888L69.8102 33.9721C69.8151 33.6096 70.122 33.3258 70.4993 33.331L73.791 33.3761C74.1334 33.3957 74.4028 33.6626 74.4231 33.9906L74.3907 36.3589L74.4552 36.3598C75.3455 34.0828 76.9737 33.0374 79.1484 33.0673C81.3577 33.0976 82.7233 34.184 83.6849 36.4864C84.5702 34.2093 86.5261 33.1685 88.6064 33.197C90.0859 33.2173 91.6961 33.8502 92.6653 35.2341C93.7615 36.7736 93.5027 38.9848 93.4761 40.9261L93.3143 52.3601C93.3093 52.7225 93.0024 53.0113 92.6251 53.0061L89.1001 52.9577C88.7479 52.9281 88.4688 52.6412 88.4736 52.2936L88.6053 42.6916C88.6158 41.927 88.7114 40.0215 88.5526 39.2943C88.3061 38.0743 87.5214 37.7209 86.4986 37.7068C85.6447 37.6951 84.7432 38.2538 84.3682 39.1624C83.9932 40.071 84.007 41.6006 83.9929 42.6283L83.8612 52.2304C83.8562 52.5928 83.5493 52.8816 83.172 52.8764L79.647 52.828C79.2898 52.7983 79.0157 52.5115 79.0205 52.164L79.1472 42.5619C79.1749 40.5412 79.5484 37.5718 77.0411 37.5374C74.5041 37.5026 74.5636 40.4034 74.5349 42.4986L74.4031 52.1006C74.3982 52.4631 74.0913 52.7518 73.714 52.7467Z" fill="#E6E6E6"/>
<path fill-rule="evenodd" clip-rule="evenodd" d="M139.228 33.8915C144.466 33.9633 147.239 38.5004 147.161 44.2199C147.085 49.7458 143.892 54.0868 138.952 54.019C133.808 53.9485 131.07 49.4119 131.147 43.8065C131.224 38.1665 134.119 33.8214 139.228 33.8915ZM139.207 37.5907C136.605 37.555 136.393 41.0977 136.363 43.307C136.332 45.5214 136.233 50.2474 139.003 50.2854C141.739 50.323 141.92 46.5117 141.952 44.1882C141.973 42.659 141.934 40.831 141.492 39.375C141.112 38.1084 140.329 37.6061 139.207 37.5907Z" fill="#E6E6E6"/>
<path fill-rule="evenodd" clip-rule="evenodd" d="M153.822 53.8456L150.307 53.7974C149.955 53.7677 149.676 53.4808 149.68 53.1333L149.924 35.0115C149.958 34.6793 150.255 34.4251 150.612 34.43L153.884 34.4749C154.192 34.494 154.442 34.706 154.508 34.99L154.47 37.7604L154.534 37.7612C155.556 35.2973 156.958 34.1347 159.395 34.1681C160.979 34.1899 162.515 34.782 163.487 36.3596C164.391 37.822 164.357 40.2597 164.333 42.0123L164.177 53.4166C164.133 53.7338 163.836 53.983 163.489 53.9782L159.949 53.9297C159.626 53.9004 159.361 53.6584 159.331 53.3501L159.466 43.5098C159.493 41.5288 159.761 38.6324 157.324 38.599C156.465 38.5872 155.667 39.1523 155.263 40.0207C154.751 41.1211 154.672 42.2224 154.655 43.4438L154.521 53.1997C154.511 53.5621 154.199 53.8508 153.822 53.8456Z" fill="#E6E6E6"/>
<path fill-rule="evenodd" clip-rule="evenodd" d="M106.909 44.5466C106.89 45.9219 106.909 47.0692 106.197 48.2811C105.622 49.2663 104.72 49.8648 103.732 49.8512C102.377 49.8326 101.597 48.789 101.618 47.2648C101.659 44.2561 104.362 43.747 106.919 43.782L106.909 44.5466ZM110.35 53.1996C110.114 53.4049 109.776 53.4151 109.515 53.2725C108.357 52.2833 108.15 51.8286 107.522 50.8914C105.558 52.8408 104.175 53.4128 101.668 53.3784C98.6938 53.3376 96.4103 51.4739 96.4606 47.8049C96.4999 44.9401 98.0757 43.0102 100.303 42.0873C102.231 41.2696 104.909 41.1574 106.958 40.9521L106.964 40.4953C106.976 39.6562 107.054 38.6641 106.567 37.9325C106.149 37.2762 105.329 36.9968 104.599 36.9868C103.253 36.9683 102.047 37.642 101.735 39.0679C101.671 39.3848 101.433 39.6944 101.11 39.7049L97.6947 39.2906C97.4076 39.2221 97.0881 38.9843 97.1786 38.5436C98.02 34.4037 101.791 33.2041 105.147 33.2501C106.865 33.2737 109.103 33.7612 110.44 35.0806C112.136 36.7078 111.943 38.8454 111.911 41.1739L111.835 46.675C111.813 48.3283 112.488 49.0626 113.121 49.9651C113.34 50.2859 113.384 50.6689 113.093 50.9033C112.365 51.4941 111.069 52.5937 110.355 53.2096L110.35 53.1996Z" fill="#E6E6E6"/>
<path fill-rule="evenodd" clip-rule="evenodd" d="M60.631 43.9118C60.6122 45.287 60.6312 46.4344 59.9194 47.6462C59.3447 48.6315 58.4476 49.23 57.4547 49.2163C56.0992 49.1978 55.324 48.1542 55.3449 46.63C55.3862 43.6213 58.0896 43.1122 60.6415 43.1472L60.631 43.9118ZM64.0728 52.5647C63.8366 52.77 63.4988 52.7803 63.2376 52.6377C62.0792 51.6485 61.8769 51.1938 61.2442 50.2565C59.2808 52.206 57.9024 52.778 55.3902 52.7435C52.4212 52.7028 50.1327 50.839 50.183 47.17C50.2223 44.3053 51.8031 42.3754 54.0255 41.4525C55.9535 40.6347 58.6316 40.5225 60.6804 40.3172L60.6866 39.8604C60.6981 39.0214 60.7763 38.0293 60.2947 37.2977C59.8717 36.6414 59.0512 36.3619 58.3263 36.352C56.9809 36.3335 55.7699 37.0072 55.4574 38.433C55.3934 38.75 55.1558 39.0596 54.8378 39.0701L51.4171 38.6557C51.13 38.5872 50.8155 38.3495 50.901 37.9087C51.7473 33.7689 55.513 32.5692 58.8692 32.6152C60.5871 32.6388 62.8249 33.1264 64.1625 34.4457C65.8583 36.073 65.6651 38.2106 65.6332 40.5391L65.5577 46.0402C65.535 47.6935 66.2102 48.4277 66.8434 49.3302C67.0674 49.6511 67.1118 50.0341 66.8206 50.2685C66.0925 50.8593 64.7962 51.9589 64.0826 52.5748L64.0728 52.5647Z" fill="#E6E6E6"/>
</g>
<defs>
<clipPath id="clip0_113_8881">
<rect width="114.583" height="50" fill="white" transform="translate(50.5562 20) rotate(0.785956)"/>
</clipPath>
</defs>
</svg>
