<svg width="838" height="520" viewBox="0 0 838 520" fill="none" xmlns="http://www.w3.org/2000/svg">
<g clip-path="url(#clip0_252_1605)">
<path d="M675.171 141.469H153.074C142.913 141.469 134.676 149.707 134.676 159.868V492.661C134.676 502.822 142.913 511.06 153.074 511.06H675.171C685.332 511.06 693.569 502.822 693.569 492.661V159.868C693.569 149.707 685.332 141.469 675.171 141.469Z" fill="#AFAEAE"/>
<path d="M111.302 483.72H716.817V493.583C716.817 505.983 706.753 516.06 694.34 516.06H133.779C121.379 516.06 111.302 505.996 111.302 493.583V483.72Z" fill="#AFAEAE"/>
<path d="M677.002 156.155H149.678V468.264H677.002V156.155Z" fill="#1D1D1D"/>
<path d="M359.021 483.72L366.535 495.666H472.268L479.251 483.72H359.021Z" fill="#1D1D1D"/>
<path d="M164.666 166.712H663.085C665.371 166.712 667.215 168.569 667.215 170.842V463.125C667.215 465.41 665.358 467.254 663.085 467.254H164.666C162.381 467.254 160.537 465.398 160.537 463.125V170.842C160.537 168.556 162.393 166.712 164.666 166.712Z" fill="#F7F7F7"/>
<path d="M667.227 188.735H160.537V467.267H667.227V188.735Z" fill="#F7F7F7"/>
<path d="M202.095 178.317C202.095 180.552 200.29 182.358 198.055 182.358C195.819 182.358 194.014 180.552 194.014 178.317C194.014 176.082 195.819 174.276 198.055 174.276C200.29 174.276 202.095 176.082 202.095 178.317Z" fill="#1D1D1D"/>
<path d="M177.572 178.317C177.572 180.552 175.766 182.358 173.531 182.358C171.296 182.358 169.49 180.552 169.49 178.317C169.49 176.082 171.309 174.276 173.531 174.276C175.754 174.276 177.572 176.082 177.572 178.317Z" fill="#1D1D1D"/>
<path d="M189.342 178.317C189.342 180.552 187.536 182.358 185.301 182.358C183.066 182.358 181.26 180.552 181.26 178.317C181.26 176.082 183.066 174.276 185.301 174.276C187.536 174.276 189.342 176.082 189.342 178.317Z" fill="#1D1D1D"/>
<path d="M688.758 483.72C688.758 483.922 564.715 484.086 411.73 484.086C258.744 484.086 134.676 483.922 134.676 483.72C134.676 483.518 258.693 483.354 411.73 483.354C564.766 483.354 688.758 483.518 688.758 483.72Z" fill="#1D1D1D"/>
<path d="M142.125 515.492C177.294 492.017 185.881 447.605 185.123 407.562C184.997 400.869 185.843 393.836 182.724 387.938C179.592 382.029 172.142 377.912 166.042 380.639C160.979 382.9 158.693 388.633 155.814 393.368C151.975 399.657 146.318 404.834 139.701 408.105C135.357 410.252 130.003 411.514 125.785 409.14C119.989 405.87 119.433 397.902 119.572 391.259C119.837 378.872 120.115 366.496 120.38 354.109C120.532 347.466 120.658 340.685 118.65 334.346C116.655 328.007 112.122 322.084 105.745 320.215C99.3677 318.347 91.387 321.882 89.9348 328.36C89.3286 331.063 89.8464 333.879 89.6191 336.632C89.3918 339.384 88.0406 342.415 85.3761 343.148C82.6738 343.88 80.0093 341.961 78.0268 339.991C71.1825 333.172 66.5986 324.458 62.3304 315.796C58.0496 307.133 53.9203 298.268 47.7201 290.856C41.5324 283.443 32.895 277.508 23.26 276.826C13.625 276.144 3.25759 281.865 0.68152 291.172C-1.90718 300.504 3.48489 310.088 9.3947 317.766C18.1584 329.156 28.5763 339.258 40.2318 347.668C42.328 349.184 44.601 350.825 45.3839 353.3C46.773 357.745 42.4543 362.089 37.9967 363.478C32.9455 365.057 27.5156 364.451 22.2498 364.994C16.984 365.524 11.2636 367.721 9.20528 372.596C6.33877 379.351 11.9834 386.549 17.5775 391.297C28.7784 400.806 41.6082 408.37 55.3472 413.573C60.2721 415.442 65.4621 417.083 69.402 420.581C73.3419 424.079 75.6654 430.09 73.1777 434.724C70.69 439.371 64.4771 440.786 59.2997 439.75C54.1223 438.727 49.5258 435.873 44.6136 433.954C35.408 430.368 23.4494 430.822 17.4007 438.626C13.423 443.753 12.9684 450.976 14.8499 457.189C16.7188 463.402 20.6334 468.794 24.8006 473.769C39.3605 491.171 58.138 505.276 79.4916 512.941C100.845 520.606 120.696 522.892 142.151 515.517" fill="#EBEBEB"/>
<path d="M131.935 490.274C126.278 469.994 118.208 448.261 108.977 425.822C106.654 420.215 104.343 414.684 102.083 409.229C99.8097 403.786 97.5493 398.394 95.0111 393.255C89.9853 382.951 84.3533 373.417 78.7213 364.539C73.0893 355.649 67.4194 347.416 62.0652 339.751C56.6858 332.098 51.5463 325.052 46.5835 318.839C36.6833 306.363 27.5156 297.246 20.9617 291.235C17.6911 288.217 15.0772 285.956 13.284 284.454C12.4127 283.721 11.7308 283.166 11.2383 282.749C10.7711 282.37 10.5186 282.193 10.5186 282.193C10.5186 282.193 10.7332 282.421 11.1752 282.825C11.6551 283.254 12.3117 283.848 13.1578 284.605C14.9004 286.171 17.4765 288.469 20.6966 291.525C27.162 297.612 36.2161 306.78 46.0279 319.281C50.9528 325.519 56.0544 332.566 61.3959 340.231C66.7249 347.908 72.3569 356.154 77.951 365.032C83.5451 373.909 89.1392 383.418 94.1398 393.684C96.6527 398.811 98.8879 404.165 101.173 409.62C103.434 415.076 105.732 420.607 108.068 426.201C117.287 448.628 125.368 470.31 131.063 490.527" fill="#E0E0E0"/>
<path d="M94.7709 393.153C94.834 393.153 95.074 392.156 95.4275 390.325C95.7938 388.494 96.2484 385.829 96.7661 382.521C97.8016 375.917 98.9254 366.749 100.15 356.634C101.375 346.519 102.651 337.389 103.825 330.823C104.406 327.539 104.898 324.888 105.277 323.057C105.643 321.226 105.808 320.203 105.744 320.19C105.681 320.177 105.378 321.162 104.898 322.968C104.406 324.774 103.8 327.413 103.131 330.696C101.767 337.25 100.365 346.393 99.1527 356.52C97.9531 366.547 96.8797 375.613 96.0716 382.432C95.6549 385.602 95.3139 388.241 95.0487 390.274C94.8088 392.131 94.7078 393.153 94.7835 393.166L94.7709 393.153Z" fill="#E0E0E0"/>
<path d="M8.44727 375.891C8.44727 375.891 8.75033 375.98 9.33121 376.043C10.0384 376.119 10.8718 376.194 11.8947 376.295C14.1171 376.51 17.3246 376.813 21.2897 377.318C29.2074 378.253 40.1051 379.957 52.0384 382.357C63.9717 384.781 74.6674 387.446 82.3451 389.605C86.1966 390.653 89.2778 391.6 91.4245 392.232C92.3968 392.522 93.2176 392.762 93.8869 392.951C94.4552 393.103 94.7582 393.166 94.7709 393.141C94.7709 393.103 94.5057 392.977 93.9501 392.762C93.2934 392.509 92.4979 392.219 91.5381 391.865C89.4293 391.108 86.3734 390.072 82.5345 388.923C74.8821 386.587 64.1864 383.809 52.2278 381.372C40.2693 378.96 29.321 377.369 21.3655 376.611C17.3877 376.194 14.155 376.005 11.9199 375.904C10.8971 375.879 10.051 375.853 9.34384 375.828C8.75033 375.828 8.44727 375.828 8.44727 375.879V375.891Z" fill="#E0E0E0"/>
<path d="M131 488.658C131 488.658 131.227 488.317 131.581 487.61C131.972 486.814 132.477 485.791 133.096 484.528C134.397 481.851 136.19 477.937 138.337 473.062C142.643 463.326 148.186 449.701 154.109 434.598C160.031 419.483 165.461 405.832 169.603 396.045C171.649 391.247 173.328 387.32 174.553 384.466C175.096 383.178 175.538 382.13 175.892 381.309C176.182 380.589 176.334 380.198 176.296 380.185C176.271 380.172 176.068 380.526 175.702 381.233C175.311 382.029 174.806 383.051 174.187 384.314C172.886 386.991 171.093 390.906 168.946 395.78C164.64 405.516 159.097 419.142 153.174 434.257C147.252 449.373 141.822 463.011 137.693 472.81C135.647 477.608 133.967 481.536 132.743 484.389C132.2 485.677 131.758 486.726 131.404 487.546C131.114 488.266 130.962 488.658 131 488.67V488.658Z" fill="#E0E0E0"/>
<path d="M16.5293 450.345C16.5293 450.345 16.9081 450.534 17.6658 450.799C18.5245 451.09 19.6357 451.469 20.9995 451.936C24.0176 452.946 28.1848 454.335 33.2738 456.027C43.6285 459.487 57.8727 464.45 73.5943 469.968C89.3285 475.487 103.611 480.348 114.041 483.644C119.256 485.298 123.474 486.586 126.416 487.433C127.805 487.824 128.929 488.14 129.801 488.392C130.584 488.594 130.988 488.695 131 488.657C131 488.62 130.621 488.468 129.864 488.203C129.005 487.912 127.906 487.534 126.53 487.066C123.512 486.056 119.357 484.68 114.256 482.975C103.901 479.515 89.6569 474.552 73.9226 469.021C58.201 463.503 43.9064 458.641 33.4884 455.345C28.2731 453.691 24.0555 452.403 21.1132 451.557C19.7241 451.166 18.6003 450.85 17.7289 450.597C16.946 450.395 16.5419 450.294 16.5293 450.332V450.345Z" fill="#E0E0E0"/>
<path d="M682.421 220.972L645.416 315.059L784.995 369.956L822 275.869L682.421 220.972Z" fill="#EBEBEB"/>
<path d="M821.961 277.135C821.961 277.135 821.356 277.432 820.169 277.877C818.856 278.345 817.109 278.973 814.94 279.749C810.237 281.37 803.684 283.642 795.624 286.416C779.139 291.976 756.58 299.568 731.579 307.993L731.053 308.176L730.779 307.696C730.562 307.331 730.334 306.931 730.106 306.532C716.863 283.368 704.876 262.408 696.108 247.076C691.873 239.53 688.414 233.388 685.936 228.981C684.818 226.926 683.916 225.271 683.231 224.027C682.626 222.885 682.329 222.28 682.363 222.257C682.397 222.234 682.785 222.794 683.459 223.89C684.201 225.1 685.171 226.709 686.381 228.719C688.95 233.068 692.535 239.142 696.93 246.596C705.789 261.871 717.89 282.763 731.27 305.858C731.499 306.258 731.727 306.657 731.944 307.023L731.133 306.715C756.181 298.449 778.785 290.972 795.304 285.526C803.421 282.912 810.02 280.788 814.757 279.258C816.961 278.573 818.73 278.037 820.066 277.626C821.288 277.261 821.927 277.101 821.95 277.146L821.961 277.135Z" fill="#E0E0E0"/>
<path d="M645.374 316.338C645.191 316.007 660.763 307.239 680.136 296.748C699.521 286.256 715.378 278.025 715.561 278.356C715.743 278.687 700.172 287.455 680.787 297.947C661.414 308.427 645.545 316.669 645.374 316.338Z" fill="#E0E0E0"/>
<path d="M762.425 295.424C762.79 295.322 768.122 312.195 774.343 333.121C780.565 354.058 785.326 371.103 784.961 371.217C784.595 371.32 779.264 354.446 773.042 333.509C766.82 312.583 762.071 295.527 762.425 295.424Z" fill="#E0E0E0"/>
<path d="M797.967 123.557L706.977 163.177L733.681 224.504L824.671 184.884L797.967 123.557Z" fill="#EBEBEB"/>
<path d="M798.569 124.106C798.569 124.106 798.43 124.523 798.077 125.293C797.685 126.127 797.155 127.238 796.511 128.614C795.071 131.569 793.063 135.698 790.601 140.775C785.487 151.092 778.491 165.197 770.737 180.83L770.573 181.158L770.22 181.057C769.942 180.982 769.652 180.906 769.361 180.83C752.326 176.196 736.908 171.991 725.631 168.922C720.113 167.382 715.63 166.119 712.41 165.21C710.92 164.768 709.733 164.427 708.823 164.161C708.003 163.909 707.586 163.77 707.586 163.732C707.586 163.707 708.04 163.795 708.861 163.985C709.77 164.212 710.983 164.502 712.485 164.869C715.718 165.702 720.239 166.864 725.783 168.303C737.072 171.309 752.516 175.413 769.576 179.959C769.866 180.035 770.169 180.123 770.434 180.186L769.917 180.413C777.759 164.831 784.843 150.751 790.02 140.472C792.596 135.458 794.692 131.367 796.195 128.437C796.902 127.086 797.483 126.013 797.913 125.192C798.317 124.46 798.531 124.068 798.569 124.093V124.106Z" fill="#E0E0E0"/>
<path d="M734.281 225.065C734.041 224.989 737.224 213.612 741.391 199.633C745.558 185.654 749.119 174.39 749.359 174.453C749.599 174.529 746.417 185.906 742.249 199.885C738.082 213.852 734.521 225.128 734.281 225.052V225.065Z" fill="#E0E0E0"/>
<path d="M779.274 160.512C779.388 160.297 789.793 165.689 802.484 172.572C815.188 179.454 825.391 185.212 825.277 185.427C825.164 185.641 814.771 180.249 802.055 173.367C789.351 166.485 779.148 160.727 779.262 160.512H779.274Z" fill="#E0E0E0"/>
<path d="M821.791 516.06C821.791 516.237 639.231 516.389 414.078 516.389C188.924 516.389 6.32617 516.237 6.32617 516.06C6.32617 515.883 188.848 515.732 414.078 515.732C639.307 515.732 821.791 515.883 821.791 516.06Z" fill="#263238"/>
<path d="M134.562 487.786C134.562 487.786 134.41 487.711 134.133 487.534C133.842 487.344 133.438 487.067 132.895 486.713C132.352 486.347 131.67 485.88 130.875 485.337C130.079 484.781 129.119 484.175 128.134 483.354C127.124 482.559 126 481.675 124.763 480.69C123.538 479.692 122.3 478.492 120.899 477.242C118.146 474.704 115.178 471.547 112.097 467.771C105.998 460.207 99.7725 449.815 95.4664 436.631C91.2487 423.473 88.9125 407.587 90.2258 390.199C90.8951 381.524 92.2968 372.457 94.936 363.314C97.5373 354.172 101.225 344.878 106.604 336.114C107.93 333.917 109.42 331.795 110.973 329.686C112.615 327.653 114.257 325.608 115.923 323.549C117.679 321.567 119.51 319.635 121.328 317.64C123.184 315.695 125.192 313.876 127.137 311.957C135.143 304.545 144.159 297.776 153.819 291.538C173.165 279.024 195.024 268.669 217.527 257.885C239.966 246.899 263.605 236.354 287.851 225.697C384.946 183.166 473.82 146.95 538.55 121.795C570.903 109.167 597.295 99.5323 615.567 92.9279C624.71 89.67 631.857 87.2454 636.681 85.5786C639.093 84.7578 640.937 84.1264 642.187 83.7097C642.806 83.5076 643.273 83.3561 643.601 83.2424C643.917 83.1414 644.081 83.1035 644.081 83.1035C644.081 83.1035 643.929 83.1793 643.626 83.3056C643.311 83.4318 642.843 83.596 642.237 83.8359C641 84.2905 639.169 84.9598 636.769 85.8311C631.958 87.5738 624.861 90.1246 615.744 93.4204C597.535 100.164 571.193 109.925 538.891 122.666C474.262 148.036 385.464 184.391 288.381 226.909C264.136 237.567 240.522 248.086 218.082 259.059C195.567 269.831 173.733 280.135 154.476 292.561C144.854 298.761 135.888 305.466 127.92 312.816C125.988 314.71 123.98 316.516 122.136 318.435C120.331 320.405 118.512 322.324 116.769 324.282C115.115 326.327 113.474 328.348 111.857 330.356C110.329 332.427 108.852 334.51 107.539 336.682C102.21 345.32 98.5349 354.525 95.921 363.579C93.2691 372.646 91.8548 381.65 91.1603 390.262C89.7965 407.524 92.0443 423.309 96.1735 436.404C100.379 449.512 106.503 459.879 112.501 467.443C115.532 471.219 118.462 474.388 121.164 476.939C122.54 478.189 123.765 479.414 124.978 480.412C126.202 481.409 127.301 482.306 128.299 483.114C129.271 483.948 130.205 484.579 130.988 485.135C131.771 485.703 132.441 486.17 132.971 486.562C133.489 486.94 133.893 487.231 134.171 487.433C134.436 487.635 134.562 487.736 134.562 487.749V487.786Z" fill="#263238"/>
<path d="M622.866 41.5452L646.24 60.9289L644.081 83.1412L663.237 72.4833L683.644 86.98L759.701 38.1357L622.866 41.5452Z" fill="#171717"/>
<path d="M622.866 41.5452L646.24 60.9289L644.081 83.1412L663.237 72.4833L683.644 86.98L759.701 38.1357L622.866 41.5452Z" fill="black" fill-opacity="0.2"/>
<g opacity="0.5">
<path d="M646.24 60.9287L757.643 38.186L657.593 68.4675L644.081 83.141L646.24 60.9287Z" fill="black"/>
</g>
<g opacity="0.8">
<path d="M657.593 68.4678L663.237 72.4834L644.081 83.1413L657.593 68.4678Z" fill="black"/>
</g>
<path d="M307.267 333.432L185.79 344.958L193.559 426.835L315.035 415.309L307.267 333.432Z" fill="white"/>
<path d="M315.038 415.328C315.038 415.328 314.949 414.798 314.848 413.813C314.735 412.778 314.583 411.338 314.381 409.469C313.99 405.63 313.421 400.074 312.702 392.977C311.287 378.733 309.28 358.327 306.817 333.488L307.31 333.892C273.77 337.099 231.581 341.153 185.855 345.522C185.729 345.648 186.815 344.36 186.361 344.916V344.941V344.979V345.067L186.386 345.244L186.424 345.585L186.487 346.267L186.613 347.631L186.866 350.359C187.043 352.177 187.207 353.983 187.383 355.776C187.724 359.375 188.065 362.948 188.394 366.497C189.063 373.594 189.72 380.577 190.376 387.434C191.664 401.135 192.902 414.318 194.076 426.795L193.508 426.327C229.219 423.044 259.526 420.253 280.955 418.283C291.651 417.324 300.137 416.566 305.996 416.048C308.875 415.808 311.111 415.606 312.676 415.48C313.409 415.43 313.977 415.379 314.419 415.341C314.811 415.316 315.013 415.303 315.025 415.316C315.025 415.316 314.848 415.354 314.482 415.404C314.066 415.455 313.51 415.518 312.803 415.594C311.262 415.758 309.065 415.985 306.236 416.276C300.402 416.856 291.967 417.715 281.334 418.776C259.829 420.885 229.421 423.852 193.596 427.35L193.079 427.401L193.028 426.883C191.828 414.407 190.566 401.236 189.265 387.535C188.608 380.678 187.952 373.695 187.27 366.598C186.929 363.049 186.588 359.476 186.247 355.877C186.07 354.071 185.906 352.265 185.729 350.46L185.477 347.732L185.35 346.368L185.287 345.686L185.249 345.345V345.168L185.224 345.08V345.042V345.017C184.769 345.56 185.843 344.247 185.742 344.386C231.48 340.092 273.682 336.127 307.221 332.97L307.676 332.932L307.714 333.387C309.987 358.365 311.843 378.885 313.144 393.205C313.762 400.264 314.255 405.795 314.583 409.621C314.735 411.452 314.848 412.879 314.937 413.889C315.013 414.849 315.025 415.316 315.025 415.316L315.038 415.328Z" fill="#455A64"/>
<path d="M307.259 333.45C307.259 333.45 306.969 333.892 306.324 334.662C305.605 335.508 304.645 336.62 303.458 337.996C300.857 340.951 297.22 345.08 292.75 350.157C283.531 360.461 270.891 374.591 256.811 390.351L256.495 390.704L256.091 390.452C255.068 389.795 253.97 389.101 252.858 388.394C234.333 376.511 217.564 365.752 205.302 357.897C199.329 353.995 194.455 350.826 190.957 348.54C189.353 347.467 188.065 346.608 187.093 345.951C186.222 345.345 185.767 345.017 185.78 344.979C185.805 344.941 186.297 345.219 187.206 345.749C188.217 346.356 189.53 347.164 191.184 348.161C194.72 350.359 199.658 353.44 205.719 357.215C218.018 365.007 234.851 375.665 253.452 387.434C254.563 388.141 255.662 388.848 256.685 389.492L255.965 389.593C270.146 373.935 282.875 359.88 292.169 349.639C296.753 344.663 300.478 340.61 303.142 337.706C304.392 336.38 305.39 335.319 306.16 334.511C306.855 333.791 307.234 333.425 307.272 333.45H307.259Z" fill="#455A64"/>
<path d="M564.055 215.163L547.644 273.237L633.813 297.588L650.224 239.514L564.055 215.163Z" fill="white"/>
<path d="M633.827 297.599C633.827 297.599 633.915 297.221 634.092 296.513C634.294 295.781 634.572 294.745 634.926 293.42C635.671 290.692 636.769 286.739 638.158 281.688C640.974 271.573 645.003 257.077 649.915 239.436L650.142 239.84C626.351 233.134 596.411 224.712 563.97 215.569C563.856 215.632 564.93 215.026 564.475 215.291V215.342V215.405L564.425 215.531L564.361 215.771L564.223 216.251L563.945 217.223L563.402 219.155C563.036 220.444 562.682 221.719 562.316 222.994C561.596 225.545 560.876 228.083 560.169 230.596C558.742 235.635 557.34 240.585 555.964 245.447C553.211 255.17 550.559 264.502 548.046 273.354L547.781 272.887C573.087 280.122 594.555 286.26 609.733 290.591C617.31 292.776 623.308 294.506 627.463 295.705C629.496 296.299 631.074 296.766 632.185 297.094C632.703 297.246 633.107 297.372 633.41 297.46C633.688 297.549 633.827 297.599 633.84 297.599C633.84 297.599 633.713 297.574 633.448 297.511C633.145 297.435 632.754 297.334 632.248 297.195C631.15 296.892 629.584 296.475 627.576 295.92C623.434 294.771 617.436 293.116 609.872 291.02C594.605 286.752 573.011 280.716 547.579 273.607L547.213 273.506L547.314 273.139C549.802 264.287 552.441 254.943 555.181 245.219C556.557 240.358 557.947 235.407 559.373 230.369C560.081 227.856 560.8 225.318 561.52 222.767C561.886 221.492 562.24 220.204 562.606 218.928L563.149 216.996L563.427 216.024L563.566 215.544L563.629 215.304L563.667 215.178V215.115L563.692 215.089C563.238 215.329 564.324 214.71 564.21 214.786C596.638 223.979 626.566 232.478 650.344 239.221L650.66 239.309L650.571 239.625C645.495 257.317 641.328 271.839 638.411 281.991C636.959 286.979 635.822 290.894 635.039 293.596C634.66 294.897 634.357 295.895 634.143 296.614C633.941 297.284 633.827 297.612 633.827 297.612V297.599Z" fill="#455A64"/>
<path d="M650.243 239.524C650.243 239.524 649.927 239.751 649.283 240.105C648.563 240.496 647.616 241.001 646.442 241.633C643.878 242.971 640.292 244.828 635.885 247.113C626.843 251.722 614.443 258.036 600.641 265.07L600.325 265.234L600.11 264.944C599.58 264.224 599.012 263.454 598.443 262.671C588.922 249.626 580.31 237.819 574.009 229.182C570.953 224.926 568.465 221.466 566.684 218.979C565.876 217.817 565.22 216.882 564.727 216.175C564.285 215.531 564.07 215.178 564.096 215.165C564.121 215.152 564.386 215.468 564.866 216.074C565.396 216.756 566.078 217.653 566.95 218.776C568.781 221.226 571.344 224.636 574.488 228.828C580.84 237.428 589.528 249.184 599.125 262.166C599.694 262.948 600.262 263.719 600.792 264.439L600.274 264.312C614.14 257.367 626.565 251.129 635.645 246.583C640.102 244.398 643.727 242.605 646.315 241.33C647.528 240.749 648.487 240.294 649.232 239.941C649.902 239.638 650.255 239.486 650.268 239.511L650.243 239.524Z" fill="#455A64"/>
<path d="M195.806 201.312C195.806 201.312 201.741 196.501 210.96 210.935C220.165 225.368 223.941 233.841 223.941 233.841C223.941 233.841 226.29 236.822 228.272 234.536C230.255 232.25 232.68 226.063 236.493 226.757C240.446 227.49 242.138 231.657 242.011 238.047C241.885 244.436 242.138 258.44 242.163 259.703C242.188 260.941 243.072 262.696 244.676 261.357C246.28 260.019 255.081 248.073 260.499 252.581C265.916 257.102 262.645 274.844 262.33 276.789C262.014 278.733 262.456 279.504 263.403 279.895C264.35 280.274 266.926 275.98 269.578 272.685C272.217 269.389 275.867 266.03 278.771 268.896C281.675 271.763 283.772 284.63 273.48 306.868L268.037 316.857L256.622 317.324C232.124 316.844 221.466 309.33 220.165 305.454C218.865 301.59 223.474 299.784 227.591 298.849C231.707 297.915 236.708 297.473 236.771 296.463C236.847 295.44 236.342 294.695 234.447 294.139C232.553 293.571 215.177 288.747 213.485 281.89C211.793 275.046 226.391 272.356 228.298 271.51C230.204 270.664 229.018 269.098 227.919 268.53C226.795 267.949 214.306 261.597 208.51 258.908C202.714 256.218 199.696 252.872 200.769 248.995C201.805 245.257 208.434 245.787 211.364 245.004C214.293 244.222 212.639 240.799 212.639 240.799C212.639 240.799 206.679 233.69 197.738 219.092C188.798 204.494 195.907 201.211 195.907 201.211" fill="#171717"/>
<path d="M195.806 201.312C195.806 201.312 201.741 196.501 210.96 210.935C220.165 225.368 223.941 233.841 223.941 233.841C223.941 233.841 226.29 236.822 228.272 234.536C230.255 232.25 232.68 226.063 236.493 226.757C240.446 227.49 242.138 231.657 242.011 238.047C241.885 244.436 242.138 258.44 242.163 259.703C242.188 260.941 243.072 262.696 244.676 261.357C246.28 260.019 255.081 248.073 260.499 252.581C265.916 257.102 262.645 274.844 262.33 276.789C262.014 278.733 262.456 279.504 263.403 279.895C264.35 280.274 266.926 275.98 269.578 272.685C272.217 269.389 275.867 266.03 278.771 268.896C281.675 271.763 283.772 284.63 273.48 306.868L268.037 316.857L256.622 317.324C232.124 316.844 221.466 309.33 220.165 305.454C218.865 301.59 223.474 299.784 227.591 298.849C231.707 297.915 236.708 297.473 236.771 296.463C236.847 295.44 236.342 294.695 234.447 294.139C232.553 293.571 215.177 288.747 213.485 281.89C211.793 275.046 226.391 272.356 228.298 271.51C230.204 270.664 229.018 269.098 227.919 268.53C226.795 267.949 214.306 261.597 208.51 258.908C202.714 256.218 199.696 252.872 200.769 248.995C201.805 245.257 208.434 245.787 211.364 245.004C214.293 244.222 212.639 240.799 212.639 240.799C212.639 240.799 206.679 233.69 197.738 219.092C188.798 204.494 195.907 201.211 195.907 201.211" fill="black" fill-opacity="0.2"/>
<path d="M204.077 214.218C204.077 214.218 204.128 214.331 204.254 214.533C204.38 214.748 204.557 215.051 204.784 215.443C205.264 216.251 205.971 217.413 206.868 218.915C208.686 221.921 211.338 226.265 214.647 231.606C221.251 242.302 230.507 257.001 240.786 273.202C251.065 289.404 260.359 304.09 267.014 314.748C270.335 320.064 273.025 324.383 274.894 327.375C275.816 328.853 276.535 330.002 277.041 330.81C277.28 331.189 277.47 331.48 277.609 331.694C277.735 331.896 277.811 331.985 277.811 331.985C277.811 331.985 277.76 331.871 277.634 331.669C277.508 331.454 277.331 331.151 277.104 330.76C276.624 329.952 275.917 328.79 275.02 327.287C273.202 324.282 270.55 319.938 267.241 314.596C260.637 303.9 251.381 289.202 241.102 272.988C230.823 256.786 221.541 242.113 214.874 231.455C211.553 226.138 208.863 221.82 206.994 218.827C206.072 217.349 205.353 216.2 204.847 215.392C204.608 215.013 204.418 214.723 204.279 214.508C204.153 214.306 204.077 214.218 204.077 214.218Z" fill="#263238"/>
<path d="M233.462 235.546C233.462 235.546 233.361 235.824 233.248 236.342C233.134 236.86 232.983 237.605 232.806 238.539C232.465 240.395 232.061 242.984 231.669 245.838C231.303 248.654 230.962 251.192 230.697 253.15C230.583 254.021 230.482 254.753 230.394 255.359C230.318 255.877 230.293 256.168 230.318 256.18C230.343 256.18 230.419 255.902 230.545 255.385C230.659 254.867 230.811 254.122 230.975 253.187C231.303 251.319 231.669 248.742 232.061 245.889C232.452 243.085 232.806 240.547 233.084 238.59C233.21 237.718 233.311 236.986 233.399 236.38C233.475 235.862 233.5 235.559 233.475 235.559L233.462 235.546Z" fill="#263238"/>
<path d="M229.308 256.483C229.333 256.382 224.042 255.309 217.514 254.097C210.973 252.884 205.669 251.988 205.644 252.089C205.618 252.19 210.909 253.263 217.438 254.475C223.967 255.688 229.283 256.584 229.308 256.483Z" fill="#263238"/>
<path d="M246.204 280.653C246.204 280.653 245.901 280.653 245.358 280.691C244.739 280.754 243.981 280.83 243.085 280.918C241.165 281.107 238.513 281.347 235.584 281.524C232.654 281.701 229.99 281.764 228.058 281.802C227.161 281.815 226.391 281.84 225.772 281.852C225.229 281.865 224.938 281.89 224.938 281.916C224.938 281.941 225.242 281.966 225.772 282.004C226.315 282.029 227.098 282.067 228.058 282.08C229.99 282.118 232.654 282.08 235.596 281.916C238.539 281.751 241.19 281.448 243.11 281.196C244.07 281.07 244.84 280.943 245.37 280.855C245.901 280.766 246.191 280.691 246.191 280.665L246.204 280.653Z" fill="#263238"/>
<path d="M254.135 262.544C254.135 262.544 253.97 262.772 253.743 263.214C253.516 263.656 253.2 264.312 252.821 265.108C252.051 266.712 251.015 268.947 249.892 271.422C248.768 273.897 247.77 276.145 247.063 277.786C246.709 278.607 246.432 279.276 246.242 279.731C246.053 280.198 245.964 280.451 245.99 280.463C246.015 280.463 246.154 280.236 246.381 279.794C246.608 279.352 246.924 278.708 247.303 277.9C248.073 276.296 249.109 274.061 250.233 271.586C251.356 269.111 252.354 266.863 253.049 265.222C253.402 264.401 253.68 263.731 253.869 263.277C254.059 262.81 254.147 262.557 254.122 262.544H254.135Z" fill="#263238"/>
<path d="M271.763 281.991C271.763 281.991 271.561 282.294 271.283 282.863C270.967 283.507 270.563 284.315 270.083 285.287C269.086 287.345 267.734 290.199 266.27 293.356C264.805 296.513 263.491 299.392 262.557 301.476C262.128 302.474 261.761 303.294 261.471 303.951C261.218 304.544 261.092 304.873 261.117 304.885C261.143 304.885 261.319 304.582 261.597 304.014C261.913 303.37 262.317 302.562 262.797 301.59C263.795 299.531 265.146 296.677 266.611 293.52C268.075 290.363 269.389 287.484 270.323 285.401C270.752 284.403 271.119 283.582 271.409 282.926C271.662 282.332 271.788 282.004 271.763 281.991Z" fill="#263238"/>
<path d="M261.231 304.254C261.231 304.254 260.852 304.241 260.17 304.279C259.412 304.33 258.44 304.38 257.278 304.456C254.841 304.608 251.469 304.81 247.744 304.923C244.019 305.05 240.635 305.062 238.198 305.062C237.036 305.062 236.064 305.062 235.306 305.062C234.624 305.062 234.245 305.087 234.245 305.113C234.245 305.138 234.624 305.176 235.306 305.214C235.988 305.252 236.973 305.302 238.198 305.327C240.647 305.403 244.032 305.416 247.769 305.302C251.507 305.188 254.879 304.948 257.316 304.721C258.541 304.608 259.526 304.507 260.195 304.418C260.877 304.33 261.243 304.279 261.243 304.254H261.231Z" fill="#263238"/>
<path d="M637.413 315.215C633.17 313.258 628.119 313.561 623.788 315.316C619.457 317.071 615.782 320.165 612.675 323.663C606.665 330.419 603.318 340.268 601.639 349.146C611.602 350.371 621.338 343.981 626.073 340.433C633.562 334.826 643.677 320.127 637.413 315.215Z" fill="#171717"/>
<path d="M637.413 315.215C633.17 313.258 628.119 313.561 623.788 315.316C619.457 317.071 615.782 320.165 612.675 323.663C606.665 330.419 603.318 340.268 601.639 349.146C611.602 350.371 621.338 343.981 626.073 340.433C633.562 334.826 643.677 320.127 637.413 315.215Z" fill="black" fill-opacity="0.2"/>
<path d="M583.619 352.631C588.38 350.484 591.486 345.408 591.852 340.193C592.218 334.99 590.046 329.775 586.548 325.911C584.932 324.118 582.785 322.489 580.373 322.615C578.126 322.728 576.168 324.421 575.221 326.479C574.274 328.525 574.199 330.873 574.426 333.121C575.183 340.824 577.33 348.136 583.619 352.631Z" fill="#171717"/>
<path d="M583.619 352.631C588.38 350.484 591.486 345.408 591.852 340.193C592.218 334.99 590.046 329.775 586.548 325.911C584.932 324.118 582.785 322.489 580.373 322.615C578.126 322.728 576.168 324.421 575.221 326.479C574.274 328.525 574.199 330.873 574.426 333.121C575.183 340.824 577.33 348.136 583.619 352.631Z" fill="black" fill-opacity="0.2"/>
<path d="M570.537 377.76C570.537 377.76 571.042 377.293 571.787 376.333C572.545 375.374 573.605 373.972 574.868 372.191C577.356 368.63 580.765 363.554 583.051 357.215C585.337 350.863 585.539 344.549 584.566 340.243C584.112 338.084 583.468 336.404 582.925 335.306C582.382 334.207 581.99 333.651 581.94 333.677C581.75 333.765 583.165 336.126 583.872 340.369C584.629 344.587 584.326 350.674 582.104 356.861C579.869 363.049 576.611 368.125 574.275 371.775C571.901 375.411 570.41 377.659 570.537 377.748V377.76Z" fill="#263238"/>
<path d="M628.422 325.532C628.422 325.532 627.488 326.138 625.897 327.388C624.318 328.638 622.058 330.469 619.28 332.78C613.749 337.389 606.197 343.88 598.04 351.242C589.882 358.617 582.672 365.473 577.532 370.512C574.956 373.037 572.898 375.096 571.509 376.548C570.107 378 569.362 378.821 569.413 378.872C569.463 378.922 570.309 378.19 571.787 376.838C573.39 375.348 575.499 373.391 578.037 371.042C583.303 366.13 590.589 359.374 598.734 352C606.879 344.638 614.342 338.071 619.76 333.336C622.361 331.05 624.52 329.156 626.162 327.704C627.665 326.365 628.473 325.595 628.435 325.544L628.422 325.532Z" fill="#263238"/>
<path d="M589.352 366.257C598.47 360.094 610.643 358.731 620.897 362.734C623.511 363.756 626.339 365.625 626.39 368.429C626.44 371.232 623.649 373.202 621.048 374.25C610.201 378.594 596.828 375.526 588.948 366.901" fill="#171717"/>
<path d="M589.352 366.257C598.47 360.094 610.643 358.731 620.897 362.734C623.511 363.756 626.339 365.625 626.39 368.429C626.44 371.232 623.649 373.202 621.048 374.25C610.201 378.594 596.828 375.526 588.948 366.901" fill="black" fill-opacity="0.2"/>
<path d="M614.128 367.822C614.153 367.759 613.572 367.469 612.499 367.014C611.968 366.774 611.299 366.509 610.491 366.282C609.695 366.042 608.799 365.713 607.763 365.524C605.717 365.019 603.23 364.703 600.452 364.602C597.674 364.564 594.605 364.792 591.448 365.436C588.304 366.117 585.412 367.153 582.874 368.315C580.373 369.527 578.214 370.828 576.547 372.116C575.676 372.709 574.994 373.366 574.35 373.909C573.706 374.439 573.213 374.957 572.809 375.386C572.014 376.245 571.597 376.737 571.648 376.788C571.787 376.927 573.567 375.045 576.951 372.697C578.631 371.51 580.778 370.297 583.24 369.161C585.728 368.075 588.569 367.09 591.625 366.421C594.693 365.789 597.686 365.549 600.401 365.537C603.116 365.574 605.566 365.814 607.586 366.219C611.64 366.989 614.027 367.999 614.09 367.81L614.128 367.822Z" fill="#263238"/>
<path d="M580.966 91.2988H261.812V441.253H580.966V91.2988Z" fill="#F7F7F7"/>
<path d="M580.954 441.24C580.954 438.753 580.84 300.415 580.663 91.2863L580.954 91.5768C487.369 91.5768 378.063 91.602 261.837 91.6147H261.799L262.127 91.2863C262.115 220.052 262.089 340.319 262.077 441.24L261.799 440.963C453.716 441.127 578.58 441.24 580.954 441.24C578.593 441.24 453.729 441.354 261.799 441.518H261.521V441.24C261.509 340.319 261.496 220.065 261.471 91.2863V90.958H261.837C378.063 90.9706 487.369 90.9833 580.954 90.9959H581.244V91.2863C581.068 300.415 580.954 438.753 580.954 441.24Z" fill="#263238"/>
<path d="M494.643 368.858H372.683C362.564 368.858 354.36 377.061 354.36 387.181V390.893C354.36 401.013 362.564 409.216 372.683 409.216H494.643C504.762 409.216 512.965 401.013 512.965 390.893V387.181C512.965 377.061 504.762 368.858 494.643 368.858Z" fill="#6E6E6E"/>
<g opacity="0.5">
<path d="M494.643 368.858H372.683C362.564 368.858 354.36 377.061 354.36 387.181V390.893C354.36 401.013 362.564 409.216 372.683 409.216H494.643C504.762 409.216 512.965 401.013 512.965 390.893V387.181C512.965 377.061 504.762 368.858 494.643 368.858Z" fill="black"/>
</g>
<path d="M481.333 368.858H359.374C349.254 368.858 341.051 377.061 341.051 387.181V390.893C341.051 401.013 349.254 409.216 359.374 409.216H481.333C491.452 409.216 499.656 401.013 499.656 390.893V387.181C499.656 377.061 491.452 368.858 481.333 368.858Z" fill="#6E6E6E"/>
<path d="M384.819 391.651L385.362 390.451C386.032 390.994 387.092 391.373 388.128 391.373C389.428 391.373 389.984 390.906 389.984 390.287C389.984 388.481 385.009 389.668 385.009 386.562C385.009 385.211 386.082 384.062 388.38 384.062C389.378 384.062 390.439 384.327 391.159 384.807L390.666 386.019C389.908 385.577 389.088 385.362 388.355 385.362C387.067 385.362 386.537 385.867 386.537 386.499C386.537 388.279 391.499 387.117 391.499 390.186C391.499 391.525 390.413 392.674 388.115 392.674C386.815 392.674 385.514 392.27 384.819 391.663V391.651Z" fill="#F7F7F7"/>
<path d="M392.964 388.899V384.176H394.517V388.835C394.517 390.553 395.287 391.298 396.639 391.298C397.99 391.298 398.747 390.553 398.747 388.835V384.176H400.275V388.899C400.275 391.336 398.899 392.662 396.626 392.662C394.353 392.662 392.964 391.336 392.964 388.899Z" fill="#F7F7F7"/>
<path d="M409.898 390.275C409.898 391.714 408.774 392.548 406.627 392.548H402.473V384.188H406.387C408.395 384.188 409.468 385.034 409.468 386.36C409.468 387.219 409.039 387.85 408.395 388.204C409.292 388.494 409.898 389.201 409.898 390.287V390.275ZM404.026 385.4V387.711H406.223C407.296 387.711 407.903 387.332 407.903 386.562C407.903 385.792 407.296 385.4 406.223 385.4H404.026ZM408.332 390.11C408.332 389.277 407.701 388.911 406.526 388.911H404.013V391.323H406.526C407.701 391.323 408.332 390.956 408.332 390.11Z" fill="#F7F7F7"/>
<path d="M410.857 391.651L411.4 390.451C412.07 390.994 413.13 391.373 414.166 391.373C415.467 391.373 416.022 390.906 416.022 390.287C416.022 388.481 411.047 389.668 411.047 386.562C411.047 385.211 412.12 384.062 414.418 384.062C415.416 384.062 416.477 384.327 417.197 384.807L416.704 386.019C415.946 385.577 415.126 385.362 414.393 385.362C413.105 385.362 412.575 385.867 412.575 386.499C412.575 388.279 417.538 387.117 417.538 390.186C417.538 391.525 416.452 392.674 414.153 392.674C412.853 392.674 411.552 392.27 410.857 391.663V391.651Z" fill="#F7F7F7"/>
<path d="M418.485 388.355C418.485 385.855 420.392 384.049 422.968 384.049C424.332 384.049 425.506 384.542 426.277 385.451L425.279 386.398C424.673 385.741 423.915 385.413 423.044 385.413C421.314 385.413 420.064 386.625 420.064 388.355C420.064 390.085 421.314 391.298 423.044 391.298C423.915 391.298 424.673 390.982 425.279 390.3L426.277 391.26C425.494 392.169 424.332 392.661 422.956 392.661C420.392 392.661 418.485 390.856 418.485 388.355Z" fill="#F7F7F7"/>
<path d="M433.247 392.535L431.542 390.086C431.441 390.086 431.328 390.086 431.227 390.086H429.332V392.523H427.779V384.163H431.214C433.411 384.163 434.775 385.287 434.775 387.143C434.775 388.406 434.131 389.34 432.995 389.782L434.914 392.535H433.247ZM431.151 385.489H429.332V388.823H431.151C432.515 388.823 433.222 388.204 433.222 387.156C433.222 386.108 432.515 385.489 431.151 385.489Z" fill="#F7F7F7"/>
<path d="M436.518 384.175H438.071V392.535H436.518V384.175Z" fill="#F7F7F7"/>
<path d="M447.756 390.275C447.756 391.714 446.632 392.548 444.486 392.548H440.331V384.188H444.246C446.253 384.188 447.327 385.034 447.327 386.36C447.327 387.219 446.898 387.85 446.253 388.204C447.15 388.494 447.756 389.201 447.756 390.287V390.275ZM441.884 385.4V387.711H444.082C445.155 387.711 445.761 387.332 445.761 386.562C445.761 385.792 445.155 385.4 444.082 385.4H441.884ZM446.19 390.11C446.19 389.277 445.559 388.911 444.385 388.911H441.872V391.323H444.385C445.559 391.323 446.19 390.956 446.19 390.11Z" fill="#F7F7F7"/>
<path d="M455.699 391.234V392.535H449.423V384.175H455.522V385.476H450.976V387.648H455.017V388.923H450.976V391.234H455.699Z" fill="#F7F7F7"/>
<path d="M514.254 341.948C514.254 342.125 473.669 342.276 423.612 342.276C373.555 342.276 332.957 342.125 332.957 341.948C332.957 341.771 373.53 341.62 423.612 341.62C473.694 341.62 514.254 341.771 514.254 341.948Z" fill="#263238"/>
<path d="M542.616 352.909C542.616 353.086 489.327 353.237 423.612 353.237C357.897 353.237 304.595 353.086 304.595 352.909C304.595 352.732 357.871 352.581 423.612 352.581C489.352 352.581 542.616 352.732 542.616 352.909Z" fill="#263238"/>
<path d="M276.814 104.912C276.814 106.402 275.602 107.614 274.112 107.614C272.621 107.614 271.409 106.402 271.409 104.912C271.409 103.422 272.621 102.209 274.112 102.209C275.602 102.209 276.814 103.422 276.814 104.912Z" fill="#F1F1F1"/>
<path d="M283.114 107.614C284.607 107.614 285.817 106.404 285.817 104.912C285.817 103.419 284.607 102.209 283.114 102.209C281.622 102.209 280.412 103.419 280.412 104.912C280.412 106.404 281.622 107.614 283.114 107.614Z" fill="#F1F1F1"/>
<path d="M294.833 104.912C294.833 106.402 293.621 107.614 292.131 107.614C290.641 107.614 289.429 106.402 289.429 104.912C289.429 103.422 290.641 102.209 292.131 102.209C293.621 102.209 294.833 103.422 294.833 104.912Z" fill="#F1F1F1"/>
<path d="M191.314 99.0318C187.56 103.742 181.275 107.528 175.296 107.968C171.084 108.276 166.807 106.317 163.228 104.028C159.649 101.739 157.379 96.9848 159.038 93.0449C152.578 98.9217 142.3 100 134.771 95.5981C127.242 91.1961 123.052 81.6656 124.885 73.1036C126.719 64.5195 134.422 57.5863 143.086 56.7058C139.616 46.9332 141.536 35.0917 148.803 27.7402C156.07 20.3888 168.64 18.6059 177.042 24.6147C185.443 30.6236 187.669 44.1819 180.86 51.9736C188.477 48.452 198.646 52.6559 201.592 60.5797C204.538 68.5034 199.65 78.4301 191.619 80.8292C191.619 80.8292 197.598 91.13 191.314 99.0538V99.0318Z" fill="#EBEBEB"/>
<path d="M757.856 461.032C754.103 465.742 747.818 469.528 741.839 469.968C737.627 470.276 733.35 468.317 729.771 466.028C726.192 463.739 723.922 458.985 725.581 455.045C719.121 460.922 708.843 462 701.314 457.598C693.785 453.196 689.595 443.666 691.428 435.104C693.262 426.52 700.965 419.586 709.628 418.706C706.159 408.933 708.079 397.092 715.346 389.74C722.613 382.389 735.183 380.606 743.584 386.615C751.986 392.624 754.212 406.182 747.403 413.974C755.02 410.452 765.189 414.656 768.135 422.58C771.081 430.503 766.193 440.43 758.162 442.829C758.162 442.829 764.141 453.13 757.856 461.054V461.032Z" fill="#EBEBEB"/>
<path d="M126.676 264.318L161.335 232.062L152.564 219.076L139.641 210.213L107.14 244.642C107.14 244.642 75.866 230.707 55.5109 253.635C40.1684 270.907 44.4806 288.24 54.215 302.386C58.0923 308.005 62.9665 312.914 68.5579 316.831C82.5961 326.665 99.8981 331.1 117.317 315.882C140.37 295.709 126.676 264.318 126.676 264.318Z" fill="#1D1D1D"/>
<path opacity="0.7" d="M126.676 264.318L161.335 232.062L152.564 219.076L139.641 210.213L107.14 244.642C107.14 244.642 75.866 230.707 55.5109 253.635C40.1684 270.907 44.4806 288.24 54.215 302.386C58.0923 308.005 62.9665 312.914 68.5579 316.831C82.5961 326.665 99.8981 331.1 117.317 315.882C140.37 295.709 126.676 264.318 126.676 264.318Z" fill="white"/>
<path d="M123.501 263.635L157.312 231.022L149.082 221.894L140.371 213.883L107.765 248.016C107.765 248.016 77.3457 234.751 58.7184 255.724C43.8692 272.426 49.124 289.222 59.1112 302.519C61.7894 306.092 64.9456 309.271 68.5 311.974C81.7051 322.036 98.4641 327.409 115.291 312.699C136.395 294.221 123.521 263.655 123.521 263.655L123.501 263.635Z" fill="#1D1D1D"/>
<path d="M166.483 228.067L143.051 204.468C141.55 202.957 139.174 202.883 137.744 204.304L136.848 205.193C135.418 206.613 135.474 208.99 136.975 210.501L160.407 234.1C161.907 235.611 164.283 235.685 165.714 234.264L166.609 233.375C168.04 231.955 167.983 229.578 166.483 228.067Z" fill="#1D1D1D"/>
<path opacity="0.7" d="M166.483 228.067L143.051 204.468C141.55 202.957 139.174 202.883 137.744 204.304L136.848 205.193C135.418 206.613 135.474 208.99 136.975 210.501L160.407 234.1C161.907 235.611 164.283 235.685 165.714 234.264L166.609 233.375C168.04 231.955 167.983 229.578 166.483 228.067Z" fill="white"/>
<path opacity="0.3" d="M138.234 211.769L136.447 213.664L157.901 235.271L159.809 233.497L138.234 211.769Z" fill="black"/>
<path opacity="0.3" d="M152.158 216.762L143.688 208.232C143.302 207.843 142.691 207.824 142.323 208.19L142.075 208.436C141.707 208.801 141.721 209.413 142.108 209.802L150.577 218.332C150.964 218.721 151.575 218.74 151.943 218.374L152.191 218.128C152.559 217.763 152.544 217.151 152.158 216.762Z" fill="white"/>
<path d="M58.7393 255.744C43.8901 272.445 49.1449 289.242 59.1321 302.539C61.8103 306.112 64.9665 309.291 68.5209 311.994C81.726 322.055 98.4851 327.429 115.312 312.719L58.7592 255.764L58.7393 255.744Z" fill="#1D1D1D"/>
<path opacity="0.5" d="M70.0622 310.423C66.5078 307.72 63.3516 304.541 60.6734 300.968C51.0286 288.13 45.8096 272.017 58.8586 255.864L58.7188 255.724C43.8696 272.425 49.1244 289.222 59.1115 302.519C61.7898 306.092 64.946 309.271 68.5003 311.974C81.7055 322.035 98.4645 327.409 115.291 312.699L115.151 312.558C98.9063 325.492 82.8307 320.159 70.0622 310.423Z" fill="white"/>
<path d="M85.245 285.562C100.779 301.207 114.071 313.195 114.933 312.338C115.796 311.482 103.902 298.105 88.3687 282.461C72.8348 266.816 59.5429 254.828 58.6803 255.685C57.8177 256.541 69.7112 269.918 85.245 285.562Z" fill="#1D1D1D"/>
<path opacity="0.3" d="M85.245 285.562C100.779 301.207 114.071 313.195 114.933 312.338C115.796 311.482 103.902 298.105 88.3687 282.461C72.8348 266.816 59.5429 254.828 58.6803 255.685C57.8177 256.541 69.7112 269.918 85.245 285.562Z" fill="black"/>
<g opacity="0.3">
<path d="M99.8022 253.443C100.625 255.263 100.54 257.425 99.2489 258.867C97.9575 260.309 96.043 260.971 94.1202 261.282C92.1974 261.593 90.2281 261.591 88.3062 261.941C86.015 262.338 83.8911 263.209 81.6644 263.861C79.4568 264.495 77.0686 264.909 74.7741 264.35C72.4796 263.792 70.2753 262.105 69.6551 259.804C68.9257 257.013 70.6938 254.298 72.7755 252.471C78.9625 247.007 88.7847 246.004 96.4652 250.044C96.4652 250.044 98.8373 251.405 99.7832 253.462L99.8022 253.443Z" fill="white"/>
</g>
<path d="M78.0967 311.393C87.7512 315.631 97.86 316.022 107.41 312.573C99.4289 318.859 86.2553 318.315 78.0967 311.393Z" fill="white"/>
<path d="M109.702 312.214C112.599 315.131 116.884 310.876 113.988 307.959C111.091 305.042 106.806 309.297 109.702 312.214Z" fill="white"/>
<path opacity="0.3" d="M150.045 182.142C151.272 183.721 152.48 185.318 153.707 186.897" stroke="#007CFF" stroke-width="0.25" stroke-linecap="round" stroke-linejoin="round"/>
<path opacity="0.3" d="M156.958 186.666C157.582 185.008 158.224 183.332 158.848 181.674" stroke="#007CFF" stroke-width="0.25" stroke-linecap="round" stroke-linejoin="round"/>
<path opacity="0.3" d="M165.433 188.915C163.529 189.207 161.625 189.5 159.682 189.791" stroke="#007CFF" stroke-width="0.25" stroke-linecap="round" stroke-linejoin="round"/>
<path opacity="0.3" d="M155.187 193.3C154.504 194.936 153.783 196.572 153.1 198.208" stroke="#007CFF" stroke-width="0.25" stroke-linecap="round" stroke-linejoin="round"/>
<path opacity="0.3" d="M147.192 190.848C149.116 190.615 151.042 190.421 152.967 190.188" stroke="#007CFF" stroke-width="0.25" stroke-linecap="round" stroke-linejoin="round"/>
<path opacity="0.3" d="M158.528 192.818C159.771 194.221 160.974 195.624 162.216 197.027" stroke="#007CFF" stroke-width="0.25" stroke-linecap="round" stroke-linejoin="round"/>
<g opacity="0.3">
<path d="M174.282 210.816C174.845 211.536 175.409 212.294 175.972 213.014" stroke="#007CFF" stroke-width="0.25" stroke-linecap="round" stroke-linejoin="round"/>
<path d="M177.489 212.904C177.783 212.133 178.077 211.362 178.37 210.591" stroke="#007CFF" stroke-width="0.25" stroke-linecap="round" stroke-linejoin="round"/>
<path d="M181.415 213.962C180.521 214.09 179.647 214.239 178.753 214.367" stroke="#007CFF" stroke-width="0.25" stroke-linecap="round" stroke-linejoin="round"/>
<path d="M176.686 215.979C176.372 216.73 176.039 217.5 175.726 218.25" stroke="#007CFF" stroke-width="0.25" stroke-linecap="round" stroke-linejoin="round"/>
<path d="M172.973 214.831C173.868 214.742 174.742 214.633 175.656 214.524" stroke="#007CFF" stroke-width="0.25" stroke-linecap="round" stroke-linejoin="round"/>
<path d="M178.201 215.754C178.762 216.395 179.344 217.057 179.905 217.698" stroke="#007CFF" stroke-width="0.25" stroke-linecap="round" stroke-linejoin="round"/>
</g>
<path d="M180.926 191.032C181.489 191.751 182.053 192.51 182.616 193.229" stroke="#007CFF" stroke-width="0.25" stroke-linecap="round" stroke-linejoin="round"/>
<path d="M184.153 193.139C184.447 192.368 184.741 191.597 185.034 190.826" stroke="#007CFF" stroke-width="0.25" stroke-linecap="round" stroke-linejoin="round"/>
<path d="M188.077 194.197C187.183 194.325 186.309 194.474 185.415 194.602" stroke="#007CFF" stroke-width="0.25" stroke-linecap="round" stroke-linejoin="round"/>
<path d="M183.329 196.194C183.016 196.945 182.683 197.715 182.369 198.466" stroke="#007CFF" stroke-width="0.25" stroke-linecap="round" stroke-linejoin="round"/>
<path d="M179.619 195.086C180.514 194.997 181.389 194.888 182.303 194.779" stroke="#007CFF" stroke-width="0.25" stroke-linecap="round" stroke-linejoin="round"/>
<path d="M184.865 195.989C185.426 196.63 186.008 197.292 186.569 197.933" stroke="#007CFF" stroke-width="0.25" stroke-linecap="round" stroke-linejoin="round"/>
<path opacity="0.3" d="M159.411 207.041C158.725 207.722 157.593 207.687 156.874 206.963C156.155 206.239 156.128 205.107 156.814 204.426C157.499 203.745 158.631 203.78 159.35 204.504C160.069 205.229 160.096 206.361 159.411 207.041Z" stroke="white" stroke-width="0.25" stroke-miterlimit="10"/>
<path d="M708.018 395.821L699.957 363.517L688.981 364.498L679.13 369.437L689.262 401.152C689.262 401.152 670.047 415.659 677.234 435.986C682.644 451.304 694.779 454.547 706.797 453.369C711.574 452.894 716.254 451.564 720.567 449.455C731.394 444.161 740.01 435.021 736.569 419.123C731.996 398.072 708.018 395.821 708.018 395.821Z" fill="#1D1D1D"/>
<path opacity="0.7" d="M708.018 395.821L699.957 363.517L688.981 364.498L679.13 369.437L689.262 401.152C689.262 401.152 670.047 415.659 677.234 435.986C682.644 451.304 694.779 454.547 706.797 453.369C711.574 452.894 716.254 451.564 720.567 449.455C731.394 444.161 740.01 435.021 736.569 419.123C731.996 398.072 708.018 395.821 708.018 395.821Z" fill="white"/>
<path d="M706.518 397.543L697.948 365.639L689.531 367.6L681.637 370.236L691.552 401.915C691.552 401.915 673.04 416.124 679.611 434.723C684.839 449.544 696.964 452.024 708.545 450.4C711.655 449.968 714.685 449.106 717.558 447.839C728.243 443.134 737.251 434.648 733.922 419.287C729.729 400.013 706.537 397.538 706.537 397.538L706.518 397.543Z" fill="#1D1D1D"/>
<path d="M699.249 358.99L676.754 365.383C675.313 365.793 674.46 367.23 674.847 368.594L675.09 369.447C675.477 370.811 676.959 371.584 678.4 371.175L700.895 364.782C702.336 364.372 703.189 362.935 702.802 361.571L702.559 360.718C702.172 359.354 700.69 358.581 699.249 358.99Z" fill="#1D1D1D"/>
<path opacity="0.7" d="M699.249 358.99L676.754 365.383C675.313 365.793 674.46 367.23 674.847 368.594L675.09 369.447C675.477 370.811 676.959 371.584 678.4 371.175L700.895 364.782C702.336 364.372 703.189 362.935 702.802 361.571L702.559 360.718C702.172 359.354 700.69 358.581 699.249 358.99Z" fill="white"/>
<path opacity="0.3" d="M679.608 370.831L680.166 372.576L700.763 366.722L700.32 364.945L679.608 370.831Z" fill="black"/>
<path opacity="0.3" d="M687.419 363.96L679.287 366.271C678.917 366.377 678.697 366.746 678.797 367.097L678.864 367.333C678.964 367.684 679.345 367.883 679.716 367.778L687.847 365.467C688.218 365.362 688.437 364.992 688.338 364.641L688.271 364.405C688.171 364.054 687.79 363.855 687.419 363.96Z" fill="white"/>
<path d="M679.63 434.717C684.858 449.538 696.983 452.018 708.564 450.394C711.674 449.962 714.704 449.1 717.577 447.833C728.262 443.128 737.27 434.642 733.941 419.281L679.649 434.711L679.63 434.717Z" fill="#1D1D1D"/>
<path opacity="0.5" d="M717.135 446.35C714.262 447.617 711.232 448.479 708.121 448.911C696.939 450.48 685.247 448.211 679.745 434.685L679.61 434.723C684.838 449.543 696.963 452.023 708.544 450.4C711.655 449.967 714.685 449.106 717.558 447.838C728.242 443.134 737.251 434.648 733.922 419.287L733.787 419.325C736.221 433.724 727.47 441.803 717.135 446.35Z" fill="white"/>
<path d="M706.999 428.548C721.912 424.309 733.812 420.207 733.578 419.385C733.344 418.562 721.066 421.332 706.153 425.57C691.24 429.808 679.34 433.911 679.574 434.733C679.807 435.555 692.086 432.786 706.999 428.548Z" fill="#1D1D1D"/>
<path opacity="0.3" d="M706.999 428.548C721.912 424.309 733.812 420.207 733.578 419.385C733.344 418.562 721.066 421.332 706.153 425.57C691.24 429.808 679.34 433.911 679.574 434.733C679.807 435.555 692.086 432.786 706.999 428.548Z" fill="black"/>
<g opacity="0.3">
<path d="M692.183 408.662C693.583 408.774 694.885 409.562 695.333 410.847C695.781 412.133 695.538 413.536 695.075 414.826C694.612 416.115 693.941 417.326 693.503 418.628C692.968 420.173 692.781 421.777 692.425 423.369C692.064 424.943 691.506 426.554 690.382 427.776C689.258 428.998 687.47 429.781 685.843 429.38C683.877 428.879 682.807 426.868 682.391 424.965C681.133 419.298 683.857 412.912 688.956 409.559C688.956 409.559 690.601 408.562 692.189 408.68L692.183 408.662Z" fill="white"/>
</g>
<path d="M720.465 441.734C726.358 437.234 730.037 431.145 731.163 424.095C732.317 431.145 727.5 439.068 720.465 441.734Z" fill="white"/>
<path d="M731.722 422.562C734.503 421.771 733.342 417.686 730.561 418.477C727.78 419.267 728.941 423.352 731.722 422.562Z" fill="white"/>
<path opacity="0.3" d="M665.393 353.484C666.781 353.266 668.176 353.066 669.564 352.848" stroke="#007CFF" stroke-width="0.25" stroke-linecap="round" stroke-linejoin="round"/>
<path opacity="0.3" d="M670.528 350.768C669.72 349.821 668.907 348.855 668.099 347.907" stroke="#007CFF" stroke-width="0.25" stroke-linecap="round" stroke-linejoin="round"/>
<path opacity="0.3" d="M674.795 346.318C674.327 347.589 673.859 348.86 673.378 350.154" stroke="#007CFF" stroke-width="0.25" stroke-linecap="round" stroke-linejoin="round"/>
<path opacity="0.3" d="M674.009 354.115C674.784 355.092 675.545 356.092 676.32 357.069" stroke="#007CFF" stroke-width="0.25" stroke-linecap="round" stroke-linejoin="round"/>
<path opacity="0.3" d="M669.78 358.202C670.291 356.938 670.827 355.687 671.338 354.423" stroke="#007CFF" stroke-width="0.25" stroke-linecap="round" stroke-linejoin="round"/>
<path opacity="0.3" d="M674.849 351.895C676.135 351.608 677.407 351.344 678.694 351.057" stroke="#007CFF" stroke-width="0.25" stroke-linecap="round" stroke-linejoin="round"/>
<g opacity="0.3">
<path d="M691.286 348.321C691.92 348.219 692.579 348.13 693.213 348.028" stroke="#007CFF" stroke-width="0.25" stroke-linecap="round" stroke-linejoin="round"/>
<path d="M693.662 347.057C693.287 346.614 692.913 346.171 692.538 345.729" stroke="#007CFF" stroke-width="0.25" stroke-linecap="round" stroke-linejoin="round"/>
<path d="M695.649 345.001C695.424 345.595 695.218 346.184 694.993 346.777" stroke="#007CFF" stroke-width="0.25" stroke-linecap="round" stroke-linejoin="round"/>
<path d="M695.281 348.598C695.637 349.047 695.997 349.513 696.353 349.962" stroke="#007CFF" stroke-width="0.25" stroke-linecap="round" stroke-linejoin="round"/>
<path d="M693.312 350.493C693.561 349.912 693.792 349.336 694.036 348.737" stroke="#007CFF" stroke-width="0.25" stroke-linecap="round" stroke-linejoin="round"/>
<path d="M695.658 347.589C696.244 347.462 696.849 347.329 697.434 347.202" stroke="#007CFF" stroke-width="0.25" stroke-linecap="round" stroke-linejoin="round"/>
</g>
<path d="M681.369 337.501C682.003 337.4 682.662 337.311 683.296 337.209" stroke="#007CFF" stroke-width="0.25" stroke-linecap="round" stroke-linejoin="round"/>
<path d="M683.764 336.232C683.39 335.789 683.015 335.346 682.641 334.903" stroke="#007CFF" stroke-width="0.25" stroke-linecap="round" stroke-linejoin="round"/>
<path d="M685.751 334.177C685.526 334.771 685.32 335.359 685.095 335.953" stroke="#007CFF" stroke-width="0.25" stroke-linecap="round" stroke-linejoin="round"/>
<path d="M685.364 337.779C685.72 338.227 686.08 338.694 686.436 339.142" stroke="#007CFF" stroke-width="0.25" stroke-linecap="round" stroke-linejoin="round"/>
<path d="M683.42 339.685C683.67 339.104 683.9 338.528 684.144 337.929" stroke="#007CFF" stroke-width="0.25" stroke-linecap="round" stroke-linejoin="round"/>
<path d="M685.761 336.763C686.346 336.636 686.951 336.503 687.537 336.376" stroke="#007CFF" stroke-width="0.25" stroke-linecap="round" stroke-linejoin="round"/>
<path opacity="0.3" d="M683.904 356.19C684.089 356.843 683.683 357.528 682.993 357.724C682.302 357.921 681.596 357.552 681.411 356.898C681.225 356.245 681.631 355.56 682.322 355.364C683.012 355.168 683.718 355.536 683.904 356.19Z" stroke="white" stroke-width="0.25" stroke-miterlimit="10"/>
<path d="M557.215 161.497L562.468 142.568C562.468 142.568 564.362 134.877 564.817 133.084C565.41 130.71 563.743 129.965 562.758 131.582C562.38 132.2 558.238 140.03 558.238 140.03C558.238 140.03 561.546 127.212 561.672 126.745C562.746 122.565 560.157 122.995 559.399 124.485C558.616 126.025 553.932 138.641 553.932 138.641C558.339 122.161 556.962 120.709 555.725 120.444C554.487 120.179 550.61 135.256 550.61 135.256C550.61 135.256 549.209 132.68 546.633 130.9C542.655 128.159 536.013 130.9 535.697 132.769C535.381 134.638 537.743 135.168 537.743 135.168C542.731 131.948 547.845 135.85 547.315 140.61C546.797 145.371 540.761 144.715 540.016 141.318C538.374 133.88 535.811 136.304 535.811 136.304L538.374 152.695L535.659 160.941" fill="#FFBE9D"/>
<path d="M368.177 238.639L481.638 237.882L484.757 315.025L367.268 313.863L368.177 238.639Z" fill="#6E6E6E"/>
<path d="M368.177 238.64L425.81 192.068L481.638 237.882" fill="#5C5C5C"/>
<path d="M367.268 313.864C367.129 313.725 376.221 303.824 387.56 291.727C398.913 279.63 408.232 269.931 408.371 270.07C408.51 270.209 399.431 280.109 388.066 292.207C376.713 304.304 367.394 313.99 367.255 313.864H367.268Z" fill="#5C5C5C"/>
<path d="M484.756 315.025C484.617 315.152 475.765 305.428 465.019 293.318C454.26 281.195 445.661 271.27 445.8 271.131C445.938 271.005 454.778 280.728 465.549 292.851C476.308 304.974 484.908 314.899 484.769 315.025H484.756Z" fill="#5C5C5C"/>
<path d="M481.638 237.882L424.636 283.367L368.177 238.639" fill="#5C5C5C"/>
<path d="M292.359 151.71H292.738L291.223 146.621L286.361 127.225C285.894 125.469 286.879 123.651 288.646 122.994L292.144 122.881L304.128 117.274C306.388 116.44 308.889 117.855 309.179 120.166C309.621 123.727 312.046 133.311 314.622 129.952C314.685 129.876 314.748 129.813 314.811 129.738C318.435 124.75 322.956 122.047 324.812 122.123C326.631 122.199 327.3 124.396 326.075 125.709C325.898 125.937 325.684 126.139 325.393 126.303C325.267 126.366 325.128 126.48 325.002 126.568C323.6 127.704 321.921 129.712 320.696 131.303C319.521 132.819 318.625 134.549 318.057 136.355C317.413 138.362 316.945 140.13 316.579 141.62L317.514 151.52" fill="#FFBE9D"/>
<path d="M324.32 63.8333C324.32 63.8333 310.316 61.1562 290.2 42.8712C270.096 24.6114 260.184 -0.139106 257.797 0.050311C255.398 0.239728 244.803 -4.31891 226.126 39.5374C207.45 83.3938 215.582 93.2308 219.535 93.0414C223.487 92.852 250.17 84.5934 267.028 86.0203C283.873 87.4599 305.719 95.5922 305.719 95.5922L324.333 63.8333H324.32Z" fill="#6E6E6E"/>
<path d="M354.551 86.6011L350.056 95.7562L348.048 99.8603C345.295 105.492 338.602 107.967 332.844 105.518L302.727 95.9709L318.966 55.8271L349.209 70.8669C355.018 73.7586 357.405 80.7797 354.551 86.6137V86.6011Z" fill="#5C5C5C"/>
<path d="M337.769 101.54L328.791 120.431L324.005 119.244L293.685 145.371L284.53 128.639C284.53 128.639 302.651 120.217 305.859 113.587C309.066 106.945 305.101 105.581 305.101 105.581L313.461 95.5293L337.782 101.553L337.769 101.54Z" fill="#5C5C5C"/>
<path d="M227.755 40.2826C217.83 64.0355 214.016 85.0607 219.232 87.2454C224.447 89.43 236.734 71.9405 246.659 48.1876C256.585 24.4347 260.398 3.40943 255.183 1.22482C249.968 -0.959785 237.681 16.5297 227.755 40.2826Z" fill="#5C5C5C"/>
<path d="M357.481 99.5699L349.323 97.259L354.059 87.6113L360.234 91.1976L357.481 99.5699Z" fill="#6E6E6E"/>
<path d="M310.581 98.9639L332.705 112.198L335.256 106.818L310.581 98.9639Z" fill="#6E6E6E"/>
<path d="M354.059 87.6113L349.323 97.259L351.003 97.7388L354.804 88.0407L354.059 87.6113Z" fill="#6E6E6E"/>
<path d="M348.553 89.9602C348.439 90.2253 344.36 88.7731 339.448 86.7148C334.523 84.6565 330.621 82.7749 330.735 82.5098C330.848 82.2446 334.927 83.6968 339.839 85.7551C344.764 87.8134 348.654 89.695 348.553 89.9602Z" fill="#6E6E6E"/>
<path d="M350.876 84.227C350.75 84.4922 347.063 83.0526 342.63 81.0195C338.185 78.9865 334.688 77.1302 334.814 76.865C334.928 76.5998 338.627 78.0394 343.06 80.0724C347.492 82.1055 351.003 83.9618 350.876 84.227Z" fill="#6E6E6E"/>
<path d="M345.585 95.9838C345.547 96.1227 344.575 95.9333 343.034 95.5039C342.264 95.2893 341.342 95.0115 340.332 94.6958C339.322 94.3674 338.274 93.875 337.15 93.3951C332.667 91.463 329.232 89.5563 329.333 89.3163C329.46 89.0259 333.109 90.5286 337.554 92.448C338.665 92.9152 339.701 93.433 340.673 93.8118C341.645 94.178 342.529 94.519 343.262 94.8094C344.727 95.4155 345.623 95.8575 345.585 95.9964V95.9838Z" fill="#6E6E6E"/>
<path d="M249.197 34.4612C249.197 34.4612 236.885 27.3012 230.736 43.831C224.586 60.3608 237.378 62.6843 237.378 62.6843C242.353 54.4636 246.318 45.0938 249.185 34.4612H249.197Z" fill="#6E6E6E"/>
<path d="M261.509 14.623C261.585 14.623 261.446 15.7469 261.118 17.7547C260.789 19.7625 260.335 22.6796 259.653 26.2532C259.186 28.0211 258.681 29.9532 258.15 32.0241C257.872 33.0596 257.595 34.133 257.304 35.2316C257.153 35.7872 257.014 36.3428 256.862 36.9111C256.698 37.4793 256.483 38.0223 256.281 38.6032C255.473 40.8762 254.627 43.2629 253.756 45.7253C253.541 46.344 253.314 46.9628 253.086 47.5942C252.872 48.2256 252.556 48.8191 252.291 49.4505C251.735 50.688 251.167 51.9382 250.599 53.2136C250.03 54.4763 249.462 55.7391 248.907 56.964C248.616 57.5702 248.376 58.2015 248.048 58.7824C247.72 59.3633 247.404 59.9442 247.088 60.5251C245.813 62.8233 244.588 65.0332 243.414 67.142C243.11 67.6598 242.845 68.2028 242.53 68.6952C242.201 69.1877 241.886 69.6676 241.57 70.1474C240.938 71.0945 240.32 72.0164 239.726 72.9129C238.527 74.6934 237.415 76.3477 236.392 77.863C234.157 80.7295 232.288 82.9899 231 84.5684C229.7 86.1342 228.955 86.9803 228.904 86.9298C228.854 86.8919 229.485 85.9574 230.685 84.3158C231.935 82.649 233.677 80.3002 235.824 77.4084C236.809 75.8805 237.87 74.2136 239.019 72.4204C239.6 71.5239 240.193 70.602 240.812 69.655C241.115 69.1751 241.431 68.6952 241.747 68.2028C242.05 67.7103 242.315 67.1799 242.605 66.6495C243.754 64.5407 244.954 62.3308 246.192 60.0452C246.507 59.477 246.823 58.8961 247.139 58.3152C247.467 57.7343 247.694 57.1029 247.985 56.4968C248.54 55.2719 249.096 54.0217 249.664 52.759C250.233 51.4962 250.801 50.2587 251.344 49.0338C251.609 48.415 251.925 47.8215 252.139 47.2027C252.367 46.584 252.594 45.9652 252.809 45.3464C253.705 42.8967 254.564 40.5353 255.385 38.2875C255.587 37.7193 255.814 37.1763 255.978 36.6206C256.13 36.065 256.294 35.5094 256.445 34.9538C256.748 33.8678 257.052 32.807 257.342 31.7716C257.923 29.7259 258.466 27.8191 258.958 26.0638C259.703 22.5533 260.309 19.6994 260.739 17.6663C261.181 15.6838 261.446 14.5851 261.522 14.5978L261.509 14.623Z" fill="#5C5C5C"/>
<path d="M334.22 195.112L321.706 147.543L290.414 148.377L300.15 214.761C301.4 229.207 309.899 238.665 324.206 240.964C332.793 242.34 342.087 234.157 348.982 228.866C353.477 225.406 354.285 226.088 358.92 221.87L379.074 207.298L379.566 209.685H379.44L382.862 250.258L424.61 283.039L474.401 243.148L473.265 225.899C473.391 225.886 473.504 225.646 473.252 225.646L471.964 206.086L497.472 235.344C503.344 243.919 513.333 248.717 523.7 247.922C534.901 247.076 544.612 239.852 548.665 229.371L561.811 162.495L532.969 156.294L519.457 204.482L487.231 167.445C468.655 143.237 446.948 145.283 446.948 145.283L406.943 144.576C406.943 144.576 406.88 144.576 406.855 144.576C405.668 144.639 383.317 145.321 368.163 161.51L334.207 195.125L334.22 195.112Z" fill="#171717"/>
<path d="M334.22 195.112L321.706 147.543L290.414 148.377L300.15 214.761C301.4 229.207 309.899 238.665 324.206 240.964C332.793 242.34 342.087 234.157 348.982 228.866C353.477 225.406 354.285 226.088 358.92 221.87L379.074 207.298L379.566 209.685H379.44L382.862 250.258L424.61 283.039L474.401 243.148L473.265 225.899C473.391 225.886 473.504 225.646 473.252 225.646L471.964 206.086L497.472 235.344C503.344 243.919 513.333 248.717 523.7 247.922C534.901 247.076 544.612 239.852 548.665 229.371L561.811 162.495L532.969 156.294L519.457 204.482L487.231 167.445C468.655 143.237 446.948 145.283 446.948 145.283L406.943 144.576C406.943 144.576 406.88 144.576 406.855 144.576C405.668 144.639 383.317 145.321 368.163 161.51L334.207 195.125L334.22 195.112Z" fill="black" fill-opacity="0.2"/>
<path d="M488.86 170.084C488.86 170.084 488.43 169.882 487.571 169.616C486.725 169.339 485.412 169.086 483.707 169.212C482.015 169.351 479.982 169.894 477.785 170.904C475.575 171.889 473.289 173.455 470.625 174.983C467.986 176.473 464.804 178.102 461.066 178.014C459.222 177.951 457.366 177.446 455.56 176.739C453.754 176.031 451.986 175.16 450.117 174.415C446.417 172.9 442.086 172.395 437.818 173.253C433.524 174.074 429.585 176.486 425.556 178.822C423.523 179.984 421.478 181.108 419.331 181.941C417.184 182.775 414.949 183.318 412.739 183.545C408.307 184.025 403.912 183.368 400.137 181.79C396.336 180.236 393.141 177.989 390.224 175.88C387.307 173.771 384.617 171.751 381.99 170.235C379.351 168.72 376.775 167.697 374.426 167.116C372.078 166.56 369.981 166.434 368.289 166.611C364.88 166.977 363.263 168.164 363.226 168.051C363.226 168.051 363.327 167.975 363.529 167.861C363.731 167.748 364.034 167.583 364.438 167.381C365.271 167.04 366.534 166.548 368.264 166.346C369.981 166.131 372.116 166.22 374.515 166.75C376.901 167.306 379.528 168.303 382.218 169.818C384.907 171.334 387.622 173.342 390.539 175.425C393.469 177.496 396.639 179.719 400.364 181.209C404.064 182.724 408.345 183.355 412.676 182.876C414.835 182.648 417.007 182.118 419.104 181.297C421.2 180.489 423.22 179.378 425.241 178.216C429.256 175.892 433.259 173.43 437.704 172.584C442.099 171.713 446.556 172.256 450.345 173.821C454.095 175.349 457.505 177.332 461.078 177.446C464.639 177.559 467.758 176.006 470.385 174.554C473.037 173.064 475.373 171.511 477.633 170.551C479.868 169.553 481.952 169.036 483.682 168.935C485.412 168.834 486.751 169.149 487.597 169.465C488.455 169.781 488.847 170.058 488.847 170.058L488.86 170.084Z" fill="#FAFAFA"/>
<path d="M512.057 193.786C512.057 193.786 511.943 194.43 511.375 195.541C510.807 196.64 509.708 198.18 507.751 199.544C505.831 200.908 503.066 202.07 499.707 202.398C496.36 202.777 492.534 202.373 488.38 201.906C484.25 201.489 479.553 200.971 474.893 202.512C472.582 203.295 470.398 204.608 468.213 206.022C466.016 207.437 463.768 209.002 461.179 210.114C456.052 212.374 449.979 213.22 443.968 212.121C440.962 211.616 437.995 210.543 435.229 209.053C432.451 207.563 429.875 205.719 427.198 203.989C424.521 202.272 421.793 200.655 418.838 199.797C415.896 198.913 412.815 198.812 409.86 199.241C403.925 200.1 398.546 202.486 393.166 203.939C390.489 204.696 387.787 205.227 385.122 205.29C382.47 205.34 379.844 204.961 377.533 204.002C372.873 202.082 369.438 198.812 366.395 195.971C363.352 193.091 360.548 190.515 357.707 188.811C354.891 187.068 352.075 186.285 349.764 186.096C347.441 185.906 345.635 186.323 344.486 186.727C343.337 187.156 342.794 187.523 342.769 187.485C342.769 187.485 343.286 187.081 344.435 186.601C345.585 186.146 347.416 185.679 349.777 185.83C352.126 185.982 355.018 186.74 357.897 188.482C360.801 190.187 363.655 192.75 366.711 195.617C369.779 198.433 373.202 201.64 377.735 203.484C379.995 204.406 382.521 204.747 385.11 204.696C387.698 204.633 390.35 204.103 393.002 203.345C395.654 202.6 398.343 201.653 401.109 200.769C403.874 199.885 406.741 199.014 409.772 198.597C412.79 198.155 415.984 198.256 419.028 199.165C422.084 200.062 424.862 201.716 427.552 203.434C430.241 205.176 432.817 207.007 435.545 208.472C438.26 209.937 441.152 210.972 444.094 211.477C449.979 212.551 455.926 211.73 460.952 209.545C465.978 207.348 469.918 203.547 474.742 201.981C477.128 201.186 479.553 200.958 481.864 200.958C484.175 200.958 486.372 201.186 488.455 201.426C492.61 201.931 496.398 202.36 499.694 202.019C503.003 201.741 505.718 200.643 507.624 199.33C509.569 198.029 510.68 196.539 511.274 195.478C511.867 194.405 512.032 193.761 512.069 193.786H512.057Z" fill="#FAFAFA"/>
<path d="M548.539 225.924C548.539 225.924 548.047 225.242 546.796 224.497C545.572 223.752 543.425 223.158 540.861 223.613C538.298 224.055 535.583 225.722 532.868 227.881C531.492 228.942 530.065 230.116 528.461 231.164C526.857 232.2 525.026 233.147 522.98 233.526C520.935 233.93 518.889 233.74 517.02 233.362C515.139 232.97 513.383 232.389 511.729 231.821C510.075 231.253 508.522 230.697 507.032 230.306C505.541 229.914 504.127 229.687 502.826 229.599C500.225 229.409 498.104 229.902 496.816 230.558C495.502 231.202 494.921 231.808 494.884 231.745C494.871 231.733 495.01 231.581 495.3 231.316C495.439 231.177 495.629 231.025 495.869 230.861C496.096 230.685 496.374 230.508 496.715 230.331C498.015 229.573 500.187 229.005 502.864 229.131C504.203 229.194 505.655 229.409 507.17 229.775C508.698 230.154 510.277 230.697 511.919 231.253C515.189 232.314 518.952 233.614 522.854 232.882C524.786 232.528 526.529 231.632 528.107 230.621C529.686 229.611 531.113 228.462 532.502 227.401C535.255 225.267 538.083 223.562 540.786 223.158C543.475 222.742 545.698 223.449 546.935 224.282C547.567 224.686 547.958 225.141 548.223 225.431C548.451 225.747 548.564 225.924 548.552 225.936L548.539 225.924Z" fill="#FAFAFA"/>
<path d="M554.878 189.632C554.878 189.632 554.537 189.96 553.792 190.314C553.047 190.667 551.885 191.046 550.395 191.172C548.917 191.299 547.137 191.172 545.23 190.705C543.323 190.263 541.328 189.493 539.245 188.71C537.161 187.94 535.166 187.245 533.297 186.929C531.428 186.614 529.698 186.639 528.296 186.917C525.442 187.447 524.129 188.874 524.066 188.748C524.041 188.723 524.331 188.356 525 187.864C525.67 187.371 526.756 186.803 528.208 186.462C529.66 186.121 531.453 186.045 533.398 186.336C535.343 186.626 537.388 187.308 539.472 188.091C541.555 188.874 543.525 189.644 545.369 190.112C547.213 190.579 548.93 190.768 550.357 190.705C553.249 190.591 554.815 189.505 554.865 189.632H554.878Z" fill="#FAFAFA"/>
<path d="M471.156 237.364C471.118 237.44 470.045 236.657 467.847 235.849C465.663 235.066 462.266 234.397 458.099 234.839C453.932 235.205 449.158 236.847 444.17 239.259C439.157 241.62 433.853 244.777 427.678 246.772C424.597 247.757 421.453 248.376 418.384 248.376C415.316 248.376 412.386 247.745 409.722 246.886C407.057 246.027 404.62 244.954 402.36 243.956C400.099 242.959 398.003 241.999 396.058 241.229C392.182 239.637 388.835 238.918 386.512 238.741C385.931 238.703 385.413 238.653 384.959 238.653C384.529 238.665 384.15 238.678 383.822 238.69C383.203 238.703 382.875 238.703 382.875 238.69C382.875 238.665 383.191 238.627 383.809 238.564C384.138 238.539 384.517 238.501 384.959 238.463C385.413 238.463 385.944 238.488 386.524 238.501C388.886 238.602 392.295 239.271 396.223 240.812C398.205 241.557 400.301 242.491 402.574 243.476C404.847 244.461 407.272 245.497 409.898 246.33C412.525 247.164 415.379 247.757 418.372 247.757C421.365 247.757 424.446 247.151 427.464 246.166C433.538 244.196 438.841 241.077 443.892 238.728C448.918 236.329 453.78 234.7 458.036 234.397C462.279 234.005 465.726 234.763 467.923 235.622C470.12 236.518 471.143 237.377 471.143 237.377L471.156 237.364Z" fill="#FAFAFA"/>
<path d="M298.686 205.088C298.686 205.088 298.862 204.924 299.292 204.798C299.708 204.671 300.39 204.621 301.198 204.873C301.994 205.126 302.916 205.669 303.686 206.603C304.456 207.525 305.037 208.75 305.694 210.038C306.325 211.339 307.222 212.64 308.485 213.751C309.735 214.875 311.364 215.721 313.157 216.327C316.781 217.539 321.075 217.615 325.456 216.92C329.851 216.276 334.056 215.38 337.971 215.418C341.898 215.355 345.396 216.542 347.871 218.158C350.396 219.762 351.811 221.858 352.379 223.398C352.96 224.952 352.909 225.899 352.909 225.899C352.821 225.911 352.783 224.99 352.139 223.499C351.508 222.035 350.081 220.052 347.606 218.549C345.168 217.021 341.784 215.923 337.958 216.011C334.119 216.011 329.965 216.908 325.532 217.564C321.125 218.272 316.68 218.183 312.955 216.895C311.099 216.251 309.419 215.342 308.119 214.142C306.805 212.968 305.883 211.554 305.265 210.228C304.633 208.902 304.09 207.702 303.396 206.806C302.701 205.922 301.855 205.366 301.11 205.088C299.569 204.533 298.686 205.151 298.686 205.05V205.088Z" fill="#FAFAFA"/>
<path d="M326.075 166.51C325.999 166.636 324.673 165.045 321.668 164.224C320.19 163.82 318.334 163.643 316.314 163.871C314.293 164.098 312.134 164.78 309.962 165.702C307.79 166.636 305.782 167.697 303.913 168.619C302.057 169.541 300.34 170.298 298.849 170.816C297.359 171.334 296.109 171.612 295.238 171.738C294.367 171.864 293.874 171.864 293.874 171.826C293.861 171.713 295.806 171.523 298.698 170.374C300.15 169.806 301.817 169.01 303.661 168.063C305.492 167.116 307.512 166.03 309.722 165.083C311.932 164.136 314.167 163.454 316.276 163.252C318.372 163.037 320.304 163.277 321.819 163.757C323.347 164.237 324.459 164.931 325.141 165.5C325.822 166.068 326.113 166.472 326.088 166.497L326.075 166.51Z" fill="#FAFAFA"/>
<g opacity="0.3">
<path d="M417.513 277.458C433.727 268.063 452.492 257.039 461.849 240.799C467.834 230.419 470.802 218.006 471.964 206.073L474.401 243.135L424.61 283.027L417.513 277.458Z" fill="black"/>
</g>
<g opacity="0.2">
<path d="M375.5 154.854C371.673 169.073 364.349 181.322 353.237 190.995C350.56 193.331 347.643 195.503 344.284 196.652C340.925 197.802 337.023 197.814 333.979 195.971L334.219 195.125L359.45 170.134L375.487 154.854H375.5Z" fill="black"/>
</g>
<path d="M337.44 214.988C337.339 214.95 337.743 213.839 338.084 211.995C338.425 210.152 338.602 207.538 338.147 204.709C337.68 201.881 336.67 199.469 335.748 197.827C334.826 196.185 334.081 195.264 334.169 195.2C334.22 195.15 335.104 195.971 336.139 197.6C337.187 199.216 338.299 201.691 338.791 204.608C339.271 207.525 339.006 210.24 338.538 212.096C338.071 213.965 337.503 215.026 337.44 215.001V214.988Z" fill="#5C5C5C"/>
<path d="M330.204 208.624C330.04 208.498 332.237 206.199 333.209 202.537C334.245 198.9 333.55 195.794 333.752 195.769C333.828 195.756 334.106 196.489 334.258 197.764C334.409 199.027 334.359 200.82 333.841 202.714C333.31 204.596 332.439 206.161 331.656 207.172C330.873 208.182 330.255 208.674 330.204 208.624Z" fill="#5C5C5C"/>
<path d="M377.18 182.522C377.357 182.509 378.392 192.574 379.491 204.999C380.589 217.438 381.334 227.527 381.145 227.54C380.968 227.553 379.933 217.488 378.834 205.063C377.735 192.637 376.99 182.535 377.18 182.522Z" fill="#5C5C5C"/>
<path d="M444.599 143.831C444.599 143.831 444.713 144.058 444.864 144.512C445.041 144.967 445.218 145.649 445.42 146.546C445.786 148.326 445.975 151.028 445.294 154.261C444.586 157.443 442.945 161.194 439.788 164.25C436.681 167.331 431.959 169.313 426.92 169.44C421.882 169.541 417.07 167.76 413.825 164.818C410.542 161.901 408.736 158.239 407.89 155.082C407.069 151.887 407.145 149.185 407.435 147.379C407.587 146.482 407.738 145.788 407.89 145.333C408.029 144.879 408.105 144.639 408.13 144.639C408.206 144.664 407.89 145.624 407.688 147.417C407.486 149.197 407.486 151.862 408.345 154.956C409.229 158.024 411.034 161.573 414.229 164.351C417.373 167.167 422.02 168.859 426.907 168.77C431.782 168.644 436.353 166.75 439.371 163.795C442.44 160.865 444.094 157.241 444.839 154.147C445.559 151.003 445.445 148.351 445.155 146.583C444.877 144.803 444.511 143.856 444.586 143.831H444.599Z" fill="#5C5C5C"/>
<path d="M517.954 219.913C517.778 219.913 517.487 216.364 517.752 211.983C517.992 207.601 518.687 204.103 518.851 204.128C519.04 204.153 518.649 207.664 518.409 212.02C518.156 216.364 518.156 219.9 517.954 219.913Z" fill="#5C5C5C"/>
<path d="M523.031 222.199C522.955 222.224 522.513 221.252 521.957 219.623C521.402 217.994 520.732 215.695 520.202 213.119C519.672 210.543 519.369 208.169 519.242 206.452C519.103 204.735 519.129 203.661 519.217 203.661C519.419 203.649 519.785 207.879 520.859 212.993C521.907 218.107 523.233 222.136 523.056 222.211L523.031 222.199Z" fill="#5C5C5C"/>
<path d="M471.964 222.931C471.787 222.931 471.371 215.822 471.042 207.045C470.714 198.256 470.588 191.134 470.777 191.134C470.954 191.134 471.371 198.244 471.699 207.02C472.027 215.796 472.153 222.931 471.964 222.931Z" fill="#5C5C5C"/>
<path d="M426.706 167.445C417.235 167.268 409.545 159.754 409.154 150.283C408.863 143.363 408.623 137.012 408.623 137.012C408.623 137.012 394.139 135.471 393.268 121.113C392.396 106.743 393.28 73.62 393.28 73.62C409.57 65.6645 428.891 67.1419 443.779 77.4967L445.989 79.0373L444.941 149.816C444.789 159.729 436.619 167.634 426.706 167.445Z" fill="#FFBE9D"/>
<path d="M408.585 136.809C408.585 136.809 417.702 137.112 427.059 130.571C427.059 130.571 423.132 141.128 408.724 140.535L408.572 136.809H408.585Z" fill="#EB996E"/>
<path d="M444.94 94.0141C445.18 93.9004 454.676 90.6172 454.841 100.454C455.005 110.291 445.092 108.435 445.067 108.145C445.041 107.854 444.94 94.0141 444.94 94.0141Z" fill="#FFBE9D"/>
<path d="M448.009 104.369C448.009 104.369 448.186 104.483 448.476 104.609C448.766 104.735 449.246 104.811 449.764 104.609C450.8 104.205 451.646 102.55 451.658 100.77C451.658 99.8734 451.469 99.0273 451.14 98.3202C450.825 97.6004 450.358 97.1079 449.827 97.0195C449.309 96.9059 448.943 97.2216 448.817 97.512C448.691 97.7898 448.754 97.9792 448.703 98.0045C448.678 98.0297 448.489 97.8403 448.564 97.4362C448.602 97.2342 448.716 97.0069 448.943 96.8175C449.171 96.6154 449.524 96.5144 449.89 96.5523C450.648 96.5902 451.343 97.2847 451.709 98.0424C452.113 98.8127 452.365 99.7724 452.353 100.77C452.327 102.753 451.343 104.621 449.928 105.063C449.234 105.253 448.653 105.063 448.35 104.823C448.047 104.584 447.984 104.369 448.021 104.344L448.009 104.369Z" fill="#EB996E"/>
<path d="M400.15 95.3523C400.112 96.4383 400.996 97.3601 402.132 97.4233C403.269 97.4864 404.216 96.653 404.254 95.567C404.292 94.481 403.408 93.5592 402.271 93.496C401.135 93.4329 400.187 94.2663 400.15 95.3523Z" fill="#5C5C5C"/>
<path d="M397.649 93.3067C397.902 93.5719 399.455 92.4228 401.678 92.4228C403.888 92.3976 405.504 93.534 405.744 93.2689C405.858 93.1552 405.605 92.6627 404.898 92.145C404.203 91.6273 403.016 91.1348 401.64 91.1348C400.263 91.1348 399.102 91.6525 398.432 92.1702C397.75 92.688 397.523 93.1805 397.649 93.2941V93.3067Z" fill="#5C5C5C"/>
<path d="M421.39 95.6053C421.352 96.6912 422.236 97.6131 423.372 97.6762C424.509 97.7394 425.456 96.9059 425.494 95.8199C425.532 94.7339 424.648 93.8121 423.511 93.749C422.375 93.6858 421.428 94.5193 421.39 95.6053Z" fill="#5C5C5C"/>
<path d="M419.395 93.711C419.647 93.9762 421.213 92.8271 423.423 92.8271C425.633 92.8018 427.249 93.9383 427.489 93.6732C427.603 93.5595 427.35 93.067 426.643 92.5493C425.948 92.0316 424.761 91.5391 423.385 91.5391C422.009 91.5391 420.847 92.0568 420.178 92.5745C419.496 93.0923 419.268 93.5848 419.395 93.6984V93.711Z" fill="#5C5C5C"/>
<path d="M411.363 110.115C411.363 109.988 409.999 109.748 407.777 109.471C407.209 109.407 406.678 109.294 406.577 108.915C406.438 108.511 406.678 107.892 406.956 107.235C407.486 105.872 408.042 104.432 408.623 102.929C410.946 96.8048 412.626 91.779 412.373 91.6779C412.121 91.5895 410.05 96.4765 407.726 102.601C407.171 104.116 406.64 105.556 406.123 106.932C405.908 107.576 405.542 108.296 405.832 109.142C405.984 109.559 406.4 109.875 406.767 109.963C407.133 110.077 407.449 110.077 407.726 110.102C409.974 110.228 411.363 110.228 411.363 110.102V110.115Z" fill="#5C5C5C"/>
<path d="M417.879 111.642C417.525 111.617 417.513 114.016 415.454 115.721C413.409 117.426 410.845 117.161 410.82 117.502C410.782 117.653 411.388 117.969 412.474 117.994C413.535 118.032 415.076 117.691 416.338 116.643C417.589 115.595 418.132 114.206 418.207 113.221C418.296 112.223 418.031 111.617 417.866 111.642H417.879Z" fill="#5C5C5C"/>
<path d="M418.814 85.0482C419.029 85.6543 421.239 85.3639 423.84 85.6796C426.441 85.9448 428.537 86.7024 428.878 86.1594C429.03 85.9069 428.664 85.3386 427.818 84.7577C426.984 84.1769 425.646 83.6212 424.08 83.4445C422.527 83.2803 421.1 83.5202 420.153 83.9117C419.206 84.2905 418.726 84.7704 418.814 85.0482Z" fill="#5C5C5C"/>
<path d="M398.471 86.9045C398.862 87.4096 400.377 86.8792 402.221 86.8666C404.052 86.7782 405.605 87.2075 405.959 86.6772C406.11 86.4246 405.87 85.9195 405.189 85.4396C404.519 84.9598 403.408 84.5809 402.145 84.6188C400.882 84.6567 399.797 85.1113 399.152 85.629C398.508 86.1468 398.294 86.6645 398.471 86.9045Z" fill="#5C5C5C"/>
<path d="M385.944 64.1237C385.793 62.3431 386.449 60.4237 387.901 59.3756C389.354 58.3275 391.601 58.3907 392.788 59.7418C392.107 57.3425 394.076 54.5644 396.564 54.4129C398.913 54.2614 400.908 56.0419 403.181 56.6606C405.391 57.2668 407.765 56.7364 409.899 55.8903C412.033 55.0317 414.016 53.8446 416.175 53.0617C420.671 51.4201 425.81 51.6221 430.167 53.6173C434.523 55.6125 438.021 59.3756 439.713 63.8585C442.858 62.8735 446.431 64.4772 448.376 67.1417C450.321 69.8062 450.813 73.3041 450.434 76.5873C450.169 78.7972 449.538 80.9439 448.793 83.0401C448.793 83.2295 448.805 83.4063 448.805 83.5957C448.654 91.5134 447.757 100.795 444.386 100.858C438.501 100.946 439.903 89.8591 439.903 89.8591C432.68 87.0684 435.369 76.2464 433.564 74.6047C431.758 72.9631 427.982 69.1495 412.867 76.8777C406.995 79.8832 399.191 79.7821 394.935 78.8224C394.809 78.7972 394.683 78.7719 394.556 78.7467C394.531 78.7467 394.493 78.7467 394.468 78.734C394.417 78.734 394.392 78.6961 394.342 78.6835C392.978 78.3299 391.677 77.7996 390.465 77.0419C389.101 76.1706 387.851 75.0088 387.27 73.4935C386.689 71.9782 386.904 70.0966 388.091 68.9854C386.98 67.5837 386.096 65.9294 385.944 64.1489V64.1237Z" fill="#5C5C5C"/>
</g>
<defs>
<clipPath id="clip0_252_1605">
<rect width="837.526" height="520" fill="white"/>
</clipPath>
</defs>
</svg>
