<svg width="619" height="550" viewBox="0 0 619 550" fill="none" xmlns="http://www.w3.org/2000/svg">
<path d="M407.391 0H236.546C221.851 0 209.938 11.544 209.938 25.7843V489.088C209.938 503.328 221.851 514.872 236.546 514.872H407.391C422.086 514.872 433.999 503.328 433.999 489.088V25.7843C433.999 11.544 422.086 0 407.391 0Z" fill="#333333"/>
<path d="M387.18 0.210449H220.509C204.662 0.210449 191.814 12.6599 191.814 28.017V487.276C191.814 502.633 204.662 515.082 220.509 515.082H387.18C403.028 515.082 415.875 502.633 415.875 487.276V28.017C415.875 12.6599 403.028 0.210449 387.18 0.210449Z" fill="#5C5C5C"/>
<path d="M382.087 8.42436L351.649 8.38736C347.565 8.38736 344.256 12.3456 344.256 17.2534V23.5916C344.256 28.487 340.948 32.4576 336.876 32.4576L277.539 32.3713C273.455 32.3713 270.146 28.3884 270.146 23.4929V17.1548C270.146 12.2593 266.825 8.27638 262.753 8.27638H252.051L225.405 8.22706C212.171 8.21473 201.444 20.5088 201.457 35.7007L201.673 476.784C201.673 491.963 212.4 504.282 225.634 504.306L382.329 504.528C395.563 504.553 406.278 492.247 406.278 477.055L406.061 35.972C406.061 20.7924 395.334 8.47368 382.1 8.44902L382.087 8.42436Z" fill="white"/>
<path d="M382.091 8.42416C382.091 8.42416 382.396 8.42416 383.02 8.46115C383.631 8.49815 384.56 8.49815 385.756 8.74477C388.135 9.13936 391.711 10.2245 395.49 13.0483C397.323 14.5157 399.193 16.3777 400.86 18.7206C402.54 21.0635 403.927 23.912 404.881 27.1427C405.352 28.7581 405.721 30.4845 405.925 32.2848C406.141 34.0851 406.166 35.9718 406.166 37.9078C406.166 41.7797 406.179 45.8983 406.192 50.2635C406.23 85.1852 406.294 135.706 406.37 198.126C406.421 260.558 406.485 334.89 406.548 417.434C406.548 427.755 406.561 438.199 406.574 448.767C406.574 454.045 406.574 459.36 406.574 464.711C406.574 467.387 406.574 470.063 406.574 472.751C406.574 475.427 406.663 478.14 406.319 480.853C406.039 483.565 405.301 486.229 404.283 488.781C403.265 491.346 401.853 493.763 400.084 495.921C398.328 498.079 396.216 500.003 393.798 501.507C391.38 502.999 388.632 504.023 385.794 504.491C382.918 504.948 380.055 504.763 377.205 504.8C374.341 504.8 371.478 504.8 368.615 504.8C362.876 504.8 357.112 504.787 351.309 504.775C328.137 504.75 304.558 504.713 280.622 504.676C268.661 504.664 256.598 504.639 244.471 504.627C238.401 504.627 232.318 504.615 226.21 504.602C223.131 504.602 220.001 504.06 217.163 502.827C214.313 501.618 211.755 499.805 209.604 497.635C205.253 493.295 202.657 487.536 201.74 481.642C201.219 478.682 201.371 475.686 201.346 472.751C201.346 469.804 201.346 466.857 201.346 463.91C201.346 452.146 201.346 440.468 201.333 428.865C201.333 405.67 201.32 382.808 201.308 360.353C201.295 315.431 201.282 272.1 201.27 230.828C201.27 189.555 201.257 150.33 201.244 113.621C201.244 95.272 201.244 77.5399 201.244 60.4983C201.244 51.9775 201.244 43.6294 201.244 35.4662C201.32 27.2784 204.565 19.1399 210.61 13.8005C213.613 11.174 217.227 9.16402 221.146 8.43649C222.126 8.26385 223.093 8.06656 224.085 8.05423C225.078 7.98024 226.045 7.96791 227.012 7.98024C228.946 7.98024 230.881 7.98024 232.789 7.98024C240.45 7.99257 247.906 8.0049 255.172 8.01723C256.992 8.01723 258.786 8.01723 260.581 8.01723C261.484 8.02956 262.349 7.99257 263.265 8.05423C264.182 8.12821 265.072 8.3995 265.861 8.81875C267.465 9.6696 268.635 11.0877 269.373 12.6414C270.111 14.1951 270.404 15.9338 270.366 17.5985C270.366 19.2508 270.366 20.8909 270.366 22.5309C270.328 24.1586 270.468 25.7493 271.079 27.2291C271.651 28.6965 272.606 30.0282 273.891 30.9407C274.527 31.3846 275.227 31.7669 275.99 31.9519C276.754 32.1615 277.517 32.1862 278.332 32.1738C291.12 32.1985 303.031 32.2231 314 32.2478C319.484 32.2601 324.727 32.2725 329.728 32.2848C332.222 32.2848 334.665 32.2848 337.045 32.2848C339.399 32.2478 341.46 30.7927 342.605 28.9677C343.802 27.1427 344.247 24.9971 344.171 22.9625C344.171 20.9032 344.171 18.9056 344.183 16.9696C344.221 15.0213 344.807 13.1346 345.838 11.6056C346.868 10.0889 348.383 8.90507 350.1 8.47348C350.953 8.25152 351.831 8.27619 352.658 8.27619C353.485 8.27619 354.312 8.27619 355.101 8.27619C356.705 8.27619 358.232 8.27619 359.695 8.28852C362.622 8.28852 365.269 8.31318 367.648 8.31318C372.382 8.33784 375.996 8.35017 378.439 8.3625C380.869 8.37484 382.116 8.3995 382.116 8.3995C382.116 8.3995 380.869 8.42416 378.439 8.42416C376.008 8.42416 372.395 8.42416 367.648 8.43649C365.281 8.43649 362.622 8.43649 359.695 8.43649C358.232 8.43649 356.705 8.43649 355.101 8.43649C354.3 8.43649 353.485 8.43649 352.658 8.43649C351.818 8.43649 350.978 8.41183 350.151 8.63379C348.484 9.05304 347.021 10.2122 346.016 11.6919C345.023 13.1963 344.451 15.0336 344.412 16.9449C344.412 18.8809 344.412 20.8786 344.412 22.9378C344.501 24.9971 344.043 27.2044 342.822 29.0787C341.638 30.953 339.513 32.4821 337.045 32.5191C334.665 32.5191 332.222 32.5191 329.728 32.5191C324.727 32.5191 319.484 32.5191 314 32.5191C303.044 32.5191 291.133 32.5068 278.332 32.4944C277.543 32.4944 276.69 32.4944 275.889 32.2601C275.074 32.0628 274.336 31.6682 273.662 31.1873C272.313 30.2255 271.32 28.8444 270.71 27.3154C270.061 25.7987 269.921 24.1093 269.959 22.4816C269.959 20.8539 269.959 19.2139 269.959 17.5492C269.997 15.9091 269.717 14.2568 269.004 12.7647C268.292 11.2726 267.159 9.92855 265.658 9.12703C264.907 8.73244 264.08 8.48581 263.227 8.41183C262.375 8.35017 261.459 8.3995 260.568 8.38717C258.786 8.38717 256.979 8.38717 255.16 8.38717C247.906 8.38717 240.437 8.37484 232.777 8.3625C230.855 8.3625 228.934 8.3625 226.999 8.3625C226.032 8.35017 225.052 8.3625 224.098 8.43649C223.131 8.43649 222.177 8.63379 221.222 8.80642C217.392 9.52163 213.855 11.4946 210.902 14.0718C204.973 19.3125 201.779 27.3277 201.715 35.4046C201.715 43.5677 201.715 51.9159 201.728 60.4367C201.74 77.4782 201.753 95.198 201.766 113.559C201.791 150.269 201.817 189.494 201.855 230.766C201.88 272.038 201.906 315.369 201.931 360.292C201.931 382.747 201.957 405.608 201.969 428.803C201.969 440.407 201.969 452.084 201.982 463.848C201.982 466.783 201.982 469.73 201.982 472.689C202.02 475.649 201.868 478.596 202.377 481.481C203.28 487.252 205.825 492.9 210.075 497.13C212.175 499.251 214.669 501.002 217.43 502.173C220.192 503.369 223.195 503.912 226.21 503.899C232.318 503.899 238.401 503.912 244.471 503.924C256.61 503.936 268.661 503.961 280.622 503.973C304.558 504.01 328.137 504.047 351.309 504.072C357.099 504.072 362.864 504.084 368.615 504.097C371.491 504.097 374.354 504.097 377.205 504.109C380.055 504.072 382.931 504.257 385.679 503.813C388.441 503.369 391.1 502.37 393.454 500.915C395.808 499.448 397.857 497.574 399.575 495.465C401.306 493.356 402.693 490.989 403.685 488.473C404.69 485.97 405.416 483.356 405.683 480.692C406.014 478.041 405.925 475.353 405.937 472.665C405.937 469.977 405.937 467.301 405.937 464.625C405.937 459.286 405.937 453.971 405.937 448.681C405.937 438.113 405.937 427.669 405.937 417.348C405.925 334.803 405.912 260.471 405.899 198.039C405.912 135.619 405.925 85.0988 405.937 50.1772C405.937 45.812 405.937 41.6934 405.937 37.8215C405.937 35.8855 405.937 34.0112 405.708 32.2231C405.518 30.4351 405.148 28.7211 404.69 27.1057C403.749 23.8873 402.374 21.0512 400.72 18.7206C399.079 16.3777 397.221 14.528 395.401 13.0606C391.66 10.2245 388.11 9.12703 385.743 8.72011C384.56 8.46115 383.631 8.44882 383.02 8.3995C382.409 8.3625 382.091 8.32551 382.091 8.32551V8.42416Z" fill="#333333"/>
<path d="M259.884 80.2555C259.884 80.2555 259.782 79.7623 259.718 78.8251C259.693 78.3565 259.655 77.777 259.515 77.1111C259.413 76.4329 259.311 75.656 259.044 74.8052C258.649 73.0788 257.848 71.0319 256.575 68.8616C255.29 66.7037 253.42 64.4347 250.875 62.4987C248.33 60.5751 245.123 58.9228 241.382 58.2076C237.679 57.517 233.48 57.5417 229.458 58.9227C227.435 59.5516 225.476 60.5381 223.669 61.7836C222.74 62.3755 221.913 63.1277 221.06 63.8429C220.284 64.6444 219.457 65.4212 218.782 66.3337C215.919 69.8604 214.239 74.4229 214.074 79.1704C213.998 83.9179 215.448 88.5667 218.133 92.2167C218.77 93.1538 219.546 93.98 220.284 94.8062C221.111 95.5584 221.887 96.3476 222.791 96.9888C224.534 98.3205 226.443 99.3934 228.428 100.121C232.372 101.699 236.572 101.921 240.3 101.403C244.067 100.861 247.362 99.3687 249.996 97.5683C252.643 95.7557 254.616 93.5731 256.015 91.4768C257.402 89.3682 258.306 87.3705 258.789 85.6565C259.095 84.818 259.222 84.0412 259.375 83.3753C259.54 82.7094 259.617 82.1299 259.655 81.6736C259.769 80.7488 259.846 80.2555 259.896 80.2555C259.935 80.2555 259.947 80.7488 259.909 81.6983C259.909 82.1792 259.871 82.7587 259.744 83.4493C259.642 84.1398 259.54 84.929 259.273 85.8045C258.866 87.5679 258.001 89.6518 256.626 91.8591C255.252 94.054 253.254 96.3476 250.544 98.2836C247.833 100.195 244.423 101.81 240.491 102.427C236.584 103.019 232.194 102.821 228.021 101.194C225.921 100.441 223.898 99.3317 222.053 97.926C221.098 97.2601 220.271 96.4339 219.393 95.6447C218.604 94.7692 217.79 93.906 217.115 92.9195C214.265 89.0722 212.725 84.1645 212.802 79.1457C212.967 74.1393 214.761 69.3055 217.802 65.5939C218.528 64.632 219.38 63.8182 220.207 62.9797C221.111 62.2275 221.989 61.4383 222.969 60.8217C224.877 59.5146 226.952 58.4912 229.089 57.8499C233.34 56.4195 237.742 56.4319 241.611 57.2087C245.505 57.9979 248.839 59.7736 251.447 61.8206C254.056 63.8798 255.939 66.2597 257.212 68.5287C258.471 70.7976 259.222 72.9185 259.553 74.7065C259.782 75.5821 259.846 76.3836 259.909 77.0741C259.998 77.7646 260.011 78.3565 259.986 78.8251C259.973 79.7746 259.935 80.2678 259.896 80.2678L259.884 80.2555Z" fill="#1D1D1D"/>
<path d="M255.237 66.1858C255.288 66.2597 254.868 66.605 254.066 67.1969C253.621 67.5051 253.124 67.8505 252.577 68.2327C252.285 68.43 251.966 68.6519 251.623 68.8616C251.254 69.0465 250.872 69.2438 250.478 69.4411C247.373 71.1798 242.448 72.9555 236.824 72.7705C236.124 72.7459 235.437 72.7089 234.762 72.6842C234.088 72.5856 233.426 72.4869 232.777 72.3883C232.459 72.339 232.128 72.2896 231.81 72.228C231.505 72.1417 231.187 72.0677 230.881 71.9937C230.27 71.8334 229.672 71.6854 229.1 71.5127C226.822 70.7482 224.85 69.8481 223.31 68.9233C220.192 67.0983 218.678 65.4336 218.805 65.3349C218.933 65.1993 220.625 66.5804 223.755 68.1587C225.308 68.9603 227.255 69.7371 229.456 70.4153C230.016 70.5756 230.589 70.6866 231.174 70.8346C231.467 70.9085 231.759 70.9825 232.065 71.0442C232.37 71.0935 232.675 71.1305 232.994 71.1798C233.617 71.2661 234.253 71.3525 234.89 71.4511C235.539 71.4758 236.2 71.5004 236.862 71.5251C242.206 71.6977 246.94 70.1564 250.083 68.652C250.49 68.4793 250.872 68.319 251.241 68.171C251.597 67.9984 251.916 67.8011 252.221 67.6408C252.806 67.3325 253.341 67.0489 253.812 66.79C254.69 66.3337 255.211 66.1241 255.262 66.1858H255.237Z" fill="#1D1D1D"/>
<path d="M218.069 93.5595C218.018 93.4855 218.438 93.1403 219.24 92.5484C219.685 92.2401 220.182 91.8948 220.729 91.5126C221.022 91.3153 221.34 91.0933 221.683 90.8837C222.052 90.6987 222.434 90.5014 222.829 90.3041C225.933 88.5655 230.858 86.7898 236.482 86.9747C237.182 86.9994 237.869 87.0364 238.544 87.0611C239.218 87.1597 239.88 87.2583 240.529 87.357C240.847 87.4063 241.178 87.4556 241.496 87.5173C241.801 87.6036 242.12 87.6776 242.425 87.7516C243.036 87.9119 243.634 88.0599 244.206 88.2325C246.484 88.9971 248.457 89.8972 249.996 90.822C253.114 92.647 254.628 94.3117 254.501 94.4104C254.374 94.546 252.681 93.165 249.551 91.5866C247.998 90.7851 246.052 90.0082 243.85 89.33C243.29 89.1697 242.718 89.0587 242.132 88.9107C241.84 88.8367 241.547 88.7627 241.242 88.7011C240.936 88.6518 240.631 88.6148 240.313 88.5655C239.689 88.4791 239.053 88.3928 238.417 88.2942C237.768 88.2695 237.106 88.2448 236.444 88.2202C231.1 88.0475 226.366 89.5889 223.223 91.0933C222.816 91.2659 222.434 91.4263 222.065 91.5742C221.709 91.7469 221.391 91.9442 221.085 92.1045C220.5 92.4251 219.965 92.6964 219.495 92.9553C218.617 93.4116 218.095 93.6212 218.044 93.5595H218.069Z" fill="#1D1D1D"/>
<path d="M259.869 80.7713C259.869 81.1166 249.46 81.1413 236.633 80.8453C223.806 80.5494 213.41 80.0192 213.423 79.6739C213.423 79.3286 223.832 79.304 236.659 79.5999C249.485 79.8959 259.882 80.4261 259.869 80.759V80.7713Z" fill="#1D1D1D"/>
<path d="M235.569 102.192C235.213 102.192 235.187 92.1056 235.493 79.6759C235.798 67.2461 236.345 57.184 236.689 57.1963C237.045 57.1963 237.071 67.2831 236.765 79.7129C236.46 92.1426 235.913 102.205 235.569 102.192Z" fill="#1D1D1D"/>
<path d="M235.565 102.156C235.476 102.292 232.918 100.602 229.966 96.8042C228.502 94.9052 226.975 92.4514 225.817 89.5042C224.659 86.5571 223.947 83.0797 224.023 79.4174C224.087 75.7427 225.041 72.3147 226.365 69.4292C227.688 66.5438 229.355 64.1762 230.907 62.3512C234.038 58.6888 236.621 57.0611 236.697 57.1968C236.824 57.3324 234.483 59.1821 231.62 62.8937C230.195 64.7557 228.668 67.0863 227.446 69.8855C226.225 72.6723 225.359 75.9524 225.296 79.4421C225.219 82.9318 225.868 86.2611 226.924 89.1096C227.981 91.9704 229.38 94.3873 230.704 96.2986C233.389 100.134 235.692 102.02 235.565 102.168V102.156Z" fill="#1D1D1D"/>
<path d="M237.22 57.1969C237.309 57.0613 239.866 58.7506 242.818 62.5486C244.282 64.4476 245.809 66.9015 246.967 69.8486C248.125 72.7957 248.837 76.2731 248.761 79.9354C248.697 83.6101 247.743 87.0381 246.42 89.9236C245.096 92.8091 243.429 95.1766 241.877 97.0016C238.747 100.664 236.163 102.292 236.087 102.156C235.96 102.02 238.301 100.171 241.164 96.4591C242.589 94.5971 244.116 92.2665 245.338 89.4674C246.56 86.6805 247.425 83.4005 247.489 79.9108C247.565 76.4211 246.916 73.0917 245.86 70.2432C244.804 67.3824 243.404 64.9655 242.08 63.0542C239.395 59.2192 237.092 57.3202 237.22 57.1846V57.1969Z" fill="#1D1D1D"/>
<path d="M302.833 108.358C300.823 103.364 298.838 98.3325 297.756 93.0917C296.662 87.8387 296.509 82.3144 298.138 77.197C298.379 76.4201 300.568 71.1917 301.408 71.2164C302.006 71.2411 300.759 76.0748 301.09 76.5681C304.246 81.1922 305.365 86.8892 305.225 92.4259C305.098 97.9625 304.207 102.981 302.846 108.37" fill="#333333"/>
<path d="M332.861 168.647C324.297 168.943 304.561 146.167 304.064 137.881L301.087 87.9894C299.852 74.6101 306.851 62.76 320.683 61.9338H321.968C334.884 61.8845 345.675 71.4534 346.756 83.9201C347.762 95.5237 348.729 108.348 348.665 114.575C348.551 127.461 335.253 129.52 335.253 129.52C335.228 129.52 335.355 132.505 335.533 136.29C335.94 144.774 341.094 168.339 332.339 168.647H332.861Z" fill="#FFBE9D"/>
<path d="M335.254 129.521C335.254 129.521 326.868 130.027 317.923 124.625C317.923 124.625 322.122 134.305 335.394 133.097L335.267 129.533L335.254 129.521Z" fill="#EB996E"/>
<path d="M342.949 93.8337C342.987 94.8078 342.172 95.634 341.129 95.6957C340.085 95.7573 339.207 95.0175 339.169 94.0433C339.131 93.0692 339.945 92.243 340.989 92.1813C342.032 92.1197 342.91 92.8595 342.961 93.8337H342.949Z" fill="#333333"/>
<path d="M343.944 89.6146C343.715 89.8612 342.265 88.8254 340.229 88.8377C338.193 88.8254 336.691 89.8489 336.462 89.6022C336.347 89.4913 336.589 89.0597 337.238 88.6034C337.874 88.1472 338.969 87.6909 340.254 87.6909C341.527 87.6909 342.595 88.1472 343.219 88.6034C343.855 89.072 344.059 89.5036 343.944 89.6146Z" fill="#333333"/>
<path d="M324.187 94.6589C324.225 95.633 323.411 96.4592 322.367 96.5209C321.324 96.5825 320.446 95.8427 320.408 94.8685C320.369 93.8944 321.184 93.0682 322.227 93.0065C323.271 92.9449 324.149 93.6847 324.187 94.6589Z" fill="#333333"/>
<path d="M323.903 90.1448C323.674 90.3915 322.224 89.3557 320.188 89.368C318.152 89.3557 316.65 90.3791 316.421 90.1325C316.306 90.0215 316.548 89.5899 317.197 89.1337C317.833 88.6774 318.928 88.2212 320.2 88.2212C321.473 88.2212 322.542 88.6774 323.165 89.1337C323.789 89.6023 324.005 90.0339 323.891 90.1448H323.903Z" fill="#333333"/>
<path d="M331.292 105.34C331.292 105.229 332.552 105.007 334.613 104.748C335.135 104.699 335.631 104.588 335.72 104.243C335.848 103.873 335.619 103.33 335.364 102.751C334.868 101.53 334.346 100.247 333.812 98.9033C331.648 93.4283 330.083 88.9274 330.312 88.8411C330.541 88.7548 332.476 93.1323 334.639 98.6073C335.16 99.9637 335.657 101.246 336.128 102.479C336.331 103.059 336.675 103.7 336.408 104.465C336.268 104.847 335.886 105.118 335.555 105.204C335.224 105.303 334.931 105.315 334.664 105.328C332.59 105.439 331.305 105.451 331.305 105.34H331.292Z" fill="#333333"/>
<path d="M323.699 82.7494C323.419 83.2549 321.434 82.737 319.029 82.6877C316.611 82.6014 314.6 83.0206 314.358 82.4904C314.257 82.2438 314.651 81.7875 315.504 81.3683C316.344 80.9614 317.642 80.6284 319.092 80.6654C320.543 80.7024 321.815 81.097 322.63 81.5532C323.457 82.0095 323.826 82.4904 323.711 82.7247L323.699 82.7494Z" fill="#333333"/>
<path d="M343.435 84.9931C343.015 85.4494 341.348 85.0178 339.35 85.0301C337.352 84.9808 335.66 85.4 335.266 84.9315C335.087 84.7095 335.342 84.2532 336.08 83.8093C336.805 83.3777 338.014 83.0078 339.388 83.0078C340.763 83.0078 341.959 83.4024 342.671 83.8587C343.384 84.3026 343.626 84.7711 343.448 84.9931H343.435Z" fill="#333333"/>
<path d="M302.207 97.5304C301.978 97.4317 293.057 94.9409 293.375 103.758C293.694 112.574 302.754 110.441 302.767 110.182C302.767 109.923 302.207 97.5304 302.207 97.5304Z" fill="#FFBE9D"/>
<path d="M299.861 106.93C299.861 106.93 299.708 107.041 299.441 107.177C299.186 107.3 298.741 107.399 298.257 107.239C297.29 106.93 296.425 105.475 296.323 103.897C296.272 103.095 296.412 102.331 296.692 101.69C296.947 101.036 297.354 100.568 297.837 100.469C298.308 100.346 298.665 100.617 298.792 100.863C298.919 101.11 298.868 101.283 298.919 101.295C298.945 101.32 299.11 101.135 299.021 100.777C298.983 100.605 298.868 100.395 298.639 100.235C298.41 100.074 298.092 99.988 297.761 100.037C297.061 100.111 296.45 100.752 296.158 101.455C295.827 102.171 295.636 103.034 295.7 103.934C295.827 105.71 296.819 107.337 298.156 107.658C298.805 107.794 299.326 107.596 299.593 107.374C299.861 107.152 299.912 106.943 299.873 106.93H299.861Z" fill="#EB996E"/>
<path d="M340.207 69.5788C341.645 68.728 337.013 64.3011 333.322 62.8707C327.749 60.7004 319.338 59.5783 314.362 61.1813C308.369 63.105 303.47 66.2494 300.67 71.7244C297.871 77.1994 297.005 83.4883 297.464 89.5798C297.604 91.4418 297.896 93.3778 298.991 94.9068C300.352 96.7935 302.846 97.9156 302.859 100.616C302.859 101.603 303.203 102.577 303.928 103.267C305.671 104.907 307.631 103.218 308.496 101.553C310.341 98.0143 310.367 93.8957 310.367 89.9251C310.367 87.1136 310.354 84.2405 309.412 81.5769C308.903 80.1219 308.127 78.7778 307.694 77.2981C307.262 75.8183 307.236 74.129 308.14 72.8712C308.293 72.6616 308.534 72.4026 308.84 72.119C311.308 69.8254 314.884 69.0116 318.167 69.9857C323.372 71.5148 332.228 73.7714 334.43 71.9834C337.598 69.4185 338.311 67.8031 338.311 67.8031L340.207 69.5788Z" fill="#333333"/>
<path d="M325.737 106.646C325.61 106.671 325.559 107.152 325.775 107.904C325.966 108.644 326.551 109.68 327.531 110.42C328.498 111.172 329.516 111.566 330.254 111.788C330.992 112.01 331.476 112.072 331.527 111.949C331.578 111.825 331.183 111.554 330.534 111.184C329.885 110.814 328.982 110.346 328.142 109.692C326.424 108.41 326.029 106.56 325.737 106.634V106.646Z" fill="#333333"/>
<path d="M417.305 246.678L353.578 250.846L351.479 230.266L428.592 233.003L417.305 246.678Z" fill="#FFBE9D"/>
<path d="M462.568 179.436C462.568 179.522 463.331 180.928 463.331 180.928C458.241 191.458 439.752 229.599 439.752 229.599L415.447 242.349L356.009 242.657L355.869 239.55L385.849 226.491L424.049 225.739L442.73 185.503C443.2 184.479 444.142 183.727 445.275 183.456L462.568 179.423V179.436Z" fill="#5C5C5C"/>
<path d="M415.45 242.351C415.527 242.388 416.086 241.463 416.926 239.946C417.766 238.429 418.873 236.308 420.082 233.965C421.278 231.61 422.334 229.477 423.072 227.911C423.81 226.345 424.218 225.358 424.141 225.321C424.065 225.284 423.505 226.209 422.678 227.726C421.838 229.243 420.718 231.364 419.522 233.719C418.326 236.074 417.27 238.22 416.532 239.786C415.794 241.352 415.387 242.338 415.463 242.363L415.45 242.351Z" fill="#333333"/>
<path d="M409.682 237.505L384.245 237.801L402.963 227.282L423.502 226.838L409.682 237.505Z" fill="#333333"/>
<path d="M355.87 239.551C355.87 239.551 356.086 239.588 356.493 239.588C356.977 239.588 357.562 239.588 358.275 239.575C359.916 239.551 362.118 239.514 364.815 239.464C370.338 239.366 377.96 239.316 386.384 239.255C394.808 239.193 402.443 239.07 407.966 238.86C410.727 238.761 412.954 238.663 414.506 238.552C415.219 238.502 415.804 238.465 416.275 238.428C416.682 238.392 416.898 238.367 416.886 238.342C416.886 238.318 416.669 238.305 416.262 238.305C415.779 238.305 415.193 238.305 414.481 238.318C412.839 238.342 410.638 238.379 407.94 238.428C402.417 238.527 394.795 238.576 386.371 238.638C377.947 238.7 370.312 238.823 364.79 239.033C362.029 239.131 359.802 239.23 358.249 239.341C357.537 239.39 356.951 239.427 356.48 239.464C356.073 239.501 355.857 239.526 355.87 239.551Z" fill="#333333"/>
<path d="M419.011 240.487C419.011 240.487 419.163 240.253 419.405 239.785C419.672 239.254 420.016 238.564 420.436 237.713C421.339 235.839 422.599 233.224 424.126 230.031C427.218 223.458 431.443 214.494 436.1 204.592C439.383 197.526 442.437 190.941 445.008 185.392L444.83 185.54C450.352 184.196 454.959 183.074 458.267 182.272C459.832 181.878 461.079 181.557 462.008 181.323C462.874 181.101 463.319 180.965 463.319 180.941C463.319 180.916 462.848 181.002 461.97 181.175C461.028 181.372 459.769 181.644 458.191 181.989C454.87 182.741 450.25 183.789 444.702 185.047L444.575 185.072L444.524 185.183C441.928 190.707 438.836 197.292 435.528 204.333C430.934 214.259 426.76 223.261 423.719 229.846C422.256 233.076 421.059 235.703 420.207 237.602C419.825 238.478 419.52 239.18 419.278 239.723C419.074 240.216 418.973 240.475 418.998 240.475L419.011 240.487Z" fill="#333333"/>
<path d="M433.501 226.073C433.501 226.073 432.394 225.099 430.409 227.799C428.424 230.5 425.255 238.269 425.255 238.269L421.463 240.143C421.463 240.143 424.683 236.135 424.606 234.545C424.53 232.954 421.947 233.065 420.649 235.395C419.351 237.726 415.444 242.338 415.444 242.338C415.444 242.338 416.946 246.876 417.289 246.666C417.633 246.456 424.072 245.827 424.072 245.827L425.79 244.952C425.79 244.952 430.129 244.767 430.307 243.62C430.485 242.473 437.42 237.393 437.369 236.37C437.319 235.346 437.064 229.772 437.064 229.772C437.064 229.772 439.991 221.905 439.253 221.141C438.515 220.376 435.499 218.798 433.488 226.061L433.501 226.073Z" fill="#FFBE9D"/>
<path d="M433.03 225.976C433.03 225.976 433.157 226.001 433.348 226.063C433.539 226.112 433.755 226.334 433.768 226.691V226.654C433.539 227.505 433.272 228.812 432.992 230.415C432.699 232.006 432.406 233.917 431.897 235.866C431.554 237.284 430.777 238.406 429.989 239.429C429.263 240.428 428.589 241.353 427.978 242.204C426.845 243.795 426.184 244.806 426.247 244.855C426.311 244.904 427.113 243.98 428.334 242.463C428.983 241.637 429.696 240.737 430.459 239.762C430.854 239.257 431.274 238.714 431.655 238.085C432.024 237.456 432.304 236.754 432.508 236.026C433.043 234.004 433.297 232.092 433.526 230.489C433.73 229.059 433.908 227.801 434.06 226.716V226.691C433.997 226.21 433.641 225.939 433.386 225.927C433.144 225.902 433.03 225.976 433.043 225.989L433.03 225.976Z" fill="#EB996E"/>
<path d="M434.7 239.293C434.865 239.33 435.54 237.234 436.189 234.607C436.85 231.981 437.245 229.823 437.079 229.786C436.914 229.749 436.24 231.845 435.591 234.471C434.929 237.098 434.534 239.256 434.7 239.293Z" fill="#EB996E"/>
<path d="M422.391 233.744C422.391 233.744 422.569 233.794 422.875 233.818C423.155 233.843 423.638 233.868 423.931 234.176C424.236 234.472 424.147 235.064 423.854 235.668C423.562 236.358 423.256 237.049 422.951 237.764C422.633 238.479 422.327 239.158 422.022 239.823C421.704 240.428 421.348 240.958 421.08 241.414C420.52 242.327 420.291 242.98 420.368 243.005C420.444 243.042 420.8 242.487 421.449 241.648C421.768 241.217 422.162 240.711 422.531 240.082C422.849 239.441 423.193 238.726 423.536 237.986C423.829 237.259 424.122 236.556 424.402 235.865C424.529 235.52 424.643 235.175 424.643 234.817C424.656 234.459 424.503 234.077 424.249 233.868C423.702 233.436 423.167 233.559 422.875 233.584C422.556 233.633 422.404 233.707 422.404 233.744H422.391Z" fill="#EB996E"/>
<path d="M332.702 471.321L326.67 495.613C326.67 495.613 350.123 509.72 349.461 514.307L300.432 504.664L308.232 466.438L332.702 471.321Z" fill="#5C5C5C"/>
<path d="M311.931 490.57C310.925 490.631 310.06 491.544 310.086 492.518C310.111 493.492 311.053 494.355 312.058 494.306C313.063 494.257 314.145 493.209 314.005 492.234C313.865 491.273 312.707 490.311 311.74 490.594" fill="#E0E0E0"/>
<g opacity="0.6">
<path d="M300.419 504.664L301.361 500.841L348.023 511.52C348.023 511.52 350.008 512.864 349.448 514.307L300.419 504.664Z" fill="white"/>
</g>
<path d="M327.507 495.528C327.456 495.762 326.234 495.627 324.898 496.145C323.55 496.625 322.735 497.513 322.532 497.378C322.315 497.291 322.964 495.972 324.593 495.38C326.209 494.776 327.609 495.331 327.507 495.54V495.528Z" fill="#333333"/>
<path d="M332.218 498.61C332.218 498.844 331.111 499.041 330.093 499.855C329.049 500.644 328.617 501.668 328.387 501.606C328.158 501.606 328.273 500.213 329.558 499.214C330.831 498.203 332.269 498.388 332.218 498.61Z" fill="#333333"/>
<path d="M333.879 505.145C333.65 505.145 333.561 503.924 334.439 502.777C335.317 501.618 336.551 501.347 336.602 501.557C336.691 501.778 335.826 502.309 335.113 503.271C334.388 504.208 334.108 505.17 333.866 505.145H333.879Z" fill="#333333"/>
<path d="M328.247 489.843C328.107 490.041 327.077 489.498 325.702 489.325C324.328 489.116 323.183 489.35 323.107 489.128C323.005 488.931 324.214 488.277 325.83 488.511C327.446 488.733 328.413 489.695 328.26 489.843H328.247Z" fill="#333333"/>
<path d="M315.955 477.711L315.98 502.707C315.98 502.707 342.206 511.067 342.677 515.691L292.681 517.491L290.988 478.55L315.967 477.724L315.955 477.711Z" fill="#5C5C5C"/>
<path d="M300.439 501.153C299.485 501.449 298.849 502.522 299.116 503.459C299.371 504.396 300.503 505.025 301.47 504.754C302.437 504.483 303.226 503.212 302.857 502.3C302.488 501.4 301.127 500.722 300.261 501.215" fill="#E0E0E0"/>
<g opacity="0.6">
<path d="M292.679 517.479V513.545L340.614 513.298C340.614 513.298 342.879 514.162 342.688 515.691L292.691 517.491L292.679 517.479Z" fill="white"/>
</g>
<path d="M316.798 502.425C316.798 502.659 315.577 502.807 314.406 503.621C313.21 504.398 312.637 505.446 312.408 505.36C312.179 505.323 312.497 503.892 313.923 502.943C315.348 501.981 316.837 502.215 316.798 502.425Z" fill="#333333"/>
<path d="M322.111 504.332C322.175 504.554 321.132 504.998 320.343 506.034C319.516 507.045 319.35 508.13 319.108 508.13C318.879 508.179 318.663 506.798 319.668 505.528C320.661 504.258 322.099 504.11 322.111 504.332Z" fill="#333333"/>
<path d="M325.322 510.314C325.106 510.376 324.711 509.205 325.297 507.885C325.869 506.566 327.002 506.011 327.104 506.208C327.244 506.393 326.531 507.121 326.073 508.206C325.589 509.279 325.564 510.29 325.322 510.314Z" fill="#333333"/>
<path d="M316.132 496.726C316.043 496.948 314.91 496.665 313.523 496.8C312.149 496.911 311.093 497.405 310.953 497.207C310.8 497.047 311.818 496.122 313.447 495.987C315.063 495.826 316.246 496.541 316.132 496.739V496.726Z" fill="#333333"/>
<path d="M276.58 296.545L277.496 316.262L286.518 392.851C286.518 392.851 284.839 430.276 283.731 451.399C282.764 469.747 287.205 501.438 287.205 501.438L319.018 500.057L325.482 393.443L329.478 326.953L340.37 296.298L276.567 296.533L276.58 296.545Z" fill="#333333"/>
<path d="M362.185 296.345L359.398 403.786L330.932 485.442L329.673 490.338L310.458 486.713L315.802 296.185L362.185 296.345Z" fill="#333333"/>
<path d="M329.427 327.754C329.427 327.754 329.452 327.902 329.465 328.198C329.465 328.519 329.49 328.951 329.503 329.505C329.516 330.689 329.541 332.379 329.579 334.536C329.656 338.902 329.617 345.228 329.528 353.045C329.287 368.669 328.498 390.248 326.805 414.047C325.151 437.846 323.102 459.339 321.601 474.901C320.837 482.657 320.214 488.934 319.768 493.324C319.539 495.469 319.361 497.159 319.247 498.33C319.183 498.885 319.132 499.304 319.094 499.625C319.056 499.921 319.03 500.069 319.018 500.069C319.018 500.069 319.018 499.921 319.018 499.625C319.043 499.304 319.068 498.873 319.107 498.318C319.208 497.134 319.348 495.457 319.527 493.299C319.921 488.909 320.481 482.62 321.168 474.864C322.568 459.302 324.54 437.797 326.194 414.01C327.887 390.236 328.752 368.669 329.096 353.045C329.248 345.24 329.338 338.914 329.338 334.549C329.35 332.391 329.363 330.702 329.376 329.518C329.376 328.963 329.388 328.531 329.401 328.211C329.401 327.915 329.414 327.767 329.427 327.767V327.754Z" fill="#5C5C5C"/>
<path d="M300.68 297.455C300.68 297.455 300.706 297.862 300.604 298.589C300.502 299.317 300.273 300.365 299.841 301.61C299.001 304.101 297.156 307.418 294.013 310.107C290.87 312.795 287.23 314.139 284.571 314.632C283.235 314.891 282.14 314.977 281.377 314.977C280.613 314.977 280.206 314.94 280.206 314.916C280.206 314.805 281.886 314.842 284.482 314.237C287.065 313.658 290.564 312.277 293.618 309.675C296.672 307.073 298.517 303.879 299.446 301.475C300.388 299.058 300.579 297.43 300.68 297.455Z" fill="#5C5C5C"/>
<path d="M330.201 300.861C330.239 301.736 329.539 302.476 328.635 302.513C327.732 302.55 326.968 301.872 326.93 300.997C326.892 300.121 327.592 299.381 328.495 299.344C329.399 299.307 330.162 299.985 330.201 300.861Z" fill="#5C5C5C"/>
<path d="M358.867 314.608C358.867 314.608 357.862 313.991 356.526 312.672C355.202 311.352 353.561 309.305 352.238 306.777C350.927 304.25 350.214 301.759 349.909 299.934C349.603 298.109 349.629 296.962 349.693 296.962C349.794 296.962 349.909 298.084 350.316 299.86C350.723 301.635 351.474 304.052 352.759 306.531C354.044 309.009 355.597 311.032 356.819 312.413C358.053 313.794 358.905 314.558 358.842 314.632L358.867 314.608Z" fill="#5C5C5C"/>
<path d="M330.094 142.951L302.646 122.518L297.467 131.051C297.467 131.051 275.16 148.438 270.999 153.247L280.212 227.382C280.212 227.382 275.86 266.767 275.605 269.862C275.351 272.957 272.946 300.123 272.946 300.123C272.704 305.252 277.336 311.27 278.227 311.233C278.227 311.233 282.439 305.869 287.236 306.054C292.021 306.226 324.825 313.305 324.825 313.305L363.802 303.119L356.142 228.146L352.426 177.909L348.099 158.821L339.981 151.644L335.705 139.128C335.705 139.128 334.611 155.01 334.395 154.443C334.166 153.876 330.094 142.975 330.094 142.975V142.951Z" fill="#1D1D1D"/>
<path d="M298.231 132.348C298.231 132.348 298.601 132.853 299.351 133.692C300.115 134.53 301.247 135.714 302.685 137.132C305.561 139.981 309.748 143.705 314.278 147.885C316.517 149.956 318.617 151.966 320.449 153.853L320.666 154.075L320.882 153.853C323.681 150.894 325.654 148.107 327.193 146.257C327.906 145.394 328.504 144.666 328.988 144.087C329.408 143.594 329.637 143.31 329.611 143.298C329.586 143.273 329.318 143.507 328.848 143.964C328.377 144.42 327.715 145.123 326.913 146.035C325.285 147.836 323.236 150.585 320.449 153.459H320.882C319.062 151.535 316.963 149.513 314.71 147.441C310.155 143.261 305.943 139.586 302.991 136.824C301.502 135.455 300.331 134.308 299.517 133.531C298.715 132.742 298.244 132.323 298.219 132.348H298.231Z" fill="#333333"/>
<path d="M349.195 265.672C349.195 265.672 349.195 265.573 349.195 265.376C349.182 265.141 349.156 264.87 349.118 264.525C349.042 263.723 348.927 262.638 348.775 261.27C348.444 258.384 347.973 254.315 347.4 249.296C346.204 239.185 344.499 225.226 342.514 209.824C340.529 194.41 338.633 180.476 337.119 170.402C336.368 165.371 335.706 161.301 335.223 158.49C334.968 157.134 334.765 156.048 334.612 155.272C334.536 154.939 334.485 154.655 334.434 154.433C334.396 154.248 334.357 154.149 334.357 154.149C334.357 154.149 334.357 154.248 334.37 154.445C334.396 154.667 334.434 154.951 334.485 155.296C334.599 156.085 334.765 157.171 334.981 158.539C335.388 161.412 335.961 165.469 336.673 170.476C338.06 180.563 339.893 194.509 341.878 209.911C343.85 225.287 345.644 239.222 346.942 249.358C347.604 254.364 348.138 258.433 348.52 261.307C348.711 262.675 348.864 263.76 348.978 264.55C349.029 264.895 349.08 265.166 349.118 265.388C349.156 265.573 349.169 265.672 349.182 265.672H349.195Z" fill="#333333"/>
<g opacity="0.3">
<path d="M356.894 235.09C353.967 236.668 350.557 237.322 347.681 238.999C345.632 240.195 343.927 241.86 342.184 243.45C330.121 254.462 314.685 262.662 298.13 263.661C292.455 264.006 286.334 263.353 281.931 259.863C279.514 257.94 277.707 254.869 278.47 251.922C279.399 248.346 283.471 246.583 287.059 245.325C298.206 241.416 309.366 237.495 320.513 233.586C327.563 231.107 334.638 228.629 341.98 227.173C346.905 226.199 351.931 225.694 356.957 225.657" fill="black"/>
</g>
<path d="M321.389 282.578C321.478 282.726 329.469 278.089 339.229 272.219C348.989 266.35 356.828 261.479 356.739 261.331C356.649 261.183 348.658 265.82 338.898 271.689C329.138 277.559 321.3 282.43 321.401 282.565L321.389 282.578Z" fill="#333333"/>
<path d="M348.517 307.162C348.517 307.162 348.517 306.607 348.403 305.62C348.288 304.511 348.148 303.105 347.983 301.428C347.652 297.889 347.397 292.981 347.219 287.543C347.028 282.105 346.825 277.185 346.647 273.634C346.545 271.957 346.468 270.539 346.405 269.416C346.329 268.418 346.278 267.875 346.227 267.875C346.189 267.875 346.163 268.43 346.15 269.429C346.15 270.551 346.176 271.969 346.189 273.646C346.252 277.21 346.379 282.13 346.57 287.568C346.748 293.006 347.079 297.926 347.525 301.477C347.741 303.253 347.97 304.683 348.148 305.657C348.339 306.644 348.466 307.174 348.505 307.174L348.517 307.162Z" fill="#333333"/>
<g opacity="0.3">
<path d="M306.63 223.287C303.284 212.781 302.991 200.536 302.787 189.611C301.12 197.207 299.39 208.773 298.092 216.727L301.655 224.15L306.63 223.287Z" fill="black"/>
</g>
<g opacity="0.3">
<path d="M334.4 154.433C334.4 154.433 333.382 153.965 333.064 153.57C331.88 152.066 331.181 150.241 330.023 148.724C327.07 151.597 324.322 154.68 321.815 157.923C317.679 154.1 313.531 150.265 309.752 146.097C306.723 142.756 303.949 139.204 301.442 135.493L320.67 153.681L330.086 142.99L334.387 154.458L334.4 154.433Z" fill="black"/>
</g>
<path d="M335.324 144.615C335.197 144.701 336.1 146.415 337.246 148.573C338.391 150.756 339.905 152.211 340.032 152.075C340.147 151.964 338.925 150.448 337.793 148.302C336.66 146.157 335.477 144.504 335.312 144.615H335.324Z" fill="#333333"/>
<path d="M307.652 158.795C307.652 158.795 307.461 158.363 306.965 157.672C306.468 156.982 305.667 156.032 304.56 154.984C303.453 153.924 302.04 152.765 300.424 151.569C298.808 150.385 296.976 149.004 294.634 148.301C292.306 147.598 289.964 147.697 287.941 147.931C285.892 148.153 284.123 148.621 282.609 148.954C281.108 149.3 279.886 149.583 279.059 149.793C278.219 150.003 277.774 150.138 277.786 150.188C277.786 150.225 278.27 150.175 279.123 150.027C279.975 149.892 281.197 149.67 282.711 149.386C284.225 149.115 286.007 148.695 288.017 148.498C290.015 148.301 292.267 148.227 294.456 148.893C296.645 149.559 298.452 150.866 300.08 152.025C301.709 153.196 303.134 154.306 304.254 155.305C306.519 157.303 307.563 158.869 307.652 158.807V158.795Z" fill="#333333"/>
<path d="M347.166 216.911L347 231.918C347 231.918 324.566 243.287 309.754 247.677C294.943 252.067 277.255 252.264 277.255 252.264L282.434 227.663L347.166 216.911Z" fill="#FFBE9D"/>
<path d="M391.625 218.048C391.625 218.048 391.854 216.161 389.806 215.051C387.77 213.954 383.469 211.5 383.469 211.5L370.769 210.933L347.177 216.901L347.012 231.908C347.012 231.908 359.189 232.031 362.002 231.797C364.814 231.575 372.551 228.8 372.551 228.8C372.551 228.8 385.797 229.849 386.383 229.109C386.981 228.369 387.77 227.53 386.917 227.062C386.052 226.593 375.808 224.497 375.808 224.497L382.578 223.695C382.578 223.695 392.605 225.286 393.318 224.953C394.03 224.62 394.921 223.362 394.247 222.475L393.572 221.587C393.572 221.587 394.119 219.737 392.414 219.096L391.46 218.837L391.625 218.023V218.048Z" fill="#FFBE9D"/>
<path d="M373.584 218.65C373.571 218.712 374.729 219.02 376.651 219.008C378.547 219.069 381.206 218.65 383.955 219.304C385.316 219.649 386.564 220.241 387.747 220.66C388.93 221.092 390.025 221.412 390.954 221.634C392.811 222.078 393.995 222.164 394.008 222.09C394.02 222.004 392.875 221.77 391.068 221.24C390.165 220.968 389.109 220.623 387.951 220.167C386.793 219.723 385.546 219.106 384.108 218.736C382.657 218.379 381.232 218.354 379.972 218.403C378.712 218.453 377.58 218.551 376.638 218.601C374.755 218.712 373.597 218.564 373.584 218.65Z" fill="#EB996E"/>
<path d="M374.527 215.146C374.515 215.22 375.571 215.454 377.276 215.368C378.968 215.306 381.297 214.973 383.677 215.898C386.082 216.749 388.258 217.587 389.848 218.118C391.439 218.66 392.444 218.969 392.47 218.895C392.495 218.821 391.553 218.389 390.001 217.735C388.436 217.094 386.298 216.206 383.868 215.343C382.646 214.912 381.361 214.69 380.216 214.727C379.07 214.739 378.078 214.887 377.238 214.961C375.571 215.146 374.54 215.06 374.527 215.146Z" fill="#EB996E"/>
<path d="M270.982 153.245C270.982 153.245 264.657 164.047 263.843 169.214C263.029 174.381 262.889 228.514 263.983 229.501C265.09 230.475 266.999 231.683 266.999 231.683C266.999 231.683 260.98 233.225 262.978 236.221C264.975 239.218 266.922 241.437 266.922 241.437C266.922 241.437 268.297 251.389 269.442 251.586C270.587 251.795 277.166 255.026 277.166 255.026C277.166 255.026 295.223 244.557 296.66 239.366C298.098 234.174 301.585 223.755 301.585 223.755L298.086 216.726L305.581 172.79C305.581 172.79 310.034 158.646 300.592 153.344C291.151 148.042 274.176 147.351 270.994 153.245H270.982Z" fill="#1D1D1D"/>
<path d="M304.157 181.125C304.157 181.125 304.081 181.347 303.992 181.791C303.903 182.272 303.776 182.913 303.61 183.727C303.292 185.466 302.847 187.932 302.287 191.027C301.18 197.34 299.627 206.219 297.795 216.7V216.786L297.82 216.873C298.927 219.117 300.098 221.472 301.307 223.914V223.692C299.704 228.649 298.037 234.05 296.242 239.55L295.937 240.253L295.479 240.906C295.199 241.35 294.817 241.745 294.461 242.139C294.117 242.546 293.71 242.916 293.328 243.286C292.947 243.668 292.539 244.026 292.132 244.371C290.516 245.789 288.811 247.059 287.106 248.28C283.708 250.709 280.285 252.867 277.015 254.816H277.295C275.641 254.002 274.037 253.237 272.46 252.534C271.671 252.177 270.894 251.831 270.08 251.535L269.775 251.424C269.686 251.4 269.495 251.363 269.495 251.338C269.469 251.338 269.329 251.153 269.253 251.005C269.087 250.672 268.96 250.302 268.846 249.932C267.993 246.936 267.56 244.026 267.153 241.424V241.362L267.102 241.313C266.11 240.166 265.219 239.032 264.43 237.959C264.036 237.416 263.654 236.898 263.31 236.381C263.119 236.122 263.018 235.875 262.878 235.628C262.814 235.369 262.738 235.11 262.789 234.852C262.954 233.803 263.959 233.174 264.736 232.731C265.563 232.287 266.352 232.003 267.051 231.793L267.281 231.732L267.09 231.608C266.033 230.955 265.27 230.425 264.774 230.055C264.277 229.697 264.036 229.5 264.023 229.512C264.023 229.512 264.074 229.574 264.176 229.685C264.29 229.796 264.456 229.944 264.697 230.141C265.181 230.536 265.919 231.091 266.975 231.781L267.001 231.596C266.288 231.781 265.474 232.052 264.608 232.496C264.176 232.718 263.743 232.99 263.323 233.347C262.929 233.717 262.534 234.198 262.445 234.815C262.394 235.123 262.458 235.431 262.534 235.752C262.674 236.035 262.814 236.344 262.992 236.578C263.336 237.096 263.705 237.626 264.099 238.181C264.888 239.278 265.754 240.413 266.759 241.597L266.708 241.486C267.09 244.112 267.484 247.01 268.337 250.08C268.451 250.463 268.578 250.845 268.769 251.24C268.897 251.424 268.947 251.646 269.291 251.831C269.482 251.905 269.495 251.893 269.609 251.93L269.889 252.029C270.653 252.312 271.429 252.67 272.218 253.015C273.783 253.73 275.386 254.507 277.028 255.309L277.168 255.383L277.308 255.296C280.616 253.348 284.039 251.203 287.462 248.761C289.18 247.54 290.898 246.258 292.54 244.827C292.959 244.482 293.367 244.112 293.761 243.73C294.156 243.348 294.563 242.978 294.932 242.546C295.301 242.127 295.695 241.732 296.001 241.251C296.166 241.017 296.332 240.795 296.484 240.548L296.841 239.747C298.66 234.198 300.289 228.846 301.867 223.877L301.905 223.766L301.854 223.655C300.633 221.226 299.462 218.87 298.342 216.626L298.368 216.799C300.111 206.317 301.587 197.414 302.63 191.089C303.127 187.981 303.521 185.515 303.801 183.764C303.916 182.95 304.017 182.309 304.081 181.816C304.145 181.372 304.157 181.137 304.145 181.137L304.157 181.125Z" fill="#333333"/>
<path d="M266.691 231.487C266.691 231.487 267.01 231.66 267.646 231.82C268.282 231.968 269.211 232.178 270.42 232.104C271.005 232.054 271.692 231.894 272.316 231.561C272.927 231.24 273.55 230.858 274.174 230.414C275.421 229.526 276.68 228.466 278.093 227.442C280.892 225.371 283.514 223.62 285.41 222.337C287.306 221.055 288.451 220.229 288.413 220.155C288.362 220.081 287.128 220.771 285.168 221.967C283.208 223.164 280.536 224.865 277.711 226.949C276.299 227.973 275.026 229.07 273.83 229.958C272.621 230.834 271.501 231.586 270.382 231.672C269.275 231.795 268.346 231.672 267.709 231.586C267.073 231.499 266.717 231.45 266.704 231.487H266.691Z" fill="#333333"/>
<path d="M266.927 241.425C266.927 241.425 267.334 241.598 268.123 241.635C268.899 241.684 270.095 241.548 271.355 240.919C273.798 239.6 277.03 237.615 280.25 234.927C283.469 232.251 286.091 229.55 287.961 227.577C288.89 226.591 289.628 225.777 290.124 225.197C290.621 224.63 290.888 224.297 290.85 224.26C290.786 224.198 289.564 225.37 287.63 227.269C285.683 229.168 283.011 231.807 279.83 234.446C276.661 237.097 273.455 239.144 271.139 240.525C269.955 241.178 268.861 241.351 268.11 241.388C267.347 241.413 266.927 241.363 266.914 241.413L266.927 241.425Z" fill="#333333"/>
<g opacity="0.3">
<path d="M288.154 220.425C287.085 222.274 285.481 223.767 283.891 225.234C281.371 227.565 278.852 229.895 276.332 232.226C274.882 233.57 273.164 235 271.166 234.815C270.148 234.729 269.232 234.211 268.366 233.681C267.577 233.2 266.687 232.472 266.865 231.584C269.079 232.275 271.624 231.893 273.533 230.61C274.385 230.043 275.098 229.303 275.849 228.613C279.437 225.308 283.789 222.928 288.103 220.573" fill="black"/>
</g>
<path d="M345.901 232.054C345.901 232.054 346.461 232.128 347.467 232.165C348.599 232.177 350.024 232.202 351.729 232.239C353.574 232.239 355.712 232.251 358.054 232.264C359.25 232.264 360.497 232.264 361.782 232.264C362.52 232.227 363.105 232.005 363.767 231.845C364.416 231.66 365.065 231.487 365.727 231.302C368.437 230.525 370.995 229.736 373.311 229.021H373.209C376.721 229.193 379.699 229.304 381.811 229.366C382.778 229.378 383.593 229.403 384.267 229.415C384.84 229.415 385.145 229.403 385.145 229.366C385.145 229.329 384.84 229.292 384.28 229.23C383.605 229.169 382.791 229.107 381.837 229.021C379.737 228.86 376.759 228.675 373.247 228.466H373.196L373.145 228.478C370.817 229.169 368.259 229.921 365.561 230.71C364.9 230.895 364.251 231.08 363.614 231.253C362.978 231.401 362.317 231.635 361.757 231.66C360.471 231.672 359.224 231.684 358.028 231.709C355.687 231.746 353.562 231.783 351.717 231.82C350.024 231.869 348.599 231.919 347.467 231.943C346.461 231.992 345.901 232.029 345.901 232.079V232.054Z" fill="#EB996E"/>
<path d="M501.914 267.929H611.604C615.112 267.929 617.959 270.69 617.959 274.092V350.56C617.959 353.435 615.549 355.771 612.584 355.771H500.945C497.98 355.771 495.57 353.435 495.57 350.56V274.092C495.57 270.69 498.417 267.929 501.925 267.929H501.914Z" fill="white"/>
<path d="M501.915 267.929H611.605C615.113 267.929 617.96 270.69 617.96 274.092V287.184H495.56V274.092C495.56 270.69 498.406 267.929 501.915 267.929Z" fill="#E0E0E0"/>
<path d="M511.848 278.559C511.848 280.495 510.229 282.075 508.221 282.075C506.213 282.075 504.595 280.506 504.595 278.559C504.595 276.612 506.213 275.042 508.221 275.042C510.229 275.042 511.848 276.612 511.848 278.559Z" fill="white"/>
<path d="M522.961 278.559C522.961 280.495 521.343 282.075 519.334 282.075C517.326 282.075 515.708 280.506 515.708 278.559C515.708 276.612 517.326 275.042 519.334 275.042C521.343 275.042 522.961 276.612 522.961 278.559Z" fill="white"/>
<path d="M534.085 278.559C534.085 280.495 532.467 282.075 530.458 282.075C528.45 282.075 526.832 280.506 526.832 278.559C526.832 276.612 528.45 275.042 530.458 275.042C532.467 275.042 534.085 276.612 534.085 278.559Z" fill="white"/>
<path d="M612.58 355.774C612.58 355.774 612.946 355.774 613.643 355.636C614.317 355.487 615.368 355.144 616.348 354.193C617.329 353.265 618.073 351.65 617.872 349.668C617.872 347.698 617.86 345.442 617.849 342.888C617.825 332.67 617.79 317.906 617.754 299.671C617.754 295.112 617.742 290.336 617.731 285.353C617.731 282.868 617.731 280.325 617.731 277.736C617.731 276.442 617.731 275.125 617.719 273.83C617.683 272.559 617.164 271.322 616.337 270.314C615.486 269.329 614.293 268.596 612.982 268.309C612.32 268.161 611.659 268.149 610.938 268.161C610.23 268.161 609.521 268.161 608.8 268.161C605.942 268.161 603.036 268.161 600.095 268.161C594.2 268.161 588.14 268.161 581.915 268.172C569.477 268.172 556.424 268.172 542.887 268.195C536.118 268.195 529.232 268.195 522.239 268.195C518.742 268.195 515.222 268.195 511.678 268.195C509.906 268.195 508.123 268.195 506.351 268.195H503.67C502.784 268.206 501.862 268.149 501.035 268.264C499.346 268.504 497.787 269.478 496.877 270.875C496.417 271.562 496.11 272.353 495.98 273.166C495.861 273.956 495.921 274.838 495.897 275.697C495.897 279.134 495.897 282.547 495.897 285.937C495.897 292.718 495.897 299.396 495.897 305.959C495.897 319.086 495.885 331.754 495.873 343.815C495.873 345.327 495.873 346.816 495.873 348.305C495.873 349.05 495.873 349.794 495.873 350.528C495.873 351.226 496.027 351.925 496.334 352.555C496.925 353.826 498.082 354.823 499.441 355.235C500.126 355.453 500.811 355.476 501.567 355.464C502.311 355.464 503.043 355.464 503.788 355.464C509.682 355.464 515.399 355.464 520.939 355.476C531.996 355.487 542.308 355.499 551.711 355.51C570.516 355.544 585.742 355.579 596.279 355.602C601.524 355.625 605.611 355.648 608.399 355.659C609.769 355.67 610.82 355.682 611.553 355.693C612.261 355.693 612.628 355.728 612.628 355.728C612.628 355.728 612.261 355.751 611.553 355.762C610.832 355.762 609.781 355.774 608.399 355.796C605.611 355.808 601.536 355.831 596.279 355.854C585.742 355.877 570.516 355.911 551.711 355.945C542.296 355.945 531.996 355.968 520.939 355.98C515.411 355.98 509.682 355.98 503.788 355.991C503.055 355.991 502.311 355.991 501.567 355.991C500.846 356.003 500.019 355.991 499.275 355.739C497.775 355.281 496.488 354.181 495.826 352.773C495.495 352.074 495.318 351.295 495.318 350.516C495.318 349.772 495.318 349.038 495.318 348.294C495.318 346.805 495.318 345.304 495.318 343.804C495.318 331.743 495.318 319.074 495.294 305.948C495.294 299.385 495.294 292.707 495.294 285.926C495.294 282.536 495.294 279.122 495.294 275.686C495.306 274.827 495.247 273.979 495.377 273.063C495.519 272.169 495.85 271.299 496.358 270.543C497.362 269.008 499.086 267.943 500.941 267.668C501.886 267.542 502.772 267.599 503.67 267.588H506.351C508.135 267.588 509.906 267.588 511.678 267.588C515.222 267.588 518.742 267.588 522.239 267.588C529.232 267.588 536.118 267.588 542.887 267.588C556.424 267.588 569.477 267.599 581.915 267.611C588.129 267.611 594.2 267.611 600.095 267.622C603.036 267.622 605.942 267.622 608.8 267.622C609.509 267.622 610.23 267.622 610.938 267.622C611.635 267.622 612.391 267.622 613.1 267.783C614.529 268.092 615.817 268.894 616.738 269.959C617.636 271.047 618.191 272.399 618.227 273.773C618.25 275.113 618.227 276.408 618.227 277.702C618.227 280.29 618.227 282.833 618.227 285.319C618.227 290.301 618.215 295.078 618.203 299.637C618.168 317.872 618.132 332.636 618.109 342.853C618.109 345.407 618.085 347.664 618.085 349.634C618.262 351.616 617.482 353.311 616.467 354.239C615.451 355.189 614.376 355.522 613.691 355.648C612.982 355.762 612.616 355.716 612.616 355.716L612.58 355.774Z" fill="#1D1D1D"/>
<path d="M550.731 299.818H506.517V342.691H550.731V299.818Z" fill="#E0E0E0"/>
<path d="M607.394 302.419H561.869V306.085H607.394V302.419Z" fill="#E0E0E0"/>
<path d="M607.525 311H562V314.665H607.525V311Z" fill="#E0E0E0"/>
<path d="M607.525 319.396H562V323.061H607.525V319.396Z" fill="#E0E0E0"/>
<path d="M607.525 327.78H562V331.445H607.525V327.78Z" fill="#E0E0E0"/>
<path d="M561.994 195.891L563.415 198.757C563.609 199.145 563.986 199.425 564.423 199.485L567.592 199.947C568.684 200.104 569.121 201.452 568.332 202.217L566.037 204.451C565.722 204.755 565.576 205.204 565.649 205.629L566.183 208.774C566.365 209.866 565.224 210.692 564.253 210.182L561.424 208.689C561.035 208.482 560.574 208.482 560.185 208.689L557.356 210.182C556.373 210.692 555.231 209.866 555.426 208.774L555.96 205.629C556.033 205.192 555.887 204.755 555.571 204.451L553.276 202.217C552.487 201.44 552.924 200.104 554.017 199.947L557.186 199.485C557.623 199.425 558 199.145 558.194 198.757L559.614 195.891C560.1 194.896 561.521 194.896 562.006 195.891H561.994Z" fill="#EBEBEB"/>
<path d="M583.339 195.891L584.76 198.757C584.954 199.145 585.33 199.425 585.767 199.485L588.936 199.947C590.029 200.104 590.466 201.452 589.677 202.217L587.382 204.451C587.067 204.755 586.921 205.204 586.994 205.629L587.528 208.774C587.71 209.866 586.569 210.692 585.597 210.182L582.768 208.689C582.38 208.482 581.918 208.482 581.53 208.689L578.701 210.182C577.717 210.692 576.576 209.866 576.77 208.774L577.305 205.629C577.377 205.192 577.232 204.755 576.916 204.451L574.621 202.217C573.832 201.44 574.269 200.104 575.362 199.947L578.531 199.485C578.968 199.425 579.344 199.145 579.539 198.757L580.947 195.891C581.433 194.896 582.853 194.896 583.339 195.891Z" fill="#EBEBEB"/>
<path d="M540.648 195.891L542.069 198.757C542.263 199.145 542.639 199.425 543.077 199.485L546.246 199.947C547.338 200.104 547.775 201.452 546.986 202.217L544.691 204.451C544.376 204.755 544.23 205.204 544.303 205.629L544.837 208.774C545.019 209.866 543.878 210.692 542.907 210.182L540.077 208.689C539.689 208.482 539.228 208.482 538.839 208.689L536.01 210.182C535.027 210.692 533.885 209.866 534.079 208.774L534.626 205.629C534.699 205.192 534.553 204.755 534.237 204.451L531.943 202.217C531.153 201.44 531.59 200.104 532.683 199.947L535.852 199.485C536.289 199.425 536.666 199.145 536.86 198.757L538.268 195.891C538.754 194.896 540.175 194.896 540.66 195.891H540.648Z" fill="#EBEBEB"/>
<path d="M586.071 222.372C586.071 222.372 586.812 222.348 588.184 222.142C589.543 221.935 591.595 221.437 593.829 220.029C596.064 218.669 598.443 216.253 599.791 212.768C600.471 211.032 600.799 209.041 600.762 206.916C600.762 204.779 600.75 202.521 600.738 200.153C600.702 197.822 600.119 195.369 598.88 193.135C597.63 190.925 595.748 188.922 593.368 187.562C590.988 186.178 588.147 185.51 585.209 185.619C582.234 185.619 579.174 185.619 576.042 185.631C563.487 185.631 549.706 185.644 535.221 185.656C531.664 185.656 528.203 187.003 525.617 189.286C522.994 191.544 521.295 194.726 520.821 198.04C520.566 199.679 520.651 201.379 520.639 203.055C520.639 204.73 520.603 206.406 520.663 208.021C520.724 211.25 522.011 214.31 523.917 216.702C525.884 219.07 528.507 220.782 531.324 221.535C532.72 221.972 534.165 222.057 535.585 222.081C537.03 222.081 538.451 222.081 539.835 222.081C545.408 222.093 550.605 222.105 555.352 222.117C564.823 222.154 572.484 222.19 577.827 222.214C580.461 222.239 582.513 222.263 583.934 222.275C584.614 222.287 585.136 222.299 585.525 222.312C585.877 222.312 586.071 222.336 586.071 222.348C586.071 222.36 585.889 222.372 585.525 222.384C585.136 222.384 584.614 222.397 583.934 222.421C582.501 222.433 580.449 222.457 577.827 222.482C572.484 222.506 564.823 222.542 555.352 222.579C550.605 222.579 545.408 222.603 539.835 222.615C538.439 222.615 537.018 222.615 535.585 222.615C534.141 222.591 532.623 222.506 531.166 222.057C528.24 221.28 525.496 219.507 523.456 217.054C521.465 214.565 520.129 211.384 520.044 208.021C519.983 206.357 520.02 204.718 520.008 203.031C520.02 201.367 519.923 199.655 520.19 197.919C520.688 194.471 522.46 191.144 525.192 188.788C527.888 186.408 531.506 185.012 535.209 185C549.682 185 563.475 185.012 576.03 185.024C579.162 185.024 582.222 185.024 585.197 185.036C588.196 184.927 591.183 185.644 593.623 187.076C596.088 188.497 598.018 190.573 599.305 192.868C600.568 195.175 601.163 197.712 601.187 200.116C601.187 202.484 601.187 204.743 601.175 206.892C601.187 209.041 600.835 211.093 600.131 212.865C598.723 216.423 596.258 218.863 593.963 220.211C591.668 221.607 589.592 222.069 588.208 222.239C587.516 222.36 586.982 222.324 586.617 222.348C586.253 222.348 586.071 222.348 586.071 222.348V222.372Z" fill="#EBEBEB"/>
<path d="M98.5474 417.211L95.7734 417.963L87.3622 411.415L85.8225 406.051C85.8225 406.051 81.4578 406.951 83.9901 413.845C86.5096 420.738 85.4534 419.098 85.4534 419.098C85.4534 419.098 76.3551 421.588 75.8207 422.563C75.4262 423.265 77.704 432.107 78.9765 436.879C79.6127 439.284 81.7759 441.096 84.2318 441.047C84.5754 441.047 84.919 440.998 85.2498 440.911C87.5276 440.295 98.611 435.375 98.611 435.375L103.408 434.08L98.5601 417.211H98.5474Z" fill="#EBEBEB"/>
<path d="M106.073 413.586L109.649 432.44L104.903 433.723L99.7236 415.707L106.073 413.586Z" fill="#EBEBEB"/>
<path d="M225.119 218.693C204.963 218.693 188.611 202.86 188.611 183.315C188.611 163.782 204.95 147.937 225.119 147.937C245.275 147.937 261.627 163.77 261.627 183.315C261.627 202.847 245.288 218.693 225.119 218.693Z" fill="#EBEBEB"/>
<path d="M225.119 160.761C212.266 160.761 201.845 170.86 201.845 183.314C201.845 195.769 212.266 205.868 225.119 205.868C237.971 205.868 248.393 195.769 248.393 183.314C248.393 170.86 237.971 160.761 225.119 160.761ZM225.119 164.682C229.534 164.682 233.593 166.149 236.838 168.579C234.497 171.501 231.277 173.807 227.167 175.496C225.195 171.994 222.943 168.591 220.398 165.274C221.912 164.904 223.477 164.682 225.106 164.682H225.119ZM216.44 166.717C219.023 169.997 221.314 173.363 223.299 176.828C218.591 178.172 212.966 178.863 206.451 178.912C207.8 173.585 211.503 169.158 216.44 166.717ZM205.891 183.314C205.891 183.154 205.917 182.994 205.917 182.833C213.374 182.833 219.812 181.995 225.208 180.342C225.666 181.23 226.098 182.13 226.506 183.031C219.952 185.016 214.557 189.085 210.332 195.214C207.558 191.983 205.879 187.84 205.879 183.314H205.891ZM225.119 201.947C220.678 201.947 216.58 200.467 213.323 198.001C217.14 192.193 222.014 188.419 228.058 186.668C229.852 191.218 231.176 195.892 232.016 200.689C229.865 201.49 227.549 201.947 225.119 201.947ZM235.782 198.802C234.93 194.375 233.683 190.059 232.054 185.842C235.693 185.349 239.689 185.472 244.079 186.212C243.226 191.453 240.147 195.966 235.782 198.802ZM230.514 182.131C230.043 181.07 229.547 180.022 229.025 178.974C233.504 177.099 237.106 174.547 239.79 171.304C242.412 174.3 244.053 178.098 244.295 182.266C239.307 181.477 234.713 181.428 230.527 182.131H230.514Z" fill="white"/>
<path d="M481.946 56.7443C482.455 80.4076 463.062 99.9894 438.63 100.483C414.211 100.976 394.004 82.1833 393.495 58.5076C392.986 34.8443 412.379 15.2625 436.811 14.7693C461.23 14.276 481.437 33.0686 481.946 56.7443Z" fill="#F5F5F5"/>
<path d="M450.584 46.2671C448.905 46.2055 447.467 48.0551 447.365 50.398C447.263 52.7533 448.548 54.7139 450.228 54.7756C451.908 54.8372 453.346 52.9876 453.448 50.6447C453.549 48.2894 452.264 46.3288 450.584 46.2671Z" fill="#E0E0E0"/>
<path d="M446.233 35.5753C446.106 35.2794 450 34.1819 454.556 35.637C459.136 37.0427 461.631 40.1378 461.351 40.2981C461.096 40.5694 458.398 38.0909 454.161 36.8084C449.962 35.452 446.272 35.9452 446.221 35.5753H446.233Z" fill="#E0E0E0"/>
<path d="M393.481 481.788V503.367H389.766V505.71H393.481V520.15H462.972V507.005H457.819V504.144H462.972V499.853H465.263V497.905H462.552V481.788H393.494H393.481Z" fill="#F5F5F5"/>
<path d="M444.52 481.85V519.903H462.971V506.771H457.817V504.144L462.971 504.231V499.939H465.299L465.261 497.72L462.538 497.658V481.788L444.52 481.85Z" fill="#E0E0E0"/>
<path d="M445.833 505.402C445.833 505.538 433.261 505.637 417.749 505.637C402.237 505.637 389.665 505.526 389.665 505.402C389.665 505.279 402.237 505.168 417.749 505.168C433.261 505.168 445.833 505.279 445.833 505.402Z" fill="#E0E0E0"/>
<path d="M445.833 503.206C445.833 503.342 433.261 503.44 417.749 503.44C402.237 503.44 389.665 503.329 389.665 503.206C389.665 503.083 402.237 502.972 417.749 502.972C433.261 502.972 445.833 503.083 445.833 503.206Z" fill="#E0E0E0"/>
<path d="M449.435 497.3C449.435 497.436 436.863 497.535 421.352 497.535C405.84 497.535 393.268 497.424 393.268 497.3C393.268 497.177 405.84 497.066 421.352 497.066C436.863 497.066 449.435 497.177 449.435 497.3Z" fill="#E0E0E0"/>
<path d="M449.788 513.381C449.788 513.517 437.216 513.616 421.704 513.616C406.192 513.616 393.62 513.505 393.62 513.381C393.62 513.258 406.192 513.147 421.704 513.147C437.216 513.147 449.788 513.258 449.788 513.381Z" fill="#E0E0E0"/>
<path d="M521.237 456.153H505.738V474.009H521.237V456.153Z" fill="#F5F5F5"/>
<path d="M506.268 454.98H436.242V475.117H506.268V454.98Z" fill="#E0E0E0"/>
<path d="M521.691 456.681H504.385V454.992H521.691C522.174 454.992 522.569 455.374 522.569 455.843C522.569 456.311 522.174 456.693 521.691 456.693V456.681Z" fill="#E0E0E0"/>
<path d="M521.691 475.118H504.385V473.429H521.691C522.174 473.429 522.569 473.811 522.569 474.28C522.569 474.748 522.174 475.13 521.691 475.13V475.118Z" fill="#E0E0E0"/>
<path d="M500.755 454.98H492.483V475.117H500.755V454.98Z" fill="#EBEBEB"/>
<path d="M451.172 455.214H442.9V475.351H451.172V455.214Z" fill="#EBEBEB"/>
<path d="M521.235 459.1C521.235 459.1 517.876 459.186 513.74 459.186C509.604 459.186 506.245 459.149 506.245 459.1C506.245 459.05 509.592 459.013 513.74 459.013C517.888 459.013 521.235 459.05 521.235 459.1Z" fill="#E0E0E0"/>
<path d="M521.235 461.772C521.235 461.772 517.876 461.859 513.74 461.859C509.604 461.859 506.245 461.822 506.245 461.772C506.245 461.723 509.592 461.686 513.74 461.686C517.888 461.686 521.235 461.723 521.235 461.772Z" fill="#E0E0E0"/>
<path d="M521.235 465.077C521.235 465.077 517.876 465.163 513.74 465.163C509.604 465.163 506.245 465.126 506.245 465.077C506.245 465.028 509.592 464.991 513.74 464.991C517.888 464.991 521.235 465.028 521.235 465.077Z" fill="#E0E0E0"/>
<path d="M521.235 468.37C521.235 468.37 517.876 468.456 513.74 468.456C509.604 468.456 506.245 468.419 506.245 468.37C506.245 468.32 509.592 468.283 513.74 468.283C517.888 468.283 521.235 468.32 521.235 468.37Z" fill="#E0E0E0"/>
<path d="M521.235 471.662C521.235 471.662 517.876 471.749 513.74 471.749C509.604 471.749 506.245 471.712 506.245 471.662C506.245 471.613 509.592 471.576 513.74 471.576C517.888 471.576 521.235 471.613 521.235 471.662Z" fill="#E0E0E0"/>
<path d="M488.046 463.267H456.539V466.892H488.046V463.267Z" fill="#EBEBEB"/>
<path d="M521.068 475.508H505.34V486.384H521.068V475.508Z" fill="#FAFAFA"/>
<path d="M505.507 475.116H438.562V486.781H505.507V475.116Z" fill="#F5F5F5"/>
<path d="M505.027 475.905H521.939C522.168 475.905 522.346 475.733 522.346 475.511C522.346 475.289 522.168 475.116 521.939 475.116H505.027V475.905Z" fill="#F5F5F5"/>
<path d="M505.027 486.782H521.939C522.168 486.782 522.346 486.609 522.346 486.387C522.346 486.165 522.168 485.993 521.939 485.993H505.027V486.782Z" fill="#F5F5F5"/>
<path d="M521.074 477.58C521.074 477.58 517.588 477.667 513.299 477.667C509.011 477.667 505.524 477.63 505.524 477.58C505.524 477.531 509.011 477.494 513.299 477.494C517.588 477.494 521.074 477.531 521.074 477.58Z" fill="#E0E0E0"/>
<path d="M521.074 479.639C521.074 479.639 517.588 479.725 513.299 479.725C509.011 479.725 505.524 479.688 505.524 479.639C505.524 479.59 509.011 479.553 513.299 479.553C517.588 479.553 521.074 479.59 521.074 479.639Z" fill="#E0E0E0"/>
<path d="M521.074 481.698C521.074 481.698 517.588 481.784 513.299 481.784C509.011 481.784 505.524 481.747 505.524 481.698C505.524 481.649 509.011 481.612 513.299 481.612C517.588 481.612 521.074 481.649 521.074 481.698Z" fill="#E0E0E0"/>
<path d="M521.074 483.758C521.074 483.758 517.588 483.844 513.299 483.844C509.011 483.844 505.524 483.807 505.524 483.758C505.524 483.708 509.011 483.671 513.299 483.671C517.588 483.671 521.074 483.708 521.074 483.758Z" fill="#E0E0E0"/>
<path d="M523.459 487.83H507.4V517.313H523.459V487.83Z" fill="#EBEBEB"/>
<path d="M507.397 486.782H432.027V518.744H507.397V486.782Z" fill="#E0E0E0"/>
<path d="M524.704 518.758H505.324V516.686H524.704C525.29 516.686 525.773 517.155 525.773 517.722C525.773 518.289 525.29 518.758 524.704 518.758Z" fill="#E0E0E0"/>
<path d="M524.704 488.866H505.324V486.794H524.704C525.29 486.794 525.773 487.263 525.773 487.83C525.773 488.397 525.29 488.866 524.704 488.866Z" fill="#E0E0E0"/>
<path d="M523.459 491.774C523.459 491.774 519.858 491.861 515.43 491.861C511.002 491.861 507.4 491.824 507.4 491.774C507.4 491.725 510.989 491.688 515.43 491.688C519.871 491.688 523.459 491.725 523.459 491.774Z" fill="#E0E0E0"/>
<path d="M523.459 495.56C523.459 495.56 519.858 495.647 515.43 495.647C511.002 495.647 507.4 495.61 507.4 495.56C507.4 495.511 510.989 495.474 515.43 495.474C519.871 495.474 523.459 495.511 523.459 495.56Z" fill="#E0E0E0"/>
<path d="M523.459 499.335C523.459 499.335 519.858 499.421 515.43 499.421C511.002 499.421 507.4 499.384 507.4 499.335C507.4 499.286 510.989 499.249 515.43 499.249C519.871 499.249 523.459 499.286 523.459 499.335Z" fill="#E0E0E0"/>
<path d="M523.459 503.121C523.459 503.121 519.858 503.208 515.43 503.208C511.002 503.208 507.4 503.171 507.4 503.121C507.4 503.072 510.989 503.035 515.43 503.035C519.871 503.035 523.459 503.072 523.459 503.121Z" fill="#E0E0E0"/>
<path d="M523.459 506.907C523.459 506.907 519.858 506.993 515.43 506.993C511.002 506.993 507.4 506.956 507.4 506.907C507.4 506.857 510.989 506.82 515.43 506.82C519.871 506.82 523.459 506.857 523.459 506.907Z" fill="#E0E0E0"/>
<path d="M523.459 510.681C523.459 510.681 519.858 510.767 515.43 510.767C511.002 510.767 507.4 510.73 507.4 510.681C507.4 510.631 510.989 510.594 515.43 510.594C519.871 510.594 523.459 510.631 523.459 510.681Z" fill="#E0E0E0"/>
<path d="M523.459 514.467C523.459 514.467 519.858 514.553 515.43 514.553C511.002 514.553 507.4 514.516 507.4 514.467C507.4 514.417 510.989 514.38 515.43 514.38C519.871 514.38 523.459 514.417 523.459 514.467Z" fill="#E0E0E0"/>
<path d="M457.819 504.529V506.305C457.819 508.45 456.712 509.671 454.587 509.671C452.462 509.671 451.354 508.45 451.354 506.305V499.338C451.354 497.192 452.462 495.971 454.587 495.971C456.712 495.971 457.819 497.192 457.819 499.338V500.632H455.77V499.202C455.77 498.24 455.337 497.883 454.65 497.883C453.963 497.883 453.53 498.24 453.53 499.202V506.428C453.53 507.39 453.963 507.723 454.65 507.723C455.337 507.723 455.77 507.377 455.77 506.428V504.517H457.819V504.529Z" fill="#EBEBEB"/>
<path d="M458.97 499.338C458.97 497.192 460.14 495.971 462.266 495.971C464.391 495.971 465.561 497.192 465.561 499.338V506.305C465.561 508.45 464.391 509.671 462.266 509.671C460.14 509.671 458.97 508.45 458.97 506.305V499.338ZM461.146 506.44C461.146 507.402 461.578 507.76 462.266 507.76C462.953 507.76 463.385 507.402 463.385 506.44V499.214C463.385 498.252 462.953 497.895 462.266 497.895C461.578 497.895 461.146 498.252 461.146 499.214V506.44Z" fill="#EBEBEB"/>
<path d="M466.959 496.133H469.135V507.613H472.711V509.524H466.972V496.133H466.959Z" fill="#EBEBEB"/>
<path d="M473.47 499.338C473.47 497.192 474.64 495.971 476.765 495.971C478.891 495.971 480.061 497.192 480.061 499.338V506.305C480.061 508.45 478.891 509.671 476.765 509.671C474.64 509.671 473.47 508.45 473.47 506.305V499.338ZM475.646 506.44C475.646 507.402 476.078 507.76 476.765 507.76C477.453 507.76 477.885 507.402 477.885 506.44V499.214C477.885 498.252 477.453 497.895 476.765 497.895C476.078 497.895 475.646 498.252 475.646 499.214V506.44Z" fill="#EBEBEB"/>
<path d="M483.534 496.133V506.466C483.534 507.428 483.967 507.761 484.654 507.761C485.341 507.761 485.774 507.416 485.774 506.466V496.133H487.823V506.331C487.823 508.476 486.716 509.697 484.591 509.697C482.465 509.697 481.358 508.476 481.358 506.331V496.133H483.534Z" fill="#EBEBEB"/>
<path d="M493.853 509.513C493.739 509.167 493.65 508.958 493.65 507.873V505.764C493.65 504.519 493.217 504.062 492.225 504.062H491.474V509.513H489.298V496.121H492.568C494.82 496.121 495.788 497.132 495.788 499.204V500.252C495.788 501.633 495.329 502.533 494.362 502.965C495.444 503.409 495.8 504.42 495.8 505.813V507.885C495.8 508.538 495.826 509.019 496.042 509.513H493.828H493.853ZM491.487 498.045V502.151H492.339C493.153 502.151 493.637 501.806 493.637 500.733V499.413C493.637 498.452 493.306 498.032 492.53 498.032H491.487V498.045Z" fill="#EBEBEB"/>
<path d="M457.358 479.718H455.78L455.869 479.324H459.509L459.42 479.718H457.842L457.027 483.664H456.557L457.371 479.718H457.358Z" fill="#E0E0E0"/>
<path d="M462.533 480.398L460.077 484.085C459.657 484.701 459.352 484.899 458.855 484.899C458.537 484.899 458.219 484.788 458.054 484.603L458.295 484.282C458.448 484.43 458.639 484.517 458.894 484.517C459.186 484.517 459.403 484.381 459.67 483.986L459.912 483.641L459.072 480.398H459.53L460.23 483.185L462.075 480.398H462.546H462.533Z" fill="#E0E0E0"/>
<path d="M466.275 481.752C466.275 482.874 465.473 483.701 464.366 483.701C463.73 483.701 463.272 483.442 463.081 482.985L462.699 484.872H462.241L463.157 480.396H463.59L463.475 480.914C463.794 480.568 464.239 480.371 464.786 480.371C465.651 480.371 466.262 480.889 466.262 481.752H466.275ZM465.817 481.777C465.817 481.136 465.41 480.753 464.71 480.753C463.87 480.753 463.259 481.395 463.259 482.282C463.259 482.924 463.666 483.294 464.366 483.294C465.206 483.294 465.817 482.652 465.817 481.765V481.777Z" fill="#E0E0E0"/>
<path d="M466.812 482.322C466.812 481.212 467.627 480.386 468.759 480.386C469.701 480.386 470.286 480.916 470.286 481.767C470.286 482.889 469.472 483.715 468.34 483.715C467.398 483.715 466.812 483.173 466.812 482.334V482.322ZM469.841 481.779C469.841 481.138 469.434 480.756 468.734 480.756C467.894 480.756 467.271 481.397 467.271 482.285C467.271 482.926 467.678 483.296 468.378 483.296C469.218 483.296 469.841 482.655 469.841 481.767V481.779Z" fill="#E0E0E0"/>
<path d="M474.65 480.396L474.065 483.269C473.823 484.428 473.199 484.897 472.105 484.897C471.469 484.897 470.947 484.724 470.604 484.404L470.871 484.071C471.138 484.342 471.596 484.502 472.131 484.502C472.983 484.502 473.428 484.12 473.594 483.331L473.67 482.973C473.352 483.318 472.894 483.528 472.321 483.528C471.431 483.528 470.833 483.022 470.833 482.209C470.833 481.16 471.634 480.359 472.754 480.359C473.378 480.359 473.874 480.606 474.065 481.099L474.205 480.384H474.637L474.65 480.396ZM473.886 481.715C473.886 481.123 473.467 480.766 472.767 480.766C471.914 480.766 471.303 481.37 471.303 482.209C471.303 482.8 471.711 483.158 472.423 483.158C473.263 483.158 473.886 482.554 473.886 481.715Z" fill="#E0E0E0"/>
<path d="M477.628 480.371L477.539 480.803C477.539 480.803 477.462 480.803 477.411 480.803C476.699 480.803 476.215 481.197 476.05 482.011L475.706 483.664H475.248L475.91 480.396H476.342L476.228 480.988C476.533 480.556 476.966 480.371 477.615 480.371H477.628Z" fill="#E0E0E0"/>
<path d="M481.486 480.396L480.812 483.664H480.379L480.494 483.146C480.176 483.491 479.73 483.688 479.183 483.688C478.318 483.688 477.72 483.17 477.72 482.307C477.72 481.185 478.521 480.371 479.628 480.371C480.265 480.371 480.723 480.63 480.914 481.074L481.054 480.396H481.512H481.486ZM480.736 481.777C480.736 481.136 480.328 480.753 479.628 480.753C478.789 480.753 478.165 481.395 478.165 482.282C478.165 482.924 478.572 483.294 479.272 483.294C480.112 483.294 480.736 482.652 480.736 481.765V481.777Z" fill="#E0E0E0"/>
<path d="M485.866 481.752C485.866 482.874 485.064 483.701 483.957 483.701C483.321 483.701 482.863 483.442 482.672 482.985L482.29 484.872H481.832L482.748 480.396H483.181L483.066 480.914C483.384 480.568 483.83 480.371 484.377 480.371C485.242 480.371 485.853 480.889 485.853 481.752H485.866ZM485.408 481.777C485.408 481.136 485.001 480.753 484.301 480.753C483.461 480.753 482.85 481.395 482.85 482.282C482.85 482.924 483.257 483.294 483.957 483.294C484.797 483.294 485.408 482.652 485.408 481.765V481.777Z" fill="#E0E0E0"/>
<path d="M489.942 481.444C489.942 481.568 489.929 481.691 489.904 481.814L489.522 483.676H489.064L489.446 481.814C489.458 481.703 489.471 481.605 489.471 481.518C489.471 481.05 489.178 480.791 488.606 480.791C487.893 480.791 487.397 481.173 487.231 481.937L486.875 483.688H486.417L487.371 479.077H487.829L487.448 480.914C487.766 480.556 488.211 480.396 488.733 480.396C489.496 480.396 489.942 480.791 489.942 481.457V481.444Z" fill="#E0E0E0"/>
<path d="M494.212 480.398L491.756 484.085C491.336 484.701 491.03 484.899 490.534 484.899C490.216 484.899 489.898 484.788 489.732 484.603L489.974 484.282C490.127 484.43 490.318 484.517 490.572 484.517C490.865 484.517 491.081 484.381 491.349 483.986L491.59 483.641L490.75 480.398H491.209L491.908 483.185L493.754 480.398H494.224H494.212Z" fill="#E0E0E0"/>
<path d="M83.7833 64.2753L31.6074 94.3662L54.9328 134.78L107.109 104.689L83.7833 64.2753Z" fill="#FAFAFA"/>
<path d="M83.7833 64.2592C83.7833 64.2592 83.6958 64.3091 83.5389 64.4135C83.3639 64.5132 83.128 64.6552 82.8104 64.8437C82.1603 65.2217 81.216 65.7749 79.9858 66.4911C77.508 67.9333 73.9018 70.0262 69.3222 72.689C60.1648 77.9909 47.1562 85.5253 31.6841 94.4863L31.7442 94.2799C38.6927 106.308 46.6581 120.093 55.0868 134.677L54.8546 134.623C74.1745 123.491 92.1326 113.143 107.044 104.554L106.992 104.748C99.9925 92.5618 94.1963 82.4605 90.1393 75.3969C88.1225 71.8584 86.5289 69.0897 85.4431 67.1848C84.9051 66.2409 84.4927 65.5174 84.206 65.0143C83.9257 64.5225 83.7891 64.2559 83.7891 64.2559C83.7891 64.2559 83.9393 64.4923 84.219 64.9694C84.5052 65.4578 84.926 66.1691 85.4634 67.0984C86.5602 68.982 88.1681 71.7351 90.2076 75.2456C94.3035 82.3095 100.168 92.4092 107.237 104.594L107.308 104.718L107.179 104.791C92.2776 113.397 74.3291 123.762 55.0189 134.911L54.8672 134.997L54.7835 134.85C46.3632 120.254 38.4062 106.456 31.4726 94.4272L31.3985 94.2972L31.5327 94.2207C47.072 85.2962 60.1355 77.7904 69.3323 72.5034C73.9106 69.8789 77.5239 67.812 79.9997 66.3933C81.2246 65.6951 82.1696 65.1565 82.817 64.7875C83.1262 64.6113 83.3653 64.475 83.5345 64.3785C83.6978 64.2855 83.7769 64.2479 83.7769 64.2479L83.7833 64.2592Z" fill="#333333"/>
<path d="M83.3858 67.8997L34.874 95.8774L55.2626 131.203L103.774 103.225L83.3858 67.8997Z" fill="#EBEBEB"/>
<path d="M55.2677 131.183L59.5331 99.4553L77.9633 107.141L80.8415 95.69L103.779 103.203L55.2677 131.183Z" fill="#E0E0E0"/>
<path d="M72.9375 88.1383C74.1187 90.1835 73.36 92.8251 71.2549 94.0399C69.144 95.2581 66.4792 94.5827 65.3013 92.5432C64.1201 90.498 64.8787 87.8563 66.9839 86.6415C69.0948 85.4233 71.7595 86.0987 72.9375 88.1383Z" fill="#E0E0E0"/>
<path d="M476.788 424.079C459.584 424.079 445.65 410.564 445.65 393.905C445.65 377.233 459.597 363.73 476.788 363.73C493.992 363.73 507.926 377.245 507.926 393.905C507.926 410.576 493.98 424.079 476.788 424.079Z" fill="#E0E0E0"/>
<path fill-rule="evenodd" clip-rule="evenodd" d="M493.867 393.063C493.638 384.345 486.232 377.341 477.108 377.341C467.984 377.341 460.744 384.185 460.349 392.767C460.349 393.002 460.336 393.236 460.336 393.47C460.336 396.516 461.214 399.365 462.741 401.806L459.713 410.463L469.002 407.602C471.407 408.884 474.168 409.612 477.108 409.612C486.372 409.612 493.879 402.386 493.879 393.483C493.879 393.347 493.879 393.211 493.879 393.076L493.867 393.063ZM477.095 407.035C474.232 407.035 471.573 406.208 469.333 404.79L463.912 406.467L465.668 401.436C463.976 399.204 462.983 396.455 462.983 393.483C462.983 393.039 463.009 392.595 463.06 392.163C463.747 385.295 469.778 379.919 477.095 379.919C484.412 379.919 490.584 385.431 491.143 392.422C491.169 392.767 491.194 393.125 491.194 393.483C491.194 400.968 484.87 407.047 477.095 407.047V407.035Z" fill="#1D1D1D"/>
<path fill-rule="evenodd" clip-rule="evenodd" d="M484.786 396.74C484.366 396.542 482.355 395.58 481.974 395.457C481.592 395.321 481.325 395.26 481.045 395.654C480.765 396.049 479.976 396.937 479.747 397.196C479.505 397.467 479.263 397.492 478.856 397.294C478.449 397.097 477.126 396.69 475.548 395.334C474.326 394.286 473.499 393.003 473.257 392.596C473.028 392.202 473.232 391.992 473.435 391.795C473.626 391.61 473.843 391.326 474.059 391.104C474.11 391.03 474.161 390.981 474.212 390.919C474.301 390.771 474.377 390.636 474.466 390.451C474.606 390.179 474.542 389.957 474.441 389.76C474.339 389.563 473.512 387.614 473.168 386.825C472.825 386.036 472.481 386.172 472.239 386.172C471.997 386.172 471.73 386.135 471.45 386.135C471.17 386.135 470.725 386.233 470.356 386.628C469.974 387.023 468.918 387.984 468.918 389.933C468.918 390.389 469.007 390.845 469.134 391.277C469.554 392.67 470.445 393.817 470.598 394.014C470.801 394.273 473.435 398.392 477.622 399.983C481.808 401.561 481.808 401.031 482.559 400.969C483.31 400.907 484.99 400.02 485.333 399.095C485.677 398.17 485.677 397.381 485.575 397.22C485.473 397.06 485.193 396.961 484.786 396.764V396.74Z" fill="#1D1D1D"/>
<path d="M99.3576 314.058C86.0982 314.058 75.3584 303.651 75.3584 290.802C75.3584 277.953 86.0982 267.545 99.3576 267.545C112.617 267.545 123.357 277.953 123.357 290.802C123.357 303.651 112.617 314.058 99.3576 314.058Z" fill="white"/>
<path d="M91.6769 292.962C92.0459 293.11 92.3894 292.962 92.4912 292.567C92.5676 292.284 92.7457 291.581 92.8221 291.297C92.9366 290.903 92.8857 290.755 92.5803 290.41C91.9186 289.657 91.4987 288.683 91.4987 287.302C91.4987 283.294 94.5909 279.706 99.5536 279.706C103.944 279.706 106.361 282.308 106.361 285.785C106.361 290.36 104.275 294.22 101.17 294.22C99.4518 294.22 98.1793 292.851 98.5865 291.162C99.0828 289.152 100.037 286.981 100.037 285.526C100.037 284.232 99.3118 283.146 97.823 283.146C96.067 283.146 94.6672 284.898 94.6672 287.253C94.6672 288.745 95.1889 289.768 95.1889 289.768C95.1889 289.768 93.3947 297.13 93.0766 298.412C92.4531 300.977 92.9875 304.122 93.0257 304.442C93.0511 304.627 93.3056 304.677 93.4202 304.529C93.5856 304.319 95.6725 301.828 96.3724 299.337C96.576 298.634 97.5303 294.972 97.5303 294.972C98.1029 296.02 99.7572 296.945 101.526 296.945C106.794 296.945 110.357 292.296 110.357 286.069C110.357 281.359 106.247 276.981 99.9862 276.981C92.2113 276.981 88.2793 282.382 88.2793 286.895C88.2793 289.62 89.3482 292.05 91.6387 292.962H91.6769Z" fill="#1D1D1D"/>
<path d="M48.9393 170.831C68.0839 167.695 81.0622 149.634 77.9272 130.49C74.7921 111.345 56.7309 98.3667 37.5863 101.502C18.4417 104.637 5.46334 122.698 8.59839 141.843C11.7334 160.987 29.7947 173.966 48.9393 170.831Z" fill="#E0E0E0"/>
<path d="M77.4707 140.419C81.9567 121.545 70.293 102.608 51.4191 98.1225C32.5453 93.6366 13.6084 105.3 9.12251 124.174C4.63657 143.048 16.3003 161.985 35.1741 166.471C54.048 170.957 72.9848 159.293 77.4707 140.419Z" fill="#DEDEDE"/>
<path d="M52.2186 154.031C64.2371 149.087 69.9723 135.337 65.0284 123.318C60.0845 111.3 46.3338 105.564 34.3152 110.508C22.2967 115.452 16.5615 129.203 21.5054 141.221C26.4493 153.24 40.2 158.975 52.2186 154.031Z" fill="white"/>
<path d="M54.6673 134.151C55.6892 127.876 51.4312 121.962 45.1569 120.94C38.8825 119.918 32.9678 124.176 31.9459 130.45C30.9241 136.725 35.1821 142.639 41.4564 143.661C47.7308 144.683 53.6455 140.425 54.6673 134.151Z" fill="#4A4A4A"/>
<path d="M67.76 106.55L66.8008 99.0465L74.438 90.8872L74.9843 98.9736L67.76 106.55Z" fill="#4A4A4A"/>
<path d="M84.1398 100.576L76.3933 99.957L68.6348 107.412L76.3933 108.25L84.1398 100.576Z" fill="#4A4A4A"/>
<path d="M75.3004 97.8448C71.6579 101.487 68.0032 105.142 64.3607 108.785C58.5812 114.564 52.7896 120.356 47.0101 126.135C45.6867 127.471 44.3511 128.794 43.0276 130.13C41.7649 131.392 43.7319 133.347 45.0067 132.085C48.6493 128.442 52.3039 124.787 55.9465 121.145C61.726 115.365 67.5176 109.574 73.2971 103.794C74.6205 102.459 75.9561 101.135 77.2796 99.7996C78.5423 98.5369 76.5753 96.5821 75.3004 97.8448Z" fill="#E0E0E0"/>
<path d="M512.868 177.088C494.722 177.088 480.012 162.834 480.012 145.25C480.012 127.665 494.722 113.411 512.868 113.411C531.013 113.411 545.723 127.665 545.723 145.25C545.723 162.834 531.013 177.088 512.868 177.088Z" fill="#5C5C5C"/>
<path d="M512.875 130.931C517.685 130.931 518.258 130.943 520.154 131.029C521.91 131.103 522.864 131.387 523.5 131.633C524.34 131.954 524.938 132.324 525.574 132.941C526.211 133.557 526.592 134.137 526.923 134.95C527.165 135.567 527.458 136.492 527.547 138.194C527.636 140.031 527.649 140.586 527.649 145.247C527.649 149.908 527.636 150.463 527.547 152.3C527.47 154.002 527.178 154.927 526.923 155.543C526.592 156.357 526.211 156.937 525.574 157.553C524.938 158.17 524.34 158.54 523.5 158.86C522.864 159.095 521.91 159.378 520.154 159.465C518.258 159.551 517.685 159.563 512.875 159.563C508.065 159.563 507.492 159.551 505.596 159.465C503.84 159.391 502.886 159.107 502.25 158.86C501.41 158.54 500.812 158.17 500.175 157.553C499.539 156.937 499.158 156.357 498.827 155.543C498.585 154.927 498.292 154.002 498.203 152.3C498.114 150.463 498.101 149.908 498.101 145.247C498.101 140.586 498.114 140.031 498.203 138.194C498.279 136.492 498.572 135.567 498.827 134.95C499.158 134.137 499.539 133.557 500.175 132.941C500.812 132.324 501.41 131.954 502.25 131.633C502.886 131.399 503.84 131.116 505.596 131.029C507.492 130.943 508.065 130.931 512.875 130.931ZM512.875 127.786C507.976 127.786 507.365 127.811 505.444 127.897C503.522 127.983 502.211 128.279 501.066 128.711C499.883 129.155 498.878 129.759 497.872 130.721C496.867 131.695 496.256 132.669 495.798 133.816C495.353 134.926 495.047 136.196 494.958 138.058C494.869 139.92 494.844 140.512 494.844 145.259C494.844 150.007 494.869 150.599 494.958 152.461C495.047 154.323 495.353 155.593 495.798 156.702C496.256 157.849 496.88 158.823 497.872 159.798C498.878 160.772 499.883 161.364 501.066 161.808C502.211 162.239 503.522 162.535 505.444 162.621C507.365 162.708 507.976 162.732 512.875 162.732C517.774 162.732 518.385 162.708 520.306 162.621C522.228 162.535 523.538 162.239 524.684 161.808C525.867 161.364 526.872 160.759 527.878 159.798C528.883 158.823 529.494 157.849 529.952 156.702C530.397 155.593 530.703 154.323 530.792 152.461C530.881 150.599 530.893 150.007 530.893 145.259C530.893 140.512 530.868 139.92 530.792 138.058C530.703 136.196 530.397 134.926 529.952 133.816C529.494 132.669 528.87 131.695 527.878 130.721C526.885 129.747 525.867 129.155 524.684 128.711C523.538 128.279 522.228 127.983 520.306 127.897C518.385 127.811 517.774 127.786 512.875 127.786Z" fill="white"/>
<path d="M512.878 136.268C507.763 136.268 503.627 140.276 503.627 145.233C503.627 150.19 507.775 154.197 512.878 154.197C517.981 154.197 522.129 150.178 522.129 145.233C522.129 140.288 517.981 136.268 512.878 136.268ZM512.878 151.053C509.557 151.053 506.872 148.451 506.872 145.233C506.872 142.014 509.557 139.412 512.878 139.412C516.199 139.412 518.884 142.014 518.884 145.233C518.884 148.451 516.199 151.053 512.878 151.053Z" fill="white"/>
<path d="M524.65 135.925C524.65 137.085 523.683 138.022 522.486 138.022C521.29 138.022 520.323 137.085 520.323 135.925C520.323 134.766 521.29 133.829 522.486 133.829C523.683 133.829 524.65 134.766 524.65 135.925Z" fill="white"/>
<path d="M140.834 168.159C129.903 168.159 121.047 159.576 121.047 148.984C121.047 138.392 129.903 129.809 140.834 129.809C151.765 129.809 160.621 138.392 160.621 148.984C160.621 159.576 151.765 168.159 140.834 168.159Z" fill="#5C5C5C"/>
<path d="M137.817 160.563H142.64V148.873H145.999L146.356 144.964H142.64V142.732C142.64 141.808 142.831 141.45 143.747 141.45H146.356V137.393H143.022C139.433 137.393 137.817 138.922 137.817 141.857V144.977H135.311V148.935H137.817V160.576V160.563Z" fill="white"/>
<path d="M-1.96701e-06 228L-3.0598e-07 266C-1.36992e-07 269.866 3.13401 273 7 273L48 273C51.866 273 55 269.866 55 266L55 228C55 224.134 51.866 221 48 221L7 221C3.134 221 -2.136e-06 224.134 -1.96701e-06 228Z" fill="#E0E0E0"/>
<path d="M9 248L9 264L15 264L15 248L9 248Z" fill="#1D1D1D"/>
<path d="M19 240L19 264L24 264L24 240L19 240Z" fill="#A6A6A6"/>
<path d="M29 231L29 264L35 264L35 231L29 231Z" fill="#1D1D1D"/>
<path d="M39 238L39 264L44 264L44 238L39 238Z" fill="#A6A6A6"/>
<path d="M159.738 241.917L150.729 315.672L245.935 326.591L254.943 252.836L159.738 241.917Z" fill="#FAFAFA"/>
<path d="M254.929 252.821C254.929 252.821 254.763 252.821 254.471 252.784C254.153 252.747 253.707 252.71 253.135 252.648C251.951 252.513 250.208 252.328 247.956 252.081C243.425 251.575 236.821 250.848 228.461 249.911C211.74 248.024 187.957 245.336 159.708 242.155L159.988 241.945C157.316 263.894 154.249 289.062 151.017 315.697L150.775 315.401C186.023 319.458 218.777 323.231 245.97 326.363L245.716 326.561C248.477 304.352 250.768 285.954 252.371 273.081C253.185 266.644 253.822 261.601 254.254 258.136C254.471 256.422 254.649 255.102 254.763 254.19C254.878 253.302 254.954 252.821 254.954 252.821C254.954 252.821 254.916 253.265 254.814 254.14C254.712 255.04 254.56 256.348 254.369 258.049C253.962 261.502 253.364 266.533 252.613 272.958C251.06 285.868 248.859 304.328 246.187 326.61L246.161 326.832L245.932 326.807C218.726 323.7 185.972 319.964 150.724 315.944L150.444 315.907L150.483 315.635C153.74 289 156.832 263.833 159.517 241.883L159.543 241.649L159.784 241.674C188.097 244.966 211.919 247.74 228.677 249.689C237.012 250.675 243.591 251.452 248.108 251.982C250.335 252.254 252.053 252.451 253.224 252.599C253.784 252.673 254.229 252.722 254.534 252.759C254.827 252.796 254.967 252.821 254.967 252.821H254.929Z" fill="#333333"/>
<path d="M162.458 246.942L154.583 311.415L243.091 321.566L250.965 257.093L162.458 246.942Z" fill="#EBEBEB"/>
<path d="M154.562 311.393L190.369 274.868L206.467 302.132L221.087 290.22L243.076 321.541L154.562 311.393Z" fill="#1D1D1D"/>
<path d="M218.249 273.08C217.791 276.817 214.304 279.48 210.461 279.036C206.619 278.592 203.857 275.214 204.315 271.49C204.773 267.753 208.26 265.09 212.103 265.534C215.946 265.978 218.707 269.356 218.249 273.08Z" fill="#1D1D1D"/>
<path d="M414.706 371.147L333.866 378.125L339.623 440.753L420.462 433.775L414.706 371.147Z" fill="#FAFAFA"/>
<path d="M414.737 371.128C414.737 371.128 414.597 371.153 414.342 371.177C414.075 371.202 413.706 371.239 413.21 371.288C412.204 371.387 410.728 371.51 408.819 371.695C404.977 372.04 399.378 372.546 392.277 373.175C378.076 374.42 357.894 376.208 333.908 378.317L334.099 378.095C335.817 396.74 337.789 418.109 339.888 440.712L339.634 440.515C369.563 437.95 397.38 435.558 420.476 433.573L420.297 433.782C418.605 414.916 417.205 399.28 416.225 388.342C415.742 382.867 415.373 378.576 415.106 375.641C414.978 374.186 414.889 373.064 414.826 372.287C414.762 371.523 414.737 371.128 414.737 371.128C414.737 371.128 414.787 371.498 414.864 372.25C414.94 373.015 415.042 374.124 415.195 375.567C415.475 378.49 415.882 382.768 416.404 388.219C417.434 399.181 418.91 414.854 420.692 433.758V433.942L420.514 433.955C397.418 435.965 369.601 438.382 339.672 440.971L339.443 440.996L339.418 440.774C337.343 418.159 335.384 396.777 333.679 378.144V377.935L333.87 377.922C357.92 375.888 378.152 374.174 392.392 372.965C399.479 372.373 405.066 371.917 408.896 371.597C410.792 371.449 412.255 371.325 413.248 371.251C413.731 371.214 414.1 371.19 414.355 371.165C414.609 371.153 414.724 371.14 414.724 371.14L414.737 371.128Z" fill="#333333"/>
<path d="M412.179 375.336L337.018 381.823L342.049 436.566L417.211 430.079L412.179 375.336Z" fill="#EBEBEB"/>
<path d="M342.074 436.57L365.195 400.267L383.418 420.157L393.394 407.814L417.228 430.071L342.074 436.57Z" fill="#E0E0E0"/>
<path d="M387.977 394.101C388.27 397.27 385.852 400.069 382.582 400.353C379.312 400.637 376.423 398.294 376.13 395.125C375.838 391.956 378.256 389.156 381.526 388.873C384.796 388.589 387.685 390.932 387.977 394.101Z" fill="#E0E0E0"/>
<path d="M435.119 55.4447C433.728 58.8863 429.727 60.5861 426.161 59.2375C422.609 57.889 420.855 54.0119 422.247 50.5563C423.639 47.1147 427.64 45.4149 431.206 46.7635C434.757 48.112 436.511 51.9891 435.119 55.4447Z" fill="#1D1D1D"/>
<path d="M458.183 49.7992C456.791 53.2408 452.79 54.9406 449.224 53.592C445.673 52.2435 443.919 48.3664 445.31 44.9107C446.702 41.4691 450.703 39.7694 454.269 41.118C457.835 42.4665 459.575 46.3436 458.183 49.7992Z" fill="#1D1D1D"/>
<path d="M447.528 76.2501C446.02 80.0008 441.904 81.9393 438.352 80.6048C434.8 79.2562 433.148 75.1263 434.656 71.3757C436.163 67.625 440.28 65.6865 443.831 67.021C447.383 68.3695 449.036 72.4995 447.528 76.2501Z" fill="#1D1D1D"/>
<path d="M439.507 72.2876C439.072 72.5686 435.753 68.5932 432.085 63.3957C428.418 58.1981 425.794 53.7452 426.229 53.4642C426.664 53.1833 429.983 57.1586 433.651 62.3562C437.318 67.5537 439.942 72.0067 439.507 72.2876Z" fill="#1D1D1D"/>
<path d="M450.591 46.4136C450.736 46.9053 446.228 48.619 440.531 50.2345C434.819 51.8499 430.079 52.777 429.934 52.2854C429.789 51.7937 434.297 50.094 439.994 48.4645C445.691 46.8491 450.446 45.9219 450.591 46.4136Z" fill="#1D1D1D"/>
<path d="M81.6104 369.895L68.999 432.865L165.336 451.006L177.947 388.036L81.6104 369.895Z" fill="#EBEBEB"/>
<path d="M178.107 388.883C178.107 388.883 177.75 389.135 177.037 389.559C176.243 389.999 175.206 390.596 173.894 391.334C171.059 392.889 167.105 395.058 162.261 397.728C152.313 403.101 138.703 410.438 123.619 418.577L123.295 418.749L123.052 418.482C122.873 418.278 122.679 418.058 122.484 417.838C111.208 404.908 101 393.219 93.5312 384.673C89.9019 380.462 86.9531 377.022 84.8306 374.555C83.8585 373.392 83.0807 372.481 82.4975 371.774C81.979 371.13 81.7036 370.784 81.736 370.769C81.7522 370.753 82.0762 371.051 82.6433 371.664C83.259 372.34 84.0853 373.22 85.106 374.335C87.2771 376.754 90.3069 380.132 94.0172 384.28C101.535 392.795 111.807 404.421 123.165 417.288C123.359 417.508 123.554 417.728 123.732 417.932L123.181 417.838C138.314 409.794 151.972 402.52 161.937 397.21C166.846 394.649 170.848 392.559 173.7 391.067C175.044 390.391 176.114 389.842 176.924 389.433C177.669 389.072 178.058 388.883 178.074 388.915L178.107 388.883Z" fill="#494444"/>
<path d="M69.1477 433.707C68.9856 433.518 77.9617 426.26 89.1898 417.477C100.418 408.695 109.637 401.735 109.783 401.924C109.945 402.112 100.969 409.371 89.7407 418.153C78.5125 426.935 69.2935 433.895 69.1477 433.707Z" fill="#494444"/>
<path d="M141.976 407.169C142.203 407.059 147.631 416.973 154.128 429.322C160.625 441.67 165.712 451.757 165.485 451.867C165.259 451.977 159.831 442.063 153.334 429.714C146.837 417.381 141.749 407.279 141.976 407.169Z" fill="#494444"/>
<path d="M514.55 54.2222L508.01 86.8804L557.973 96.2888L564.513 63.6306L514.55 54.2222Z" fill="#EBEBEB"/>
<path d="M564.603 64.0698C564.603 64.0698 564.418 64.2001 564.048 64.4201C563.636 64.6483 563.099 64.9579 562.418 65.3408C560.947 66.1475 558.897 67.2719 556.385 68.6571C551.225 71.4437 544.167 75.2488 536.344 79.4695L536.176 79.5591L536.05 79.4206C535.957 79.3147 535.856 79.2006 535.756 79.0865C529.907 72.3807 524.613 66.3186 520.74 61.8861C518.857 59.7024 517.328 57.918 516.227 56.6388C515.723 56.0358 515.32 55.5632 515.017 55.1966C514.748 54.8625 514.606 54.6833 514.622 54.6751C514.631 54.667 514.799 54.8218 515.093 55.1395C515.412 55.4899 515.841 55.9462 516.37 56.5247C517.496 57.7795 519.068 59.5313 520.992 61.6824C524.891 66.0986 530.218 72.1281 536.109 78.8013C536.209 78.9154 536.31 79.0295 536.403 79.1354L536.117 79.0865C543.965 74.9148 551.049 71.1422 556.217 68.3882C558.763 67.0601 560.838 65.9764 562.317 65.2023C563.015 64.852 563.569 64.5668 563.989 64.3549C564.376 64.1675 564.577 64.0698 564.586 64.086L564.603 64.0698Z" fill="#7D7D7D"/>
<path d="M508.086 87.3164C508.002 87.2186 512.657 83.4542 518.48 78.8995C524.304 74.3448 529.085 70.7352 529.16 70.833C529.244 70.9308 524.589 74.6952 518.766 79.2499C512.943 83.8046 508.162 87.4142 508.086 87.3164Z" fill="#7D7D7D"/>
<path d="M545.856 73.5537C545.974 73.4967 548.789 78.6381 552.158 85.0424C555.528 91.4467 558.167 96.6777 558.049 96.7348C557.931 96.7918 555.116 91.6504 551.747 85.2461C548.377 78.8499 545.739 73.6107 545.856 73.5537Z" fill="#7D7D7D"/>
<g filter="url(#filter0_f_255_4234)">
<ellipse cx="309" cy="526.5" rx="286" ry="11.5" fill="url(#paint0_linear_255_4234)" fill-opacity="0.59"/>
</g>
<defs>
<filter id="filter0_f_255_4234" x="11.1" y="503.1" width="595.8" height="46.8" filterUnits="userSpaceOnUse" color-interpolation-filters="sRGB">
<feFlood flood-opacity="0" result="BackgroundImageFix"/>
<feBlend mode="normal" in="SourceGraphic" in2="BackgroundImageFix" result="shape"/>
<feGaussianBlur stdDeviation="5.95" result="effect1_foregroundBlur_255_4234"/>
</filter>
<linearGradient id="paint0_linear_255_4234" x1="23" y1="526.5" x2="545.68" y2="560.794" gradientUnits="userSpaceOnUse">
<stop stop-color="#555555"/>
<stop offset="1" stop-color="#353535"/>
</linearGradient>
</defs>
</svg>
