<svg width="215" height="90" viewBox="0 0 215 90" fill="none" xmlns="http://www.w3.org/2000/svg">
<g clip-path="url(#clip0_113_8874)">
<path d="M83.6509 53.7806L85.1802 50.2061C86.8546 51.4462 89.0387 52.1025 91.2232 52.1025C92.8251 52.1025 93.8443 51.4827 93.8443 50.5345C93.8077 47.9083 84.197 49.9508 84.124 43.3481C84.0874 39.9924 87.0729 37.4027 91.2963 37.4027C93.8077 37.4027 96.3202 38.023 98.1037 39.4458L96.6747 43.0964C95.0337 42.0412 93.0068 41.3056 91.0775 41.3056C89.767 41.3056 88.893 41.9253 88.893 42.7283C88.9295 45.318 98.6138 43.8953 98.723 50.2061C98.723 53.6349 95.81 56.0424 91.6597 56.0424C88.6022 56.0424 85.7989 55.313 83.6504 53.7806H83.6509ZM144.545 48.9118C144.159 49.5977 143.597 50.1685 142.918 50.5658C142.238 50.9631 141.465 51.1725 140.678 51.1726C138.226 51.1726 136.237 49.1802 136.237 46.7226C136.237 44.2649 138.226 42.2725 140.678 42.2725C141.465 42.2726 142.238 42.482 142.918 42.8793C143.597 43.2766 144.159 43.8474 144.545 44.5333L148.796 42.1733C147.204 39.3272 144.166 37.4027 140.678 37.4027C135.541 37.4027 131.377 41.575 131.377 46.7226C131.377 51.8696 135.541 56.0424 140.678 56.0424C144.166 56.0424 147.204 54.1179 148.796 51.2718L144.545 48.9118ZM101.482 55.6774H106.797V29.6445H101.482L101.482 55.6774ZM151.481 29.6445V55.6774H156.796V47.878L163.094 55.6774H169.888L161.879 46.4119L169.305 37.7661H162.803L156.796 44.9541V29.6445H151.481ZM123.172 37.7672V39.8833C122.299 38.424 120.151 37.4027 117.894 37.4027C113.234 37.4027 109.557 41.5248 109.557 46.7043C109.557 51.8837 113.234 56.0424 117.894 56.0424C120.151 56.0424 122.299 55.0211 123.172 53.5618V55.6774H128.487V37.7672H123.172ZM123.172 48.9478C122.408 50.2244 120.806 51.1721 119.022 51.1721C116.569 51.1721 114.581 49.1802 114.581 46.7226C114.581 44.2649 116.569 42.2725 119.022 42.2725C120.806 42.2725 122.408 43.2572 123.172 44.5699V48.9478Z" fill="#E6E6E6"/>
<path d="M55.582 29.0664C53.8595 29.0664 52.4633 30.4657 52.4633 32.1913C52.4629 32.6012 52.5433 33.0073 52.6998 33.3862C52.8563 33.7651 53.0859 34.1095 53.3755 34.3996C53.6651 34.6898 54.009 34.9201 54.3876 35.0774C54.7661 35.2346 55.172 35.3158 55.582 35.3162H58.7011V32.1913C58.7018 31.3633 58.3736 30.5689 57.7886 29.9829C57.2037 29.3969 56.4099 29.0672 55.582 29.0664ZM55.582 37.3994H47.2651C45.5426 37.3994 44.1465 38.7987 44.1465 40.5248C44.1465 42.2505 45.5426 43.6497 47.2651 43.6497H55.5825C57.3044 43.6497 58.7011 42.2505 58.7011 40.5248C58.7011 38.7987 57.3044 37.3994 55.582 37.3994Z" fill="#E6E6E6"/>
<path d="M75.3339 40.5248C75.3339 38.7987 73.9372 37.3994 72.2148 37.3994C70.4923 37.3994 69.0961 38.7987 69.0961 40.5248V43.6497H72.2148C73.0428 43.6489 73.8365 43.3192 74.4215 42.7332C75.0064 42.1472 75.3346 41.3528 75.3339 40.5248ZM67.0171 40.5248V32.1913C67.0178 31.3633 66.6895 30.5689 66.1046 29.9829C65.5197 29.3969 64.7259 29.0672 63.8979 29.0664C62.1754 29.0664 60.7793 30.4657 60.7793 32.1913V40.5243C60.7793 42.251 62.1754 43.6503 63.8979 43.6503C64.7259 43.6494 65.5197 43.3197 66.1046 42.7337C66.6895 42.1477 67.0178 41.3534 67.0171 40.5254" fill="#E6E6E6"/>
<path d="M63.8979 60.3177C64.7259 60.3169 65.5197 59.9872 66.1046 59.4012C66.6895 58.8152 67.0178 58.0208 67.0171 57.1928C67.0178 56.3648 66.6895 55.5705 66.1046 54.9845C65.5197 54.3984 64.7259 54.0688 63.8979 54.0679H60.7793V57.1928C60.7793 58.9184 62.1754 60.3177 63.8979 60.3177ZM63.8979 51.9847H72.2153C73.9372 51.9847 75.3339 50.5854 75.3339 48.8593C75.3346 48.0313 75.0064 47.2369 74.4215 46.6509C73.8365 46.0649 73.0428 45.7352 72.2148 45.7344H63.8979C62.1754 45.7344 60.7793 47.1337 60.7793 48.8593C60.7789 49.2692 60.8592 49.6752 61.0157 50.0541C61.1722 50.4331 61.4018 50.7774 61.6914 51.0676C61.981 51.3578 62.3249 51.5881 62.7035 51.7453C63.0821 51.9026 63.488 51.9837 63.8979 51.9842" fill="#E6E6E6"/>
<path d="M44.1465 48.8593C44.1461 49.2692 44.2264 49.6752 44.3829 50.0541C44.5394 50.4331 44.769 50.7774 45.0586 51.0676C45.3482 51.3578 45.6921 51.5881 46.0707 51.7453C46.4493 51.9026 46.8552 51.9837 47.2651 51.9842C48.0931 51.9833 48.8869 51.6536 49.4718 51.0676C50.0567 50.4816 50.3849 49.6873 50.3843 48.8593V45.7344H47.2651C45.5426 45.7344 44.1465 47.1337 44.1465 48.8593ZM52.4633 48.8593V57.1923C52.4633 58.9184 53.8595 60.3177 55.582 60.3177C56.4099 60.3169 57.2037 59.9872 57.7886 59.4012C58.3736 58.8152 58.7018 58.0208 58.7011 57.1928V48.8593C58.7015 48.4493 58.6212 48.0432 58.4646 47.6643C58.3081 47.2853 58.0784 46.9409 57.7888 46.6507C57.4991 46.3606 57.1552 46.1303 56.7765 45.9731C56.3979 45.8158 55.992 45.7347 55.582 45.7344C53.8595 45.7344 52.4633 47.1337 52.4633 48.8593Z" fill="#E6E6E6"/>
</g>
<defs>
<clipPath id="clip0_113_8874">
<rect width="126.042" height="50" fill="white" transform="translate(44.146 20)"/>
</clipPath>
</defs>
</svg>
