<svg width="215" height="90" viewBox="0 0 215 90" fill="none" xmlns="http://www.w3.org/2000/svg">
<g clip-path="url(#clip0_113_8868)">
<path d="M56.5361 23.207C44.4549 23.207 34.6606 33.001 34.6606 45.0822C34.6606 57.1639 44.4549 66.957 56.5361 66.957C68.6186 66.957 78.4117 57.1639 78.4117 45.0822C78.4117 33.0018 68.6186 23.2081 56.5358 23.2081L56.5361 23.207ZM66.568 54.7572C66.1761 55.3999 65.335 55.6036 64.6924 55.2092C59.5563 52.0719 53.0906 51.3614 45.476 53.1011C44.7422 53.2683 44.0108 52.8085 43.8436 52.0745C43.6756 51.3405 44.1336 50.6091 44.8692 50.4419C53.2021 48.5381 60.3499 49.3578 66.1161 52.8817C66.7587 53.2761 66.9624 54.1146 66.568 54.7572ZM69.2455 48.8009C68.7518 49.6034 67.7017 49.8568 66.8997 49.363C61.0196 45.7488 52.0564 44.7021 45.1014 46.8133C44.1994 47.0857 43.2467 46.5774 42.9729 45.677C42.7013 44.775 43.2099 43.8241 44.1103 43.5498C52.0548 41.1393 61.9313 42.307 68.6839 46.4564C69.4858 46.9501 69.7392 48.0003 69.2455 48.8012V48.8009ZM69.4754 42.5985C62.425 38.4109 50.7929 38.0258 44.0615 40.0688C42.9805 40.3967 41.8374 39.7864 41.5099 38.7055C41.1823 37.6241 41.792 36.4817 42.8737 36.1531C50.6009 33.8074 63.4464 34.2606 71.5636 39.0793C72.5379 39.6564 72.8566 40.912 72.2793 41.883C71.7046 42.8553 70.4455 43.1758 69.4764 42.5985H69.4754ZM94.1764 43.4009C90.3991 42.5003 89.7278 41.8681 89.7278 40.5398C89.7278 39.2849 90.9085 38.4404 92.6665 38.4404C94.3697 38.4404 96.0572 39.0817 97.8283 40.4019C97.8805 40.4418 97.9484 40.4578 98.0137 40.4473C98.0816 40.4374 98.1391 40.4011 98.1783 40.3465L100.023 37.7468C100.098 37.6397 100.077 37.4921 99.9755 37.4104C97.8674 35.7195 95.4956 34.8974 92.7214 34.8974C88.6437 34.8974 85.7938 37.3448 85.7938 40.8465C85.7938 44.6015 88.2519 45.9311 92.4994 46.9575C96.112 47.79 96.7233 48.4874 96.7233 49.734C96.7233 51.1158 95.4903 51.9752 93.5051 51.9752C91.3004 51.9752 89.5005 51.2308 87.4891 49.491C87.4395 49.4466 87.3716 49.4283 87.3089 49.431C87.241 49.4362 87.1809 49.4675 87.1391 49.5172L85.0702 51.9779C84.984 52.0823 84.9945 52.2339 85.0938 52.3227C87.4343 54.4124 90.3129 55.5148 93.4215 55.5148C97.8152 55.5148 100.655 53.1142 100.655 49.397C100.663 46.2605 98.7843 44.5234 94.1842 43.4043L94.1764 43.4009ZM110.597 39.6759C108.692 39.6759 107.13 40.4262 105.84 41.9634V40.2331C105.84 40.0965 105.73 39.9852 105.594 39.9852H102.212C102.076 39.9852 101.966 40.0965 101.966 40.2331V59.4592C101.966 59.5951 102.076 59.7074 102.212 59.7074H105.594C105.73 59.7074 105.84 59.5951 105.84 59.4592V53.3911C107.13 54.8356 108.692 55.5435 110.597 55.5435C114.136 55.5435 117.72 52.819 117.72 47.6105C117.725 42.401 114.142 39.6757 110.599 39.6757L110.597 39.6759ZM113.786 47.6105C113.786 50.2616 112.154 52.1137 109.813 52.1137C107.501 52.1137 105.756 50.1781 105.756 47.6105C105.756 45.0427 107.501 43.1076 109.813 43.1076C112.114 43.1073 113.786 45.0007 113.786 47.6103V47.6105ZM126.902 39.6759C122.344 39.6759 118.773 43.1857 118.773 47.6672C118.773 52.1006 122.32 55.5723 126.847 55.5723C131.421 55.5723 135.003 52.0745 135.003 47.6105C135.003 43.1617 131.445 39.6765 126.902 39.6765V39.6759ZM126.902 52.1398C124.478 52.1398 122.649 50.1911 122.649 47.6092C122.649 45.0156 124.415 43.1335 126.847 43.1335C129.287 43.1335 131.126 45.0814 131.126 47.6659C131.126 50.259 129.35 52.1398 126.902 52.1398ZM144.736 39.9852H141.013V36.1803C141.013 36.0439 140.904 35.9327 140.768 35.9327H137.385C137.249 35.9327 137.137 36.0439 137.137 36.1803V39.9852H135.512C135.376 39.9852 135.266 40.0965 135.266 40.2331V43.1397C135.266 43.2761 135.376 43.3876 135.512 43.3876H137.137V50.9095C137.137 53.9475 138.649 55.4887 141.635 55.4887C142.847 55.4887 143.853 55.2379 144.801 54.6998C144.879 54.658 144.926 54.5744 144.926 54.4856V51.7166C144.926 51.6331 144.882 51.5521 144.809 51.5077C144.736 51.4606 144.644 51.458 144.568 51.4972C143.918 51.8237 143.289 51.9752 142.583 51.9752C141.499 51.9752 141.013 51.4815 141.013 50.3792V43.3889H144.736C144.872 43.3889 144.981 43.2776 144.981 43.141V40.2347C144.986 40.0981 144.877 39.9868 144.738 39.9868L144.736 39.9852ZM157.703 40.0001V39.5328C157.703 38.158 158.23 37.5449 159.411 37.5449C160.116 37.5449 160.683 37.6849 161.318 37.8965C161.396 37.9211 161.477 37.9088 161.54 37.862C161.605 37.8153 161.642 37.7403 161.642 37.6609V34.811C161.642 34.702 161.574 34.6057 161.467 34.5735C160.798 34.3742 159.941 34.1697 158.656 34.1697C155.535 34.1697 153.881 35.9287 153.881 39.2549V39.9706H152.256C152.12 39.9706 152.008 40.0819 152.008 40.2182V43.1397C152.008 43.2761 152.12 43.3876 152.256 43.3876H153.881V54.9871C153.881 55.1256 153.993 55.2353 154.129 55.2353H157.509C157.648 55.2353 157.758 55.1256 157.758 54.9871V43.3884H160.916L165.753 54.9871C165.205 56.2044 164.664 56.4473 163.928 56.4473C163.332 56.4473 162.702 56.2697 162.062 55.9171C162.002 55.8857 161.929 55.8805 161.867 55.8988C161.801 55.9223 161.746 55.9693 161.72 56.032L160.573 58.5476C160.519 58.6677 160.566 58.8062 160.681 58.8689C161.877 59.5167 162.956 59.7936 164.291 59.7936C166.788 59.7936 168.17 58.6285 169.384 55.4991L175.251 40.3387C175.283 40.2624 175.272 40.1762 175.225 40.1085C175.181 40.0414 175.105 40.0009 175.024 40.0009H171.503C171.396 40.0009 171.302 40.068 171.268 40.167L167.66 50.468L163.711 40.1602C163.674 40.0644 163.583 40.0009 163.481 40.0009H157.703V40.0001ZM150.185 39.9852H146.802C146.666 39.9852 146.554 40.0965 146.554 40.2331V54.9871C146.554 55.1256 146.666 55.2353 146.802 55.2353H150.185C150.321 55.2353 150.433 55.1256 150.433 54.9871V40.2342C150.433 40.0976 150.323 39.9863 150.185 39.9863V39.9852ZM148.513 33.2669C147.173 33.2669 146.086 34.3515 146.086 35.6913C146.086 37.0319 147.173 38.1178 148.513 38.1178C149.853 38.1178 150.937 37.0319 150.937 35.6913C150.937 34.3517 149.85 33.2669 148.513 33.2669ZM178.141 44.7293C176.803 44.7293 175.761 43.6543 175.761 42.349C175.761 41.0437 176.816 39.9565 178.154 39.9565C179.491 39.9565 180.533 41.0312 180.533 42.3354C180.533 43.6407 179.478 44.7293 178.141 44.7293ZM178.154 40.1932C176.934 40.1932 176.012 41.1623 176.012 42.349C176.012 43.5352 176.929 44.4913 178.141 44.4913C179.36 44.4913 180.283 43.5229 180.283 42.3354C180.283 41.1492 179.366 40.1932 178.154 40.1932ZM178.681 42.5802L179.355 43.5227H178.786L178.18 42.658H177.66V43.5227H177.185V41.0244H178.297C178.88 41.0244 179.261 41.3214 179.261 41.8213C179.264 42.2309 179.026 42.4812 178.684 42.5802H178.681ZM178.279 41.453H177.66V42.2432H178.279C178.587 42.2432 178.773 42.092 178.773 41.8477C178.773 41.5907 178.587 41.453 178.279 41.453Z" fill="#E6E6E6"/>
</g>
<defs>
<clipPath id="clip0_113_8868">
<rect width="145.833" height="50" fill="white" transform="translate(34.5835 20)"/>
</clipPath>
</defs>
</svg>
