<svg width="630" height="606" viewBox="0 0 630 606" fill="none" xmlns="http://www.w3.org/2000/svg">
<g clip-path="url(#clip0_394_1478)">
<path d="M480.46 334.851C479.226 337.359 476.193 338.379 473.684 337.145C472.437 336.528 471.484 335.427 471.081 334.099C470.464 331.979 469.082 328.746 466.278 327.364C461.93 325.217 457.167 327.203 454.725 332.127C452.297 337.064 453.612 342.042 457.972 344.188C460.777 345.57 464.185 344.698 466.238 343.907C467.539 343.41 468.988 343.491 470.236 344.108C472.745 345.342 473.765 348.374 472.53 350.883L457.315 381.648L526.389 414.062L541.819 381.473C543.054 378.964 546.086 377.945 548.595 379.179C549.843 379.796 550.796 380.896 551.185 382.224C551.802 384.344 553.184 387.578 555.988 388.96C560.336 391.106 565.099 389.121 567.541 384.197C569.97 379.259 568.655 374.282 564.294 372.135C561.49 370.753 558.082 371.625 556.029 372.417C554.727 372.913 553.278 372.833 552.03 372.216C549.521 370.981 547.938 368.03 549.172 365.521L562.174 337.802L493.757 305.696L480.42 334.837L480.46 334.851Z" fill="#B6B6B6"/>
<path d="M379.774 12.7857L349.598 21.5602L357.313 48.3397C357.97 50.7949 360.828 51.8682 363.284 51.2108C364.505 50.8888 365.551 50.0704 366.142 48.9568C367.081 47.1724 368.879 44.5428 371.629 43.8049C375.896 42.6645 379.801 45.2807 381.089 50.1241C382.377 54.9675 380.311 59.1803 376.03 60.3207C373.28 61.0586 370.395 59.6633 368.704 58.5899C367.631 57.9057 366.316 57.7313 365.095 58.0533C362.64 58.7107 361.177 61.233 361.835 63.6882L370.811 95.2575L415.264 82.458L441.334 74.9448L444.541 74.019L436.504 43.8183C435.847 41.3631 433.324 39.9007 430.869 40.5581C429.648 40.8801 428.601 41.6985 428.011 42.812C427.071 44.5965 425.273 47.2261 422.523 47.964C418.256 49.1044 414.351 46.4882 413.063 41.6448C411.775 36.8014 413.841 32.5886 418.122 31.4482C420.872 30.7103 423.757 32.1056 425.448 33.1789C426.521 33.8632 427.836 34.0376 429.057 33.7156C431.513 33.0582 432.975 30.5359 432.318 28.0806L423.932 -0.0136719L379.761 12.7723" fill="#E2E2E2"/>
<path d="M309.345 358.088L282.684 360.02L284.334 383.687C284.441 385.847 286.628 387.243 288.789 387.135C289.862 387.082 290.882 386.599 291.58 385.767C292.68 384.452 294.639 382.574 297.067 382.453C300.824 382.265 303.602 385.136 303.816 389.389C304.031 393.642 301.562 396.782 297.805 396.97C295.377 397.09 293.23 395.427 292.009 394.219C291.244 393.468 290.184 393.079 289.097 393.133C286.937 393.24 285.273 395.078 285.381 397.238L287.232 425.118L326.492 422.367L349.53 420.757L352.362 420.556L351.047 393.991C350.939 391.831 349.101 390.168 346.941 390.275C345.867 390.329 344.848 390.812 344.15 391.643C343.05 392.958 341.091 394.836 338.662 394.957C334.905 395.145 332.128 392.274 331.913 388.021C331.698 383.768 334.167 380.628 337.924 380.44C340.353 380.32 342.5 381.983 343.721 383.191C344.485 383.942 345.545 384.331 346.632 384.278C348.792 384.17 350.456 382.332 350.349 380.172L348.377 355.298L309.345 358.075" fill="#EBEBEB"/>
<path d="M126.864 342.861C113.996 349.529 104.134 361.001 97.0498 373.626C89.9653 386.251 85.3899 400.11 80.8547 413.875L76.8965 484.836C91.8572 459.371 103.879 429.452 107.126 400.096C103.812 399.801 100.485 399.506 97.1706 399.211C103.853 398.191 109.448 393.348 113.017 387.619C116.586 381.877 118.424 375.262 120.209 368.755C116.157 369.359 112.104 369.963 108.052 370.567C117.565 364.221 124.462 354.064 126.864 342.875V342.861Z" fill="#E0E0E0"/>
<path d="M74.6827 501.458C74.6827 501.458 42.1985 462.577 42.5742 425.467H55.6967C55.6967 425.467 41.4472 416.089 42.5742 410.843C43.7013 405.597 44.077 385.727 44.077 385.727L56.0724 388.732C56.0724 388.732 47.0692 384.238 45.9555 377.114C44.8418 369.989 48.5854 336.998 48.5854 336.998C48.5854 336.998 63.2106 352.373 67.7055 368.111C72.2005 383.862 84.008 402.229 80.5463 450.221C77.0845 498.212 74.6961 501.472 74.6961 501.472L74.6827 501.458Z" fill="#EBEBEB"/>
<path d="M91.1455 505.134C91.1455 505.134 126.34 481.695 134.163 451.763L123.616 448.892C123.616 448.892 137.128 444.478 137.369 440.01C137.611 435.542 141.663 419.483 141.663 419.483L131.358 419.268C131.358 419.268 139.583 417.618 142.039 412.144C144.508 406.656 148.707 379.313 148.707 379.313C148.707 379.313 133.586 388.477 126.528 400.149C119.47 411.822 105.945 424.004 98.2435 463.355C90.5283 502.692 91.1589 505.134 91.1589 505.134H91.1455Z" fill="#EBEBEB"/>
<path d="M57.4405 370.888C57.4405 370.888 57.4942 371.023 57.5612 371.291C57.6283 371.599 57.7357 371.989 57.843 372.485C58.0845 373.585 58.4334 375.128 58.8762 377.1C59.3324 379.099 59.8557 381.555 60.4192 384.412C60.9962 387.27 61.6805 390.517 62.3379 394.126C63.7334 401.331 65.2093 409.958 66.7121 419.537C68.1746 429.13 69.6371 439.702 70.9387 450.838C72.2133 461.974 73.1928 472.6 73.9576 482.286C74.6688 491.973 75.2055 500.694 75.4872 508.033C75.6617 511.695 75.7556 515.023 75.8361 517.934C75.93 520.846 75.9837 523.354 75.9971 525.407C76.0105 527.42 76.024 529.003 76.0374 530.13C76.0374 530.64 76.0374 531.042 76.0374 531.364C76.0374 531.646 76.024 531.78 76.0105 531.78C76.0105 531.78 75.9837 531.632 75.9703 531.364C75.9569 531.056 75.93 530.64 75.9032 530.13C75.8629 529.003 75.8093 527.42 75.7288 525.407C75.6751 523.354 75.5812 520.846 75.447 517.934C75.3262 515.023 75.2055 511.709 74.9908 508.046C74.6419 500.721 74.0516 492 73.3136 482.327C72.5219 472.653 71.5156 462.041 70.2409 450.918C68.9394 439.796 67.5037 429.237 66.068 419.644C64.5921 410.051 63.1698 401.438 61.8415 394.22C61.2108 390.611 60.5668 387.351 60.0301 384.479C59.4934 381.608 59.0103 379.153 58.5944 377.141C58.2053 375.168 57.8967 373.612 57.682 372.498C57.5881 372.002 57.521 371.599 57.4673 371.291C57.4271 371.023 57.4002 370.875 57.4136 370.875L57.4405 370.888Z" fill="#E0E0E0"/>
<path d="M70.1742 525.273C70.1742 525.273 40.4406 491.543 31.2092 471.15L38.173 468.172C33.128 469.004 27.9487 466.83 24.0308 463.543C20.1128 460.243 17.2414 455.909 14.4237 451.643L23.6014 450.086C15.2556 447.738 7.90274 442.05 3.54199 434.55C14.3701 436.334 24.1784 442.278 32.2558 449.711C38.7902 455.735 44.3317 462.725 49.6585 469.862C52.2481 473.351 54.5291 477.053 56.421 480.971C61.4124 491.302 70.201 512.876 70.1876 525.259L70.1742 525.273Z" fill="#E0E0E0"/>
<path d="M134.632 398.942C134.632 398.942 134.592 399.063 134.498 399.291C134.377 399.546 134.23 399.868 134.042 400.271C133.613 401.169 133.009 402.431 132.244 404.014C130.661 407.261 128.407 411.97 125.669 417.806C120.208 429.492 113.003 445.806 105.905 464.174C98.8072 482.541 93.1584 499.459 89.3343 511.789C87.4156 517.947 85.9128 522.952 84.9065 526.413C84.3966 528.104 84.0075 529.432 83.7257 530.398C83.5916 530.814 83.4842 531.163 83.4037 531.431C83.3232 531.659 83.2829 531.78 83.2695 531.78C83.2695 531.78 83.2695 531.659 83.3366 531.418C83.4037 531.136 83.4842 530.8 83.5916 530.371C83.8465 529.405 84.2088 528.063 84.6515 526.346C85.5774 522.858 87.0131 517.827 88.8647 511.642C92.568 499.271 98.1497 482.313 105.261 463.919C112.372 445.538 119.658 429.237 125.24 417.591C128.031 411.769 130.352 407.086 132.016 403.88C132.834 402.31 133.478 401.076 133.935 400.19C134.149 399.801 134.31 399.492 134.445 399.237C134.565 399.023 134.632 398.915 134.646 398.929L134.632 398.942Z" fill="#E0E0E0"/>
<path d="M72.6969 539.722C72.6969 539.722 72.6164 539.507 72.5493 539.105C72.4688 538.622 72.3748 538.032 72.2541 537.321C72.026 535.764 71.6369 533.524 71.0867 530.76C70.55 527.996 69.7852 524.736 68.8057 521.154C67.7994 517.585 66.565 513.681 65.0622 509.669C63.5326 505.657 61.8822 501.928 60.2855 498.573C58.6486 495.233 57.0653 492.281 55.6564 489.866C54.2476 487.438 53.0534 485.492 52.2081 484.177C51.8324 483.574 51.5104 483.064 51.2554 482.635C51.0407 482.272 50.9468 482.085 50.9602 482.071C50.9737 482.058 51.1213 482.219 51.3762 482.554C51.6714 482.957 52.0202 483.44 52.4496 484.017C53.3754 485.291 54.6367 487.196 56.0992 489.611C57.5752 492.013 59.2121 494.951 60.8893 498.292C62.5397 501.646 64.2169 505.389 65.7465 509.428C67.2627 513.466 68.4837 517.384 69.4632 520.993C70.4159 524.602 71.127 527.889 71.61 530.666C72.0931 533.443 72.4151 535.711 72.5627 537.28C72.6298 537.991 72.6835 538.595 72.7371 539.092C72.764 539.507 72.7774 539.722 72.7371 539.722H72.6969Z" fill="#E0E0E0"/>
<path d="M111.917 531.78H46.8545V545.049H111.917V531.78Z" fill="#E0E0E0"/>
<path d="M53.0527 545.062L60.097 586.345H99.4108L105.972 545.062H53.0527Z" fill="#E0E0E0"/>
<path d="M107.932 545.063C107.932 545.251 95.6279 545.411 80.4391 545.411C65.2503 545.411 52.9463 545.251 52.9463 545.063C52.9463 544.875 65.2503 544.714 80.4391 544.714C95.6279 544.714 107.932 544.875 107.932 545.063Z" fill="#EBEBEB"/>
<path d="M341.534 211.606C344.835 209.607 348.35 208.104 351.959 207.071L354.106 196.74L371.549 196.432L374.058 206.668C377.708 207.567 381.277 208.963 384.645 210.828L393.46 205.045L406.019 217.16L400.558 226.176C402.557 229.477 404.06 232.992 405.093 236.614L415.425 238.761L415.734 256.202L405.496 258.711C404.597 262.361 403.201 265.93 401.336 269.297L407.119 278.112L395.003 290.67L385.987 285.209C382.686 287.208 379.17 288.711 375.548 289.744L373.401 300.075L355.958 300.383L353.449 290.146C349.799 289.248 346.23 287.852 342.862 285.987L334.047 291.77L321.488 279.655L326.949 270.639C324.95 267.338 323.447 263.823 322.414 260.201L312.082 258.054L311.773 240.612L322.011 238.104C322.91 234.454 324.306 230.885 326.171 227.518L320.388 218.703L332.504 206.145L341.52 211.606H341.534ZM350.832 234.843C343.654 242.276 343.855 254.123 351.302 261.314C358.735 268.492 370.583 268.291 377.775 260.845C384.953 253.412 384.752 241.565 377.305 234.374C369.872 227.196 358.024 227.397 350.832 234.843Z" fill="#EBEBEB"/>
<path d="M538.841 87.6506C541.913 85.7991 545.174 84.3904 548.542 83.4378L550.541 73.8316L566.776 73.5498L569.111 83.0756C572.519 83.9074 575.833 85.2088 578.959 86.953L587.158 81.5729L598.844 92.8563L593.759 101.242C595.611 104.314 597.02 107.574 597.972 110.955L607.579 112.954L607.861 129.188L598.334 131.523C597.503 134.917 596.201 138.245 594.457 141.371L599.837 149.582L588.566 161.267L580.18 156.183C577.108 158.034 573.847 159.443 570.466 160.395L568.467 170.002L552.231 170.283L549.897 160.758C546.489 159.926 543.174 158.624 540.048 156.88L531.85 162.26L520.163 150.977L525.248 142.592C523.397 139.519 521.988 136.259 521.035 132.878L511.428 130.879L511.146 114.645L520.673 112.31C521.505 108.916 522.806 105.589 524.551 102.463L519.17 94.2516L530.441 82.5657L538.827 87.6506H538.841ZM547.495 109.278C540.813 116.201 541.001 127.23 547.924 133.911C554.848 140.592 565.877 140.391 572.559 133.482C579.241 126.559 579.053 115.53 572.13 108.849C565.206 102.167 554.177 102.369 547.495 109.278Z" fill="#EBEBEB"/>
<path d="M34.2419 239.432C37.3146 237.58 40.5751 236.172 43.9429 235.219L45.9421 225.613L62.1775 225.331L64.5122 234.857C67.9203 235.689 71.2345 236.99 74.3608 238.734L82.559 233.354L94.2458 244.638L89.1605 253.023C91.0121 256.095 92.421 259.356 93.3736 262.736L102.981 264.736L103.262 280.97L93.7359 283.304C92.904 286.698 91.6025 290.026 89.8582 293.152L95.2387 301.363L83.9678 313.049L75.5818 307.964C72.5091 309.815 69.2486 311.224 65.8674 312.177L63.8681 321.783L47.6328 322.065L45.2981 312.539C41.89 311.707 38.5758 310.406 35.4495 308.661L27.2513 314.041L15.5645 302.758L20.6498 294.373C18.7982 291.3 17.3893 288.04 16.4367 284.659L6.82962 282.66L6.54785 266.426L16.0744 264.092C16.9063 260.697 18.2078 257.37 19.9521 254.244L14.5716 246.033L25.8425 234.347L34.2285 239.432H34.2419ZM42.8963 261.046C36.2143 267.969 36.4022 278.997 43.3257 285.679C50.2492 292.36 61.2785 292.172 67.9605 285.249C74.6425 278.327 74.4547 267.298 67.5312 260.617C60.6077 253.935 49.5783 254.136 42.8963 261.046Z" fill="#B6B6B6"/>
<path d="M90.9589 106.193C93.0386 104.945 95.2391 103.992 97.5201 103.335L98.8753 96.8412L109.851 96.6533L111.434 103.093C113.729 103.657 115.983 104.529 118.089 105.71L123.631 102.074L131.534 109.694L128.099 115.369C129.347 117.449 130.299 119.649 130.957 121.93L137.451 123.285L137.639 134.26L131.198 135.843C130.635 138.137 129.763 140.378 128.582 142.498L132.218 148.039L124.597 155.941L118.921 152.507C116.842 153.754 114.641 154.707 112.36 155.364L111.005 161.858L100.029 162.046L98.4459 155.606C96.1515 155.042 93.9108 154.17 91.7908 152.99L86.2493 156.625L78.3463 149.005L81.7812 143.33C80.5333 141.25 79.5807 139.05 78.9232 136.769L72.4291 135.414L72.2412 124.439L78.6817 122.856C79.2452 120.562 80.1174 118.321 81.2981 116.201L77.662 110.66L85.2832 102.758L90.9589 106.193ZM96.8224 120.817C92.3006 125.499 92.4348 132.945 97.1176 137.467C101.8 141.988 109.247 141.854 113.769 137.171C118.291 132.489 118.156 125.043 113.474 120.521C108.791 116 101.344 116.134 96.8224 120.817Z" fill="#EBEBEB"/>
<path d="M51.0943 35.6075C52.9996 34.4536 55.039 33.5815 57.1322 32.9778L58.38 27.0074L68.4836 26.833L69.9327 32.7631C72.0527 33.2864 74.1056 34.0914 76.0645 35.1781L81.1633 31.8374L88.4356 38.8543L85.2691 44.0733C86.423 45.9785 87.2951 48.0178 87.8989 50.1108L93.8698 51.3585L94.0442 61.4612L88.1136 62.9102C87.5903 65.03 86.7853 67.0827 85.6984 69.0416L89.0394 74.1399L82.022 81.4117L76.8025 78.2453C74.8972 79.3992 72.8577 80.2712 70.7646 80.875L69.5167 86.8454L59.4132 87.0198L57.9641 81.0896C55.8441 80.5664 53.7912 79.7614 51.8322 78.6747L46.7335 82.0154L39.4611 74.9985L42.6277 69.7795C41.4738 67.8743 40.6016 65.835 39.9978 63.742L34.027 62.4943L33.8525 52.3916L39.7832 50.9426C40.3064 48.8228 41.1115 46.77 42.1983 44.8112L38.8573 39.7129L45.8748 32.4411L51.0943 35.6075ZM56.4747 49.0643C52.3153 53.371 52.436 60.2269 56.7431 64.386C61.0502 68.5452 67.9066 68.4244 72.0661 64.1177C76.2256 59.811 76.1048 52.9551 71.7977 48.7959C67.4906 44.6368 60.6342 44.7576 56.4747 49.0643Z" fill="#F5F5F5"/>
<path d="M539.619 242.826C541.524 241.672 543.563 240.8 545.657 240.197L546.904 234.226L557.008 234.052L558.457 239.982C560.577 240.505 562.63 241.31 564.589 242.397L569.688 239.056L576.96 246.073L573.794 251.292C574.947 253.197 575.82 255.237 576.423 257.33L582.394 258.577L582.569 268.68L576.638 270.129C576.115 272.249 575.31 274.302 574.223 276.26L577.564 281.359L570.546 288.63L565.327 285.464C563.422 286.618 561.382 287.49 559.289 288.094L558.041 294.064L547.938 294.239L546.489 288.308C544.369 287.785 542.316 286.98 540.357 285.893L535.258 289.234L527.986 282.217L531.152 276.998C529.998 275.093 529.126 273.054 528.522 270.961L522.551 269.713L522.377 259.61L528.308 258.161C528.831 256.042 529.636 253.989 530.723 252.03L527.382 246.932L534.399 239.66L539.619 242.826ZM545.013 256.27C540.853 260.576 540.974 267.432 545.281 271.591C549.588 275.75 556.444 275.63 560.604 271.323C564.763 267.016 564.643 260.16 560.336 256.001C556.028 251.842 549.172 251.963 545.013 256.27Z" fill="#F5F5F5"/>
<path d="M413.909 144.832C416.391 143.665 418.994 142.846 421.651 142.39L423.932 135.226L436.33 136.299L437.349 143.759C439.872 144.671 442.301 145.919 444.555 147.488L451.237 144.04L459.247 153.566L454.698 159.563C455.866 162.045 456.684 164.662 457.141 167.305L464.306 169.585L463.232 181.982L455.772 183.015C454.859 185.538 453.612 187.966 452.042 190.22L455.49 196.902L445.964 204.911L439.966 200.363C437.484 201.53 434.881 202.349 432.224 202.805L429.943 209.969L417.545 208.896L416.512 201.436C413.989 200.524 411.561 199.276 409.306 197.707L402.625 201.155L394.614 191.629L399.163 185.632C397.995 183.15 397.177 180.547 396.721 177.89L389.556 175.609L390.629 163.213L398.089 162.179C399.002 159.657 400.25 157.229 401.819 154.975L398.371 148.293L407.898 140.284L413.895 144.832H413.909ZM418.793 162.005C413.144 166.755 412.419 175.18 417.169 180.815C421.919 186.464 430.345 187.188 435.981 182.439C441.63 177.689 442.354 169.263 437.604 163.628C432.855 157.98 424.428 157.256 418.793 162.005Z" fill="#F5F5F5"/>
<path d="M628.202 587.552C628.202 587.74 487.638 587.901 314.295 587.901C140.952 587.901 0.348633 587.74 0.348633 587.552C0.348633 587.364 140.885 587.203 314.295 587.203C487.705 587.203 628.202 587.364 628.202 587.552Z" fill="#333333"/>
<path d="M322.011 580.979C322.051 579.248 321.81 576.122 319.462 573.64C317.583 571.654 315.396 571.131 315.463 567.253C315.584 561.243 320.481 557.124 327.297 557.258C334.114 557.392 338.85 561.686 338.729 567.71C338.649 571.587 333.899 572.593 332.96 575.156C332.396 576.672 331.685 579.436 331.645 581.166C331.578 584.628 334.328 587.486 337.79 587.553L377.694 587.177L377.6 524.602L377.493 481.844H339.561C336.1 481.776 333.631 485.104 333.564 488.565C333.523 490.296 334.194 491.973 335.442 493.154C337.414 495.045 340.192 498.4 340.111 502.277C339.991 508.288 335.093 512.406 328.277 512.272C321.461 512.138 316.724 507.845 316.845 501.821C316.926 497.943 319.824 494.697 321.877 492.885C323.165 491.745 323.903 490.095 323.93 488.364C323.997 484.902 321.246 482.045 317.784 481.978L273.104 481.83V586.251L315.624 587.11C319.086 587.177 321.944 584.427 322.011 580.965V580.979Z" fill="#E0E0E0"/>
<g opacity="0.3">
<path d="M322.011 580.979C322.051 579.248 321.81 576.122 319.462 573.64C317.583 571.654 315.396 571.131 315.463 567.253C315.584 561.243 320.481 557.124 327.297 557.258C334.114 557.392 338.85 561.686 338.729 567.71C338.649 571.587 333.899 572.593 332.96 575.156C332.396 576.672 331.685 579.436 331.645 581.166C331.578 584.628 334.328 587.486 337.79 587.553L377.694 587.177L377.6 524.602L377.493 481.844H339.561C336.1 481.776 333.631 485.104 333.564 488.565C333.523 490.296 334.194 491.973 335.442 493.154C337.414 495.045 340.192 498.4 340.111 502.277C339.991 508.288 335.093 512.406 328.277 512.272C321.461 512.138 316.724 507.845 316.845 501.821C316.926 497.943 319.824 494.697 321.877 492.885C323.165 491.745 323.903 490.095 323.93 488.364C323.997 484.902 321.246 482.045 317.784 481.978L273.104 481.83V586.251L315.624 587.11C319.086 587.177 321.944 584.427 322.011 580.965V580.979Z" fill="black"/>
</g>
<path d="M314.135 580.979C314.175 579.248 313.504 577.571 312.256 576.377C310.284 574.485 307.506 571.131 307.587 567.253C307.708 561.243 312.605 557.124 319.421 557.258C326.237 557.392 330.974 561.686 330.853 567.71C330.773 571.587 327.874 574.834 325.821 576.645C324.533 577.785 323.795 579.436 323.769 581.166C323.701 584.628 326.452 587.486 329.914 587.553L369.818 587.177L369.724 524.602L369.617 481.844H331.685C328.223 481.776 325.754 485.104 325.674 488.565C325.634 490.296 326.305 491.973 327.552 493.154C329.525 495.045 332.302 498.4 332.222 502.277C332.101 508.288 327.204 512.406 320.387 512.272C313.571 512.138 308.835 507.845 308.955 501.821C309.036 497.943 311.934 494.697 313.987 492.885C315.275 491.745 316.013 490.095 316.04 488.364C316.107 484.902 313.356 482.045 309.895 481.978L265.214 481.83V586.251L307.734 587.11C311.196 587.177 314.054 584.427 314.121 580.965L314.135 580.979Z" fill="#EBEBEB"/>
<path d="M314.135 580.978C314.135 580.978 314.162 581.287 314.081 581.864C314.001 582.441 313.786 583.326 313.155 584.319C312.538 585.298 311.424 586.385 309.761 586.908C308.942 587.19 307.976 587.244 306.997 587.19C306.004 587.177 304.957 587.163 303.83 587.136C294.867 586.975 281.785 586.747 265.214 586.452H265.013V586.251C264.986 559.82 264.946 523.783 264.905 481.83V481.508H265.227C273.962 481.535 283.006 481.561 292.277 481.588C296.92 481.588 301.616 481.615 306.379 481.628C307.573 481.628 308.768 481.628 309.962 481.642C311.223 481.682 312.471 482.085 313.531 482.809C315.651 484.231 316.778 486.982 316.268 489.517C316.027 490.779 315.409 491.973 314.497 492.885C313.558 493.73 312.726 494.549 311.961 495.501C310.458 497.366 309.291 499.634 309.331 502.035C309.304 504.45 310.23 506.852 311.921 508.582C313.598 510.34 315.96 511.373 318.402 511.735C320.844 512.098 323.42 511.937 325.728 510.997C328.035 510.098 330.035 508.354 331.041 506.087C332.061 503.819 332.181 501.136 331.202 498.829C330.732 497.661 330.062 496.575 329.283 495.568C328.894 495.072 328.465 494.575 328.035 494.119C327.606 493.65 327.096 493.234 326.667 492.67C325.956 491.731 325.513 490.591 325.379 489.424C325.245 488.256 325.446 487.089 325.808 485.989C326.573 483.842 328.384 481.87 330.786 481.548C331.98 481.414 333.013 481.508 334.14 481.481H337.428C339.615 481.481 341.802 481.481 343.976 481.481C352.67 481.481 361.231 481.481 369.63 481.481H369.979V481.83C370.033 520.617 370.073 556.359 370.113 587.163V587.445H369.831C361.056 587.526 352.67 587.593 344.714 587.66C340.729 587.687 336.864 587.727 333.094 587.754C332.155 587.754 331.215 587.767 330.29 587.78C329.35 587.794 328.371 587.633 327.512 587.257C325.754 586.519 324.413 584.99 323.863 583.246C323.299 581.501 323.527 579.556 324.413 578.027C324.829 577.248 325.5 576.604 326.117 576.068C326.721 575.504 327.297 574.901 327.821 574.283C328.867 573.036 329.713 571.654 330.209 570.178C330.732 568.715 330.746 567.146 330.504 565.67C330.021 562.691 328.022 560.263 325.62 558.975C323.205 557.633 320.481 557.285 318.012 557.446C315.53 557.62 313.209 558.398 311.465 559.767C309.693 561.095 308.553 562.96 308.07 564.825C307.56 566.69 307.654 568.541 308.164 570.084C308.674 571.64 309.479 572.928 310.27 573.988C311.076 575.062 311.907 575.88 312.632 576.618C313.316 577.396 313.692 578.201 313.893 578.858C314.108 579.529 314.148 580.052 314.162 580.401C314.175 580.75 314.162 580.925 314.162 580.925C314.121 580.925 314.229 580.187 313.813 578.872C313.598 578.228 313.222 577.436 312.538 576.685C311.827 575.974 310.955 575.142 310.136 574.069C309.318 572.995 308.486 571.707 307.963 570.124C307.426 568.541 307.319 566.636 307.828 564.731C308.311 562.826 309.465 560.894 311.277 559.512C313.061 558.09 315.45 557.285 317.986 557.097C320.508 556.936 323.286 557.271 325.795 558.64C328.29 559.954 330.397 562.477 330.907 565.589C331.162 567.105 331.148 568.756 330.612 570.299C330.102 571.842 329.23 573.264 328.156 574.538C327.619 575.182 327.043 575.786 326.425 576.376C325.781 576.94 325.218 577.49 324.815 578.228C323.997 579.65 323.782 581.461 324.319 583.085C324.842 584.708 326.09 586.117 327.713 586.788C329.324 587.512 331.242 587.177 333.121 587.23C336.878 587.19 340.755 587.15 344.74 587.11C352.697 587.029 361.083 586.935 369.858 586.841L369.577 587.123C369.496 556.319 369.416 520.577 369.322 481.789L369.67 482.125C361.271 482.125 352.697 482.125 344.002 482.125C339.682 482.152 335.214 482.071 330.934 482.179C326.721 482.823 324.587 488.82 327.257 492.174C327.619 492.657 328.116 493.073 328.572 493.569C329.028 494.052 329.458 494.549 329.874 495.072C330.679 496.118 331.39 497.259 331.9 498.507C332.946 500.989 332.826 503.9 331.725 506.315C330.638 508.77 328.478 510.635 326.036 511.588C323.581 512.567 320.897 512.728 318.348 512.366C315.799 511.99 313.289 510.89 311.478 509.012C309.653 507.147 308.66 504.544 308.687 501.981C308.66 499.352 309.908 496.937 311.478 495.018C312.256 494.039 313.182 493.153 314.068 492.348C314.886 491.53 315.436 490.47 315.651 489.33C316.121 487.049 315.114 484.594 313.195 483.306C312.256 482.662 311.129 482.299 310.002 482.259C308.808 482.259 307.614 482.259 306.42 482.246C301.656 482.232 296.96 482.205 292.318 482.192C283.033 482.152 274.002 482.125 265.268 482.085L265.59 481.763C265.549 523.703 265.509 559.753 265.482 586.184L265.281 585.983C281.852 586.358 294.934 586.653 303.897 586.855C305.011 586.882 306.071 586.908 307.05 586.935C308.043 586.989 308.942 586.935 309.761 586.68C311.384 586.184 312.484 585.137 313.115 584.185C313.759 583.219 313.987 582.36 314.081 581.783C314.175 581.206 314.175 580.898 314.202 580.898L314.135 580.978Z" fill="#333333"/>
<path d="M470.289 516.915C470.235 520.671 467.136 523.677 463.379 523.623C461.5 523.596 459.716 522.805 458.454 521.409C456.469 519.195 452.94 516.056 448.727 515.989C442.192 515.895 437.55 521.047 437.442 528.453C437.335 535.859 441.816 541.145 448.351 541.252C452.564 541.319 456.2 538.287 458.24 536.127C459.528 534.772 461.353 534.034 463.218 534.061C466.975 534.115 469.98 537.214 469.927 540.971L469.202 587.15L571.887 586.681L571.834 538.167C571.887 534.41 574.987 531.405 578.744 531.458C580.622 531.485 582.407 532.277 583.655 533.672C585.641 535.886 589.169 539.025 593.383 539.092C599.917 539.186 604.559 534.034 604.667 526.628C604.774 519.222 600.293 513.936 593.758 513.829C589.545 513.762 585.909 516.794 583.869 518.954C582.581 520.309 580.757 521.047 578.891 521.02C575.134 520.966 571.498 518.297 571.565 514.527L571.378 473.324L469.685 473.78L470.289 516.901V516.915Z" fill="#1D1D1D"/>
<g opacity="0.3">
<path d="M470.289 516.915C470.235 520.671 467.136 523.677 463.379 523.623C461.5 523.596 459.716 522.805 458.454 521.409C456.469 519.195 452.94 516.056 448.727 515.989C442.192 515.895 437.55 521.047 437.442 528.453C437.335 535.859 441.816 541.145 448.351 541.252C452.564 541.319 456.2 538.287 458.24 536.127C459.528 534.772 461.353 534.034 463.218 534.061C466.975 534.115 469.98 537.214 469.927 540.971L469.202 587.15L571.887 586.681L571.834 538.167C571.887 534.41 574.987 531.405 578.744 531.458C580.622 531.485 582.407 532.277 583.655 533.672C585.641 535.886 589.169 539.025 593.383 539.092C599.917 539.186 604.559 534.034 604.667 526.628C604.774 519.222 600.293 513.936 593.758 513.829C589.545 513.762 585.909 516.794 583.869 518.954C582.581 520.309 580.757 521.047 578.891 521.02C575.134 520.966 571.498 518.297 571.565 514.527L571.378 473.324L469.685 473.78L470.289 516.901V516.915Z" fill="black"/>
</g>
<path d="M462.708 516.915C462.654 520.671 459.555 523.677 455.798 523.623C453.919 523.596 452.135 522.805 450.873 521.409C448.901 519.195 445.359 516.056 441.146 515.989C434.611 515.895 429.969 521.047 429.861 528.453C429.754 535.859 434.235 541.145 440.77 541.252C444.983 541.319 448.619 538.287 450.659 536.127C451.947 534.772 453.772 534.034 455.637 534.061C459.394 534.115 462.399 537.214 462.345 540.971L461.621 587.15L564.306 586.681L564.253 538.167C564.306 534.41 567.406 531.405 571.163 531.458C573.041 531.485 574.826 532.277 576.074 533.672C578.059 535.886 581.588 539.025 585.801 539.092C592.336 539.186 596.978 534.034 597.086 526.628C597.193 519.222 592.712 513.936 586.177 513.829C581.964 513.762 578.328 516.794 576.288 518.954C575 520.309 573.175 521.047 571.31 521.02C567.553 520.966 563.917 518.297 563.984 514.527L563.796 473.324L462.104 473.78L462.708 516.901V516.915Z" fill="#1D1D1D"/>
<path d="M462.708 516.914C462.708 516.914 462.681 516.673 462.668 516.19C462.668 515.693 462.641 514.982 462.614 514.043C462.574 512.125 462.52 509.32 462.453 505.658C462.333 498.292 462.145 487.518 461.917 473.807V473.619H462.104C487.034 473.471 522.108 473.283 563.797 473.042H564.106V473.351C564.159 483.561 564.213 494.213 564.267 505.255C564.28 508.019 564.293 510.796 564.307 513.614C564.32 514.325 564.267 515.009 564.414 515.653C564.548 516.297 564.79 516.928 565.152 517.491C565.877 518.618 566.99 519.504 568.238 520.04C569.486 520.577 570.908 520.818 572.264 520.657C573.619 520.483 574.92 519.866 575.9 518.9C577.885 516.807 580.301 514.861 583.199 513.963C583.923 513.734 584.675 513.614 585.44 513.547C586.204 513.506 586.969 513.547 587.721 513.654C589.223 513.869 590.699 514.392 592.001 515.224C594.617 516.887 596.348 519.718 597.033 522.71C597.677 525.716 597.556 528.909 596.523 531.874C595.476 534.812 593.262 537.455 590.27 538.636C588.794 539.239 587.184 539.494 585.587 539.454C583.977 539.4 582.407 538.891 580.998 538.139C579.576 537.388 578.315 536.409 577.161 535.322C576.584 534.785 576.034 534.155 575.524 533.631C575.001 533.108 574.357 532.692 573.686 532.397C572.317 531.793 570.734 531.686 569.298 532.102C567.863 532.518 566.574 533.443 565.716 534.691C564.844 535.952 564.535 537.442 564.602 539.025C564.602 540.621 564.602 542.218 564.602 543.814C564.615 558.412 564.629 572.767 564.656 586.734V587.083H564.307C527.033 587.231 492.254 587.378 461.621 587.499H461.313V587.19C461.487 576.739 461.648 566.717 461.809 557.204C461.89 552.441 461.97 547.799 462.037 543.291C462.037 542.178 462.145 541.024 461.997 539.977C461.863 538.917 461.434 537.911 460.816 537.053C459.595 535.322 457.516 534.316 455.463 534.342C454.443 534.342 453.423 534.597 452.524 535.053C451.598 535.496 450.914 536.194 450.19 536.959C448.714 538.408 447.05 539.655 445.225 540.501C441.549 542.312 437.107 541.534 434.182 539.239C431.217 536.878 429.862 533.215 429.687 529.848C429.499 526.467 430.251 523.126 431.995 520.564C433.713 517.974 436.463 516.391 439.187 516.015C441.911 515.532 444.568 516.337 446.567 517.598C448.62 518.819 450.149 520.483 451.504 521.905C452.994 523.22 454.886 523.663 456.469 523.529C458.079 523.381 459.407 522.71 460.32 521.892C461.259 521.087 461.809 520.174 462.131 519.41C462.762 517.853 462.628 516.928 462.695 516.941C462.695 516.941 462.695 517.156 462.681 517.585C462.628 518.014 462.561 518.658 462.225 519.437C461.917 520.215 461.366 521.154 460.427 521.986C459.501 522.831 458.146 523.529 456.496 523.703C454.859 523.851 452.913 523.421 451.357 522.066C449.948 520.617 448.459 519.021 446.433 517.813C444.46 516.579 441.911 515.814 439.241 516.31C436.597 516.686 433.954 518.243 432.29 520.751C430.6 523.247 429.875 526.494 430.076 529.808C430.264 533.095 431.593 536.637 434.451 538.891C437.268 541.078 441.508 541.815 445.037 540.071C446.808 539.253 448.418 538.032 449.867 536.61C450.552 535.899 451.343 535.08 452.323 534.624C453.289 534.128 454.376 533.859 455.476 533.859C457.677 533.819 459.917 534.906 461.246 536.757C461.917 537.67 462.373 538.756 462.534 539.897C462.681 541.064 462.574 542.164 462.574 543.291C462.507 547.799 462.44 552.441 462.373 557.204C462.225 566.73 462.078 576.739 461.93 587.19L461.635 586.882C492.267 586.734 527.059 586.56 564.32 586.372L563.971 586.721C563.958 572.754 563.931 558.412 563.918 543.801C563.918 542.205 563.918 540.608 563.918 539.011C563.837 537.428 564.186 535.644 565.152 534.289C566.091 532.907 567.514 531.874 569.11 531.418C570.707 530.961 572.451 531.082 573.968 531.753C574.719 532.088 575.43 532.545 576.02 533.135C576.597 533.739 577.08 534.289 577.657 534.825C578.771 535.885 579.992 536.824 581.347 537.536C582.689 538.247 584.152 538.716 585.641 538.77C587.144 538.81 588.646 538.569 590.028 538.005C592.819 536.905 594.899 534.436 595.892 531.646C596.885 528.842 597.006 525.742 596.389 522.871C595.744 520.013 594.107 517.357 591.665 515.801C590.458 515.023 589.076 514.526 587.654 514.325C586.231 514.11 584.796 514.177 583.427 514.607C580.69 515.452 578.369 517.29 576.396 519.369C575.309 520.443 573.874 521.127 572.371 521.315C570.868 521.489 569.365 521.234 567.997 520.644C566.642 520.054 565.42 519.101 564.615 517.84C564.213 517.209 563.945 516.498 563.797 515.774C563.636 515.036 563.69 514.298 563.676 513.6C563.676 510.796 563.649 508.006 563.636 505.255C563.596 494.213 563.555 483.561 563.515 473.364L563.824 473.673C522.122 473.807 487.061 473.927 462.131 474.008L462.319 473.82C462.48 487.545 462.601 498.319 462.681 505.671C462.708 509.334 462.735 512.138 462.748 514.056C462.748 514.996 462.748 515.707 462.748 516.203C462.748 516.686 462.735 516.928 462.735 516.928L462.708 516.914Z" fill="#333333"/>
<path d="M482.392 526.843C480.258 526.803 473.563 525.877 472.087 527.42C469.752 529.862 470.262 535.014 465.472 534.92C458.052 534.772 452.98 528.735 453.155 520.336C453.316 511.924 458.616 506.101 466.036 506.249C470.826 506.342 469.377 513.681 472.543 514.849C474.408 515.533 480.5 514.943 482.62 514.983C486.887 515.063 490.416 511.669 490.496 507.402L490.027 458.19L412.862 458.298L360.13 458.432V505.216C360.05 509.482 364.155 512.541 368.422 512.621C370.556 512.662 372.622 511.843 374.084 510.3C376.419 507.859 380.552 504.437 385.342 504.531C392.762 504.679 397.834 510.716 397.659 519.115C397.498 527.527 392.198 533.35 384.778 533.203C379.988 533.109 375.99 529.526 373.762 527.004C372.354 525.407 370.314 524.509 368.194 524.468C363.927 524.388 360.398 527.782 360.318 532.049L360.144 587.151H488.926L489.986 534.705C490.067 530.439 486.672 526.91 482.405 526.83L482.392 526.843Z" fill="#333333"/>
<path d="M474.261 526.842C472.128 526.802 470.061 527.621 468.599 529.163C466.264 531.605 462.131 535.026 457.341 534.933C449.921 534.785 444.85 528.747 445.024 520.349C445.185 511.937 450.485 506.114 457.905 506.261C462.695 506.355 466.694 509.937 468.921 512.46C470.33 514.056 472.369 514.955 474.489 514.996C478.756 515.076 482.285 511.682 482.365 507.415L481.896 458.203L404.731 458.31L351.999 458.445V505.228C351.919 509.495 356.025 512.554 360.291 512.634C362.425 512.674 364.491 511.856 365.954 510.313C368.288 507.871 372.421 504.45 377.211 504.544C384.631 504.692 389.703 510.729 389.528 519.128C389.367 527.54 384.067 533.363 376.647 533.215C371.857 533.121 367.859 529.539 365.632 527.017C364.223 525.42 362.183 524.521 360.063 524.481C355.796 524.401 352.268 527.795 352.187 532.061L352.013 587.163H480.795L481.855 534.718C481.936 530.451 478.541 526.923 474.274 526.842H474.261Z" fill="#5C5C5C"/>
<path d="M474.261 526.843C474.261 526.843 474.636 526.816 475.361 526.923C476.072 527.017 477.172 527.285 478.38 528.077C479.574 528.842 480.916 530.21 481.56 532.249C481.909 533.256 481.962 534.436 481.909 535.644C481.882 536.865 481.868 538.166 481.842 539.535C481.64 550.577 481.345 566.717 480.969 587.15V587.351H480.768C448.177 587.378 403.724 587.418 351.985 587.459H351.663V587.137C351.69 576.363 351.73 565.227 351.757 553.783C351.771 548.054 351.798 542.258 351.811 536.382C351.811 534.919 351.811 533.444 351.824 531.968C351.865 530.425 352.361 528.895 353.247 527.621C354.978 525.031 358.345 523.649 361.431 524.28C362.974 524.575 364.437 525.327 365.551 526.454C366.584 527.594 367.604 528.654 368.784 529.593C371.092 531.458 373.896 532.893 376.889 532.867C379.881 532.907 382.873 531.753 385.02 529.647C387.207 527.554 388.481 524.629 388.938 521.61C389.193 520.094 389.206 518.538 389.072 517.008C388.938 515.479 388.616 513.949 388.025 512.527C386.898 509.669 384.751 507.187 381.92 505.926C379.116 504.652 375.775 504.517 372.904 505.725C371.454 506.315 370.113 507.147 368.865 508.113C368.248 508.596 367.644 509.119 367.067 509.669C366.49 510.193 365.98 510.837 365.282 511.346C364.128 512.219 362.746 512.755 361.324 512.916C359.888 513.077 358.466 512.836 357.124 512.38C355.796 511.897 354.548 511.132 353.582 510.099C352.603 509.066 351.905 507.737 351.704 506.315C351.596 505.591 351.623 504.893 351.623 504.236V502.196C351.623 500.841 351.623 499.486 351.623 498.145C351.623 495.448 351.623 492.751 351.623 490.081C351.623 479.361 351.623 468.802 351.623 458.445V458.096H351.972C399.806 458.029 443.883 457.962 481.868 457.908H482.15V458.19C482.244 469.004 482.338 479.348 482.419 489.169C482.459 494.079 482.499 498.856 482.539 503.498C482.539 504.652 482.553 505.805 482.566 506.946C482.593 508.1 482.392 509.294 481.936 510.354C481.037 512.5 479.158 514.137 477.025 514.821C474.878 515.519 472.503 515.237 470.624 514.151C469.672 513.627 468.88 512.822 468.223 512.058C467.525 511.306 466.787 510.609 466.009 509.965C464.466 508.677 462.762 507.63 460.937 507.013C459.112 506.355 457.18 506.342 455.355 506.637C451.665 507.228 448.66 509.71 447.063 512.688C445.413 515.68 444.983 519.034 445.171 522.093C445.399 525.152 446.352 528.037 448.056 530.197C449.706 532.397 452.014 533.792 454.309 534.383C456.616 535.013 458.897 534.906 460.816 534.262C462.748 533.631 464.332 532.639 465.633 531.646C466.961 530.653 467.968 529.62 468.88 528.734C469.833 527.889 470.826 527.433 471.644 527.178C472.463 526.923 473.12 526.869 473.549 526.843C473.979 526.816 474.207 526.843 474.207 526.843C474.207 526.843 473.992 526.843 473.563 526.883C473.134 526.923 472.49 526.99 471.684 527.258C470.879 527.527 469.913 527.983 468.987 528.828C468.102 529.714 467.082 530.774 465.754 531.78C464.439 532.786 462.842 533.806 460.897 534.45C458.951 535.107 456.616 535.241 454.255 534.611C451.907 534.02 449.532 532.598 447.841 530.358C446.097 528.157 445.104 525.219 444.863 522.107C444.661 518.994 445.077 515.573 446.768 512.5C448.391 509.441 451.491 506.852 455.301 506.235C457.167 505.926 459.193 505.94 461.085 506.597C462.976 507.228 464.734 508.301 466.304 509.616C467.096 510.273 467.847 510.984 468.558 511.749C469.256 512.541 469.94 513.252 470.853 513.748C472.624 514.768 474.878 515.023 476.891 514.365C478.903 513.721 480.661 512.178 481.506 510.152C482.419 508.14 481.989 505.779 482.056 503.471C482.003 498.829 481.962 494.052 481.909 489.142C481.801 479.321 481.694 468.99 481.587 458.177L481.868 458.458C443.883 458.552 399.793 458.646 351.972 458.767L352.307 458.418C352.307 468.776 352.307 479.348 352.307 490.054C352.307 492.738 352.307 495.421 352.307 498.118C352.307 499.473 352.307 500.814 352.307 502.17V504.209C352.307 504.893 352.281 505.564 352.374 506.181C352.71 508.77 354.884 510.823 357.339 511.695C358.573 512.125 359.929 512.339 361.217 512.192C362.518 512.058 363.78 511.548 364.826 510.756C365.43 510.313 365.94 509.683 366.544 509.119C367.134 508.556 367.751 508.033 368.395 507.523C369.683 506.53 371.079 505.658 372.608 505.041C375.654 503.766 379.21 503.914 382.175 505.255C385.181 506.597 387.462 509.24 388.642 512.232C389.246 513.721 389.595 515.318 389.729 516.901C389.863 518.497 389.85 520.094 389.582 521.664C389.112 524.803 387.784 527.876 385.462 530.089C383.181 532.33 379.988 533.551 376.848 533.497C373.641 533.524 370.676 531.995 368.301 530.076C367.107 529.123 366.007 527.983 365.014 526.896C363.994 525.877 362.666 525.179 361.257 524.911C358.426 524.334 355.353 525.581 353.757 527.97C352.951 529.137 352.495 530.546 352.455 531.954C352.455 533.43 352.442 534.906 352.428 536.368C352.401 542.245 352.388 548.041 352.361 553.756C352.321 565.201 352.281 576.336 352.24 587.11L351.918 586.788C403.657 586.828 448.096 586.868 480.701 586.895L480.5 587.096C480.956 566.663 481.318 550.523 481.56 539.481C481.587 538.099 481.627 536.798 481.654 535.59C481.721 534.369 481.667 533.242 481.332 532.249C480.715 530.237 479.413 528.882 478.246 528.117C477.052 527.326 475.978 527.044 475.267 526.937C474.556 526.816 474.18 526.829 474.18 526.802L474.261 526.843Z" fill="#333333"/>
<path d="M348.819 198.31C346.632 198.27 339.709 197.317 338.193 198.9C335.791 201.409 336.301 206.735 331.376 206.642C323.728 206.494 318.509 200.269 318.67 191.602C318.844 182.934 324.305 176.924 331.953 177.071C336.891 177.165 335.402 184.746 338.662 185.94C340.594 186.651 346.861 186.034 349.048 186.074C353.449 186.154 357.085 182.666 357.165 178.265L356.682 127.551L277.142 127.658L222.787 127.792V176.011C222.707 180.412 226.933 183.552 231.334 183.646C233.521 183.686 235.655 182.841 237.171 181.257C239.573 178.748 243.84 175.22 248.777 175.314C256.425 175.461 261.645 181.687 261.484 190.354C261.323 199.021 255.848 205.032 248.2 204.884C243.263 204.79 239.143 201.1 236.836 198.498C235.386 196.847 233.28 195.922 231.093 195.881C226.692 195.801 223.056 199.289 222.975 203.69L222.787 260.482H355.528L356.629 206.427C356.709 202.026 353.22 198.39 348.819 198.31Z" fill="#333333"/>
<path d="M339.696 198.31C337.509 198.27 335.375 199.115 333.859 200.698C331.457 203.207 327.19 206.735 322.253 206.642C314.605 206.494 309.385 200.269 309.546 191.602C309.721 182.934 315.182 176.924 322.83 177.071C327.767 177.165 331.887 180.855 334.194 183.458C335.644 185.108 337.75 186.034 339.937 186.074C344.338 186.154 347.974 182.666 348.055 178.265L347.572 127.551L268.032 127.658L213.677 127.792V176.011C213.596 180.412 217.823 183.552 222.224 183.646C224.411 183.686 226.544 182.841 228.061 181.257C230.462 178.748 234.729 175.22 239.667 175.314C247.315 175.461 252.534 181.687 252.373 190.354C252.199 199.021 246.738 205.032 239.09 204.884C234.152 204.79 230.033 201.1 227.725 198.498C226.276 196.847 224.17 195.922 221.982 195.881C217.581 195.801 213.945 199.289 213.865 203.69L213.677 260.482H346.405L347.505 206.427C347.585 202.026 344.097 198.39 339.696 198.31Z" fill="#5C5C5C"/>
<path d="M339.695 198.31C339.695 198.31 340.084 198.283 340.822 198.391C341.56 198.498 342.687 198.766 343.935 199.571C345.17 200.363 346.552 201.771 347.209 203.878C347.571 204.924 347.625 206.132 347.571 207.38C347.545 208.641 347.531 209.969 347.504 211.391C347.29 222.782 346.995 239.418 346.605 260.469V260.67H346.404C312.806 260.697 266.998 260.737 213.677 260.778H213.354V260.456C213.381 249.347 213.422 237.862 213.448 226.069C213.462 220.166 213.489 214.195 213.502 208.144C213.502 206.628 213.502 205.112 213.516 203.583C213.569 201.986 214.066 200.416 214.978 199.102C216.763 196.432 220.224 195.01 223.404 195.667C224.988 195.976 226.49 196.74 227.644 197.894C228.704 199.075 229.764 200.162 230.972 201.128C233.347 203.046 236.245 204.535 239.345 204.495C242.431 204.535 245.517 203.355 247.731 201.168C249.985 199.008 251.313 195.989 251.769 192.876C252.024 191.32 252.051 189.71 251.903 188.14C251.769 186.557 251.434 184.987 250.83 183.525C249.676 180.587 247.449 178.011 244.537 176.723C241.639 175.408 238.191 175.26 235.225 176.508C233.736 177.112 232.341 177.97 231.052 178.963C230.408 179.473 229.791 179.996 229.201 180.56C228.61 181.097 228.074 181.754 227.363 182.291C226.182 183.19 224.76 183.753 223.284 183.901C221.808 184.062 220.345 183.82 218.963 183.351C217.594 182.854 216.32 182.063 215.313 181.003C214.307 179.943 213.583 178.574 213.381 177.112C213.274 176.374 213.301 175.649 213.301 174.965V172.872C213.301 171.477 213.301 170.082 213.301 168.686C213.301 165.909 213.301 163.132 213.301 160.368C213.301 149.326 213.301 138.432 213.301 127.752V127.403H213.65C262.946 127.336 308.392 127.269 347.545 127.202H347.826V127.484C347.92 138.633 348.014 149.286 348.108 159.415C348.148 164.473 348.189 169.397 348.229 174.187C348.229 175.381 348.256 176.575 348.256 177.742C348.283 178.923 348.068 180.157 347.598 181.258C346.672 183.471 344.74 185.162 342.54 185.859C340.339 186.571 337.884 186.289 335.952 185.162C334.972 184.625 334.167 183.793 333.483 183.002C332.758 182.224 332.007 181.499 331.202 180.842C329.619 179.513 327.847 178.427 325.969 177.796C324.091 177.125 322.091 177.112 320.213 177.42C316.402 178.024 313.303 180.6 311.666 183.659C309.962 186.745 309.519 190.206 309.72 193.359C309.948 196.512 310.941 199.491 312.686 201.704C314.376 203.972 316.764 205.407 319.126 206.025C321.501 206.669 323.862 206.561 325.835 205.904C327.821 205.26 329.458 204.227 330.799 203.207C332.168 202.187 333.215 201.114 334.14 200.202C335.12 199.33 336.153 198.86 336.985 198.592C337.83 198.323 338.501 198.27 338.944 198.243C339.387 198.216 339.615 198.243 339.615 198.243C339.615 198.243 339.387 198.243 338.944 198.283C338.501 198.323 337.83 198.391 336.998 198.672C336.166 198.941 335.174 199.424 334.207 200.296C333.295 201.208 332.235 202.308 330.88 203.341C329.525 204.374 327.888 205.421 325.875 206.092C323.876 206.776 321.461 206.897 319.032 206.253C316.617 205.635 314.161 204.173 312.417 201.865C310.619 199.598 309.599 196.579 309.358 193.359C309.143 190.153 309.573 186.638 311.317 183.471C312.994 180.318 316.188 177.648 320.119 177.018C322.051 176.696 324.131 176.709 326.076 177.394C328.022 178.038 329.833 179.151 331.457 180.506C332.275 181.177 333.04 181.915 333.778 182.707C334.489 183.525 335.214 184.249 336.153 184.773C337.978 185.833 340.299 186.088 342.379 185.417C344.445 184.759 346.27 183.163 347.129 181.07C348.068 178.99 347.625 176.562 347.692 174.187C347.639 169.411 347.585 164.487 347.531 159.429C347.424 149.313 347.317 138.646 347.196 127.511L347.478 127.792C308.325 127.886 262.879 127.994 213.583 128.101L213.918 127.752C213.918 138.432 213.918 149.313 213.918 160.368C213.918 163.132 213.918 165.909 213.918 168.686C213.918 170.082 213.918 171.477 213.918 172.872V174.965C213.918 175.676 213.891 176.36 213.999 177.004C214.347 179.688 216.602 181.794 219.124 182.693C220.399 183.136 221.794 183.364 223.136 183.203C224.478 183.055 225.779 182.546 226.866 181.727C227.497 181.271 228.02 180.627 228.637 180.05C229.241 179.473 229.885 178.923 230.543 178.4C231.871 177.367 233.307 176.481 234.876 175.851C238.016 174.536 241.679 174.683 244.725 176.065C247.825 177.447 250.173 180.171 251.38 183.243C252.011 184.786 252.36 186.423 252.507 188.06C252.655 189.697 252.628 191.347 252.36 192.97C251.877 196.204 250.508 199.37 248.12 201.651C245.772 203.958 242.484 205.22 239.251 205.166C235.936 205.193 232.891 203.623 230.449 201.637C229.214 200.658 228.087 199.491 227.067 198.35C226.021 197.29 224.639 196.579 223.19 196.311C220.265 195.707 217.098 197.009 215.448 199.464C214.616 200.671 214.146 202.12 214.106 203.569C214.106 205.085 214.092 206.601 214.079 208.118C214.052 214.168 214.039 220.152 214.012 226.042C213.972 237.835 213.931 249.32 213.891 260.429L213.569 260.107C266.891 260.147 312.712 260.187 346.297 260.214L346.096 260.415C346.565 239.351 346.927 222.715 347.182 211.338C347.209 209.915 347.249 208.574 347.276 207.326C347.343 206.065 347.29 204.911 346.954 203.878C346.31 201.812 344.982 200.416 343.774 199.611C342.553 198.806 341.44 198.511 340.715 198.391C339.977 198.27 339.588 198.27 339.588 198.256L339.695 198.31Z" fill="#333333"/>
<path d="M621.641 198.31C619.454 198.27 612.53 197.317 611.014 198.9C608.612 201.409 609.122 206.735 604.198 206.642C596.55 206.494 591.33 200.269 591.491 191.602C591.666 182.934 597.127 176.924 604.775 177.071C609.712 177.165 608.223 184.746 611.484 185.94C613.416 186.651 619.682 186.034 621.869 186.074C626.27 186.154 629.906 182.666 629.987 178.265L629.504 127.551L549.964 127.658L495.609 127.792V176.011C495.528 180.412 499.755 183.552 504.156 183.646C506.343 183.686 508.476 182.841 509.992 181.257C512.394 178.748 516.661 175.22 521.599 175.314C529.247 175.461 534.466 181.687 534.305 190.354C534.131 199.021 528.67 205.032 521.022 204.884C516.084 204.79 511.965 201.1 509.657 198.498C508.208 196.847 506.101 195.922 503.914 195.881C499.513 195.801 495.877 199.289 495.796 203.69L495.609 260.482H628.336L629.436 206.427C629.517 202.026 626.028 198.39 621.627 198.31H621.641Z" fill="#333333"/>
<path d="M613.269 198.31C611.082 198.27 608.948 199.115 607.432 200.698C605.03 203.207 600.764 206.735 595.826 206.642C588.178 206.494 582.958 200.269 583.119 191.602C583.294 182.934 588.755 176.924 596.403 177.071C601.341 177.165 605.46 180.855 607.768 183.458C609.217 185.108 611.323 186.034 613.51 186.074C617.911 186.154 621.548 182.666 621.628 178.265L621.145 127.551L541.605 127.658L487.25 127.792V176.011C487.17 180.412 491.396 183.552 495.797 183.646C497.984 183.686 500.118 182.841 501.634 181.257C504.036 178.748 508.302 175.22 513.24 175.314C520.888 175.461 526.108 181.687 525.947 190.354C525.772 199.021 520.311 205.032 512.663 204.884C507.725 204.79 503.606 201.1 501.298 198.498C499.849 196.847 497.743 195.922 495.556 195.881C491.155 195.801 487.518 199.289 487.438 203.69L487.25 260.482H619.978L621.078 206.427C621.159 202.026 617.67 198.39 613.269 198.31Z" fill="#5C5C5C"/>
<path d="M613.269 198.31C613.269 198.31 613.658 198.283 614.396 198.391C615.134 198.498 616.261 198.766 617.509 199.571C618.743 200.363 620.112 201.771 620.782 203.878C621.145 204.924 621.198 206.132 621.145 207.38C621.118 208.641 621.105 209.969 621.078 211.391C620.863 222.782 620.568 239.418 620.179 260.469V260.67H619.977C586.38 260.697 540.572 260.737 487.25 260.778H486.928V260.456C486.955 249.347 486.995 237.862 487.022 226.069C487.035 220.166 487.062 214.195 487.075 208.144C487.075 206.628 487.075 205.112 487.089 203.583C487.142 201.986 487.639 200.416 488.551 199.102C490.336 196.432 493.798 195.01 496.978 195.667C498.561 195.976 500.064 196.74 501.218 197.894C502.278 199.075 503.338 200.162 504.545 201.128C506.92 203.046 509.818 204.535 512.918 204.495C516.004 204.535 519.09 203.355 521.304 201.168C523.558 199.008 524.886 195.989 525.343 192.876C525.597 191.32 525.624 189.71 525.477 188.14C525.343 186.557 525.007 184.987 524.403 183.525C523.249 180.587 521.022 178.011 518.11 176.723C515.212 175.408 511.764 175.26 508.799 176.508C507.309 177.112 505.914 177.97 504.626 178.963C503.982 179.473 503.364 179.996 502.774 180.56C502.184 181.097 501.647 181.754 500.936 182.291C499.755 183.19 498.333 183.753 496.857 183.901C495.381 184.062 493.918 183.82 492.536 183.351C491.168 182.854 489.893 182.063 488.887 181.003C487.88 179.943 487.156 178.574 486.955 177.112C486.847 176.374 486.874 175.649 486.874 174.965V172.872C486.874 171.477 486.874 170.082 486.874 168.686C486.874 165.909 486.874 163.132 486.874 160.368C486.874 149.326 486.874 138.432 486.874 127.752V127.403H487.223C536.519 127.336 581.965 127.269 621.118 127.202H621.4V127.484C621.494 138.633 621.588 149.286 621.681 159.415C621.722 164.473 621.762 169.397 621.802 174.187C621.802 175.381 621.829 176.575 621.829 177.742C621.856 178.923 621.641 180.157 621.172 181.258C620.246 183.471 618.314 185.162 616.113 185.859C613.913 186.571 611.457 186.289 609.525 185.162C608.546 184.625 607.74 183.793 607.056 183.002C606.332 182.224 605.58 181.499 604.775 180.842C603.192 179.513 601.421 178.427 599.542 177.796C597.664 177.125 595.665 177.112 593.786 177.42C589.976 178.024 586.876 180.6 585.239 183.659C583.535 186.745 583.092 190.206 583.293 193.359C583.522 196.512 584.514 199.491 586.259 201.704C587.949 203.972 590.338 205.407 592.699 206.025C595.074 206.669 597.436 206.561 599.408 205.904C601.394 205.26 603.031 204.227 604.373 203.207C605.741 202.187 606.788 201.114 607.714 200.202C608.693 199.33 609.726 198.86 610.558 198.592C611.404 198.323 612.074 198.27 612.517 198.243C612.96 198.216 613.188 198.243 613.188 198.243C613.188 198.243 612.96 198.243 612.517 198.283C612.074 198.323 611.404 198.391 610.572 198.672C609.74 198.941 608.747 199.424 607.781 200.296C606.868 201.208 605.808 202.308 604.453 203.341C603.098 204.374 601.461 205.421 599.448 206.092C597.449 206.776 595.034 206.897 592.605 206.253C590.19 205.635 587.735 204.173 585.99 201.865C584.192 199.598 583.173 196.579 582.931 193.359C582.717 190.153 583.146 186.638 584.89 183.471C586.567 180.318 589.761 177.648 593.692 177.018C595.624 176.696 597.704 176.709 599.65 177.394C601.595 178.038 603.407 179.151 605.03 180.506C605.849 181.177 606.613 181.915 607.351 182.707C608.063 183.525 608.787 184.249 609.726 184.773C611.551 185.833 613.872 186.088 615.952 185.417C618.032 184.759 619.843 183.163 620.702 181.07C621.641 178.99 621.198 176.562 621.265 174.187C621.212 169.411 621.158 164.487 621.104 159.429C620.997 149.313 620.89 138.646 620.769 127.511L621.051 127.792C581.898 127.886 536.452 127.994 487.156 128.101L487.491 127.752C487.491 138.432 487.491 149.313 487.491 160.368C487.491 163.132 487.491 165.909 487.491 168.686C487.491 170.082 487.491 171.477 487.491 172.872V174.965C487.491 175.676 487.464 176.36 487.572 177.004C487.921 179.688 490.175 181.794 492.697 182.693C493.972 183.136 495.367 183.364 496.709 183.203C498.051 183.055 499.353 182.546 500.439 181.727C501.07 181.271 501.593 180.627 502.21 180.05C502.814 179.473 503.458 178.923 504.116 178.4C505.444 177.367 506.88 176.481 508.45 175.851C511.589 174.536 515.252 174.683 518.298 176.065C521.398 177.447 523.746 180.171 524.953 183.243C525.584 184.786 525.933 186.423 526.081 188.06C526.228 189.697 526.201 191.347 525.933 192.97C525.45 196.204 524.081 199.37 521.693 201.651C519.345 203.958 516.058 205.22 512.824 205.166C509.51 205.193 506.464 203.623 504.022 201.637C502.787 200.658 501.66 199.491 500.641 198.35C499.594 197.29 498.212 196.579 496.763 196.311C493.838 195.707 490.671 197.009 489.021 199.464C488.189 200.671 487.719 202.12 487.679 203.569C487.679 205.085 487.666 206.601 487.652 208.118C487.625 214.168 487.612 220.152 487.585 226.042C487.545 237.835 487.505 249.32 487.464 260.429L487.142 260.107C540.464 260.147 586.286 260.187 619.87 260.214L619.669 260.415C620.138 239.351 620.501 222.715 620.756 211.338C620.782 209.915 620.823 208.574 620.85 207.326C620.917 206.065 620.863 204.911 620.528 203.878C619.883 201.812 618.555 200.416 617.348 199.611C616.127 198.806 615.013 198.511 614.288 198.391C613.55 198.27 613.161 198.27 613.161 198.256L613.269 198.31Z" fill="#333333"/>
<path d="M95.0774 178.145C94.9969 182.546 91.3607 186.034 86.9597 185.953C84.7592 185.913 82.6661 184.987 81.2169 183.337C78.9091 180.734 74.7899 177.045 69.8522 176.951C62.2041 176.803 56.7431 182.814 56.5687 191.481C56.3943 200.148 61.6272 206.36 69.2752 206.521C74.2129 206.615 78.4663 203.1 80.8815 200.578C82.3977 198.994 84.5311 198.149 86.7182 198.189C91.1192 198.27 94.6078 201.906 94.5273 206.306L93.427 260.362H213.623L213.81 203.569C213.891 199.169 217.527 195.681 221.928 195.761C224.129 195.801 226.222 196.727 227.671 198.377C229.979 200.98 234.098 204.67 239.036 204.764C246.684 204.911 252.145 198.9 252.319 190.233C252.494 181.566 247.261 175.354 239.613 175.193C234.675 175.099 230.421 178.615 228.006 181.137C226.49 182.72 224.357 183.565 222.17 183.525C217.769 183.445 213.542 180.292 213.623 175.891V127.672H94.5809L95.064 178.145H95.0774Z" fill="#5C5C5C"/>
<path d="M95.0775 178.145C95.0775 178.145 95.0641 177.864 95.0507 177.3C95.0507 176.723 95.0238 175.891 94.997 174.791C94.9702 172.564 94.9165 169.264 94.8494 164.97C94.7421 156.357 94.5945 143.745 94.4066 127.686V127.498H94.5945C123.778 127.471 164.823 127.431 213.636 127.377H213.945V127.686C213.945 139.626 213.945 152.104 213.958 165.024C213.958 168.257 213.958 171.517 213.958 174.805C213.971 175.636 213.904 176.441 214.079 177.206C214.226 177.971 214.508 178.722 214.938 179.38C215.796 180.708 217.084 181.754 218.574 182.398C220.05 183.042 221.713 183.324 223.31 183.15C224.907 182.962 226.45 182.237 227.604 181.097C229.939 178.655 232.756 176.415 236.151 175.368C236.996 175.1 237.882 174.966 238.767 174.898C239.666 174.858 240.538 174.912 241.424 175.033C243.182 175.288 244.899 175.905 246.402 176.884C249.448 178.83 251.447 182.143 252.225 185.645C252.963 189.16 252.802 192.89 251.581 196.338C250.347 199.759 247.757 202.818 244.255 204.187C242.538 204.885 240.659 205.18 238.794 205.113C236.916 205.032 235.091 204.442 233.454 203.556C231.804 202.684 230.328 201.517 228.986 200.242C228.315 199.612 227.684 198.887 227.081 198.257C226.463 197.64 225.712 197.143 224.92 196.781C223.31 196.056 221.445 195.922 219.741 196.405C218.037 196.888 216.521 197.975 215.515 199.437C214.468 200.913 214.106 202.684 214.173 204.536C214.173 206.401 214.173 208.266 214.159 210.144C214.106 227.237 214.052 244.034 213.985 260.375V260.724H213.636C170.015 260.711 129.293 260.697 93.4405 260.684H93.1319V260.375C93.3869 248.14 93.6418 236.413 93.8699 225.278C93.9907 219.71 94.098 214.276 94.2188 209.003C94.2188 207.689 94.3529 206.347 94.1919 205.113C94.0309 203.865 93.5479 202.671 92.8099 201.665C91.3742 199.625 88.9322 198.431 86.5304 198.458C85.3228 198.458 84.1287 198.74 83.0821 199.276C82.5588 199.545 82.0623 199.867 81.6061 200.242C81.1634 200.618 80.7608 201.074 80.3181 201.49C78.5738 203.167 76.6416 204.63 74.4948 205.596C70.1877 207.689 65.0219 206.763 61.6138 204.066C59.9098 202.684 58.6217 200.913 57.7764 199.008C56.9176 197.103 56.5285 195.064 56.4078 193.078C56.2065 189.12 57.0921 185.229 59.1584 182.251C61.1845 179.245 64.4047 177.394 67.5847 176.978C70.7781 176.415 73.8641 177.381 76.1854 178.87C78.5738 180.319 80.3583 182.264 81.9416 183.928C83.6859 185.471 85.8998 186.007 87.7649 185.86C89.6433 185.685 91.2266 184.921 92.2866 183.955C93.3869 183.015 94.0309 181.942 94.42 181.043C95.1714 179.219 95.0104 178.145 95.0775 178.159C95.0775 178.159 95.0775 178.414 95.0507 178.91C94.9836 179.406 94.8896 180.158 94.514 181.084C94.1383 181.996 93.5076 183.096 92.394 184.062C91.3205 185.041 89.7104 185.846 87.7917 186.034C85.8864 186.195 83.6054 185.672 81.8074 184.089C80.1705 182.385 78.4396 180.507 76.0646 179.084C73.7568 177.622 70.7647 176.723 67.6384 177.273C64.5389 177.703 61.426 179.5 59.4536 182.439C57.4543 185.35 56.5956 189.16 56.8103 193.051C57.0116 196.915 58.5546 201.061 61.8956 203.731C65.1829 206.32 70.1743 207.206 74.3204 205.18C76.4001 204.227 78.292 202.805 80.0094 201.141C80.4388 200.739 80.8279 200.283 81.311 199.867C81.7806 199.464 82.3173 199.115 82.8808 198.834C84.0079 198.27 85.2692 197.962 86.5573 197.962C89.12 197.935 91.7231 199.196 93.2527 201.369C94.0309 202.429 94.5542 203.704 94.7286 205.032C94.8896 206.387 94.7555 207.675 94.7689 209.003C94.6615 214.276 94.5676 219.71 94.4469 225.278C94.2322 236.427 94.0041 248.14 93.7626 260.375L93.4674 260.067C129.333 260.053 170.042 260.04 213.663 260.027L213.314 260.375C213.368 244.034 213.421 227.237 213.475 210.144C213.475 208.279 213.475 206.401 213.488 204.536C213.395 202.684 213.81 200.618 214.951 199.048C216.051 197.452 217.715 196.258 219.567 195.734C221.432 195.211 223.458 195.359 225.215 196.15C226.088 196.539 226.906 197.089 227.59 197.76C228.261 198.458 228.825 199.115 229.496 199.746C230.797 200.994 232.233 202.107 233.803 202.953C235.373 203.798 237.09 204.348 238.848 204.428C240.606 204.495 242.39 204.214 244.014 203.556C247.301 202.268 249.77 199.384 250.951 196.11C252.131 192.823 252.292 189.187 251.581 185.806C250.83 182.439 248.938 179.313 246.067 177.474C244.644 176.549 243.021 175.958 241.357 175.717C240.525 175.596 239.68 175.542 238.848 175.583C238.016 175.65 237.184 175.784 236.392 176.025C233.159 177.005 230.435 179.165 228.114 181.58C226.852 182.814 225.162 183.606 223.431 183.807C221.687 184.008 219.929 183.7 218.346 183.002C216.762 182.318 215.367 181.191 214.428 179.728C213.958 178.991 213.649 178.172 213.475 177.327C213.287 176.468 213.368 175.61 213.341 174.805C213.341 171.517 213.341 168.257 213.341 165.024C213.341 152.104 213.341 139.64 213.354 127.686L213.663 127.994C164.863 127.94 123.805 127.9 94.6213 127.873L94.8091 127.686C94.9299 143.745 95.0104 156.357 95.0775 164.97C95.1043 169.264 95.1177 172.551 95.1177 174.791C95.1177 175.891 95.1177 176.723 95.1177 177.3C95.1177 177.864 95.1043 178.145 95.1043 178.145H95.0775Z" fill="#333333"/>
<path d="M87.3354 198.311C85.3362 198.271 83.3772 199.116 81.9952 200.699C79.7947 203.208 75.9035 206.736 71.3952 206.642C64.4046 206.495 59.6279 200.27 59.7889 191.603C59.9499 182.935 64.9413 176.925 71.9319 177.072C76.4403 177.166 80.2106 180.856 82.3172 183.459C83.6455 185.109 85.5643 186.035 87.5635 186.075C91.5888 186.155 94.903 182.667 94.9835 178.266L94.5407 127.552L21.8169 127.659L0.348633 127.793V260.47H45.271H93.4673L94.4736 206.414C94.5541 202.014 91.3607 198.378 87.3354 198.297V198.311Z" fill="#5C5C5C"/>
<path d="M87.3356 198.311C87.3356 198.311 87.4296 198.311 87.6308 198.311C87.8187 198.311 88.1139 198.324 88.4895 198.405C89.2275 198.539 90.368 198.874 91.5488 199.8C92.7161 200.712 93.9103 202.296 94.3799 204.469C94.6348 205.556 94.5678 206.75 94.5543 207.998C94.5409 209.259 94.5141 210.6 94.5007 212.023C94.3128 223.4 94.0445 239.916 93.709 260.483V260.711H93.4809C68.0679 260.738 36.2948 260.765 0.362277 260.805H0.0268353V260.483C0.0268353 228.391 0.0134177 192.85 0 155.512C0 146.147 0 136.89 0 127.807V127.458H0.348859C17.3088 127.31 33.7723 127.297 49.5246 127.283C65.2904 127.27 80.345 127.257 94.5275 127.243H94.8361V127.552C94.9166 138.164 94.9971 148.334 95.0776 158.034C95.1179 162.878 95.1581 167.6 95.185 172.202C95.185 174.51 95.2789 176.737 95.185 179.018C94.9703 181.312 93.8029 183.472 92.0318 184.841C90.2741 186.236 87.8589 186.692 85.7658 186.075C84.7192 185.78 83.7531 185.243 82.9615 184.532C82.1564 183.807 81.6063 182.949 80.8951 182.238C79.5266 180.775 78.0104 179.487 76.3197 178.575C74.6425 177.636 72.764 177.193 70.9258 177.341C67.1957 177.488 64.0291 179.863 62.3251 182.761C60.5674 185.686 59.9502 189.013 59.9636 192.085C59.9636 195.171 60.6076 198.123 61.9494 200.538C63.2375 202.98 65.277 204.778 67.4775 205.69C69.6914 206.589 72.0261 206.736 73.985 206.186C75.9574 205.65 77.5541 204.603 78.8691 203.584C80.184 202.55 81.2038 201.477 82.0625 200.525C82.9481 199.572 83.9275 199.022 84.7326 198.727C85.5511 198.432 86.222 198.338 86.6647 198.324C87.1075 198.297 87.3356 198.324 87.3356 198.324C87.3356 198.378 86.3964 198.217 84.7729 198.821C83.9812 199.129 83.0286 199.679 82.1698 200.632C81.3245 201.598 80.3048 202.685 78.9898 203.744C77.6749 204.778 76.0648 205.851 74.0521 206.428C72.0529 207.005 69.6511 206.871 67.3701 205.972C65.0891 205.046 62.9826 203.194 61.6542 200.712C60.2856 198.257 59.6147 195.252 59.5879 192.112C59.5745 188.986 60.1648 185.592 61.9762 182.573C62.8752 181.084 64.0962 179.702 65.6258 178.696C67.142 177.663 68.9937 177.032 70.899 176.925C72.8043 176.764 74.8169 177.233 76.5478 178.186C78.2921 179.125 79.862 180.44 81.2574 181.929C81.982 182.654 82.5589 183.539 83.2969 184.183C84.0483 184.841 84.9473 185.337 85.9134 185.605C87.8589 186.169 90.0863 185.753 91.7232 184.438C93.3736 183.163 94.4738 181.124 94.6617 178.977C94.7422 176.804 94.6483 174.496 94.6483 172.216C94.608 167.627 94.5543 162.904 94.5141 158.048C94.4202 148.361 94.3262 138.178 94.2189 127.579L94.5275 127.887C80.345 127.914 65.277 127.954 49.5246 127.981C33.7589 127.994 17.3088 128.035 0.348859 128.182L0.697719 127.833C0.697719 136.917 0.697719 146.174 0.697719 155.539C0.697719 192.89 0.670884 228.418 0.670884 260.51L0.348859 260.188C36.2814 260.228 68.0679 260.255 93.4675 260.282L93.2394 260.51C93.6688 239.942 94.0042 223.44 94.2457 212.049C94.2726 210.627 94.3128 209.286 94.3397 208.024C94.3665 206.763 94.4336 205.596 94.1921 204.536C93.7493 202.416 92.6088 200.847 91.4683 199.934C90.3144 198.995 89.2007 198.646 88.4761 198.499C87.7382 198.338 87.3356 198.364 87.3356 198.338V198.311Z" fill="#333333"/>
<path opacity="0.3" d="M94.5681 260.483C94.5681 260.483 102.136 178.374 105.718 167.895C109.301 157.431 141.369 147.905 141.369 147.905L149.889 140.244L153.083 132.704V127.659H177.825L180.965 260.47H94.5547L94.5681 260.483Z" fill="black"/>
<path d="M250.521 78.5276L255.338 68.7067C253.165 62.8034 252.561 56.2427 253.902 49.6283C257.767 30.6036 276.323 18.314 295.35 22.178C314.376 26.042 326.667 44.5971 322.802 63.6218C318.938 82.6465 300.381 94.9361 281.355 91.0721C273.412 89.4621 266.649 85.2762 261.738 79.5741L250.508 78.5276H250.521Z" fill="white"/>
<path d="M250.521 78.5274C250.521 78.5274 250.79 78.5274 251.286 78.5811C251.81 78.6213 252.521 78.675 253.46 78.7555C255.379 78.9165 258.17 79.158 261.779 79.4532L261.631 79.6678C261.631 79.6678 261.631 79.6678 261.631 79.6544L261.135 78.6482L261.873 79.4934C264.825 82.861 269.414 86.8189 275.948 89.2741C279.195 90.5218 282.912 91.2866 286.897 91.461C290.882 91.622 295.149 91.1122 299.375 89.69C303.588 88.2813 307.748 85.9602 311.384 82.7536C315.02 79.5471 318.12 75.4416 320.226 70.7056C324.466 61.2603 324.305 49.0512 318.455 39.19L317.355 37.3519L316.094 35.6346L315.463 34.776L314.765 33.9844L313.356 32.4012C311.357 30.429 309.237 28.6043 306.876 27.1822C302.206 24.2574 296.987 22.5266 291.794 21.99C286.588 21.4935 281.463 22.1912 276.874 23.8146C272.272 25.4246 268.206 27.9335 264.905 30.9388C258.263 36.9897 254.802 44.7981 253.836 51.654C252.802 58.5635 254.01 64.4937 255.526 68.6796L255.553 68.7467L255.526 68.8004C253.943 71.9399 252.722 74.3549 251.877 76.0185C251.461 76.8235 251.152 77.4541 250.911 77.8968C250.696 78.3262 250.562 78.5542 250.562 78.5542C250.562 78.5542 250.642 78.353 250.843 77.9371C251.058 77.4809 251.353 76.8638 251.729 76.0588C252.548 74.3549 253.728 71.8728 255.258 68.6662V68.787C253.675 64.5742 252.4 58.6038 253.393 51.5869C254.332 44.6371 257.794 36.6811 264.53 30.5095C267.871 27.4371 272.003 24.8745 276.673 23.2243C281.342 21.5606 286.561 20.8361 291.861 21.3325C297.148 21.8692 302.488 23.6268 307.251 26.6053C309.667 28.0543 311.827 29.9192 313.866 31.9182L315.302 33.5282L316.013 34.3332L316.657 35.2053L317.945 36.9629L319.072 38.8412C325.043 48.9036 325.191 61.3676 320.857 70.9739C318.71 75.8039 315.53 79.9898 311.827 83.2366C308.124 86.4969 303.884 88.8448 299.59 90.2535C295.296 91.6757 290.949 92.1855 286.91 91.9842C282.871 91.7964 279.101 90.9914 275.827 89.7034C269.226 87.1677 264.623 83.1293 261.685 79.6812L261.927 79.5202V79.5337L262.047 79.7752L261.779 79.7483C258.129 79.3592 255.312 79.0641 253.379 78.8628C252.467 78.7555 251.769 78.6884 251.259 78.6213C250.79 78.5677 250.562 78.5274 250.562 78.5274H250.521Z" fill="#333333"/>
<path d="M271.601 57.2758L276.149 52.7276L284.924 60.536L302.153 43.9531L306.379 48.5013L284.28 69.3105L271.601 57.2758Z" fill="#1D1D1D"/>
<path d="M212.267 541.037L211.14 570.621C211.14 570.621 240.833 581.703 241.155 587.19L183.714 587.07L183.58 540.903L212.267 541.037Z" fill="#333333"/>
<path d="M193.389 568.086C192.275 568.381 191.51 569.642 191.765 570.755C192.02 571.882 193.281 572.674 194.395 572.392C195.509 572.111 196.488 570.635 196.099 569.548C195.723 568.461 194.18 567.603 193.174 568.153" fill="#E0E0E0"/>
<path d="M183.728 587.056L183.902 582.4L238.914 584.252C238.914 584.252 241.464 585.365 241.182 587.177L183.741 587.056H183.728Z" fill="#5C5C5C"/>
<path d="M212.079 570.326C212.079 570.608 210.671 570.729 209.289 571.628C207.88 572.486 207.169 573.707 206.914 573.587C206.659 573.533 207.075 571.856 208.765 570.796C210.443 569.723 212.147 570.058 212.079 570.313V570.326Z" fill="white"/>
<path d="M218.091 572.821C218.158 573.09 216.937 573.573 215.984 574.753C214.991 575.907 214.75 577.195 214.468 577.182C214.2 577.222 214.012 575.585 215.233 574.136C216.44 572.674 218.091 572.566 218.091 572.835V572.821Z" fill="white"/>
<path d="M221.499 580.04C221.244 580.093 220.855 578.698 221.579 577.169C222.29 575.626 223.619 575.022 223.739 575.263C223.9 575.491 223.042 576.31 222.465 577.584C221.861 578.832 221.78 580.026 221.499 580.053V580.04Z" fill="white"/>
<path d="M211.583 563.55C211.462 563.805 210.174 563.416 208.591 563.524C207.008 563.591 205.773 564.127 205.626 563.886C205.465 563.685 206.672 562.651 208.537 562.544C210.402 562.437 211.717 563.322 211.583 563.55Z" fill="white"/>
<path d="M141.959 537.012L138.846 572.687L144.522 601.613C144.924 603.693 143.489 605.692 141.382 605.96C140.201 606.108 139.034 605.692 138.229 604.806C133.103 599.225 114.386 578.604 114.761 576.001C115.191 572.996 115.54 538.153 115.54 538.153L141.959 536.999V537.012Z" fill="#333333"/>
<path d="M141.382 605.96L114.909 573.6L114.815 575.116C114.735 576.431 115.111 577.719 115.889 578.778C117.982 581.596 123.953 589.23 138.122 604.82C138.94 605.732 140.175 606.162 141.382 605.974V605.96Z" fill="#5C5C5C"/>
<g opacity="0.6">
<path d="M122.987 562.544C123.846 563.215 124.047 564.597 123.403 565.482C122.759 566.368 121.363 566.582 120.505 565.925C119.633 565.267 119.337 563.617 120.075 562.812C120.813 562.007 122.464 561.833 123.148 562.691" fill="white"/>
</g>
<path d="M134.217 589.82C134.418 589.927 135.344 588.116 137.531 587.244C139.691 586.305 141.637 586.936 141.69 586.721C141.731 586.64 141.288 586.332 140.469 586.157C139.651 585.983 138.43 586.023 137.236 586.52C136.042 587.016 135.143 587.848 134.686 588.559C134.217 589.27 134.136 589.793 134.217 589.82Z" fill="white"/>
<path d="M136.458 594.77C136.619 594.931 137.84 593.845 139.718 593.442C141.597 592.986 143.167 593.442 143.234 593.214C143.354 593.04 141.677 592.168 139.544 592.678C137.397 593.161 136.27 594.663 136.458 594.784V594.77Z" fill="white"/>
<path d="M129.869 583.38C130.03 583.555 131.895 581.878 134.767 580.979C137.625 580.04 140.12 580.321 140.147 580.08C140.214 579.892 137.598 579.221 134.525 580.227C131.453 581.193 129.695 583.26 129.869 583.38Z" fill="white"/>
<path d="M129.91 572.459C129.991 572.673 132.017 571.976 134.593 572.056C137.169 572.096 139.168 572.875 139.262 572.66C139.37 572.486 137.384 571.318 134.62 571.265C131.856 571.198 129.816 572.284 129.924 572.459H129.91Z" fill="white"/>
<path d="M130.554 561.968C130.648 562.182 132.714 561.122 135.424 561.418C138.135 561.659 139.946 563.108 140.094 562.907C140.161 562.84 139.798 562.357 139.007 561.833C138.215 561.31 136.967 560.774 135.518 560.626C134.056 560.478 132.727 560.76 131.855 561.122C130.97 561.485 130.527 561.874 130.581 561.968H130.554Z" fill="white"/>
<path d="M135.492 559.405C135.492 559.405 135.653 558.935 135.626 558.049C135.6 557.177 135.439 555.889 134.781 554.44C134.432 553.756 134.083 552.871 133.117 552.334C132.634 552.066 131.896 552.106 131.44 552.549C130.984 552.978 130.823 553.555 130.769 554.132C130.662 556.399 132.473 558.72 134.996 559.217C137.545 559.659 139.96 558.345 141.101 556.453C141.356 555.956 141.544 555.353 141.315 554.722C141.087 554.092 140.376 553.81 139.853 553.863C138.78 553.957 138.068 554.521 137.424 554.937C136.123 555.849 135.304 556.842 134.808 557.553C134.311 558.278 134.137 558.734 134.177 558.747C134.298 558.854 135.197 557.043 137.733 555.393C138.364 555.017 139.115 554.534 139.88 554.507C140.255 554.507 140.564 554.668 140.685 554.977C140.806 555.272 140.698 555.715 140.484 556.104C139.518 557.647 137.317 558.854 135.17 558.439C133.037 558.049 131.453 556.01 131.521 554.172C131.547 553.729 131.695 553.3 131.937 553.045C132.178 552.804 132.54 552.75 132.862 552.911C133.547 553.233 133.963 554.011 134.298 554.668C135.64 557.392 135.345 559.418 135.506 559.391L135.492 559.405Z" fill="white"/>
<path d="M239.935 291.664C239.935 291.664 244.295 308.528 242.712 329.069C242.095 337.012 215.273 556.896 215.273 556.896H179.059L189.243 350.24L186.277 350.884C186.277 350.884 166.513 439.031 164.89 453.293C163.44 466.119 146.762 559.311 146.762 559.311L113.647 559.687L124.221 436.428L136.525 318.161L141.154 283.734L239.921 291.677L239.935 291.664Z" fill="#333333"/>
<path d="M187.927 336.22C187.927 336.22 187.995 336.327 188.156 336.462C188.33 336.596 188.625 336.77 189.041 336.878C189.86 337.106 191.228 336.998 192.476 336.059C193.778 335.147 194.556 333.322 194.824 331.377C195.079 329.405 195.119 327.298 195.267 325.058C195.508 320.59 195.696 316.538 195.79 313.6C195.884 310.662 195.898 308.85 195.79 308.837C195.696 308.837 195.508 310.635 195.28 313.56C195.052 316.484 194.797 320.536 194.556 325.004C194.408 327.231 194.381 329.391 194.167 331.269C193.952 333.148 193.268 334.798 192.167 335.643C191.081 336.529 189.86 336.717 189.095 336.582C188.317 336.462 187.954 336.126 187.914 336.193L187.927 336.22Z" fill="#5C5C5C"/>
<path d="M134.646 314.955C134.646 314.955 134.995 315.143 135.666 315.317C136.337 315.492 137.316 315.693 138.564 315.8C141.033 316.028 144.562 315.8 148.104 314.378C151.66 312.956 154.37 310.675 155.98 308.797C156.799 307.858 157.376 307.039 157.738 306.449C158.1 305.859 158.261 305.51 158.221 305.483C158.114 305.416 157.309 306.717 155.618 308.461C153.941 310.206 151.271 312.339 147.836 313.721C144.401 315.103 140.993 315.411 138.578 315.304C136.149 315.21 134.66 314.834 134.633 314.955H134.646Z" fill="#5C5C5C"/>
<path d="M225.511 305.764C225.43 305.764 225.511 307.186 226.061 309.4C226.611 311.6 227.779 314.592 229.697 317.504C231.643 320.415 233.937 322.629 235.762 323.997C237.587 325.379 238.862 325.983 238.902 325.916C239.063 325.728 234.071 322.884 230.288 317.115C226.437 311.399 225.739 305.697 225.511 305.764Z" fill="#5C5C5C"/>
<path d="M222.035 71.4437C225.309 71.6449 228.529 69.0958 229.052 65.8624C229.589 62.629 227.362 59.1675 224.195 58.3089C226.114 56.1354 226.449 52.7007 224.987 50.2052C223.524 47.6963 220.385 46.301 217.54 46.9048C217.272 44.047 215.434 41.404 212.844 40.1562C210.254 38.9219 207.034 39.1366 204.646 40.7197C201.345 38.1706 196.246 38.3316 193.12 41.0685C190.316 40.6929 187.364 42.3297 186.183 44.9057C185.002 47.4817 185.7 50.7822 187.82 52.6605" fill="#333333"/>
<path d="M192.02 47.7367L193.482 47.6696C208.255 46.9317 221.123 57.665 223.041 72.3427C224.826 85.9874 226.624 101.081 226.906 108.433C227.469 123.661 212.374 126.787 212.374 126.787L214.575 145.007L177.582 145.691L171.021 79.5474C168.874 63.8098 176.241 49.4541 192.033 47.7367H192.02Z" fill="#C17560"/>
<path d="M212.509 126.747C212.509 126.747 202.822 127.82 192.275 121.903C192.275 121.903 197.508 132.623 212.63 130.503L212.509 126.76V126.747Z" fill="#7C4236"/>
<path d="M219.365 86.376C219.459 87.5164 218.574 88.5495 217.38 88.6702C216.185 88.791 215.139 87.9726 215.045 86.8187C214.951 85.6783 215.837 84.6453 217.031 84.5245C218.225 84.4038 219.271 85.2222 219.365 86.376Z" fill="#333333"/>
<path d="M220.157 79.9367C219.902 80.2318 218.198 79.0914 215.85 79.2256C213.515 79.3195 211.852 80.6075 211.583 80.3258C211.449 80.205 211.704 79.6818 212.415 79.1048C213.126 78.5279 214.347 77.9376 215.81 77.8705C217.272 77.8034 218.52 78.2864 219.245 78.7963C219.996 79.3061 220.264 79.8159 220.13 79.9501L220.157 79.9367Z" fill="#333333"/>
<path d="M197.723 86.9668C197.817 88.1072 196.931 89.1403 195.737 89.261C194.543 89.3818 193.496 88.5634 193.402 87.4096C193.308 86.2692 194.194 85.2361 195.388 85.1153C196.582 84.9946 197.629 85.813 197.723 86.9668Z" fill="#333333"/>
<path d="M197.186 81.5197C196.931 81.8148 195.227 80.6744 192.879 80.8086C190.545 80.9025 188.881 82.1905 188.612 81.9088C188.478 81.788 188.733 81.2648 189.458 80.6878C190.169 80.1109 191.39 79.5206 192.852 79.4535C194.315 79.3864 195.563 79.8694 196.287 80.3793C197.025 80.8891 197.307 81.3989 197.173 81.5331L197.186 81.5197Z" fill="#333333"/>
<path d="M206.538 98.4379C206.524 98.3038 207.96 97.9818 210.308 97.5658C210.899 97.4719 211.462 97.3243 211.543 96.9218C211.663 96.4791 211.382 95.8485 211.06 95.1777C210.429 93.7555 209.758 92.2797 209.074 90.7234C206.296 84.3774 204.257 79.1315 204.512 79.0241C204.767 78.9168 207.222 83.9749 210 90.3209C210.67 91.8906 211.315 93.3799 211.918 94.8154C212.173 95.4863 212.603 96.2376 212.348 97.1499C212.214 97.6061 211.784 97.9549 211.408 98.0757C211.033 98.2098 210.697 98.2367 210.402 98.2635C208.041 98.505 206.565 98.5989 206.551 98.4648L206.538 98.4379Z" fill="#333333"/>
<path d="M198.769 72.4234C198.487 73.0271 196.448 72.4905 193.979 72.5307C191.51 72.5307 189.457 73.0808 189.189 72.4771C189.082 72.1819 189.484 71.6318 190.356 71.1086C191.215 70.5853 192.543 70.156 194.019 70.1426C195.495 70.1426 196.81 70.5585 197.642 71.0549C198.487 71.5647 198.876 72.1148 198.756 72.3966L198.769 72.4234Z" fill="#333333"/>
<path d="M219.794 70.2902C219.325 70.8403 217.366 70.3841 215.045 70.478C212.723 70.5048 210.778 71.0415 210.295 70.5183C210.08 70.2634 210.362 69.7133 211.194 69.1632C212.012 68.6265 213.408 68.1435 215.004 68.1033C216.601 68.063 218.01 68.4789 218.842 68.9888C219.687 69.4986 219.982 70.0219 219.781 70.3036L219.794 70.2902Z" fill="#333333"/>
<path d="M221.244 65.433C221.244 65.433 216.762 56.1085 212.053 54.1094C206.35 51.6944 204.27 57.9197 198.89 56.6988C193.509 55.4779 188.075 53.1568 182.856 57.5306C177.153 62.3069 180.078 65.3257 180.052 72.0876C179.931 99.5379 175.315 107.521 173.249 94.708C173.021 93.2992 169.049 92.3735 168.163 86.4299C167.023 78.7288 166.258 69.3506 167.721 63.7693C168.942 59.0735 171.424 55.7328 175.986 51.9762C183.178 46.0326 193.442 45.4155 200.446 45.7643C207.45 46.1131 221.284 53.4654 221.244 65.433Z" fill="#333333"/>
<path d="M174.201 94.2384C173.987 91.8905 171.867 90.1464 169.545 90.4818C166.714 90.8977 163.642 92.6553 164.125 98.5183C164.97 108.903 175.235 105.911 175.221 105.616C175.221 105.414 174.604 98.5854 174.201 94.2519V94.2384Z" fill="#C17560"/>
<path d="M172.631 101.872C172.631 101.872 172.457 102.02 172.161 102.181C171.88 102.342 171.37 102.476 170.806 102.315C169.679 102.006 168.606 100.329 168.405 98.4644C168.297 97.5252 168.431 96.5995 168.7 95.8347C168.955 95.0432 169.397 94.4797 169.948 94.3321C170.484 94.1577 170.9 94.4528 171.061 94.7346C171.222 95.0163 171.182 95.231 171.236 95.2444C171.262 95.2712 171.45 95.0566 171.33 94.6272C171.276 94.426 171.128 94.1845 170.873 94.0101C170.605 93.8222 170.229 93.7552 169.854 93.8222C169.062 93.943 168.391 94.7346 168.096 95.5932C167.747 96.4519 167.586 97.485 167.707 98.5449C167.948 100.638 169.183 102.503 170.712 102.811C171.464 102.946 172.054 102.677 172.349 102.395C172.644 102.114 172.685 101.872 172.644 101.859L172.631 101.872Z" fill="#7C4236"/>
<path d="M173.396 74.0598C174.791 74.9185 176.267 75.7905 177.904 75.871C179.541 75.9515 181.353 74.9185 181.554 73.2951C181.648 72.5706 181.42 71.7387 181.876 71.1484C182.413 70.4507 183.473 70.6117 184.345 70.6654C187.391 70.8398 190.758 67.3247 191.376 64.3328C192.208 65.4464 193.912 65.7147 195.039 64.9097C196.166 64.1047 196.568 63.6485 197.44 62.5618C198.299 61.4751 199.534 60.4688 200.929 60.603C201.707 60.6701 202.445 61.0994 203.21 60.9921C204.565 60.8042 205.156 59.1674 205.303 57.7989C205.437 56.4304 205.531 54.8473 206.645 54.0423C207.678 53.3044 209.087 53.6264 210.362 53.7605C211.623 53.8813 213.233 53.5056 213.501 52.2579C213.636 51.6005 213.327 50.943 212.938 50.393C211.194 47.9243 207.598 46.9717 204.86 48.2329C203.666 44.8519 200.325 42.3296 196.743 42.1283C193.16 41.9271 189.551 44.0603 187.994 47.2937C185.7 45.402 182.453 44.7312 179.595 45.5362C176.737 46.3412 174.322 48.6086 173.342 51.4126C170.78 50.876 167.948 51.9895 166.446 54.1362C164.943 56.2828 164.862 59.3284 166.258 61.5556C164.446 62.7228 162.93 64.6548 162.997 66.8148C163.064 68.9749 165.265 71.0142 167.318 70.3434C166.566 72.0607 167.358 74.3013 169.022 75.16C170.699 76.0186 172.98 75.3478 173.933 73.7378" fill="#333333"/>
<path d="M205.772 51.2653C205.772 51.2653 205.772 51.3324 205.772 51.4532C205.772 51.5739 205.772 51.7618 205.732 52.0167C205.665 52.4997 205.504 53.2242 205.075 54.056C204.645 54.8744 203.961 55.8404 202.888 56.632C201.841 57.4235 200.378 58.0675 198.688 58.0541L198.849 57.8126C199.211 58.6847 199.184 59.758 198.782 60.6972C198.406 61.6498 197.789 62.5084 197.131 63.3403C196.796 63.7428 196.501 64.2123 196.031 64.588C195.562 64.9502 194.998 65.1783 194.408 65.2857C193.24 65.5003 191.899 65.1917 191 64.2526L191.389 64.1184C191.228 66.198 190.154 68.3312 188.343 69.6863C187.39 70.451 186.183 70.9475 184.988 70.9743C183.781 71.028 182.64 70.7194 181.58 70.3974L181.849 70.2632C181.352 71.578 180.547 72.7319 179.541 73.5905C178.561 74.4492 177.22 74.9993 175.972 74.7578C173.489 74.3553 171.759 72.3965 171.343 70.4913L171.584 70.5852C170.403 71.3097 169.088 71.4439 168.028 71.2829C166.955 71.1353 166.096 70.7194 165.479 70.29C164.862 69.8607 164.486 69.3911 164.258 69.0826C164.043 68.7471 163.963 68.5593 163.963 68.5593C164.017 68.5191 164.352 69.3375 165.573 70.1559C166.19 70.545 167.022 70.934 168.055 71.0414C169.075 71.1621 170.309 71.0145 171.396 70.3169L171.584 70.1961L171.638 70.4108C172.054 72.1818 173.718 74.0199 176.025 74.3553C177.152 74.5565 178.333 74.0735 179.272 73.2551C180.212 72.4367 180.977 71.3365 181.433 70.0888L181.5 69.8875L181.701 69.9412C182.748 70.2498 183.848 70.5315 184.962 70.4913C186.075 70.4645 187.149 70.0217 188.061 69.2972C189.765 68.0092 190.771 66.0236 190.932 64.0513L190.973 63.5549L191.322 63.9172C192.086 64.7222 193.281 65.0173 194.327 64.8295C194.85 64.7356 195.36 64.5343 195.763 64.2258C196.152 63.9306 196.46 63.461 196.809 63.0585C197.467 62.2401 198.071 61.4083 198.433 60.5228C198.809 59.6507 198.849 58.6981 198.527 57.9065L198.433 57.665H198.701C200.298 57.6919 201.707 57.115 202.727 56.3636C203.773 55.6257 204.457 54.7134 204.9 53.9218C205.772 52.2984 205.678 51.1983 205.759 51.2251L205.772 51.2653Z" fill="#5C5C5C"/>
<path d="M206.43 106.474C206.349 106.085 203.813 106.756 201.452 105.052C199.077 103.362 198.648 100.584 198.299 100.665C198.124 100.665 197.963 101.389 198.232 102.543C198.487 103.67 199.278 105.213 200.727 106.246C202.176 107.279 203.8 107.454 204.86 107.266C205.947 107.078 206.497 106.635 206.43 106.461V106.474Z" fill="#333333"/>
<path d="M314.952 196.594L275.947 226.969C275.947 226.969 270.768 204.201 256.948 170.176C254.854 165.038 252.641 160.986 250.561 157.82C250.4 157.484 250.239 157.176 250.091 156.894C244.925 147.234 234.057 142.968 227.308 142.552C226.288 142.485 223.739 142.565 220.17 142.753L217.661 141.934L214.776 133.348L207.879 140.969L174.952 125.405L171.786 137.574L148.345 147.905C148.345 147.905 126.769 152.735 124.032 171.29C120.866 192.649 118.102 241.526 118.102 241.526L144.83 227.827L138.376 276.691L139.959 294.696L201.278 304.718C204.578 305.201 207.933 305.201 211.247 304.718L241.45 300.264L245.1 291.663L241.692 237.152V233.623C245.435 243.27 254.143 263.261 263.012 266.588C271.627 269.821 317.461 226.996 317.461 226.996L314.979 196.62L314.952 196.594Z" fill="#E0E0E0"/>
<path d="M174.939 125.405C174.939 125.405 178.615 126.465 188.075 131.51C197.333 136.447 207.866 140.969 207.866 140.969L207.061 155.834L172.027 138.245" fill="#E0E0E0"/>
<path d="M214.749 133.348L207.853 140.968L211.542 156.907L217.688 142.498" fill="#E0E0E0"/>
<g opacity="0.3">
<path d="M207.986 142.618C208.295 142.846 210.2 161.012 210.2 161.012L175.086 139.801L207.06 155.847L207.986 142.632V142.618Z" fill="black"/>
</g>
<path d="M207.745 210.4C207.222 196.514 209.409 161.067 209.409 161.067L213.984 160.329C213.984 160.329 222.531 194.783 225.725 236.991C227.013 254.071 227.013 273.86 227.013 273.86L217.822 293.596L207.664 273.994C207.664 273.994 208.389 227.278 207.745 210.4Z" fill="#5C5C5C"/>
<path d="M141.461 152.145C141.408 152.212 142.414 152.99 143.836 154.466C145.259 155.928 147.043 158.128 148.519 160.865C149.982 163.616 150.84 166.312 151.27 168.312C151.712 170.311 151.806 171.572 151.887 171.572C151.927 171.572 151.927 171.25 151.887 170.673C151.874 170.096 151.78 169.264 151.592 168.244C151.243 166.205 150.424 163.428 148.922 160.637C147.419 157.847 145.554 155.633 144.051 154.224C143.3 153.513 142.656 152.976 142.186 152.641C141.716 152.306 141.448 152.131 141.435 152.158L141.461 152.145Z" fill="#333333"/>
<path d="M207.745 148.079L210.885 146.858L213.85 151.957L214.387 160.329L210.2 160.999L207.061 155.834L207.745 148.079Z" fill="#5C5C5C"/>
<path d="M241.665 172.994C241.531 172.994 241.424 191.12 241.424 213.485C241.424 235.851 241.531 253.977 241.665 253.977C241.8 253.977 241.907 235.851 241.907 213.485C241.907 191.12 241.8 172.994 241.665 172.994Z" fill="#333333"/>
<path d="M207.53 140.834C207.53 140.834 208.201 142.001 209.315 143.866C210.428 145.731 211.904 148.334 213.3 151.326C213.42 151.567 213.528 151.822 213.635 152.05L213.85 152.52L214.078 152.05C215.433 149.206 216.399 146.563 217.003 144.631C217.311 143.665 217.526 142.873 217.66 142.337C217.795 141.787 217.848 141.478 217.821 141.478C217.754 141.465 217.379 142.632 216.694 144.537C216.01 146.429 214.99 149.045 213.635 151.862H214.078C213.971 151.634 213.863 151.393 213.742 151.138C212.334 148.119 210.804 145.516 209.61 143.692C209.019 142.779 208.509 142.055 208.134 141.572C207.772 141.089 207.543 140.821 207.517 140.847L207.53 140.834Z" fill="#333333"/>
<path d="M171.772 137.574C171.772 137.574 171.933 137.695 172.255 137.869C172.631 138.057 173.101 138.312 173.678 138.607C174.966 139.278 176.75 140.19 178.91 141.317C183.325 143.611 189.376 146.885 196.072 150.467C200.151 152.641 204.015 154.653 207.383 156.344L207.691 156.505V156.156C207.732 151.796 207.772 148.119 207.799 145.463C207.799 144.215 207.799 143.209 207.799 142.444C207.799 141.746 207.772 141.371 207.745 141.371C207.718 141.371 207.691 141.746 207.664 142.444C207.638 143.195 207.597 144.202 207.544 145.449C207.477 148.106 207.383 151.782 207.262 156.142L207.571 155.955C204.23 154.237 200.379 152.211 196.3 150.038C189.604 146.456 183.526 143.236 179.058 141.009C176.831 139.895 175.019 139.023 173.745 138.433C173.154 138.164 172.671 137.95 172.282 137.775C171.947 137.628 171.759 137.561 171.759 137.574H171.772Z" fill="#333333"/>
<path d="M237.424 149.019C237.357 149.059 237.908 149.998 238.619 151.581C239.33 153.165 240.148 155.432 240.631 158.048C241.101 160.651 241.155 163.066 241.047 164.797C240.953 166.527 240.765 167.601 240.846 167.614C240.873 167.614 240.953 167.359 241.061 166.876C241.181 166.393 241.289 165.696 241.383 164.824C241.571 163.079 241.584 160.611 241.101 157.954C240.604 155.298 239.719 153.004 238.927 151.434C238.525 150.642 238.176 150.025 237.894 149.623C237.626 149.207 237.451 148.992 237.424 149.019Z" fill="#333333"/>
<path d="M210.966 161.549C211.033 161.657 211.838 161.295 212.75 160.718C213.663 160.141 214.347 159.591 214.266 159.47C214.186 159.349 213.394 159.725 212.482 160.302C211.569 160.879 210.898 161.429 210.966 161.549Z" fill="#333333"/>
<path d="M209.463 159.497C209.583 159.551 210.536 157.659 211.596 155.257C212.643 152.856 213.407 150.87 213.273 150.817C213.152 150.763 212.2 152.655 211.14 155.056C210.093 157.458 209.328 159.443 209.463 159.497Z" fill="#333333"/>
<path d="M137.785 153.124C137.785 153.124 126.917 160.946 125.562 165.266C124.207 169.586 118.424 239.809 117.417 248.167C116.411 256.526 115.378 272.142 121.832 277.241C128.286 282.339 142.213 286.149 142.213 286.149L155.081 259.585L148.265 245.323L155.081 191.992L137.799 153.137L137.785 153.124Z" fill="#E0E0E0"/>
<path d="M139.1 285.196C139.1 285.196 139.342 285.156 139.798 285.143C140.254 285.129 140.925 285.143 141.797 285.009C143.501 284.794 146.118 284.351 148.748 282.5C151.391 280.715 153.833 277.522 155.376 273.43C156.932 269.338 157.845 264.414 157.885 259.141L157.952 259.329C154.866 255.049 151.485 250.38 147.969 245.51L147.889 245.403V245.269C147.956 244.92 147.996 244.531 148.05 244.142C149.969 229.182 151.713 215.645 152.974 205.77C153.605 200.913 154.115 196.956 154.477 194.152C154.651 192.823 154.786 191.777 154.893 190.999C154.973 190.274 155.027 189.898 155.054 189.898C155.054 189.898 155.067 189.992 155.054 190.18C155.054 190.368 155.054 190.65 155.014 191.012C154.947 191.804 154.853 192.864 154.732 194.192C154.464 196.942 154.007 200.927 153.444 205.851C152.29 215.685 150.626 229.263 148.721 244.249C148.667 244.638 148.627 245.014 148.573 245.376L148.506 245.135C152.008 250.005 155.376 254.687 158.449 258.967L158.516 259.047V259.141C158.449 264.521 157.496 269.486 155.859 273.645C154.235 277.804 151.7 281.064 148.949 282.849C147.594 283.774 146.212 284.338 144.991 284.687C144.682 284.767 144.387 284.848 144.105 284.928C143.81 284.982 143.542 285.022 143.273 285.076C142.737 285.183 142.253 285.237 141.811 285.25C140.925 285.344 140.254 285.29 139.785 285.277C139.328 285.263 139.087 285.237 139.087 285.223L139.1 285.196Z" fill="#333333"/>
<path d="M125.978 250.233C125.978 250.233 126.944 249.28 128.835 248.207C130.714 247.12 133.505 245.94 136.779 245.296C140.053 244.665 143.085 244.719 145.232 245.027C147.379 245.323 148.653 245.765 148.64 245.846C148.627 246.087 143.34 244.679 136.913 245.98C130.472 247.187 126.098 250.461 125.991 250.246L125.978 250.233Z" fill="#333333"/>
<path d="M189.135 213.163C188.733 217.778 184.654 221.2 180.038 220.797C177.73 220.596 175.597 219.469 174.188 217.644C171.947 214.746 167.868 210.574 162.689 210.118C154.665 209.42 148.48 215.35 147.688 224.46C146.896 233.57 151.941 240.479 159.978 241.177C165.158 241.633 169.894 238.225 172.605 235.757C174.309 234.2 176.616 233.462 178.924 233.664C183.54 234.066 186.961 238.131 186.559 242.76L181.568 299.526L307.975 308.059L312.202 248.341C312.604 243.726 316.683 240.305 321.299 240.707C323.607 240.909 325.74 242.036 327.149 243.86C329.39 246.758 333.469 250.931 338.648 251.387C346.672 252.085 352.844 246.154 353.649 237.045C354.441 227.948 349.396 221.025 341.359 220.328C336.179 219.871 331.443 223.279 328.733 225.748C327.028 227.304 324.721 228.042 322.426 227.841C317.811 227.438 313.584 223.829 313.986 219.214L317.408 168.499L192.221 160.047L189.148 213.163H189.135Z" fill="#1D1D1D"/>
<g opacity="0.4">
<path d="M189.135 213.163C188.733 217.778 184.654 221.2 180.038 220.797C177.73 220.596 175.597 219.469 174.188 217.644C171.947 214.746 167.868 210.574 162.689 210.118C154.665 209.42 148.48 215.35 147.688 224.46C146.896 233.57 151.941 240.479 159.978 241.177C165.158 241.633 169.894 238.225 172.605 235.757C174.309 234.2 176.616 233.462 178.924 233.664C183.54 234.066 186.961 238.131 186.559 242.76L181.568 299.526L307.975 308.059L312.202 248.341C312.604 243.726 316.683 240.305 321.299 240.707C323.607 240.909 325.74 242.036 327.149 243.86C329.39 246.758 333.469 250.931 338.648 251.387C346.672 252.085 352.844 246.154 353.649 237.045C354.441 227.948 349.396 221.025 341.359 220.328C336.179 219.871 331.443 223.279 328.733 225.748C327.028 227.304 324.721 228.042 322.426 227.841C317.811 227.438 313.584 223.829 313.986 219.214L317.408 168.499L192.221 160.047L189.148 213.163H189.135Z" fill="black"/>
</g>
<path d="M180.628 212.559C180.226 217.174 176.16 220.595 171.531 220.193C169.223 219.991 167.09 218.864 165.681 217.04C163.44 214.142 159.361 209.969 154.182 209.513C146.158 208.815 139.973 214.746 139.181 223.855C138.389 232.952 143.434 239.875 151.472 240.572C156.651 241.029 161.387 237.621 164.098 235.152C165.802 233.596 168.11 232.858 170.417 233.059C175.033 233.462 178.455 237.527 178.052 242.156L173.061 298.921L299.469 307.454L303.695 247.737C304.098 243.122 308.177 239.7 312.792 240.103C315.1 240.304 317.234 241.431 318.642 243.256C320.883 246.154 324.962 250.326 330.141 250.782C338.165 251.48 344.337 245.55 345.142 236.44C345.934 227.344 340.889 220.421 332.852 219.723C327.673 219.267 322.936 222.675 320.226 225.143C318.522 226.7 316.214 227.438 313.919 227.236C309.304 226.834 305.077 223.225 305.48 218.61L308.901 167.895L183.714 159.442L180.642 212.559H180.628Z" fill="#1D1D1D"/>
<path d="M180.629 212.559C180.629 212.559 180.629 212.25 180.655 211.66C180.682 211.056 180.723 210.171 180.79 209.017C180.91 206.669 181.098 203.208 181.34 198.686C181.85 189.63 182.588 176.348 183.527 159.443V159.255H183.728C214.414 161.294 257.592 164.165 308.928 167.587H309.237L309.21 167.909C308.365 180.466 307.493 193.588 306.58 207.179C306.352 210.573 306.124 214.008 305.896 217.456C305.856 218.328 305.735 219.173 305.856 219.992C305.963 220.81 306.205 221.615 306.607 222.353C307.412 223.815 308.714 225.01 310.217 225.801C311.719 226.579 313.45 227.009 315.154 226.928C316.858 226.834 318.535 226.19 319.837 225.077C322.467 222.675 325.593 220.515 329.229 219.67C330.128 219.455 331.068 219.375 332.007 219.361C332.946 219.375 333.872 219.509 334.784 219.697C336.609 220.086 338.367 220.864 339.883 221.991C342.942 224.245 344.807 227.867 345.371 231.597C345.894 235.34 345.465 239.258 343.935 242.786C342.405 246.288 339.454 249.32 335.683 250.514C333.818 251.132 331.832 251.293 329.887 251.091C327.914 250.877 326.049 250.125 324.386 249.079C322.722 248.046 321.246 246.718 319.931 245.282C319.273 244.571 318.656 243.766 318.066 243.055C317.449 242.357 316.711 241.794 315.892 241.351C314.242 240.479 312.296 240.211 310.458 240.586C308.633 240.975 306.943 242.008 305.775 243.484C304.568 244.973 304.058 246.811 304.004 248.77C303.87 250.729 303.722 252.688 303.588 254.66C302.313 272.638 301.066 290.295 299.845 307.481L299.818 307.83L299.469 307.803C253.594 304.691 210.778 301.793 173.061 299.23L172.752 299.203L172.779 298.895C173.92 286.042 175.007 273.739 176.04 262.026C176.563 256.176 177.06 250.474 177.556 244.933C177.65 243.551 177.878 242.156 177.811 240.841C177.73 239.513 177.301 238.225 176.603 237.111C175.235 234.857 172.752 233.435 170.217 233.288C168.942 233.207 167.667 233.422 166.513 233.905C165.936 234.146 165.386 234.455 164.89 234.817C164.393 235.179 163.95 235.635 163.454 236.038C161.508 237.688 159.362 239.07 157.04 239.942C152.371 241.834 147.004 240.492 143.623 237.42C141.932 235.85 140.711 233.891 139.96 231.825C139.195 229.759 138.927 227.586 138.94 225.506C139.007 221.333 140.215 217.308 142.59 214.317C144.938 211.298 148.44 209.58 151.821 209.366C155.216 209.004 158.396 210.224 160.73 211.955C163.145 213.646 164.876 215.806 166.419 217.684C168.137 219.442 170.431 220.153 172.404 220.126C174.403 220.086 176.107 219.375 177.301 218.449C178.522 217.537 179.273 216.45 179.743 215.537C180.655 213.673 180.562 212.519 180.642 212.546C180.642 212.546 180.615 212.814 180.562 213.337C180.454 213.847 180.307 214.639 179.837 215.578C179.381 216.503 178.629 217.617 177.395 218.556C176.187 219.509 174.457 220.247 172.417 220.314C170.404 220.354 168.043 219.643 166.258 217.845C164.662 215.94 162.971 213.834 160.569 212.17C158.248 210.466 155.162 209.299 151.834 209.661C148.547 209.889 145.139 211.566 142.858 214.518C140.55 217.443 139.369 221.387 139.316 225.493C139.316 227.545 139.584 229.665 140.335 231.678C141.073 233.69 142.268 235.582 143.904 237.098C147.192 240.063 152.371 241.351 156.879 239.499C159.134 238.641 161.24 237.286 163.145 235.662C163.628 235.273 164.071 234.817 164.608 234.415C165.131 234.025 165.722 233.69 166.325 233.435C167.546 232.912 168.902 232.684 170.243 232.778C172.927 232.925 175.584 234.441 177.033 236.83C177.771 238.01 178.24 239.379 178.321 240.787C178.401 242.223 178.16 243.565 178.079 244.96C177.596 250.501 177.1 256.203 176.59 262.053C175.57 273.765 174.497 286.068 173.37 298.921L173.088 298.599C210.805 301.135 253.621 304.006 299.509 307.079L299.147 307.401C300.368 290.214 301.616 272.558 302.877 254.58C303.011 252.607 303.159 250.649 303.293 248.69C303.333 246.731 303.91 244.598 305.212 243.028C306.473 241.431 308.311 240.304 310.297 239.875C312.283 239.459 314.403 239.754 316.187 240.707C317.073 241.19 317.891 241.807 318.562 242.572C319.22 243.35 319.756 244.088 320.427 244.786C321.715 246.181 323.138 247.469 324.734 248.462C326.318 249.468 328.102 250.166 329.94 250.367C331.792 250.555 333.684 250.394 335.442 249.817C338.997 248.69 341.802 245.832 343.278 242.464C344.754 239.084 345.183 235.273 344.673 231.664C344.123 228.069 342.352 224.634 339.454 222.501C338.018 221.427 336.354 220.689 334.623 220.314C333.751 220.126 332.866 220.005 331.993 219.992C331.108 220.005 330.236 220.086 329.364 220.287C325.888 221.092 322.869 223.158 320.253 225.546C318.831 226.754 317.019 227.465 315.181 227.559C313.329 227.639 311.518 227.196 309.908 226.351C308.298 225.519 306.902 224.245 306.03 222.635C305.601 221.83 305.319 220.944 305.212 220.045C305.078 219.133 305.212 218.234 305.252 217.389C305.48 213.927 305.722 210.506 305.95 207.112C306.876 193.521 307.761 180.413 308.62 167.841L308.902 168.163C257.579 164.648 214.401 161.697 183.715 159.604L183.916 159.429C182.896 176.334 182.105 189.603 181.554 198.659C181.273 203.181 181.058 206.642 180.91 208.99C180.83 210.144 180.776 211.029 180.736 211.633C180.696 212.224 180.655 212.532 180.655 212.532L180.629 212.559Z" fill="#333333"/>
<path d="M165.882 270.68C165.882 270.68 170.243 267.312 173.463 267.165C176.697 267.031 180.91 268.292 181.755 267.863C182.601 267.447 184.56 265.595 185.834 267.151C187.096 268.708 188.639 274.329 181.903 275.872H177.261C177.261 275.872 177.824 280.514 178.951 282.339C180.078 284.164 195.804 303.967 195.804 303.967C195.804 303.967 197.776 305.939 196.783 307.898C195.804 309.87 191.591 308.743 191.591 308.743C191.591 308.743 188.639 311.413 185.271 310.152C181.903 308.89 180.494 307.898 180.494 307.898C180.494 307.898 176.845 310.849 172.913 307.898C168.982 304.946 155.859 288.511 155.859 288.511L160.542 270.117L165.882 270.68Z" fill="#C17560"/>
<path d="M152.237 259.812L165.896 270.68L155.873 288.524L135.881 281.266C135.881 281.266 136.458 260.202 152.25 259.812H152.237Z" fill="#C17560"/>
<path d="M306.352 186.598C306.352 186.598 307.05 181.835 317.073 183.458C323.352 184.478 320.065 188.543 320.065 188.543C320.065 188.543 323.58 191.924 319.381 194.822L320.038 195.305C320.038 195.305 325.043 197.814 320.723 202.268C320.723 202.268 322.306 205.14 320.146 207.3C317.985 209.46 312.591 206.575 312.591 206.575C312.591 206.575 304.97 206.454 304.527 204.442C304.098 202.429 305.614 201.611 306.044 201.329C306.473 201.048 311.37 200.685 311.37 200.685C311.37 200.685 304.702 200.618 304.098 199.303C303.025 196.982 303.306 194.594 311.37 194.889C311.37 194.889 305.373 194.769 304.675 193.507C303.883 192.058 304.836 190.314 306.996 189.308C309.156 188.302 311.089 188.463 311.089 188.463C311.089 188.463 305.48 189.617 306.339 186.598H306.352Z" fill="#C17560"/>
</g>
<defs>
<clipPath id="clip0_394_1478">
<rect width="630" height="606" fill="white"/>
</clipPath>
</defs>
</svg>
