<svg width="630" height="606" viewBox="0 0 630 606" fill="none" xmlns="http://www.w3.org/2000/svg">
<g clip-path="url(#clip0_254_1226)">
<path d="M480.46 334.851C479.226 337.36 476.193 338.38 473.684 337.145C472.437 336.528 471.484 335.428 471.081 334.1C470.464 331.98 469.082 328.746 466.278 327.365C461.93 325.218 457.167 327.204 454.725 332.127C452.297 337.065 453.612 342.042 457.972 344.189C460.777 345.571 464.185 344.699 466.238 343.907C467.539 343.411 468.988 343.491 470.236 344.108C472.745 345.343 473.765 348.375 472.53 350.884L457.315 381.648L526.389 414.062L541.819 381.474C543.054 378.965 546.086 377.945 548.595 379.179C549.843 379.797 550.796 380.897 551.185 382.225C551.802 384.345 553.184 387.578 555.988 388.96C560.336 391.107 565.099 389.121 567.541 384.197C569.97 379.26 568.655 374.282 564.294 372.136C561.49 370.754 558.082 371.626 556.029 372.417C554.727 372.914 553.278 372.833 552.03 372.216C549.521 370.982 547.938 368.03 549.172 365.521L562.174 337.803L493.757 305.697L480.42 334.838L480.46 334.851Z" fill="#B6B6B6"/>
<path d="M379.774 12.786L349.598 21.5604L357.313 48.3399C357.97 50.7952 360.828 51.8685 363.284 51.2111C364.505 50.8891 365.551 50.0707 366.142 48.9571C367.081 47.1727 368.879 44.543 371.629 43.8051C375.896 42.6647 379.801 45.2809 381.089 50.1243C382.377 54.9677 380.311 59.1805 376.03 60.3209C373.28 61.0588 370.395 59.6635 368.704 58.5902C367.631 57.9059 366.316 57.7315 365.095 58.0535C362.64 58.7109 361.177 61.2333 361.835 63.6885L370.811 95.2577L415.264 82.4583L441.334 74.945L444.541 74.0192L436.504 43.8185C435.847 41.3633 433.324 39.9009 430.869 40.5583C429.648 40.8803 428.601 41.6987 428.011 42.8123C427.071 44.5967 425.273 47.2263 422.523 47.9643C418.256 49.1047 414.351 46.4884 413.063 41.6451C411.775 36.8017 413.841 32.5889 418.122 31.4485C420.872 30.7105 423.757 32.1059 425.448 33.1792C426.521 33.8634 427.836 34.0378 429.057 33.7159C431.513 33.0584 432.975 30.5361 432.318 28.0809L423.932 -0.0134277L379.761 12.7726" fill="#F5F5F5"/>
<path d="M309.345 358.088L282.684 360.02L284.334 383.687C284.441 385.847 286.628 387.243 288.789 387.135C289.862 387.082 290.882 386.599 291.58 385.767C292.68 384.452 294.639 382.574 297.067 382.453C300.824 382.265 303.602 385.136 303.816 389.389C304.031 393.642 301.562 396.782 297.805 396.97C295.377 397.09 293.23 395.427 292.009 394.219C291.244 393.468 290.184 393.079 289.097 393.133C286.937 393.24 285.273 395.078 285.381 397.238L287.232 425.118L326.492 422.367L349.53 420.757L352.362 420.556L351.047 393.991C350.939 391.831 349.101 390.168 346.941 390.275C345.867 390.329 344.848 390.812 344.15 391.643C343.05 392.958 341.091 394.836 338.662 394.957C334.905 395.145 332.128 392.274 331.913 388.021C331.698 383.768 334.167 380.628 337.924 380.44C340.353 380.32 342.5 381.983 343.721 383.191C344.485 383.942 345.545 384.331 346.632 384.278C348.792 384.17 350.456 382.332 350.349 380.172L348.377 355.298L309.345 358.075" fill="#EBEBEB"/>
<path d="M126.864 342.861C113.997 349.529 104.135 361 97.0503 373.625C89.9658 386.25 85.3904 400.109 80.8552 413.875L76.897 484.835C91.8577 459.37 103.88 429.451 107.127 400.096C103.813 399.801 100.485 399.505 97.1711 399.21C103.853 398.191 109.448 393.347 113.017 387.618C116.586 381.876 118.425 375.262 120.209 368.755C116.157 369.358 112.105 369.962 108.053 370.566C117.566 364.22 124.463 354.063 126.864 342.874V342.861Z" fill="#E0E0E0"/>
<path d="M74.6832 501.458C74.6832 501.458 42.199 462.577 42.5747 425.466H55.6972C55.6972 425.466 41.4476 416.088 42.5747 410.842C43.7018 405.597 44.0775 385.727 44.0775 385.727L56.0729 388.732C56.0729 388.732 47.0697 384.237 45.956 377.113C44.8423 369.989 48.5858 336.998 48.5858 336.998C48.5858 336.998 63.2111 352.373 67.706 368.111C72.201 383.862 84.0085 402.229 80.5467 450.22C77.085 498.211 74.6966 501.471 74.6966 501.471L74.6832 501.458Z" fill="#B6B6B6"/>
<path d="M91.1465 505.134C91.1465 505.134 126.341 481.695 134.164 451.763L123.617 448.892C123.617 448.892 137.129 444.478 137.37 440.01C137.612 435.542 141.664 419.483 141.664 419.483L131.359 419.268C131.359 419.268 139.584 417.618 142.04 412.144C144.509 406.656 148.708 379.313 148.708 379.313C148.708 379.313 133.587 388.477 126.529 400.149C119.471 411.822 105.946 424.004 98.2444 463.355C90.5293 502.692 91.1599 505.134 91.1599 505.134H91.1465Z" fill="#EBEBEB"/>
<path d="M57.4415 370.888C57.4415 370.888 57.4951 371.022 57.5622 371.29C57.6293 371.599 57.7366 371.988 57.844 372.485C58.0855 373.585 58.4344 375.128 58.8771 377.1C59.3334 379.099 59.8566 381.554 60.4202 384.412C60.9971 387.27 61.6814 390.516 62.3389 394.125C63.7343 401.33 65.2103 409.957 66.7131 419.536C68.1756 429.129 69.6381 439.702 70.9396 450.837C72.2143 461.973 73.1938 472.599 73.9586 482.286C74.6697 491.973 75.2064 500.693 75.4882 508.032C75.6627 511.695 75.7566 515.022 75.8371 517.934C75.931 520.845 75.9847 523.354 75.9981 525.407C76.0115 527.419 76.0249 529.002 76.0383 530.129C76.0383 530.639 76.0383 531.042 76.0383 531.364C76.0383 531.645 76.0249 531.78 76.0115 531.78C76.0115 531.78 75.9847 531.632 75.9713 531.364C75.9578 531.055 75.931 530.639 75.9042 530.129C75.8639 529.002 75.8102 527.419 75.7297 525.407C75.6761 523.354 75.5821 520.845 75.448 517.934C75.3272 515.022 75.2065 511.708 74.9918 508.046C74.6429 500.72 74.0525 491.999 73.3146 482.326C72.5229 472.653 71.5166 462.04 70.2419 450.918C68.9404 439.795 67.5047 429.237 66.069 419.644C64.5931 410.051 63.1708 401.437 61.8425 394.219C61.2118 390.61 60.5678 387.35 60.0311 384.479C59.4944 381.608 59.0113 379.153 58.5954 377.14C58.2063 375.168 57.8977 373.612 57.683 372.498C57.5891 372.002 57.522 371.599 57.4683 371.29C57.428 371.022 57.4012 370.875 57.4146 370.875L57.4415 370.888Z" fill="#E0E0E0"/>
<path d="M70.1746 525.272C70.1746 525.272 40.4411 491.543 31.2097 471.15L38.1735 468.172C33.1285 469.003 27.9492 466.83 24.0313 463.543C20.1133 460.242 17.2419 455.909 14.4242 451.642L23.6019 450.086C15.2561 447.738 7.90322 442.049 3.54248 434.55C14.3705 436.334 24.1789 442.277 32.2563 449.71C38.7907 455.734 44.3322 462.724 49.659 469.862C52.2486 473.35 54.5296 477.053 56.4215 480.971C61.4129 491.302 70.2015 512.876 70.1881 525.259L70.1746 525.272Z" fill="#E0E0E0"/>
<path d="M134.633 398.942C134.633 398.942 134.593 399.063 134.499 399.291C134.378 399.546 134.231 399.868 134.043 400.27C133.614 401.169 133.01 402.43 132.245 404.013C130.662 407.26 128.408 411.969 125.67 417.806C120.209 429.491 113.004 445.806 105.906 464.173C98.8082 482.54 93.1593 499.459 89.3353 511.789C87.4166 517.947 85.9138 522.951 84.9075 526.413C84.3976 528.103 84.0085 529.431 83.7267 530.397C83.5925 530.813 83.4852 531.162 83.4047 531.43C83.3242 531.659 83.2839 531.779 83.2705 531.779C83.2705 531.779 83.2705 531.659 83.3376 531.417C83.4047 531.135 83.4852 530.8 83.5925 530.371C83.8475 529.405 84.2097 528.063 84.6525 526.346C85.5783 522.857 87.014 517.826 88.8657 511.641C92.569 499.271 98.1507 482.312 105.262 463.918C112.373 445.538 119.659 429.236 125.241 417.591C128.032 411.768 130.353 407.086 132.017 403.879C132.835 402.309 133.479 401.075 133.936 400.19C134.15 399.8 134.311 399.492 134.446 399.237C134.566 399.022 134.633 398.915 134.647 398.928L134.633 398.942Z" fill="#E0E0E0"/>
<path d="M72.6974 539.722C72.6974 539.722 72.6169 539.507 72.5498 539.105C72.4693 538.622 72.3753 538.032 72.2546 537.321C72.0265 535.764 71.6374 533.524 71.0872 530.76C70.5505 527.996 69.7857 524.736 68.8062 521.154C67.7999 517.585 66.5655 513.681 65.0627 509.669C63.5331 505.657 61.8827 501.928 60.286 498.573C58.6491 495.233 57.0658 492.281 55.6569 489.866C54.2481 487.438 53.0539 485.492 52.2086 484.177C51.8329 483.574 51.5109 483.064 51.2559 482.635C51.0412 482.272 50.9473 482.085 50.9607 482.071C50.9741 482.058 51.1217 482.219 51.3767 482.554C51.6719 482.957 52.0207 483.44 52.4501 484.017C53.3759 485.291 54.6372 487.196 56.0997 489.611C57.5756 492.013 59.2126 494.951 60.8898 498.292C62.5402 501.646 64.2174 505.389 65.747 509.428C67.2632 513.466 68.4842 517.384 69.4637 520.993C70.4164 524.602 71.1275 527.889 71.6105 530.666C72.0936 533.443 72.4156 535.711 72.5632 537.28C72.6303 537.991 72.6839 538.595 72.7376 539.092C72.7644 539.507 72.7779 539.722 72.7376 539.722H72.6974Z" fill="#E0E0E0"/>
<path d="M111.917 531.779H46.8545V545.048H111.917V531.779Z" fill="#E0E0E0"/>
<path d="M53.0537 545.062L60.098 586.345H99.4118L105.973 545.062H53.0537Z" fill="#E0E0E0"/>
<path d="M107.932 545.062C107.932 545.25 95.6279 545.411 80.4391 545.411C65.2503 545.411 52.9463 545.25 52.9463 545.062C52.9463 544.874 65.2503 544.713 80.4391 544.713C95.6279 544.713 107.932 544.874 107.932 545.062Z" fill="#EBEBEB"/>
<path d="M341.533 211.606C344.834 209.607 348.35 208.105 351.959 207.071L354.106 196.741L371.549 196.432L374.058 206.669C377.707 207.568 381.277 208.963 384.644 210.828L393.46 205.046L406.019 217.161L400.558 226.177C402.557 229.477 404.06 232.992 405.093 236.615L415.424 238.761L415.733 256.203L405.495 258.712C404.596 262.361 403.201 265.93 401.336 269.298L407.119 278.112L395.003 290.67L385.986 285.21C382.685 287.209 379.17 288.711 375.547 289.744L373.4 300.075L355.957 300.384L353.448 290.147C349.799 289.248 346.23 287.853 342.862 285.988L334.046 291.77L321.487 279.655L326.948 270.639C324.949 267.339 323.446 263.824 322.413 260.201L312.082 258.054L311.773 240.613L322.011 238.104C322.91 234.455 324.305 230.886 326.17 227.518L320.387 218.704L332.503 206.146L341.52 211.606H341.533ZM350.832 234.844C343.653 242.277 343.855 254.123 351.301 261.315C358.735 268.493 370.583 268.291 377.774 260.845C384.953 253.412 384.752 241.565 377.305 234.374C369.871 227.196 358.024 227.398 350.832 234.844Z" fill="#EBEBEB"/>
<path d="M538.841 87.6506C541.913 85.7991 545.174 84.3904 548.542 83.4378L550.541 73.8316L566.776 73.5498L569.111 83.0756C572.519 83.9074 575.833 85.2088 578.959 86.953L587.158 81.5729L598.844 92.8563L593.759 101.242C595.611 104.314 597.02 107.574 597.972 110.955L607.579 112.954L607.861 129.188L598.334 131.523C597.503 134.917 596.201 138.245 594.457 141.371L599.837 149.582L588.566 161.267L580.18 156.183C577.108 158.034 573.847 159.443 570.466 160.395L568.467 170.002L552.231 170.283L549.897 160.758C546.489 159.926 543.174 158.624 540.048 156.88L531.85 162.26L520.163 150.977L525.248 142.592C523.397 139.519 521.988 136.259 521.035 132.878L511.428 130.879L511.146 114.645L520.673 112.31C521.505 108.916 522.806 105.589 524.551 102.463L519.17 94.2516L530.441 82.5657L538.827 87.6506H538.841ZM547.495 109.278C540.813 116.201 541.001 127.23 547.924 133.911C554.848 140.592 565.877 140.391 572.559 133.482C579.241 126.559 579.053 115.53 572.13 108.849C565.206 102.167 554.177 102.369 547.495 109.278Z" fill="#EBEBEB"/>
<path d="M34.2419 239.432C37.3146 237.581 40.5751 236.172 43.9429 235.22L45.9421 225.613L62.1775 225.332L64.5122 234.857C67.9203 235.689 71.2345 236.991 74.3608 238.735L82.559 233.355L94.2458 244.638L89.1605 253.023C91.0121 256.096 92.421 259.356 93.3736 262.737L102.981 264.736L103.262 280.97L93.7359 283.305C92.904 286.699 91.6025 290.026 89.8582 293.152L95.2387 301.363L83.9678 313.049L75.5818 307.964C72.5091 309.816 69.2486 311.224 65.8674 312.177L63.8681 321.783L47.6328 322.065L45.2981 312.539C41.89 311.707 38.5758 310.406 35.4495 308.662L27.2513 314.042L15.5645 302.759L20.6498 294.373C18.7982 291.301 17.3893 288.041 16.4367 284.66L6.82962 282.661L6.54785 266.427L16.0744 264.092C16.9063 260.698 18.2078 257.37 19.9521 254.244L14.5716 246.033L25.8425 234.347L34.2285 239.432H34.2419ZM42.8963 261.046C36.2143 267.969 36.4022 278.998 43.3257 285.679C50.2492 292.361 61.2785 292.173 67.9605 285.25C74.6425 278.327 74.4547 267.299 67.5312 260.617C60.6077 253.936 49.5783 254.137 42.8963 261.046Z" fill="#B6B6B6"/>
<path d="M90.9584 106.192C93.0381 104.945 95.2386 103.992 97.5196 103.335L98.8748 96.8409L109.85 96.6531L111.434 103.093C113.728 103.657 115.982 104.529 118.089 105.709L123.63 102.073L131.533 109.694L128.098 115.369C129.346 117.449 130.299 119.649 130.956 121.93L137.451 123.285L137.638 134.26L131.198 135.843C130.634 138.137 129.762 140.378 128.582 142.498L132.218 148.039L124.596 155.941L118.921 152.506C116.841 153.754 114.641 154.707 112.36 155.364L111.004 161.858L100.029 162.045L98.4454 155.606C96.151 155.042 93.9103 154.17 91.7903 152.989L86.2488 156.625L78.3458 149.005L81.7807 143.329C80.5328 141.25 79.5802 139.049 78.9227 136.769L72.4286 135.414L72.2407 124.439L78.6812 122.856C79.2447 120.561 80.1169 118.321 81.2977 116.201L77.6615 110.66L85.2827 102.758L90.9584 106.192ZM96.8219 120.816C92.3001 125.499 92.4343 132.945 97.1171 137.466C101.8 141.988 109.247 141.854 113.768 137.171C118.29 132.489 118.156 125.043 113.473 120.521C108.79 116 101.344 116.134 96.8219 120.816Z" fill="#EBEBEB"/>
<path d="M51.0947 35.6077C53 34.4539 55.0395 33.5818 57.1327 32.978L58.3805 27.0077L68.484 26.8333L69.9332 32.7634C72.0531 33.2866 74.106 34.0916 76.065 35.1784L81.1637 31.8376L88.4361 38.8545L85.2696 44.0736C86.4235 45.9787 87.2956 48.018 87.8994 50.111L93.8703 51.3588L94.0447 61.4614L88.1141 62.9104C87.5908 65.0303 86.7857 67.083 85.6989 69.0418L89.0399 74.1401L82.0225 81.4119L76.803 78.2456C74.8977 79.3994 72.8582 80.2715 70.765 80.8752L69.5172 86.8456L59.4137 87.02L57.9646 81.0899C55.8446 80.5666 53.7917 79.7617 51.8327 78.6749L46.734 82.0156L39.4616 74.9988L42.6282 69.7797C41.4743 67.8746 40.6021 65.8352 39.9983 63.7423L34.0275 62.4945L33.853 52.3918L39.7836 50.9428C40.3069 48.823 41.112 46.7703 42.1988 44.8115L38.8578 39.7132L45.8753 32.4414L51.0947 35.6077ZM56.4752 49.0645C52.3157 53.3712 52.4365 60.2271 56.7436 64.3863C61.0507 68.5454 67.9071 68.4246 72.0666 64.1179C76.226 59.8112 76.1053 52.9553 71.7982 48.7962C67.4911 44.6371 60.6347 44.7578 56.4752 49.0645Z" fill="#F5F5F5"/>
<path d="M539.619 242.827C541.524 241.673 543.563 240.801 545.657 240.197L546.904 234.227L557.008 234.052L558.457 239.982C560.577 240.506 562.63 241.311 564.589 242.397L569.688 239.057L576.96 246.074L573.794 251.293C574.947 253.198 575.82 255.237 576.423 257.33L582.394 258.578L582.569 268.68L576.638 270.129C576.115 272.249 575.31 274.302 574.223 276.261L577.564 281.359L570.546 288.631L565.327 285.465C563.422 286.618 561.382 287.49 559.289 288.094L558.041 294.065L547.938 294.239L546.489 288.309C544.369 287.786 542.316 286.981 540.357 285.894L535.258 289.235L527.986 282.218L531.152 276.999C529.998 275.094 529.126 273.054 528.522 270.961L522.551 269.714L522.377 259.611L528.308 258.162C528.831 256.042 529.636 253.989 530.723 252.03L527.382 246.932L534.399 239.66L539.619 242.827ZM545.013 256.27C540.853 260.577 540.974 267.433 545.281 271.592C549.588 275.751 556.444 275.63 560.604 271.324C564.763 267.017 564.643 260.161 560.336 256.002C556.028 251.843 549.172 251.963 545.013 256.27Z" fill="#F5F5F5"/>
<path d="M413.908 144.832C416.391 143.665 418.994 142.846 421.65 142.39L423.931 135.226L436.329 136.299L437.349 143.759C439.871 144.671 442.3 145.919 444.554 147.488L451.236 144.04L459.247 153.566L454.698 159.563C455.865 162.045 456.684 164.662 457.14 167.305L464.305 169.585L463.232 181.982L455.771 183.015C454.859 185.538 453.611 187.966 452.041 190.22L455.49 196.902L445.963 204.911L439.965 200.363C437.483 201.53 434.88 202.349 432.223 202.805L429.942 209.969L417.544 208.896L416.511 201.436C413.989 200.524 411.56 199.276 409.306 197.707L402.624 201.155L394.614 191.629L399.162 185.632C397.995 183.15 397.176 180.547 396.72 177.89L389.555 175.609L390.629 163.213L398.089 162.179C399.001 159.657 400.249 157.229 401.819 154.975L398.371 148.293L407.897 140.284L413.895 144.832H413.908ZM418.792 162.005C413.143 166.755 412.419 175.18 417.169 180.815C421.919 186.464 430.345 187.188 435.98 182.439C441.629 177.689 442.354 169.263 437.604 163.628C432.854 157.98 424.428 157.256 418.792 162.005Z" fill="#F5F5F5"/>
<path d="M628.202 587.552C628.202 587.74 487.638 587.901 314.295 587.901C140.952 587.901 0.348633 587.74 0.348633 587.552C0.348633 587.364 140.885 587.203 314.295 587.203C487.705 587.203 628.202 587.364 628.202 587.552Z" fill="#333333"/>
<path d="M322.011 580.978C322.051 579.247 321.81 576.121 319.462 573.639C317.583 571.654 315.396 571.13 315.463 567.253C315.584 561.242 320.481 557.123 327.297 557.258C334.114 557.392 338.85 561.685 338.729 567.709C338.649 571.586 333.899 572.593 332.96 575.155C332.396 576.671 331.685 579.435 331.645 581.166C331.578 584.627 334.328 587.485 337.79 587.552L377.694 587.177L377.6 524.602L377.493 481.843H339.561C336.1 481.776 333.631 485.103 333.564 488.565C333.523 490.295 334.194 491.973 335.442 493.153C337.414 495.045 340.192 498.399 340.111 502.276C339.991 508.287 335.093 512.406 328.277 512.272C321.461 512.138 316.724 507.844 316.845 501.82C316.926 497.943 319.824 494.696 321.877 492.885C323.165 491.744 323.903 490.094 323.93 488.363C323.997 484.902 321.246 482.044 317.784 481.977L273.104 481.83V586.251L315.624 587.109C319.086 587.177 321.944 584.426 322.011 580.965V580.978Z" fill="#E0E0E0"/>
<g opacity="0.3">
<path d="M322.011 580.978C322.051 579.247 321.81 576.121 319.462 573.639C317.583 571.654 315.396 571.13 315.463 567.253C315.584 561.242 320.481 557.123 327.297 557.258C334.114 557.392 338.85 561.685 338.729 567.709C338.649 571.586 333.899 572.593 332.96 575.155C332.396 576.671 331.685 579.435 331.645 581.166C331.578 584.627 334.328 587.485 337.79 587.552L377.694 587.177L377.6 524.602L377.493 481.843H339.561C336.1 481.776 333.631 485.103 333.564 488.565C333.523 490.295 334.194 491.973 335.442 493.153C337.414 495.045 340.192 498.399 340.111 502.276C339.991 508.287 335.093 512.406 328.277 512.272C321.461 512.138 316.724 507.844 316.845 501.82C316.926 497.943 319.824 494.696 321.877 492.885C323.165 491.744 323.903 490.094 323.93 488.363C323.997 484.902 321.246 482.044 317.784 481.977L273.104 481.83V586.251L315.624 587.109C319.086 587.177 321.944 584.426 322.011 580.965V580.978Z" fill="black"/>
</g>
<path d="M314.135 580.978C314.175 579.247 313.504 577.57 312.256 576.376C310.284 574.484 307.506 571.13 307.587 567.253C307.708 561.242 312.605 557.123 319.421 557.258C326.237 557.392 330.974 561.685 330.853 567.709C330.773 571.586 327.874 574.833 325.821 576.645C324.533 577.785 323.795 579.435 323.769 581.166C323.701 584.627 326.452 587.485 329.914 587.552L369.818 587.177L369.724 524.602L369.617 481.843H331.685C328.223 481.776 325.754 485.103 325.674 488.565C325.634 490.295 326.305 491.973 327.552 493.153C329.525 495.045 332.302 498.399 332.222 502.276C332.101 508.287 327.204 512.406 320.387 512.272C313.571 512.138 308.835 507.844 308.955 501.82C309.036 497.943 311.934 494.696 313.987 492.885C315.275 491.744 316.013 490.094 316.04 488.363C316.107 484.902 313.356 482.044 309.895 481.977L265.214 481.83V586.251L307.734 587.109C311.196 587.177 314.054 584.426 314.121 580.965L314.135 580.978Z" fill="#EBEBEB"/>
<path d="M314.135 580.978C314.135 580.978 314.162 581.287 314.081 581.863C314.001 582.44 313.786 583.326 313.155 584.319C312.538 585.298 311.424 586.385 309.761 586.908C308.942 587.19 307.976 587.244 306.997 587.19C306.004 587.176 304.957 587.163 303.83 587.136C294.867 586.975 281.785 586.747 265.214 586.452H265.013V586.251C264.986 559.82 264.946 523.783 264.905 481.829V481.508H265.227C273.962 481.534 283.006 481.561 292.277 481.588C296.92 481.588 301.616 481.615 306.379 481.628C307.573 481.628 308.768 481.628 309.962 481.642C311.223 481.682 312.471 482.084 313.531 482.809C315.651 484.231 316.778 486.981 316.268 489.517C316.027 490.778 315.409 491.972 314.497 492.885C313.558 493.73 312.726 494.548 311.961 495.501C310.458 497.366 309.291 499.633 309.331 502.035C309.304 504.45 310.23 506.851 311.921 508.582C313.598 510.34 315.96 511.373 318.402 511.735C320.844 512.097 323.42 511.936 325.728 510.997C328.035 510.098 330.035 508.354 331.041 506.087C332.061 503.819 332.181 501.136 331.202 498.828C330.732 497.661 330.062 496.574 329.283 495.568C328.894 495.072 328.465 494.575 328.035 494.119C327.606 493.649 327.096 493.234 326.667 492.67C325.956 491.731 325.513 490.591 325.379 489.423C325.245 488.256 325.446 487.089 325.808 485.989C326.573 483.842 328.384 481.87 330.786 481.548C331.98 481.414 333.013 481.507 334.14 481.481H337.428C339.615 481.481 341.802 481.481 343.976 481.481C352.67 481.481 361.231 481.481 369.63 481.481H369.979V481.829C370.033 520.617 370.073 556.359 370.113 587.163V587.445H369.831C361.056 587.525 352.67 587.592 344.714 587.659C340.729 587.686 336.864 587.727 333.094 587.753C332.155 587.753 331.215 587.767 330.29 587.78C329.35 587.794 328.371 587.633 327.512 587.257C325.754 586.519 324.413 584.99 323.863 583.245C323.299 581.501 323.527 579.556 324.413 578.026C324.829 577.248 325.5 576.604 326.117 576.068C326.721 575.504 327.297 574.9 327.821 574.283C328.867 573.035 329.713 571.653 330.209 570.178C330.732 568.715 330.746 567.145 330.504 565.67C330.021 562.691 328.022 560.263 325.62 558.975C323.205 557.633 320.481 557.284 318.012 557.445C315.53 557.62 313.209 558.398 311.465 559.766C309.693 561.095 308.553 562.96 308.07 564.824C307.56 566.689 307.654 568.541 308.164 570.084C308.674 571.64 309.479 572.928 310.27 573.988C311.076 575.061 311.907 575.88 312.632 576.618C313.316 577.396 313.692 578.201 313.893 578.858C314.108 579.529 314.148 580.052 314.162 580.401C314.175 580.75 314.162 580.924 314.162 580.924C314.121 580.924 314.229 580.186 313.813 578.872C313.598 578.228 313.222 577.436 312.538 576.685C311.827 575.974 310.955 575.142 310.136 574.068C309.318 572.995 308.486 571.707 307.963 570.124C307.426 568.541 307.319 566.636 307.828 564.731C308.311 562.825 309.465 560.893 311.277 559.511C313.061 558.089 315.45 557.284 317.986 557.096C320.508 556.936 323.286 557.271 325.795 558.639C328.29 559.954 330.397 562.477 330.907 565.589C331.162 567.105 331.148 568.756 330.612 570.298C330.102 571.841 329.23 573.263 328.156 574.538C327.619 575.182 327.043 575.786 326.425 576.376C325.781 576.94 325.218 577.49 324.815 578.228C323.997 579.65 323.782 581.461 324.319 583.084C324.842 584.708 326.09 586.117 327.713 586.787C329.324 587.512 331.242 587.176 333.121 587.23C336.878 587.19 340.755 587.15 344.74 587.109C352.697 587.029 361.083 586.935 369.858 586.841L369.577 587.123C369.496 556.318 369.416 520.577 369.322 481.789L369.67 482.125C361.271 482.125 352.697 482.125 344.002 482.125C339.682 482.151 335.214 482.071 330.934 482.178C326.721 482.822 324.587 488.82 327.257 492.174C327.619 492.657 328.116 493.073 328.572 493.569C329.028 494.052 329.458 494.548 329.874 495.072C330.679 496.118 331.39 497.259 331.9 498.506C332.946 500.988 332.826 503.9 331.725 506.315C330.638 508.77 328.478 510.635 326.036 511.587C323.581 512.567 320.897 512.728 318.348 512.366C315.799 511.99 313.289 510.89 311.478 509.011C309.653 507.147 308.66 504.544 308.687 501.981C308.66 499.352 309.908 496.937 311.478 495.018C312.256 494.039 313.182 493.153 314.068 492.348C314.886 491.53 315.436 490.47 315.651 489.329C316.121 487.049 315.114 484.593 313.195 483.305C312.256 482.661 311.129 482.299 310.002 482.259C308.808 482.259 307.614 482.259 306.42 482.245C301.656 482.232 296.96 482.205 292.318 482.192C283.033 482.151 274.002 482.125 265.268 482.084L265.59 481.762C265.549 523.703 265.509 559.753 265.482 586.184L265.281 585.982C281.852 586.358 294.934 586.653 303.897 586.854C305.011 586.881 306.071 586.908 307.05 586.935C308.043 586.989 308.942 586.935 309.761 586.68C311.384 586.184 312.484 585.137 313.115 584.185C313.759 583.219 313.987 582.36 314.081 581.783C314.175 581.206 314.175 580.897 314.202 580.897L314.135 580.978Z" fill="#333333"/>
<path d="M470.289 516.914C470.236 520.671 467.136 523.676 463.379 523.622C461.501 523.595 459.716 522.804 458.455 521.408C456.469 519.195 452.94 516.055 448.727 515.988C442.193 515.894 437.55 521.046 437.443 528.452C437.335 535.858 441.817 541.144 448.351 541.252C452.565 541.319 456.201 538.287 458.24 536.126C459.528 534.771 461.353 534.033 463.218 534.06C466.975 534.114 469.981 537.213 469.927 540.97L469.202 587.15L571.888 586.68L571.834 538.166C571.888 534.409 574.987 531.404 578.744 531.457C580.623 531.484 582.407 532.276 583.655 533.671C585.641 535.885 589.17 539.024 593.383 539.092C599.917 539.185 604.56 534.033 604.667 526.628C604.775 519.222 600.293 513.935 593.759 513.828C589.546 513.761 585.909 516.793 583.87 518.953C582.582 520.308 580.757 521.046 578.892 521.019C575.135 520.966 571.499 518.296 571.566 514.526L571.378 473.323L469.685 473.78L470.289 516.901V516.914Z" fill="#1D1D1D"/>
<g opacity="0.3">
<path d="M470.289 516.914C470.236 520.671 467.136 523.676 463.379 523.622C461.501 523.595 459.716 522.804 458.455 521.408C456.469 519.195 452.94 516.055 448.727 515.988C442.193 515.894 437.55 521.046 437.443 528.452C437.335 535.858 441.817 541.144 448.351 541.252C452.565 541.319 456.201 538.287 458.24 536.126C459.528 534.771 461.353 534.033 463.218 534.06C466.975 534.114 469.981 537.213 469.927 540.97L469.202 587.15L571.888 586.68L571.834 538.166C571.888 534.409 574.987 531.404 578.744 531.457C580.623 531.484 582.407 532.276 583.655 533.671C585.641 535.885 589.17 539.024 593.383 539.092C599.917 539.185 604.56 534.033 604.667 526.628C604.775 519.222 600.293 513.935 593.759 513.828C589.546 513.761 585.909 516.793 583.87 518.953C582.582 520.308 580.757 521.046 578.892 521.019C575.135 520.966 571.499 518.296 571.566 514.526L571.378 473.323L469.685 473.78L470.289 516.901V516.914Z" fill="black"/>
</g>
<path d="M462.708 516.914C462.655 520.671 459.555 523.676 455.798 523.622C453.92 523.595 452.135 522.804 450.874 521.408C448.901 519.195 445.359 516.055 441.146 515.988C434.612 515.894 429.969 521.046 429.862 528.452C429.754 535.858 434.236 541.144 440.77 541.252C444.983 541.319 448.62 538.287 450.659 536.126C451.947 534.771 453.772 534.033 455.637 534.06C459.394 534.114 462.4 537.213 462.346 540.97L461.621 587.15L564.307 586.68L564.253 538.166C564.307 534.409 567.406 531.404 571.163 531.457C573.042 531.484 574.826 532.276 576.074 533.671C578.06 535.885 581.589 539.024 585.802 539.092C592.336 539.185 596.979 534.033 597.086 526.628C597.194 519.222 592.712 513.935 586.178 513.828C581.964 513.761 578.328 516.793 576.289 518.953C575.001 520.308 573.176 521.046 571.311 521.019C567.554 520.966 563.918 518.296 563.985 514.526L563.797 473.323L462.104 473.78L462.708 516.901V516.914Z" fill="#1D1D1D"/>
<path d="M462.708 516.914C462.708 516.914 462.681 516.672 462.668 516.189C462.668 515.693 462.641 514.982 462.614 514.043C462.574 512.124 462.52 509.32 462.453 505.658C462.333 498.292 462.145 487.518 461.917 473.807V473.619H462.104C487.034 473.471 522.108 473.283 563.797 473.042H564.106V473.35C564.159 483.56 564.213 494.213 564.267 505.255C564.28 508.019 564.293 510.796 564.307 513.614C564.32 514.325 564.267 515.009 564.414 515.653C564.548 516.297 564.79 516.927 565.152 517.491C565.877 518.618 566.99 519.503 568.238 520.04C569.486 520.577 570.908 520.818 572.264 520.657C573.619 520.483 574.92 519.866 575.9 518.9C577.885 516.807 580.301 514.861 583.199 513.962C583.923 513.734 584.675 513.613 585.44 513.546C586.204 513.506 586.969 513.546 587.721 513.654C589.223 513.868 590.699 514.392 592.001 515.223C594.617 516.887 596.348 519.718 597.033 522.71C597.677 525.715 597.556 528.908 596.523 531.873C595.476 534.812 593.262 537.455 590.27 538.635C588.794 539.239 587.184 539.494 585.587 539.454C583.977 539.4 582.407 538.89 580.998 538.139C579.576 537.388 578.315 536.408 577.161 535.322C576.584 534.785 576.034 534.154 575.524 533.631C575.001 533.108 574.357 532.692 573.686 532.397C572.317 531.793 570.734 531.686 569.298 532.102C567.863 532.517 566.574 533.443 565.716 534.691C564.844 535.952 564.535 537.441 564.602 539.025C564.602 540.621 564.602 542.218 564.602 543.814C564.615 558.411 564.629 572.767 564.656 586.734V587.083H564.307C527.033 587.23 492.254 587.378 461.621 587.499H461.313V587.19C461.487 576.739 461.648 566.716 461.809 557.204C461.89 552.441 461.97 547.799 462.037 543.291C462.037 542.177 462.145 541.024 461.997 539.977C461.863 538.917 461.434 537.911 460.816 537.052C459.595 535.322 457.516 534.315 455.463 534.342C454.443 534.342 453.423 534.597 452.524 535.053C451.598 535.496 450.914 536.194 450.19 536.958C448.714 538.407 447.05 539.655 445.225 540.5C441.549 542.312 437.107 541.533 434.182 539.239C431.217 536.878 429.862 533.215 429.687 529.848C429.499 526.467 430.251 523.126 431.995 520.563C433.713 517.974 436.463 516.391 439.187 516.015C441.911 515.532 444.568 516.337 446.567 517.598C448.62 518.819 450.149 520.483 451.504 521.905C452.994 523.22 454.886 523.663 456.469 523.528C458.079 523.381 459.407 522.71 460.32 521.892C461.259 521.087 461.809 520.174 462.131 519.41C462.762 517.853 462.628 516.927 462.695 516.941C462.695 516.941 462.695 517.155 462.681 517.585C462.628 518.014 462.561 518.658 462.225 519.436C461.917 520.214 461.366 521.154 460.427 521.985C459.501 522.831 458.146 523.528 456.496 523.703C454.859 523.85 452.913 523.421 451.357 522.066C449.948 520.617 448.459 519.02 446.433 517.813C444.46 516.579 441.911 515.814 439.241 516.31C436.597 516.686 433.954 518.242 432.29 520.751C430.6 523.247 429.875 526.493 430.076 529.807C430.264 533.094 431.593 536.636 434.451 538.89C437.268 541.077 441.508 541.815 445.037 540.071C446.808 539.253 448.418 538.032 449.867 536.61C450.552 535.898 451.343 535.08 452.323 534.624C453.289 534.127 454.376 533.859 455.476 533.859C457.677 533.819 459.917 534.906 461.246 536.757C461.917 537.669 462.373 538.756 462.534 539.897C462.681 541.064 462.574 542.164 462.574 543.291C462.507 547.799 462.44 552.441 462.373 557.204C462.225 566.73 462.078 576.739 461.93 587.19L461.635 586.881C492.267 586.734 527.059 586.559 564.32 586.372L563.971 586.72C563.958 572.754 563.931 558.411 563.918 543.801C563.918 542.204 563.918 540.608 563.918 539.011C563.837 537.428 564.186 535.644 565.152 534.288C566.091 532.907 567.514 531.873 569.11 531.417C570.707 530.961 572.451 531.082 573.968 531.753C574.719 532.088 575.43 532.544 576.02 533.135C576.597 533.738 577.08 534.288 577.657 534.825C578.771 535.885 579.992 536.824 581.347 537.535C582.689 538.246 584.152 538.716 585.641 538.77C587.144 538.81 588.646 538.568 590.028 538.005C592.819 536.905 594.899 534.436 595.892 531.645C596.885 528.841 597.006 525.742 596.389 522.871C595.744 520.013 594.107 517.357 591.665 515.8C590.458 515.022 589.076 514.526 587.654 514.325C586.231 514.11 584.796 514.177 583.427 514.606C580.69 515.452 578.369 517.29 576.396 519.369C575.309 520.443 573.874 521.127 572.371 521.315C570.868 521.489 569.365 521.234 567.997 520.644C566.642 520.053 565.42 519.101 564.615 517.84C564.213 517.209 563.945 516.498 563.797 515.774C563.636 515.036 563.69 514.298 563.676 513.6C563.676 510.796 563.649 508.005 563.636 505.255C563.596 494.213 563.555 483.56 563.515 473.364L563.824 473.672C522.122 473.806 487.061 473.927 462.131 474.008L462.319 473.82C462.48 487.545 462.601 498.319 462.681 505.671C462.708 509.334 462.735 512.138 462.748 514.056C462.748 514.995 462.748 515.707 462.748 516.203C462.748 516.686 462.735 516.927 462.735 516.927L462.708 516.914Z" fill="#333333"/>
<path d="M482.392 526.842C480.259 526.802 473.564 525.876 472.088 527.419C469.753 529.861 470.263 535.013 465.473 534.919C458.053 534.771 452.981 528.734 453.155 520.335C453.316 511.923 458.616 506.1 466.036 506.248C470.826 506.342 469.377 513.68 472.544 514.848C474.409 515.532 480.501 514.942 482.621 514.982C486.887 515.062 490.416 511.668 490.497 507.401L490.027 458.189L412.862 458.297L360.131 458.431V505.215C360.05 509.481 364.156 512.54 368.423 512.62C370.556 512.661 372.622 511.842 374.085 510.299C376.42 507.858 380.552 504.436 385.342 504.53C392.762 504.678 397.834 510.715 397.66 519.114C397.499 527.526 392.199 533.349 384.779 533.202C379.989 533.108 375.99 529.525 373.763 527.003C372.354 525.406 370.315 524.508 368.195 524.467C363.928 524.387 360.399 527.781 360.318 532.048L360.144 587.15H488.927L489.987 534.704C490.067 530.438 486.673 526.909 482.406 526.829L482.392 526.842Z" fill="#333333"/>
<path d="M474.261 526.842C472.128 526.802 470.061 527.62 468.599 529.163C466.264 531.605 462.131 535.026 457.341 534.932C449.921 534.785 444.85 528.747 445.024 520.348C445.185 511.936 450.485 506.113 457.905 506.261C462.695 506.355 466.694 509.937 468.921 512.46C470.33 514.056 472.369 514.955 474.489 514.995C478.756 515.076 482.285 511.681 482.365 507.415L481.896 458.203L404.731 458.31L351.999 458.444V505.228C351.919 509.494 356.025 512.553 360.291 512.634C362.425 512.674 364.491 511.856 365.954 510.313C368.288 507.871 372.421 504.45 377.211 504.544C384.631 504.691 389.703 510.729 389.528 519.128C389.367 527.54 384.067 533.363 376.647 533.215C371.857 533.121 367.859 529.539 365.632 527.017C364.223 525.42 362.183 524.521 360.063 524.481C355.796 524.4 352.268 527.795 352.187 532.061L352.013 587.163H480.795L481.855 534.718C481.936 530.451 478.541 526.923 474.274 526.842H474.261Z" fill="#5C5C5C"/>
<path d="M474.261 526.842C474.261 526.842 474.637 526.815 475.361 526.923C476.073 527.016 477.173 527.285 478.38 528.076C479.575 528.841 480.916 530.21 481.56 532.249C481.909 533.255 481.963 534.436 481.909 535.643C481.882 536.864 481.869 538.166 481.842 539.534C481.641 550.576 481.346 566.716 480.97 587.15V587.351H480.769C448.177 587.378 403.724 587.418 351.986 587.458H351.664V587.136C351.691 576.363 351.731 565.227 351.758 553.783C351.771 548.054 351.798 542.258 351.811 536.381C351.811 534.919 351.811 533.443 351.825 531.967C351.865 530.424 352.362 528.895 353.247 527.62C354.978 525.031 358.346 523.649 361.432 524.28C362.975 524.575 364.437 525.326 365.551 526.453C366.584 527.593 367.604 528.653 368.785 529.593C371.093 531.457 373.897 532.893 376.889 532.866C379.881 532.906 382.873 531.753 385.02 529.646C387.207 527.553 388.482 524.628 388.938 521.61C389.193 520.094 389.206 518.537 389.072 517.008C388.938 515.478 388.616 513.949 388.026 512.527C386.899 509.669 384.752 507.187 381.921 505.926C379.116 504.651 375.775 504.517 372.904 505.724C371.455 506.315 370.113 507.147 368.865 508.113C368.248 508.596 367.644 509.119 367.067 509.669C366.49 510.192 365.98 510.836 365.283 511.346C364.129 512.218 362.747 512.755 361.325 512.916C359.889 513.077 358.467 512.835 357.125 512.379C355.796 511.896 354.549 511.131 353.583 510.098C352.603 509.065 351.905 507.737 351.704 506.315C351.597 505.59 351.624 504.893 351.624 504.235V502.196C351.624 500.841 351.624 499.486 351.624 498.144C351.624 495.447 351.624 492.751 351.624 490.081C351.624 479.361 351.624 468.802 351.624 458.444V458.096H351.972C399.806 458.028 443.884 457.961 481.869 457.908H482.151V458.189C482.245 469.003 482.339 479.347 482.419 489.168C482.459 494.079 482.5 498.855 482.54 503.497C482.54 504.651 482.553 505.805 482.567 506.945C482.594 508.099 482.392 509.293 481.936 510.353C481.037 512.5 479.159 514.137 477.025 514.821C474.878 515.519 472.503 515.237 470.625 514.15C469.672 513.627 468.881 512.822 468.223 512.057C467.525 511.306 466.787 510.608 466.009 509.964C464.466 508.676 462.762 507.63 460.937 507.012C459.113 506.355 457.18 506.342 455.356 506.637C451.666 507.227 448.66 509.709 447.064 512.688C445.413 515.68 444.984 519.034 445.172 522.093C445.4 525.152 446.352 528.036 448.056 530.196C449.707 532.397 452.015 533.792 454.309 534.382C456.617 535.013 458.898 534.905 460.817 534.261C462.749 533.631 464.332 532.638 465.634 531.645C466.962 530.652 467.968 529.619 468.881 528.734C469.833 527.889 470.826 527.432 471.645 527.177C472.463 526.923 473.121 526.869 473.55 526.842C473.979 526.815 474.207 526.842 474.207 526.842C474.207 526.842 473.993 526.842 473.563 526.882C473.134 526.923 472.49 526.99 471.685 527.258C470.88 527.526 469.914 527.983 468.988 528.828C468.102 529.713 467.083 530.773 465.754 531.779C464.439 532.786 462.843 533.805 460.897 534.449C458.952 535.107 456.617 535.241 454.255 534.61C451.907 534.02 449.532 532.598 447.842 530.357C446.097 528.157 445.105 525.219 444.863 522.106C444.662 518.993 445.078 515.572 446.768 512.5C448.392 509.441 451.491 506.851 455.302 506.234C457.167 505.926 459.193 505.939 461.085 506.596C462.977 507.227 464.735 508.3 466.304 509.615C467.096 510.273 467.847 510.984 468.559 511.748C469.256 512.54 469.941 513.251 470.853 513.748C472.624 514.767 474.878 515.022 476.891 514.365C478.904 513.721 480.661 512.178 481.507 510.152C482.419 508.139 481.99 505.778 482.057 503.47C482.003 498.828 481.963 494.052 481.909 489.142C481.802 479.321 481.695 468.99 481.587 458.176L481.869 458.458C443.884 458.552 399.793 458.646 351.972 458.766L352.308 458.418C352.308 468.775 352.308 479.347 352.308 490.054C352.308 492.737 352.308 495.42 352.308 498.117C352.308 499.472 352.308 500.814 352.308 502.169V504.208C352.308 504.893 352.281 505.563 352.375 506.181C352.71 508.77 354.884 510.823 357.34 511.695C358.574 512.124 359.929 512.339 361.217 512.191C362.519 512.057 363.78 511.547 364.827 510.756C365.43 510.313 365.94 509.682 366.544 509.119C367.134 508.555 367.752 508.032 368.396 507.522C369.684 506.529 371.079 505.657 372.609 505.04C375.655 503.766 379.21 503.913 382.176 505.255C385.181 506.596 387.462 509.24 388.643 512.231C389.247 513.721 389.596 515.317 389.73 516.9C389.864 518.497 389.851 520.094 389.582 521.663C389.113 524.803 387.784 527.875 385.463 530.089C383.182 532.329 379.989 533.55 376.849 533.497C373.642 533.524 370.677 531.994 368.302 530.075C367.108 529.123 366.007 527.983 365.014 526.896C363.995 525.876 362.666 525.178 361.257 524.91C358.426 524.333 355.354 525.581 353.757 527.969C352.952 529.136 352.496 530.545 352.455 531.954C352.455 533.43 352.442 534.905 352.429 536.368C352.402 542.244 352.388 548.04 352.362 553.756C352.321 565.2 352.281 576.336 352.241 587.109L351.919 586.787C403.657 586.828 448.097 586.868 480.702 586.895L480.5 587.096C480.957 566.662 481.319 550.522 481.56 539.481C481.587 538.099 481.627 536.797 481.654 535.59C481.721 534.369 481.668 533.242 481.332 532.249C480.715 530.236 479.414 528.881 478.246 528.117C477.052 527.325 475.979 527.043 475.267 526.936C474.556 526.815 474.181 526.829 474.181 526.802L474.261 526.842Z" fill="#333333"/>
<path d="M348.819 198.311C346.632 198.27 339.709 197.318 338.193 198.901C335.791 201.41 336.301 206.736 331.376 206.642C323.728 206.495 318.509 200.269 318.67 191.602C318.844 182.935 324.305 176.925 331.953 177.072C336.891 177.166 335.402 184.746 338.662 185.94C340.594 186.652 346.861 186.034 349.048 186.075C353.449 186.155 357.085 182.667 357.165 178.266L356.682 127.552L277.142 127.659L222.787 127.793V176.012C222.707 180.413 226.933 183.552 231.334 183.646C233.521 183.686 235.655 182.841 237.171 181.258C239.573 178.749 243.84 175.221 248.777 175.315C256.425 175.462 261.645 181.687 261.484 190.355C261.323 199.022 255.848 205.032 248.2 204.885C243.263 204.791 239.143 201.101 236.836 198.498C235.386 196.848 233.28 195.922 231.093 195.882C226.692 195.802 223.056 199.29 222.975 203.691L222.787 260.483H355.528L356.629 206.428C356.709 202.027 353.22 198.391 348.819 198.311Z" fill="#333333"/>
<path d="M339.695 198.311C337.508 198.27 335.375 199.116 333.859 200.699C331.457 203.208 327.19 206.736 322.252 206.642C314.604 206.495 309.385 200.269 309.546 191.602C309.72 182.935 315.181 176.925 322.829 177.072C327.767 177.166 331.886 180.856 334.194 183.458C335.643 185.109 337.75 186.034 339.937 186.075C344.338 186.155 347.974 182.667 348.054 178.266L347.571 127.552L268.031 127.659L213.676 127.793V176.012C213.596 180.413 217.822 183.552 222.223 183.646C224.411 183.686 226.544 182.841 228.06 181.258C230.462 178.749 234.729 175.221 239.666 175.315C247.315 175.462 252.534 181.687 252.373 190.355C252.199 199.022 246.738 205.032 239.09 204.885C234.152 204.791 230.033 201.101 227.725 198.498C226.276 196.848 224.169 195.922 221.982 195.882C217.581 195.802 213.945 199.29 213.864 203.691L213.676 260.483H346.404L347.504 206.428C347.585 202.027 344.096 198.391 339.695 198.311Z" fill="#5C5C5C"/>
<path d="M339.695 198.311C339.695 198.311 340.084 198.284 340.822 198.391C341.56 198.498 342.687 198.767 343.935 199.572C345.17 200.363 346.552 201.772 347.209 203.878C347.571 204.925 347.625 206.132 347.571 207.38C347.545 208.641 347.531 209.97 347.504 211.392C347.29 222.782 346.995 239.419 346.605 260.469V260.671H346.404C312.806 260.698 266.998 260.738 213.677 260.778H213.354V260.456C213.381 249.347 213.422 237.863 213.448 226.069C213.462 220.166 213.489 214.196 213.502 208.145C213.502 206.629 213.502 205.113 213.516 203.583C213.569 201.987 214.066 200.417 214.978 199.102C216.763 196.432 220.224 195.01 223.404 195.667C224.988 195.976 226.49 196.741 227.644 197.895C228.704 199.075 229.764 200.162 230.972 201.128C233.347 203.047 236.245 204.536 239.345 204.496C242.431 204.536 245.517 203.355 247.731 201.168C249.985 199.008 251.313 195.989 251.769 192.877C252.024 191.32 252.051 189.71 251.903 188.141C251.769 186.558 251.434 184.988 250.83 183.525C249.676 180.587 247.449 178.011 244.537 176.723C241.639 175.408 238.191 175.261 235.225 176.509C233.736 177.112 232.341 177.971 231.052 178.964C230.408 179.474 229.791 179.997 229.201 180.56C228.61 181.097 228.074 181.754 227.363 182.291C226.182 183.19 224.76 183.754 223.284 183.901C221.808 184.062 220.345 183.821 218.963 183.351C217.594 182.855 216.32 182.063 215.313 181.003C214.307 179.943 213.583 178.575 213.381 177.112C213.274 176.374 213.301 175.65 213.301 174.966V172.873C213.301 171.477 213.301 170.082 213.301 168.687C213.301 165.909 213.301 163.132 213.301 160.368C213.301 149.327 213.301 138.432 213.301 127.753V127.404H213.65C262.946 127.337 308.392 127.27 347.545 127.203H347.826V127.484C347.92 138.634 348.014 149.286 348.108 159.416C348.148 164.474 348.189 169.398 348.229 174.187C348.229 175.382 348.256 176.576 348.256 177.743C348.283 178.924 348.068 180.158 347.598 181.258C346.672 183.472 344.74 185.162 342.54 185.86C340.339 186.571 337.884 186.289 335.952 185.162C334.972 184.626 334.167 183.794 333.483 183.002C332.758 182.224 332.007 181.5 331.202 180.842C329.619 179.514 327.847 178.427 325.969 177.797C324.091 177.126 322.091 177.112 320.213 177.421C316.402 178.025 313.303 180.601 311.666 183.66C309.962 186.745 309.519 190.207 309.72 193.36C309.948 196.513 310.941 199.491 312.686 201.705C314.376 203.972 316.764 205.408 319.126 206.025C321.501 206.669 323.862 206.562 325.835 205.904C327.821 205.26 329.458 204.227 330.799 203.208C332.168 202.188 333.215 201.115 334.14 200.202C335.12 199.33 336.153 198.861 336.985 198.592C337.83 198.324 338.501 198.27 338.944 198.243C339.387 198.217 339.615 198.243 339.615 198.243C339.615 198.243 339.387 198.243 338.944 198.284C338.501 198.324 337.83 198.391 336.998 198.673C336.166 198.941 335.174 199.424 334.207 200.296C333.295 201.208 332.235 202.309 330.88 203.342C329.525 204.375 327.888 205.421 325.875 206.092C323.876 206.776 321.461 206.897 319.032 206.253C316.617 205.636 314.161 204.174 312.417 201.866C310.619 199.599 309.599 196.58 309.358 193.36C309.143 190.153 309.573 186.638 311.317 183.472C312.994 180.319 316.188 177.649 320.119 177.018C322.051 176.696 324.131 176.71 326.076 177.394C328.022 178.038 329.833 179.152 331.457 180.507C332.275 181.178 333.04 181.915 333.778 182.707C334.489 183.525 335.214 184.25 336.153 184.773C337.978 185.833 340.299 186.088 342.379 185.417C344.445 184.76 346.27 183.163 347.129 181.07C348.068 178.991 347.625 176.562 347.692 174.187C347.639 169.411 347.585 164.487 347.531 159.429C347.424 149.313 347.317 138.647 347.196 127.511L347.478 127.793C308.325 127.887 262.879 127.994 213.583 128.102L213.918 127.753C213.918 138.432 213.918 149.313 213.918 160.368C213.918 163.132 213.918 165.909 213.918 168.687C213.918 170.082 213.918 171.477 213.918 172.873V174.966C213.918 175.677 213.891 176.361 213.999 177.005C214.347 179.688 216.602 181.795 219.124 182.694C220.399 183.136 221.794 183.364 223.136 183.203C224.478 183.056 225.779 182.546 226.866 181.728C227.497 181.271 228.02 180.627 228.637 180.051C229.241 179.474 229.885 178.924 230.543 178.4C231.871 177.367 233.307 176.482 234.876 175.851C238.016 174.536 241.679 174.684 244.725 176.066C247.825 177.448 250.173 180.171 251.38 183.244C252.011 184.787 252.36 186.423 252.507 188.06C252.655 189.697 252.628 191.347 252.36 192.971C251.877 196.204 250.508 199.37 248.12 201.651C245.772 203.959 242.484 205.22 239.251 205.166C235.936 205.193 232.891 203.623 230.449 201.638C229.214 200.658 228.087 199.491 227.067 198.351C226.021 197.291 224.639 196.58 223.19 196.311C220.265 195.708 217.098 197.009 215.448 199.464C214.616 200.672 214.146 202.121 214.106 203.57C214.106 205.086 214.092 206.602 214.079 208.118C214.052 214.169 214.039 220.153 214.012 226.043C213.972 237.836 213.931 249.32 213.891 260.429L213.569 260.107C266.891 260.148 312.712 260.188 346.297 260.215L346.096 260.416C346.565 239.352 346.927 222.715 347.182 211.338C347.209 209.916 347.249 208.574 347.276 207.326C347.343 206.065 347.29 204.911 346.954 203.878C346.31 201.812 344.982 200.417 343.774 199.612C342.553 198.807 341.44 198.512 340.715 198.391C339.977 198.27 339.588 198.27 339.588 198.257L339.695 198.311Z" fill="#333333"/>
<path d="M621.641 198.311C619.454 198.27 612.53 197.318 611.014 198.901C608.612 201.41 609.122 206.736 604.198 206.642C596.55 206.495 591.33 200.269 591.491 191.602C591.666 182.935 597.127 176.925 604.775 177.072C609.712 177.166 608.223 184.746 611.484 185.94C613.416 186.652 619.682 186.034 621.869 186.075C626.27 186.155 629.906 182.667 629.987 178.266L629.504 127.552L549.964 127.659L495.609 127.793V176.012C495.528 180.413 499.755 183.552 504.156 183.646C506.343 183.686 508.476 182.841 509.992 181.258C512.394 178.749 516.661 175.221 521.599 175.315C529.247 175.462 534.466 181.687 534.305 190.355C534.131 199.022 528.67 205.032 521.022 204.885C516.084 204.791 511.965 201.101 509.657 198.498C508.208 196.848 506.101 195.922 503.914 195.882C499.513 195.802 495.877 199.29 495.796 203.691L495.609 260.483H628.336L629.436 206.428C629.517 202.027 626.028 198.391 621.627 198.311H621.641Z" fill="#333333"/>
<path d="M613.268 198.311C611.081 198.27 608.947 199.116 607.431 200.699C605.029 203.208 600.763 206.736 595.825 206.642C588.177 206.495 582.957 200.269 583.118 191.602C583.293 182.935 588.754 176.925 596.402 177.072C601.34 177.166 605.459 180.856 607.767 183.458C609.216 185.109 611.322 186.034 613.509 186.075C617.91 186.155 621.547 182.667 621.627 178.266L621.144 127.552L541.604 127.659L487.249 127.793V176.012C487.169 180.413 491.395 183.552 495.796 183.646C497.983 183.686 500.117 182.841 501.633 181.258C504.035 178.749 508.302 175.221 513.239 175.315C520.887 175.462 526.107 181.687 525.946 190.355C525.771 199.022 520.31 205.032 512.662 204.885C507.725 204.791 503.605 201.101 501.297 198.498C499.848 196.848 497.742 195.922 495.555 195.882C491.154 195.802 487.518 199.29 487.437 203.691L487.249 260.483H619.977L621.077 206.428C621.158 202.027 617.669 198.391 613.268 198.311Z" fill="#5C5C5C"/>
<path d="M613.268 198.311C613.268 198.311 613.657 198.284 614.395 198.391C615.133 198.498 616.26 198.767 617.508 199.572C618.742 200.363 620.111 201.772 620.782 203.878C621.144 204.925 621.198 206.132 621.144 207.38C621.117 208.641 621.104 209.97 621.077 211.392C620.863 222.782 620.567 239.419 620.178 260.469V260.671H619.977C586.379 260.698 540.571 260.738 487.249 260.778H486.927V260.456C486.954 249.347 486.994 237.863 487.021 226.069C487.035 220.166 487.061 214.196 487.075 208.145C487.075 206.629 487.075 205.113 487.088 203.583C487.142 201.987 487.638 200.417 488.551 199.102C490.335 196.432 493.797 195.01 496.977 195.667C498.56 195.976 500.063 196.741 501.217 197.895C502.277 199.075 503.337 200.162 504.545 201.128C506.92 203.047 509.818 204.536 512.917 204.496C516.003 204.536 519.089 203.355 521.303 201.168C523.558 199.008 524.886 195.989 525.342 192.877C525.597 191.32 525.624 189.71 525.476 188.141C525.342 186.558 525.007 184.988 524.403 183.525C523.249 180.587 521.022 178.011 518.11 176.723C515.212 175.408 511.763 175.261 508.798 176.509C507.309 177.112 505.913 177.971 504.625 178.964C503.981 179.474 503.364 179.997 502.774 180.56C502.183 181.097 501.646 181.754 500.935 182.291C499.755 183.19 498.332 183.754 496.856 183.901C495.38 184.062 493.918 183.821 492.536 183.351C491.167 182.855 489.893 182.063 488.886 181.003C487.88 179.943 487.155 178.575 486.954 177.112C486.847 176.374 486.874 175.65 486.874 174.966V172.873C486.874 171.477 486.874 170.082 486.874 168.687C486.874 165.909 486.874 163.132 486.874 160.368C486.874 149.327 486.874 138.432 486.874 127.753V127.404H487.222C536.519 127.337 581.965 127.27 621.117 127.203H621.399V127.484C621.493 138.634 621.587 149.286 621.681 159.416C621.721 164.474 621.761 169.398 621.802 174.187C621.802 175.382 621.829 176.576 621.829 177.743C621.855 178.924 621.641 180.158 621.171 181.258C620.245 183.472 618.313 185.162 616.113 185.86C613.912 186.571 611.457 186.289 609.525 185.162C608.545 184.626 607.74 183.794 607.056 183.002C606.331 182.224 605.58 181.5 604.775 180.842C603.191 179.514 601.42 178.427 599.542 177.797C597.663 177.126 595.664 177.112 593.786 177.421C589.975 178.025 586.876 180.601 585.239 183.66C583.535 186.745 583.092 190.207 583.293 193.36C583.521 196.513 584.514 199.491 586.258 201.705C587.949 203.972 590.337 205.408 592.699 206.025C595.074 206.669 597.435 206.562 599.408 205.904C601.393 205.26 603.03 204.227 604.372 203.208C605.741 202.188 606.787 201.115 607.713 200.202C608.693 199.33 609.726 198.861 610.558 198.592C611.403 198.324 612.074 198.27 612.517 198.243C612.959 198.217 613.188 198.243 613.188 198.243C613.188 198.243 612.959 198.243 612.517 198.284C612.074 198.324 611.403 198.391 610.571 198.673C609.739 198.941 608.746 199.424 607.78 200.296C606.868 201.208 605.808 202.309 604.453 203.342C603.097 204.375 601.461 205.421 599.448 206.092C597.449 206.776 595.033 206.897 592.605 206.253C590.19 205.636 587.734 204.174 585.99 201.866C584.192 199.599 583.172 196.58 582.931 193.36C582.716 190.153 583.145 186.638 584.89 183.472C586.567 180.319 589.76 177.649 593.692 177.018C595.624 176.696 597.704 176.71 599.649 177.394C601.595 178.038 603.406 179.152 605.03 180.507C605.848 181.178 606.613 181.915 607.351 182.707C608.062 183.525 608.787 184.25 609.726 184.773C611.551 185.833 613.872 186.088 615.952 185.417C618.031 184.76 619.843 183.163 620.701 181.07C621.641 178.991 621.198 176.562 621.265 174.187C621.211 169.411 621.158 164.487 621.104 159.429C620.997 149.313 620.889 138.647 620.769 127.511L621.05 127.793C581.898 127.887 536.452 127.994 487.155 128.102L487.491 127.753C487.491 138.432 487.491 149.313 487.491 160.368C487.491 163.132 487.491 165.909 487.491 168.687C487.491 170.082 487.491 171.477 487.491 172.873V174.966C487.491 175.677 487.464 176.361 487.571 177.005C487.92 179.688 490.174 181.795 492.697 182.694C493.972 183.136 495.367 183.364 496.709 183.203C498.051 183.056 499.352 182.546 500.439 181.728C501.069 181.271 501.593 180.627 502.21 180.051C502.814 179.474 503.458 178.924 504.115 178.4C505.444 177.367 506.879 176.482 508.449 175.851C511.589 174.536 515.252 174.684 518.298 176.066C521.397 177.448 523.745 180.171 524.953 183.244C525.584 184.787 525.932 186.423 526.08 188.06C526.228 189.697 526.201 191.347 525.932 192.971C525.449 196.204 524.081 199.37 521.692 201.651C519.344 203.959 516.057 205.22 512.823 205.166C509.509 205.193 506.463 203.623 504.021 201.638C502.787 200.658 501.66 199.491 500.64 198.351C499.594 197.291 498.212 196.58 496.762 196.311C493.837 195.708 490.671 197.009 489.02 199.464C488.189 200.672 487.719 202.121 487.679 203.57C487.679 205.086 487.665 206.602 487.652 208.118C487.625 214.169 487.612 220.153 487.585 226.043C487.545 237.836 487.504 249.32 487.464 260.429L487.142 260.107C540.464 260.148 586.285 260.188 619.87 260.215L619.668 260.416C620.138 239.352 620.5 222.715 620.755 211.338C620.782 209.916 620.822 208.574 620.849 207.326C620.916 206.065 620.862 204.911 620.527 203.878C619.883 201.812 618.555 200.417 617.347 199.612C616.126 198.807 615.012 198.512 614.288 198.391C613.55 198.27 613.161 198.27 613.161 198.257L613.268 198.311Z" fill="#333333"/>
<path d="M95.0774 178.145C94.9969 182.546 91.3607 186.034 86.9597 185.954C84.7592 185.913 82.6661 184.988 81.2169 183.337C78.9091 180.735 74.7899 177.045 69.8522 176.951C62.2041 176.804 56.7431 182.814 56.5687 191.481C56.3943 200.148 61.6272 206.36 69.2752 206.521C74.2129 206.615 78.4663 203.1 80.8815 200.578C82.3977 198.995 84.5311 198.149 86.7182 198.19C91.1192 198.27 94.6078 201.906 94.5273 206.307L93.427 260.362H213.623L213.81 203.57C213.891 199.169 217.527 195.681 221.928 195.761C224.129 195.802 226.222 196.727 227.671 198.377C229.979 200.98 234.098 204.67 239.036 204.764C246.684 204.911 252.145 198.901 252.319 190.234C252.494 181.567 247.261 175.355 239.613 175.194C234.675 175.1 230.421 178.615 228.006 181.137C226.49 182.72 224.357 183.566 222.17 183.525C217.769 183.445 213.542 180.292 213.623 175.891V127.672H94.5809L95.064 178.145H95.0774Z" fill="#5C5C5C"/>
<path d="M95.0775 178.145C95.0775 178.145 95.0641 177.864 95.0507 177.3C95.0507 176.723 95.0238 175.891 94.997 174.791C94.9702 172.564 94.9165 169.264 94.8494 164.97C94.7421 156.357 94.5945 143.745 94.4066 127.686V127.498H94.5945C123.778 127.471 164.823 127.431 213.636 127.377H213.945V127.686C213.945 139.626 213.945 152.104 213.958 165.024C213.958 168.257 213.958 171.517 213.958 174.805C213.971 175.636 213.904 176.441 214.079 177.206C214.226 177.971 214.508 178.722 214.938 179.38C215.796 180.708 217.084 181.754 218.574 182.398C220.05 183.042 221.713 183.324 223.31 183.15C224.907 182.962 226.45 182.237 227.604 181.097C229.939 178.655 232.756 176.415 236.151 175.368C236.996 175.1 237.882 174.966 238.767 174.898C239.666 174.858 240.538 174.912 241.424 175.033C243.182 175.288 244.899 175.905 246.402 176.884C249.448 178.83 251.447 182.143 252.225 185.645C252.963 189.16 252.802 192.89 251.581 196.338C250.347 199.759 247.757 202.818 244.255 204.187C242.538 204.885 240.659 205.18 238.794 205.113C236.916 205.032 235.091 204.442 233.454 203.556C231.804 202.684 230.328 201.517 228.986 200.242C228.315 199.612 227.684 198.887 227.081 198.257C226.463 197.64 225.712 197.143 224.92 196.781C223.31 196.056 221.445 195.922 219.741 196.405C218.037 196.888 216.521 197.975 215.515 199.437C214.468 200.913 214.106 202.684 214.173 204.536C214.173 206.401 214.173 208.266 214.159 210.144C214.106 227.237 214.052 244.034 213.985 260.375V260.724H213.636C170.015 260.711 129.293 260.697 93.4405 260.684H93.1319V260.375C93.3869 248.14 93.6418 236.413 93.8699 225.278C93.9907 219.71 94.098 214.276 94.2188 209.003C94.2188 207.689 94.3529 206.347 94.1919 205.113C94.0309 203.865 93.5479 202.671 92.8099 201.665C91.3742 199.625 88.9322 198.431 86.5304 198.458C85.3228 198.458 84.1287 198.74 83.0821 199.276C82.5588 199.545 82.0623 199.867 81.6061 200.242C81.1634 200.618 80.7608 201.074 80.3181 201.49C78.5738 203.167 76.6416 204.63 74.4948 205.596C70.1877 207.689 65.0219 206.763 61.6138 204.066C59.9098 202.684 58.6217 200.913 57.7764 199.008C56.9176 197.103 56.5285 195.064 56.4078 193.078C56.2065 189.12 57.0921 185.229 59.1584 182.251C61.1845 179.245 64.4047 177.394 67.5847 176.978C70.7781 176.415 73.8641 177.381 76.1854 178.87C78.5738 180.319 80.3583 182.264 81.9416 183.928C83.6859 185.471 85.8998 186.007 87.7649 185.86C89.6433 185.685 91.2266 184.921 92.2866 183.955C93.3869 183.015 94.0309 181.942 94.42 181.043C95.1714 179.219 95.0104 178.145 95.0775 178.159C95.0775 178.159 95.0775 178.414 95.0507 178.91C94.9836 179.406 94.8896 180.158 94.514 181.084C94.1383 181.996 93.5076 183.096 92.394 184.062C91.3205 185.041 89.7104 185.846 87.7917 186.034C85.8864 186.195 83.6054 185.672 81.8074 184.089C80.1705 182.385 78.4396 180.507 76.0646 179.084C73.7568 177.622 70.7647 176.723 67.6384 177.273C64.5389 177.703 61.426 179.5 59.4536 182.439C57.4543 185.35 56.5956 189.16 56.8103 193.051C57.0116 196.915 58.5546 201.061 61.8956 203.731C65.1829 206.32 70.1743 207.206 74.3204 205.18C76.4001 204.227 78.292 202.805 80.0094 201.141C80.4388 200.739 80.8279 200.283 81.311 199.867C81.7806 199.464 82.3173 199.115 82.8808 198.834C84.0079 198.27 85.2692 197.962 86.5573 197.962C89.12 197.935 91.7231 199.196 93.2527 201.369C94.0309 202.429 94.5542 203.704 94.7286 205.032C94.8896 206.387 94.7555 207.675 94.7689 209.003C94.6615 214.276 94.5676 219.71 94.4469 225.278C94.2322 236.427 94.0041 248.14 93.7626 260.375L93.4674 260.067C129.333 260.053 170.042 260.04 213.663 260.027L213.314 260.375C213.368 244.034 213.421 227.237 213.475 210.144C213.475 208.279 213.475 206.401 213.488 204.536C213.395 202.684 213.81 200.618 214.951 199.048C216.051 197.452 217.715 196.258 219.567 195.734C221.432 195.211 223.458 195.359 225.215 196.15C226.088 196.539 226.906 197.089 227.59 197.76C228.261 198.458 228.825 199.115 229.496 199.746C230.797 200.994 232.233 202.107 233.803 202.953C235.373 203.798 237.09 204.348 238.848 204.428C240.606 204.495 242.39 204.214 244.014 203.556C247.301 202.268 249.77 199.384 250.951 196.11C252.131 192.823 252.292 189.187 251.581 185.806C250.83 182.439 248.938 179.313 246.067 177.474C244.644 176.549 243.021 175.958 241.357 175.717C240.525 175.596 239.68 175.542 238.848 175.583C238.016 175.65 237.184 175.784 236.392 176.025C233.159 177.005 230.435 179.165 228.114 181.58C226.852 182.814 225.162 183.606 223.431 183.807C221.687 184.008 219.929 183.7 218.346 183.002C216.762 182.318 215.367 181.191 214.428 179.728C213.958 178.991 213.649 178.172 213.475 177.327C213.287 176.468 213.368 175.61 213.341 174.805C213.341 171.517 213.341 168.257 213.341 165.024C213.341 152.104 213.341 139.64 213.354 127.686L213.663 127.994C164.863 127.94 123.805 127.9 94.6213 127.873L94.8091 127.686C94.9299 143.745 95.0104 156.357 95.0775 164.97C95.1043 169.264 95.1177 172.551 95.1177 174.791C95.1177 175.891 95.1177 176.723 95.1177 177.3C95.1177 177.864 95.1043 178.145 95.1043 178.145H95.0775Z" fill="#333333"/>
<path d="M87.3354 198.311C85.3362 198.27 83.3772 199.116 81.9952 200.699C79.7947 203.208 75.9035 206.736 71.3952 206.642C64.4046 206.495 59.6279 200.269 59.7889 191.602C59.9499 182.935 64.9413 176.925 71.9319 177.072C76.4403 177.166 80.2106 180.856 82.3172 183.458C83.6455 185.109 85.5643 186.034 87.5635 186.075C91.5888 186.155 94.903 182.667 94.9835 178.266L94.5407 127.552L21.8169 127.659L0.348633 127.793V260.47H45.271H93.4673L94.4736 206.414C94.5541 202.014 91.3607 198.378 87.3354 198.297V198.311Z" fill="#5C5C5C"/>
<path d="M87.3356 198.311C87.3356 198.311 87.4296 198.311 87.6308 198.311C87.8187 198.311 88.1139 198.324 88.4895 198.404C89.2275 198.539 90.368 198.874 91.5488 199.8C92.7161 200.712 93.9103 202.295 94.3799 204.469C94.6348 205.555 94.5678 206.75 94.5543 207.997C94.5409 209.258 94.5141 210.6 94.5007 212.022C94.3128 223.4 94.0445 239.915 93.709 260.483V260.711H93.4809C68.0679 260.738 36.2948 260.765 0.362277 260.805H0.0268353V260.483C0.0268353 228.391 0.0134177 192.85 0 155.512C0 146.147 0 136.889 0 127.806V127.458H0.348859C17.3088 127.31 33.7723 127.297 49.5246 127.283C65.2904 127.27 80.345 127.256 94.5275 127.243H94.8361V127.552C94.9166 138.164 94.9971 148.334 95.0776 158.034C95.1179 162.877 95.1581 167.6 95.185 172.202C95.185 174.51 95.2789 176.737 95.185 179.017C94.9703 181.312 93.8029 183.472 92.0318 184.84C90.2741 186.236 87.8589 186.692 85.7658 186.075C84.7192 185.779 83.7531 185.243 82.9615 184.532C82.1564 183.807 81.6063 182.949 80.8951 182.237C79.5266 180.775 78.0104 179.487 76.3197 178.575C74.6425 177.636 72.764 177.193 70.9258 177.34C67.1957 177.488 64.0291 179.863 62.3251 182.761C60.5674 185.686 59.9502 189.013 59.9636 192.085C59.9636 195.171 60.6076 198.123 61.9494 200.538C63.2375 202.98 65.277 204.777 67.4775 205.69C69.6914 206.589 72.0261 206.736 73.985 206.186C75.9574 205.649 77.5541 204.603 78.8691 203.583C80.184 202.55 81.2038 201.477 82.0625 200.524C82.9481 199.572 83.9275 199.022 84.7326 198.726C85.5511 198.431 86.222 198.337 86.6647 198.324C87.1075 198.297 87.3356 198.324 87.3356 198.324C87.3356 198.378 86.3964 198.217 84.7729 198.82C83.9812 199.129 83.0286 199.679 82.1698 200.632C81.3245 201.598 80.3048 202.684 78.9898 203.744C77.6749 204.777 76.0648 205.851 74.0521 206.428C72.0529 207.004 69.6511 206.87 67.3701 205.971C65.0891 205.046 62.9826 203.194 61.6542 200.712C60.2856 198.257 59.6147 195.252 59.5879 192.112C59.5745 188.986 60.1648 185.592 61.9762 182.573C62.8752 181.084 64.0962 179.702 65.6258 178.696C67.142 177.662 68.9937 177.032 70.899 176.925C72.8043 176.764 74.8169 177.233 76.5478 178.186C78.2921 179.125 79.862 180.44 81.2574 181.929C81.982 182.653 82.5589 183.539 83.2969 184.183C84.0483 184.84 84.9473 185.337 85.9134 185.605C87.8589 186.169 90.0863 185.753 91.7232 184.438C93.3736 183.163 94.4738 181.124 94.6617 178.977C94.7422 176.804 94.6483 174.496 94.6483 172.215C94.608 167.627 94.5543 162.904 94.5141 158.047C94.4202 148.361 94.3262 138.177 94.2189 127.578L94.5275 127.887C80.345 127.914 65.277 127.954 49.5246 127.981C33.7589 127.994 17.3088 128.035 0.348859 128.182L0.697719 127.833C0.697719 136.916 0.697719 146.174 0.697719 155.538C0.697719 192.89 0.670884 228.417 0.670884 260.51L0.348859 260.188C36.2814 260.228 68.0679 260.255 93.4675 260.282L93.2394 260.51C93.6688 239.942 94.0042 223.44 94.2457 212.049C94.2726 210.627 94.3128 209.285 94.3397 208.024C94.3665 206.763 94.4336 205.596 94.1921 204.536C93.7493 202.416 92.6088 200.846 91.4683 199.934C90.3144 198.995 89.2007 198.646 88.4761 198.498C87.7382 198.337 87.3356 198.364 87.3356 198.337V198.311Z" fill="#333333"/>
<path opacity="0.3" d="M94.5676 260.483C94.5676 260.483 102.135 178.373 105.718 167.895C109.3 157.43 141.368 147.904 141.368 147.904L149.889 140.243L153.082 132.703V127.659H177.824L180.964 260.469H94.5542L94.5676 260.483Z" fill="black"/>
<path d="M250.521 78.5271L255.338 68.7062C253.165 62.8029 252.561 56.2422 253.902 49.6278C257.767 30.6031 276.323 18.3135 295.35 22.1775C314.376 26.0415 326.667 44.5966 322.802 63.6213C318.938 82.646 300.381 94.9356 281.355 91.0716C273.412 89.4616 266.649 85.2757 261.738 79.5736L250.508 78.5271H250.521Z" fill="white"/>
<path d="M250.521 78.5272C250.521 78.5272 250.79 78.5272 251.286 78.5808C251.81 78.6211 252.521 78.6748 253.46 78.7553C255.379 78.9163 258.17 79.1578 261.779 79.4529L261.631 79.6676C261.631 79.6676 261.631 79.6676 261.631 79.6542L261.135 78.6479L261.873 79.4932C264.825 82.8607 269.414 86.8186 275.948 89.2738C279.195 90.5216 282.912 91.2863 286.897 91.4608C290.882 91.6217 295.149 91.1119 299.375 89.6898C303.588 88.281 307.748 85.96 311.384 82.7534C315.02 79.5468 318.12 75.4414 320.226 70.7053C324.466 61.26 324.305 49.0509 318.455 39.1898L317.355 37.3517L316.094 35.6344L315.463 34.7757L314.765 33.9841L313.356 32.401C311.357 30.4287 309.237 28.6041 306.876 27.1819C302.206 24.2571 296.987 22.5264 291.794 21.9897C286.588 21.4933 281.463 22.191 276.874 23.8144C272.272 25.4244 268.206 27.9333 264.905 30.9386C258.263 36.9894 254.802 44.7979 253.836 51.6538C252.802 58.5633 254.01 64.4934 255.526 68.6794L255.553 68.7465L255.526 68.8002C253.943 71.9396 252.722 74.3546 251.877 76.0183C251.461 76.8233 251.152 77.4538 250.911 77.8966C250.696 78.3259 250.562 78.554 250.562 78.554C250.562 78.554 250.642 78.3528 250.843 77.9368C251.058 77.4807 251.353 76.8635 251.729 76.0585C252.548 74.3546 253.728 71.8726 255.258 68.666V68.7867C253.675 64.5739 252.4 58.6036 253.393 51.5867C254.332 44.6369 257.794 36.6809 264.53 30.5092C267.871 27.4368 272.003 24.8743 276.673 23.224C281.342 21.5604 286.561 20.8359 291.861 21.3323C297.148 21.869 302.488 23.6265 307.251 26.605C309.667 28.054 311.827 29.9189 313.866 31.918L315.302 33.528L316.013 34.333L316.657 35.205L317.945 36.9626L319.072 38.8409C325.043 48.9034 325.191 61.3674 320.857 70.9736C318.71 75.8036 315.53 79.9896 311.827 83.2364C308.124 86.4966 303.884 88.8445 299.59 90.2533C295.296 91.6754 290.949 92.1852 286.91 91.984C282.871 91.7962 279.101 90.9912 275.827 89.7032C269.226 87.1674 264.623 83.1291 261.685 79.681L261.927 79.52V79.5334L262.047 79.7749L261.779 79.7481C258.129 79.359 255.312 79.0638 253.379 78.8626C252.467 78.7553 251.769 78.6882 251.259 78.6211C250.79 78.5674 250.562 78.5272 250.562 78.5272H250.521Z" fill="#333333"/>
<path d="M271.601 57.2753L276.149 52.7271L284.924 60.5355L302.153 43.9526L306.379 48.5009L284.28 69.31L271.601 57.2753Z" fill="#1D1D1D"/>
<path d="M212.268 541.037L211.14 570.62C211.14 570.62 240.834 581.702 241.156 587.19L183.715 587.069L183.581 540.903L212.268 541.037Z" fill="#333333"/>
<path d="M193.389 568.085C192.275 568.38 191.511 569.641 191.766 570.754C192.02 571.881 193.282 572.673 194.395 572.391C195.509 572.11 196.489 570.634 196.099 569.547C195.724 568.46 194.181 567.602 193.174 568.152" fill="#E0E0E0"/>
<path d="M183.728 587.056L183.902 582.4L238.915 584.252C238.915 584.252 241.464 585.365 241.183 587.176L183.741 587.056H183.728Z" fill="#5C5C5C"/>
<path d="M212.079 570.325C212.079 570.607 210.671 570.728 209.289 571.626C207.88 572.485 207.169 573.706 206.914 573.585C206.659 573.532 207.075 571.855 208.765 570.795C210.443 569.721 212.147 570.057 212.079 570.312V570.325Z" fill="white"/>
<path d="M218.091 572.821C218.158 573.089 216.937 573.572 215.984 574.753C214.991 575.906 214.75 577.194 214.468 577.181C214.2 577.221 214.012 575.584 215.233 574.135C216.44 572.673 218.091 572.566 218.091 572.834V572.821Z" fill="white"/>
<path d="M221.499 580.039C221.244 580.092 220.855 578.697 221.579 577.168C222.29 575.625 223.619 575.021 223.739 575.262C223.9 575.49 223.042 576.309 222.465 577.584C221.861 578.831 221.78 580.025 221.499 580.052V580.039Z" fill="white"/>
<path d="M211.583 563.55C211.462 563.805 210.174 563.415 208.591 563.523C207.008 563.59 205.773 564.127 205.626 563.885C205.465 563.684 206.672 562.651 208.537 562.543C210.402 562.436 211.717 563.322 211.583 563.55Z" fill="white"/>
<path d="M141.959 537.012L138.846 572.686L144.521 601.613C144.924 603.692 143.488 605.691 141.382 605.96C140.201 606.107 139.034 605.691 138.228 604.806C133.103 599.224 114.385 578.603 114.761 576C115.19 572.995 115.539 538.152 115.539 538.152L141.959 536.998V537.012Z" fill="#333333"/>
<path d="M141.381 605.959L114.908 573.599L114.814 575.115C114.734 576.43 115.11 577.718 115.888 578.777C117.981 581.595 123.952 589.229 138.121 604.819C138.939 605.731 140.174 606.161 141.381 605.973V605.959Z" fill="#5C5C5C"/>
<g opacity="0.6">
<path d="M122.986 562.544C123.845 563.214 124.046 564.596 123.402 565.482C122.758 566.367 121.362 566.582 120.504 565.925C119.632 565.267 119.336 563.617 120.074 562.812C120.812 562.007 122.463 561.833 123.147 562.691" fill="white"/>
</g>
<path d="M134.217 589.819C134.418 589.927 135.344 588.116 137.531 587.243C139.691 586.304 141.637 586.935 141.69 586.72C141.731 586.64 141.288 586.331 140.469 586.157C139.651 585.982 138.43 586.023 137.236 586.519C136.042 587.015 135.143 587.847 134.686 588.558C134.217 589.269 134.136 589.793 134.217 589.819Z" fill="white"/>
<path d="M136.457 594.77C136.618 594.931 137.839 593.844 139.718 593.442C141.596 592.986 143.166 593.442 143.233 593.214C143.354 593.039 141.677 592.167 139.543 592.677C137.396 593.16 136.269 594.663 136.457 594.783V594.77Z" fill="white"/>
<path d="M129.869 583.38C130.03 583.554 131.895 581.877 134.767 580.978C137.625 580.039 140.12 580.321 140.147 580.079C140.214 579.891 137.598 579.22 134.525 580.227C131.453 581.193 129.695 583.259 129.869 583.38Z" fill="white"/>
<path d="M129.91 572.458C129.99 572.673 132.016 571.975 134.592 572.056C137.169 572.096 139.168 572.874 139.262 572.659C139.369 572.485 137.383 571.318 134.619 571.264C131.855 571.197 129.816 572.284 129.923 572.458H129.91Z" fill="white"/>
<path d="M130.554 561.967C130.648 562.181 132.714 561.121 135.424 561.417C138.135 561.658 139.946 563.107 140.094 562.906C140.161 562.839 139.798 562.356 139.007 561.833C138.215 561.309 136.967 560.773 135.518 560.625C134.056 560.477 132.727 560.759 131.855 561.121C130.97 561.484 130.527 561.873 130.581 561.967H130.554Z" fill="white"/>
<path d="M135.491 559.404C135.491 559.404 135.652 558.934 135.625 558.049C135.599 557.177 135.438 555.889 134.78 554.44C134.431 553.756 134.082 552.87 133.116 552.333C132.633 552.065 131.895 552.105 131.439 552.548C130.983 552.977 130.822 553.554 130.768 554.131C130.661 556.399 132.472 558.72 134.995 559.216C137.544 559.659 139.959 558.344 141.1 556.452C141.355 555.956 141.543 555.352 141.315 554.722C141.086 554.091 140.375 553.809 139.852 553.863C138.779 553.957 138.067 554.52 137.423 554.936C136.122 555.849 135.303 556.841 134.807 557.553C134.31 558.277 134.136 558.733 134.176 558.747C134.297 558.854 135.196 557.043 137.732 555.392C138.363 555.017 139.114 554.534 139.879 554.507C140.255 554.507 140.563 554.668 140.684 554.977C140.805 555.272 140.697 555.714 140.483 556.104C139.517 557.646 137.316 558.854 135.169 558.438C133.036 558.049 131.453 556.01 131.52 554.172C131.546 553.729 131.694 553.299 131.936 553.045C132.177 552.803 132.539 552.749 132.861 552.91C133.546 553.232 133.962 554.011 134.297 554.668C135.639 557.392 135.344 559.417 135.505 559.391L135.491 559.404Z" fill="white"/>
<path d="M239.935 291.663C239.935 291.663 244.295 308.527 242.712 329.068C242.095 337.011 215.273 556.895 215.273 556.895H179.059L189.243 350.24L186.277 350.884C186.277 350.884 166.513 439.031 164.89 453.292C163.44 466.119 146.762 559.31 146.762 559.31L113.647 559.686L124.221 436.428L136.525 318.161L141.154 283.734L239.921 291.676L239.935 291.663Z" fill="#333333"/>
<path d="M187.928 336.219C187.928 336.219 187.995 336.327 188.156 336.461C188.33 336.595 188.626 336.77 189.042 336.877C189.86 337.105 191.229 336.998 192.477 336.058C193.778 335.146 194.556 333.321 194.825 331.376C195.08 329.404 195.12 327.297 195.267 325.057C195.509 320.589 195.697 316.537 195.791 313.599C195.885 310.661 195.898 308.85 195.791 308.836C195.697 308.836 195.509 310.634 195.281 313.559C195.053 316.484 194.798 320.535 194.556 325.003C194.409 327.23 194.382 329.39 194.167 331.269C193.953 333.147 193.268 334.797 192.168 335.643C191.081 336.528 189.86 336.716 189.095 336.582C188.317 336.461 187.955 336.126 187.915 336.193L187.928 336.219Z" fill="#5C5C5C"/>
<path d="M134.646 314.954C134.646 314.954 134.995 315.142 135.666 315.316C136.337 315.491 137.316 315.692 138.564 315.799C141.033 316.027 144.562 315.799 148.104 314.377C151.66 312.955 154.37 310.674 155.98 308.796C156.799 307.857 157.376 307.038 157.738 306.448C158.1 305.858 158.261 305.509 158.221 305.482C158.114 305.415 157.309 306.716 155.618 308.46C153.941 310.205 151.271 312.338 147.836 313.72C144.401 315.102 140.993 315.41 138.578 315.303C136.149 315.209 134.66 314.833 134.633 314.954H134.646Z" fill="#5C5C5C"/>
<path d="M225.511 305.764C225.43 305.764 225.511 307.186 226.061 309.4C226.611 311.6 227.779 314.592 229.697 317.503C231.643 320.415 233.937 322.628 235.762 323.997C237.587 325.379 238.862 325.983 238.902 325.915C239.063 325.728 234.071 322.883 230.288 317.114C226.437 311.399 225.739 305.697 225.511 305.764Z" fill="#5C5C5C"/>
<path d="M222.036 71.4432C225.309 71.6444 228.53 69.0953 229.053 65.8619C229.59 62.6285 227.362 59.167 224.196 58.3084C226.114 56.1349 226.45 52.7002 224.987 50.2047C223.525 47.6958 220.385 46.3005 217.541 46.9043C217.272 44.0465 215.434 41.4035 212.844 40.1557C210.255 38.9214 207.035 39.1361 204.646 40.7192C201.345 38.1701 196.247 38.3311 193.12 41.0681C190.316 40.6924 187.364 42.3292 186.183 44.9052C185.003 47.4812 185.7 50.7817 187.82 52.66" fill="#333333"/>
<path d="M192.02 47.736L193.482 47.6689C208.255 46.931 221.123 57.6643 223.041 72.342C224.826 85.9867 226.624 101.08 226.906 108.433C227.469 123.66 212.374 126.786 212.374 126.786L214.575 145.006L177.582 145.69L171.021 79.5467C168.874 63.8091 176.241 49.4533 192.033 47.736H192.02Z" fill="#C17560"/>
<path d="M212.509 126.746C212.509 126.746 202.821 127.82 192.275 121.903C192.275 121.903 197.508 132.623 212.63 130.503L212.509 126.76V126.746Z" fill="#7C4236"/>
<path d="M219.365 86.3757C219.459 87.5162 218.574 88.5492 217.38 88.67C216.185 88.7907 215.139 87.9723 215.045 86.8185C214.951 85.6781 215.837 84.645 217.031 84.5243C218.225 84.4035 219.271 85.2219 219.365 86.3757Z" fill="#333333"/>
<path d="M220.157 79.9359C219.902 80.2311 218.198 79.0907 215.85 79.2249C213.515 79.3188 211.852 80.6068 211.583 80.325C211.449 80.2043 211.704 79.681 212.415 79.1041C213.126 78.5272 214.347 77.9369 215.81 77.8698C217.272 77.8027 218.52 78.2857 219.245 78.7955C219.996 79.3054 220.264 79.8152 220.13 79.9494L220.157 79.9359Z" fill="#333333"/>
<path d="M197.722 86.9661C197.816 88.1065 196.931 89.1396 195.737 89.2603C194.542 89.3811 193.496 88.5627 193.402 87.4088C193.308 86.2684 194.193 85.2353 195.388 85.1146C196.582 84.9938 197.628 85.8123 197.722 86.9661Z" fill="#333333"/>
<path d="M197.186 81.5189C196.931 81.8141 195.227 80.6737 192.879 80.8079C190.544 80.9018 188.88 82.1898 188.612 81.908C188.478 81.7873 188.733 81.264 189.457 80.6871C190.168 80.1102 191.389 79.5199 192.852 79.4528C194.314 79.3857 195.562 79.8687 196.287 80.3785C197.025 80.8884 197.307 81.3982 197.172 81.5324L197.186 81.5189Z" fill="#333333"/>
<path d="M206.538 98.4372C206.524 98.303 207.96 97.981 210.308 97.5651C210.899 97.4712 211.462 97.3236 211.543 96.9211C211.663 96.4784 211.382 95.8478 211.06 95.177C210.429 93.7548 209.758 92.279 209.074 90.7227C206.296 84.3766 204.257 79.1307 204.512 79.0234C204.767 78.9161 207.222 83.9741 210 90.3202C210.67 91.8899 211.315 93.3791 211.918 94.8147C212.173 95.4855 212.603 96.2369 212.348 97.1492C212.214 97.6054 211.784 97.9542 211.408 98.0749C211.033 98.2091 210.697 98.2359 210.402 98.2628C208.041 98.5043 206.565 98.5982 206.551 98.464L206.538 98.4372Z" fill="#333333"/>
<path d="M198.769 72.4224C198.487 73.0262 196.448 72.4895 193.979 72.5298C191.51 72.5298 189.457 73.0798 189.189 72.4761C189.082 72.1809 189.484 71.6308 190.356 71.1076C191.215 70.5844 192.543 70.155 194.019 70.1416C195.495 70.1416 196.81 70.5575 197.642 71.0539C198.487 71.5638 198.876 72.1138 198.756 72.3956L198.769 72.4224Z" fill="#333333"/>
<path d="M219.794 70.2892C219.325 70.8393 217.366 70.3831 215.045 70.477C212.723 70.5039 210.778 71.0405 210.295 70.5173C210.08 70.2624 210.362 69.7123 211.194 69.1622C212.012 68.6256 213.408 68.1426 215.004 68.1023C216.601 68.0621 218.01 68.478 218.842 68.9878C219.687 69.4976 219.982 70.0209 219.781 70.3026L219.794 70.2892Z" fill="#333333"/>
<path d="M221.244 65.4325C221.244 65.4325 216.762 56.108 212.053 54.1089C206.35 51.6939 204.27 57.9192 198.89 56.6983C193.509 55.4774 188.075 53.1563 182.856 57.5301C177.153 62.3064 180.078 65.3252 180.052 72.0871C179.931 99.5374 175.315 107.52 173.249 94.7075C173.021 93.2987 169.049 92.373 168.163 86.4295C167.023 78.7283 166.258 69.3501 167.721 63.7689C168.942 59.073 171.424 55.7323 175.986 51.9757C183.178 46.0321 193.442 45.415 200.446 45.7638C207.45 46.1126 221.284 53.4649 221.244 65.4325Z" fill="#333333"/>
<path d="M174.201 94.238C173.987 91.8901 171.867 90.1459 169.545 90.4813C166.714 90.8972 163.642 92.6548 164.125 98.5179C164.97 108.902 175.235 105.91 175.221 105.615C175.221 105.414 174.604 98.5849 174.201 94.2514V94.238Z" fill="#C17560"/>
<path d="M172.632 101.872C172.632 101.872 172.457 102.02 172.162 102.181C171.88 102.342 171.37 102.476 170.807 102.315C169.68 102.006 168.606 100.329 168.405 98.4641C168.298 97.525 168.432 96.5992 168.7 95.8345C168.955 95.0429 169.398 94.4794 169.948 94.3318C170.485 94.1574 170.901 94.4526 171.062 94.7343C171.223 95.0161 171.182 95.2307 171.236 95.2442C171.263 95.271 171.451 95.0563 171.33 94.627C171.276 94.4257 171.129 94.1842 170.874 94.0098C170.605 93.822 170.23 93.7549 169.854 93.822C169.062 93.9427 168.392 94.7343 168.096 95.593C167.748 96.4517 167.587 97.4847 167.707 98.5446C167.949 100.638 169.183 102.503 170.713 102.811C171.464 102.945 172.055 102.677 172.35 102.395C172.645 102.113 172.685 101.872 172.645 101.859L172.632 101.872Z" fill="#7C4236"/>
<path d="M173.396 74.0593C174.792 74.918 176.268 75.7901 177.905 75.8706C179.542 75.951 181.353 74.918 181.554 73.2946C181.648 72.5701 181.42 71.7382 181.876 71.1479C182.413 70.4503 183.473 70.6112 184.345 70.6649C187.391 70.8393 190.759 67.3242 191.376 64.3323C192.208 65.4459 193.912 65.7142 195.039 64.9092C196.166 64.1042 196.569 63.6481 197.441 62.5613C198.3 61.4746 199.534 60.4683 200.93 60.6025C201.708 60.6696 202.446 61.0989 203.211 60.9916C204.566 60.8037 205.156 59.1669 205.304 57.7984C205.438 56.4299 205.532 54.8468 206.645 54.0418C207.679 53.3039 209.087 53.6259 210.362 53.76C211.623 53.8808 213.234 53.5051 213.502 52.2574C213.636 51.6 213.327 50.9426 212.938 50.3925C211.194 47.9238 207.598 46.9712 204.861 48.2324C203.667 44.8514 200.326 42.3291 196.743 42.1279C193.161 41.9266 189.551 44.0598 187.995 47.2932C185.7 45.4015 182.453 44.7307 179.595 45.5357C176.737 46.3407 174.322 48.6081 173.343 51.4121C170.78 50.8755 167.949 51.989 166.446 54.1357C164.943 56.2823 164.863 59.3279 166.258 61.5551C164.447 62.7223 162.931 64.6543 162.998 66.8144C163.065 68.9744 165.265 71.0138 167.318 70.3429C166.567 72.0602 167.358 74.3008 169.022 75.1595C170.699 76.0181 172.981 75.3473 173.933 73.7373" fill="#333333"/>
<path d="M205.773 51.2646C205.773 51.2646 205.773 51.3317 205.773 51.4524C205.773 51.5732 205.773 51.761 205.733 52.0159C205.666 52.4989 205.505 53.2234 205.076 54.0553C204.646 54.8737 203.962 55.8397 202.889 56.6312C201.842 57.4228 200.379 58.0668 198.689 58.0534L198.85 57.8119C199.212 58.684 199.185 59.7573 198.783 60.6965C198.407 61.649 197.79 62.5077 197.132 63.3395C196.797 63.742 196.502 64.2116 196.032 64.5873C195.563 64.9495 194.999 65.1776 194.409 65.2849C193.241 65.4996 191.899 65.191 191 64.2519L191.39 64.1177C191.229 66.1973 190.155 68.3305 188.344 69.6856C187.391 70.4503 186.184 70.9467 184.989 70.9736C183.782 71.0272 182.641 70.7186 181.581 70.3966L181.85 70.2625C181.353 71.5773 180.548 72.7311 179.542 73.5898C178.562 74.4485 177.221 74.9985 175.973 74.757C173.49 74.3545 171.76 72.3957 171.344 70.4906L171.585 70.5845C170.404 71.309 169.089 71.4431 168.029 71.2821C166.956 71.1346 166.097 70.7186 165.48 70.2893C164.863 69.86 164.487 69.3904 164.259 69.0818C164.044 68.7464 163.964 68.5586 163.964 68.5586C164.018 68.5183 164.353 69.3367 165.574 70.1551C166.191 70.5442 167.023 70.9333 168.056 71.0406C169.076 71.1614 170.31 71.0138 171.397 70.3161L171.585 70.1954L171.639 70.4101C172.055 72.181 173.719 74.0191 176.026 74.3545C177.153 74.5558 178.334 74.0728 179.273 73.2544C180.213 72.436 180.977 71.3358 181.434 70.0881L181.501 69.8868L181.702 69.9405C182.749 70.2491 183.849 70.5308 184.963 70.4906C186.076 70.4637 187.15 70.021 188.062 69.2965C189.766 68.0085 190.772 66.0228 190.933 64.0506L190.974 63.5542L191.323 63.9164C192.087 64.7214 193.281 65.0166 194.328 64.8288C194.851 64.7348 195.361 64.5336 195.764 64.225C196.153 63.9299 196.461 63.4603 196.81 63.0578C197.468 62.2394 198.072 61.4075 198.434 60.522C198.81 59.65 198.85 58.6974 198.528 57.9058L198.434 57.6643H198.702C200.299 57.6911 201.708 57.1142 202.728 56.3629C203.774 55.625 204.458 54.7127 204.901 53.9211C205.773 52.2977 205.679 51.1975 205.76 51.2244L205.773 51.2646Z" fill="#5C5C5C"/>
<path d="M206.431 106.474C206.35 106.085 203.814 106.756 201.453 105.052C199.078 103.361 198.649 100.584 198.3 100.665C198.125 100.665 197.964 101.389 198.233 102.543C198.488 103.67 199.279 105.213 200.728 106.246C202.177 107.279 203.801 107.453 204.861 107.266C205.948 107.078 206.498 106.635 206.431 106.461V106.474Z" fill="#333333"/>
<path d="M314.953 196.593L275.948 226.968C275.948 226.968 270.768 204.2 256.948 170.176C254.855 165.037 252.641 160.986 250.561 157.819C250.4 157.484 250.239 157.175 250.092 156.893C244.926 147.234 234.058 142.967 227.309 142.551C226.289 142.484 223.739 142.565 220.17 142.752L217.661 141.934L214.776 133.347L207.88 140.968L174.953 125.405L171.786 137.574L148.345 147.904C148.345 147.904 126.77 152.734 124.033 171.289C120.866 192.649 118.102 241.525 118.102 241.525L144.83 227.827L138.376 276.69L139.959 294.695L201.278 304.717C204.579 305.2 207.933 305.2 211.248 304.717L241.451 300.263L245.1 291.663L241.692 237.151V233.623C245.436 243.269 254.144 263.26 263.013 266.587C271.627 269.821 317.462 226.995 317.462 226.995L314.98 196.62L314.953 196.593Z" fill="#E0E0E0"/>
<path d="M174.939 125.405C174.939 125.405 178.616 126.465 188.075 131.509C197.334 136.447 207.866 140.968 207.866 140.968L207.061 155.834L172.028 138.244" fill="#E0E0E0"/>
<path d="M214.75 133.347L207.853 140.968L211.543 156.907L217.688 142.498" fill="#E0E0E0"/>
<g opacity="0.3">
<path d="M207.987 142.618C208.296 142.846 210.201 161.012 210.201 161.012L175.087 139.801L207.061 155.847L207.987 142.632V142.618Z" fill="black"/>
</g>
<path d="M207.745 210.399C207.222 196.513 209.409 161.066 209.409 161.066L213.985 160.328C213.985 160.328 222.532 194.782 225.725 236.99C227.013 254.07 227.013 273.859 227.013 273.859L217.822 293.595L207.665 273.993C207.665 273.993 208.389 227.277 207.745 210.399Z" fill="#5C5C5C"/>
<path d="M141.462 152.144C141.409 152.211 142.415 152.989 143.837 154.465C145.26 155.928 147.044 158.128 148.52 160.865C149.983 163.615 150.841 166.312 151.271 168.311C151.713 170.31 151.807 171.571 151.888 171.571C151.928 171.571 151.928 171.249 151.888 170.672C151.874 170.095 151.781 169.264 151.593 168.244C151.244 166.205 150.425 163.427 148.923 160.637C147.42 157.846 145.555 155.632 144.052 154.224C143.301 153.513 142.657 152.976 142.187 152.64C141.717 152.305 141.449 152.131 141.436 152.157L141.462 152.144Z" fill="#333333"/>
<path d="M207.745 148.079L210.885 146.858L213.85 151.956L214.387 160.328L210.201 160.999L207.061 155.834L207.745 148.079Z" fill="#5C5C5C"/>
<path d="M241.665 172.993C241.531 172.993 241.424 191.119 241.424 213.485C241.424 235.85 241.531 253.976 241.665 253.976C241.8 253.976 241.907 235.85 241.907 213.485C241.907 191.119 241.8 172.993 241.665 172.993Z" fill="#333333"/>
<path d="M207.531 140.834C207.531 140.834 208.202 142.001 209.316 143.866C210.429 145.731 211.905 148.334 213.301 151.326C213.421 151.567 213.529 151.822 213.636 152.05L213.851 152.52L214.079 152.05C215.434 149.206 216.4 146.563 217.004 144.631C217.312 143.665 217.527 142.873 217.661 142.336C217.796 141.786 217.849 141.478 217.822 141.478C217.755 141.464 217.38 142.632 216.695 144.537C216.011 146.428 214.991 149.045 213.636 151.862H214.079C213.971 151.634 213.864 151.393 213.743 151.138C212.335 148.119 210.805 145.516 209.611 143.691C209.02 142.779 208.51 142.055 208.135 141.572C207.773 141.089 207.544 140.82 207.518 140.847L207.531 140.834Z" fill="#333333"/>
<path d="M171.773 137.574C171.773 137.574 171.934 137.694 172.256 137.869C172.631 138.057 173.101 138.312 173.678 138.607C174.966 139.278 176.751 140.19 178.911 141.317C183.325 143.611 189.377 146.885 196.072 150.467C200.151 152.641 204.015 154.653 207.383 156.343L207.692 156.504V156.156C207.732 151.795 207.772 148.119 207.799 145.463C207.799 144.215 207.799 143.209 207.799 142.444C207.799 141.746 207.772 141.371 207.745 141.371C207.719 141.371 207.692 141.746 207.665 142.444C207.638 143.195 207.598 144.201 207.544 145.449C207.477 148.106 207.383 151.782 207.262 156.142L207.571 155.954C204.23 154.237 200.379 152.211 196.3 150.038C189.605 146.455 183.527 143.235 179.058 141.008C176.831 139.895 175.02 139.023 173.745 138.432C173.155 138.164 172.672 137.949 172.283 137.775C171.947 137.627 171.759 137.56 171.759 137.574H171.773Z" fill="#333333"/>
<path d="M237.425 149.018C237.358 149.058 237.909 149.997 238.62 151.58C239.331 153.164 240.149 155.431 240.632 158.047C241.102 160.65 241.156 163.065 241.048 164.796C240.954 166.527 240.766 167.6 240.847 167.613C240.874 167.613 240.954 167.358 241.062 166.875C241.182 166.392 241.29 165.695 241.384 164.823C241.572 163.078 241.585 160.61 241.102 157.953C240.605 155.297 239.72 153.003 238.928 151.433C238.526 150.641 238.177 150.024 237.895 149.622C237.627 149.206 237.452 148.991 237.425 149.018Z" fill="#333333"/>
<path d="M210.966 161.549C211.033 161.656 211.838 161.294 212.75 160.717C213.663 160.14 214.347 159.59 214.266 159.469C214.186 159.349 213.394 159.724 212.482 160.301C211.569 160.878 210.898 161.428 210.966 161.549Z" fill="#333333"/>
<path d="M209.463 159.496C209.584 159.55 210.536 157.658 211.596 155.257C212.643 152.855 213.408 150.869 213.274 150.816C213.153 150.762 212.2 152.654 211.14 155.055C210.094 157.457 209.329 159.443 209.463 159.496Z" fill="#333333"/>
<path d="M137.786 153.124C137.786 153.124 126.918 160.945 125.562 165.266C124.207 169.586 118.424 239.808 117.418 248.167C116.412 256.525 115.378 272.142 121.832 277.24C128.286 282.339 142.214 286.149 142.214 286.149L155.081 259.584L148.265 245.322L155.081 191.991L137.799 153.137L137.786 153.124Z" fill="#E0E0E0"/>
<path d="M139.101 285.196C139.101 285.196 139.342 285.156 139.799 285.142C140.255 285.129 140.926 285.142 141.798 285.008C143.502 284.794 146.118 284.351 148.748 282.499C151.391 280.715 153.833 277.522 155.376 273.43C156.933 269.338 157.845 264.414 157.886 259.141L157.953 259.329C154.867 255.049 151.485 250.38 147.97 245.51L147.889 245.403V245.268C147.956 244.92 147.997 244.531 148.05 244.141C149.969 229.182 151.713 215.645 152.975 205.77C153.605 200.913 154.115 196.955 154.477 194.151C154.652 192.823 154.786 191.777 154.893 190.998C154.974 190.274 155.028 189.898 155.054 189.898C155.054 189.898 155.068 189.992 155.054 190.18C155.054 190.368 155.054 190.65 155.014 191.012C154.947 191.803 154.853 192.863 154.732 194.192C154.464 196.942 154.008 200.927 153.444 205.851C152.29 215.685 150.627 229.262 148.721 244.249C148.668 244.638 148.627 245.014 148.574 245.376L148.507 245.134C152.009 250.004 155.376 254.687 158.449 258.967L158.516 259.047V259.141C158.449 264.521 157.496 269.485 155.859 273.644C154.236 277.804 151.7 281.064 148.949 282.848C147.594 283.774 146.212 284.338 144.991 284.686C144.683 284.767 144.387 284.847 144.106 284.928C143.81 284.981 143.542 285.022 143.274 285.075C142.737 285.183 142.254 285.236 141.811 285.25C140.926 285.344 140.255 285.29 139.785 285.277C139.329 285.263 139.087 285.236 139.087 285.223L139.101 285.196Z" fill="#333333"/>
<path d="M125.979 250.233C125.979 250.233 126.945 249.28 128.836 248.207C130.715 247.12 133.506 245.939 136.78 245.295C140.054 244.665 143.086 244.718 145.233 245.027C147.38 245.322 148.654 245.765 148.641 245.845C148.628 246.087 143.341 244.678 136.914 245.979C130.473 247.187 126.099 250.461 125.992 250.246L125.979 250.233Z" fill="#333333"/>
<path d="M189.136 213.162C188.733 217.778 184.654 221.199 180.038 220.796C177.731 220.595 175.597 219.468 174.188 217.644C171.948 214.746 167.869 210.573 162.689 210.117C154.666 209.419 148.48 215.349 147.688 224.459C146.897 233.569 151.942 240.479 159.979 241.176C165.158 241.632 169.895 238.225 172.605 235.756C174.309 234.2 176.617 233.462 178.925 233.663C183.54 234.065 186.962 238.131 186.559 242.759L181.568 299.525L307.976 308.058L312.202 248.341C312.605 243.725 316.684 240.304 321.3 240.707C323.607 240.908 325.741 242.035 327.15 243.859C329.39 246.757 333.469 250.93 338.649 251.386C346.672 252.084 352.845 246.154 353.65 237.044C354.441 227.947 349.396 221.024 341.359 220.327C336.18 219.871 331.443 223.278 328.733 225.747C327.029 227.303 324.721 228.041 322.427 227.84C317.811 227.438 313.584 223.829 313.987 219.213L317.408 168.499L192.222 160.046L189.149 213.162H189.136Z" fill="#1D1D1D"/>
<g opacity="0.4">
<path d="M189.136 213.162C188.733 217.778 184.654 221.199 180.038 220.796C177.731 220.595 175.597 219.468 174.188 217.644C171.948 214.746 167.869 210.573 162.689 210.117C154.666 209.419 148.48 215.349 147.688 224.459C146.897 233.569 151.942 240.479 159.979 241.176C165.158 241.632 169.895 238.225 172.605 235.756C174.309 234.2 176.617 233.462 178.925 233.663C183.54 234.065 186.962 238.131 186.559 242.759L181.568 299.525L307.976 308.058L312.202 248.341C312.605 243.725 316.684 240.304 321.3 240.707C323.607 240.908 325.741 242.035 327.15 243.859C329.39 246.757 333.469 250.93 338.649 251.386C346.672 252.084 352.845 246.154 353.65 237.044C354.441 227.947 349.396 221.024 341.359 220.327C336.18 219.871 331.443 223.278 328.733 225.747C327.029 227.303 324.721 228.041 322.427 227.84C317.811 227.438 313.584 223.829 313.987 219.213L317.408 168.499L192.222 160.046L189.149 213.162H189.136Z" fill="black"/>
</g>
<path d="M180.629 212.559C180.226 217.174 176.161 220.595 171.532 220.193C169.224 219.991 167.09 218.864 165.681 217.04C163.441 214.142 159.362 209.969 154.182 209.513C146.159 208.815 139.973 214.746 139.182 223.855C138.39 232.952 143.435 239.875 151.472 240.572C156.651 241.029 161.388 237.621 164.098 235.152C165.802 233.596 168.11 232.858 170.418 233.059C175.034 233.462 178.455 237.527 178.053 242.156L173.061 298.921L299.469 307.454L303.696 247.737C304.098 243.122 308.177 239.7 312.793 240.103C315.101 240.304 317.234 241.431 318.643 243.256C320.884 246.154 324.963 250.326 330.142 250.782C338.166 251.48 344.338 245.55 345.143 236.44C345.934 227.344 340.889 220.421 332.852 219.723C327.673 219.267 322.937 222.675 320.226 225.143C318.522 226.7 316.214 227.438 313.92 227.236C309.304 226.834 305.078 223.225 305.48 218.61L308.902 167.895L183.715 159.442L180.642 212.559H180.629Z" fill="#1D1D1D"/>
<path d="M180.629 212.559C180.629 212.559 180.629 212.25 180.655 211.66C180.682 211.056 180.723 210.171 180.79 209.017C180.91 206.669 181.098 203.207 181.34 198.686C181.85 189.63 182.588 176.347 183.527 159.442V159.255H183.728C214.414 161.294 257.592 164.165 308.928 167.586H309.237L309.21 167.908C308.365 180.466 307.493 193.588 306.58 207.179C306.352 210.573 306.124 214.008 305.896 217.456C305.856 218.328 305.735 219.173 305.856 219.991C305.963 220.81 306.205 221.615 306.607 222.353C307.412 223.815 308.714 225.009 310.217 225.801C311.719 226.579 313.45 227.008 315.154 226.928C316.858 226.834 318.535 226.19 319.837 225.076C322.467 222.675 325.593 220.515 329.229 219.669C330.128 219.455 331.068 219.374 332.007 219.361C332.946 219.374 333.872 219.508 334.784 219.696C336.609 220.085 338.367 220.864 339.883 221.991C342.942 224.245 344.807 227.867 345.371 231.597C345.894 235.34 345.465 239.258 343.935 242.786C342.405 246.288 339.454 249.32 335.683 250.514C333.818 251.131 331.832 251.292 329.887 251.091C327.914 250.876 326.049 250.125 324.386 249.079C322.722 248.046 321.246 246.717 319.931 245.282C319.273 244.571 318.656 243.766 318.066 243.055C317.449 242.357 316.711 241.793 315.892 241.351C314.242 240.479 312.296 240.21 310.458 240.586C308.633 240.975 306.943 242.008 305.775 243.484C304.568 244.973 304.058 246.811 304.004 248.77C303.87 250.729 303.722 252.688 303.588 254.66C302.313 272.638 301.066 290.294 299.845 307.481L299.818 307.83L299.469 307.803C253.594 304.69 210.778 301.792 173.061 299.23L172.752 299.203L172.779 298.894C173.92 286.041 175.007 273.738 176.04 262.026C176.563 256.176 177.06 250.474 177.556 244.933C177.65 243.551 177.878 242.156 177.811 240.841C177.73 239.513 177.301 238.225 176.603 237.111C175.235 234.857 172.752 233.435 170.217 233.287C168.942 233.207 167.667 233.421 166.513 233.904C165.936 234.146 165.386 234.455 164.89 234.817C164.393 235.179 163.95 235.635 163.454 236.038C161.508 237.688 159.362 239.07 157.04 239.942C152.371 241.834 147.004 240.492 143.623 237.42C141.932 235.85 140.711 233.891 139.96 231.825C139.195 229.759 138.927 227.585 138.94 225.506C139.007 221.333 140.215 217.308 142.59 214.316C144.938 211.298 148.44 209.58 151.821 209.366C155.216 209.003 158.396 210.224 160.73 211.955C163.145 213.645 164.876 215.806 166.419 217.684C168.137 219.441 170.431 220.152 172.404 220.126C174.403 220.085 176.107 219.374 177.301 218.449C178.522 217.536 179.273 216.45 179.743 215.537C180.655 213.672 180.562 212.518 180.642 212.545C180.642 212.545 180.615 212.814 180.562 213.337C180.454 213.847 180.307 214.638 179.837 215.577C179.381 216.503 178.629 217.617 177.395 218.556C176.187 219.508 174.457 220.246 172.417 220.313C170.404 220.354 168.043 219.643 166.258 217.845C164.662 215.94 162.971 213.833 160.569 212.17C158.248 210.466 155.162 209.298 151.834 209.661C148.547 209.889 145.139 211.566 142.858 214.518C140.55 217.442 139.369 221.387 139.316 225.492C139.316 227.545 139.584 229.665 140.335 231.677C141.073 233.69 142.268 235.582 143.904 237.098C147.192 240.063 152.371 241.351 156.879 239.499C159.134 238.641 161.24 237.285 163.145 235.662C163.628 235.273 164.071 234.817 164.608 234.414C165.131 234.025 165.722 233.69 166.325 233.435C167.546 232.912 168.902 232.684 170.243 232.777C172.927 232.925 175.584 234.441 177.033 236.829C177.771 238.01 178.24 239.378 178.321 240.787C178.401 242.223 178.16 243.564 178.079 244.96C177.596 250.501 177.1 256.203 176.59 262.052C175.57 273.765 174.497 286.068 173.37 298.921L173.088 298.599C210.805 301.135 253.621 304.006 299.509 307.078L299.147 307.4C300.368 290.214 301.616 272.558 302.877 254.579C303.011 252.607 303.159 250.648 303.293 248.69C303.333 246.731 303.91 244.597 305.212 243.028C306.473 241.431 308.311 240.304 310.297 239.875C312.283 239.459 314.403 239.754 316.187 240.707C317.073 241.19 317.891 241.807 318.562 242.572C319.22 243.35 319.756 244.088 320.427 244.785C321.715 246.181 323.138 247.469 324.734 248.461C326.318 249.468 328.102 250.165 329.94 250.367C331.792 250.554 333.684 250.393 335.442 249.817C338.997 248.69 341.802 245.832 343.278 242.464C344.754 239.083 345.183 235.273 344.673 231.664C344.123 228.068 342.352 224.634 339.454 222.5C338.018 221.427 336.354 220.689 334.623 220.313C333.751 220.126 332.866 220.005 331.993 219.991C331.108 220.005 330.236 220.085 329.364 220.287C325.888 221.092 322.869 223.158 320.253 225.546C318.831 226.753 317.019 227.465 315.181 227.558C313.329 227.639 311.518 227.196 309.908 226.351C308.298 225.519 306.902 224.245 306.03 222.635C305.601 221.83 305.319 220.944 305.212 220.045C305.078 219.133 305.212 218.234 305.252 217.389C305.48 213.927 305.722 210.506 305.95 207.112C306.876 193.521 307.761 180.413 308.62 167.841L308.902 168.163C257.579 164.648 214.401 161.696 183.715 159.603L183.916 159.429C182.896 176.334 182.105 189.603 181.554 198.659C181.273 203.181 181.058 206.642 180.91 208.99C180.83 210.144 180.776 211.029 180.736 211.633C180.696 212.223 180.655 212.532 180.655 212.532L180.629 212.559Z" fill="#333333"/>
<path d="M165.882 270.68C165.882 270.68 170.243 267.312 173.463 267.164C176.697 267.03 180.91 268.291 181.755 267.862C182.601 267.446 184.56 265.595 185.834 267.151C187.096 268.707 188.639 274.329 181.903 275.872H177.261C177.261 275.872 177.824 280.514 178.951 282.339C180.078 284.163 195.804 303.966 195.804 303.966C195.804 303.966 197.776 305.938 196.783 307.897C195.804 309.869 191.591 308.742 191.591 308.742C191.591 308.742 188.639 311.412 185.271 310.151C181.903 308.89 180.494 307.897 180.494 307.897C180.494 307.897 176.845 310.849 172.913 307.897C168.982 304.945 155.859 288.51 155.859 288.51L160.542 270.116L165.882 270.68Z" fill="#C17560"/>
<path d="M152.237 259.812L165.896 270.679L155.873 288.524L135.88 281.265C135.88 281.265 136.457 260.201 152.25 259.812H152.237Z" fill="#C17560"/>
<path d="M306.352 186.598C306.352 186.598 307.05 181.835 317.073 183.458C323.352 184.478 320.065 188.543 320.065 188.543C320.065 188.543 323.58 191.924 319.381 194.822L320.038 195.305C320.038 195.305 325.043 197.814 320.723 202.268C320.723 202.268 322.306 205.139 320.146 207.299C317.985 209.46 312.591 206.575 312.591 206.575C312.591 206.575 304.97 206.454 304.527 204.442C304.098 202.429 305.614 201.611 306.044 201.329C306.473 201.047 311.37 200.685 311.37 200.685C311.37 200.685 304.702 200.618 304.098 199.303C303.025 196.982 303.306 194.594 311.37 194.889C311.37 194.889 305.373 194.768 304.675 193.507C303.883 192.058 304.836 190.314 306.996 189.308C309.156 188.302 311.089 188.463 311.089 188.463C311.089 188.463 305.48 189.616 306.339 186.598H306.352Z" fill="#C17560"/>
</g>
<defs>
<clipPath id="clip0_254_1226">
<rect width="630" height="606" fill="white"/>
</clipPath>
</defs>
</svg>
