<svg width="215" height="90" viewBox="0 0 215 90" fill="none" xmlns="http://www.w3.org/2000/svg">
<g clip-path="url(#clip0_113_8865)">
<path d="M57.1675 56.8698L67.4325 40.8971H58.3835C58.3068 40.437 58.274 39.9331 58.274 39.3744C58.274 38.8375 58.3068 38.3446 58.3835 37.8954H73.0306L73.2169 38.3884L62.8751 54.394H72.5705C72.6472 54.8979 72.6801 55.4238 72.6801 55.9496C72.6801 56.4535 72.6472 56.9356 72.5705 57.3957H57.3537L57.1675 56.8698Z" fill="#E6E6E6"/>
<path d="M86.7905 44.5454C86.7905 43.0446 86.407 42.0148 85.6511 41.4232C84.8952 40.8426 83.7887 40.5468 82.3426 40.5468C81.4553 40.5468 80.6227 40.6125 79.8558 40.7549C79.078 40.8973 78.333 41.0726 77.5881 41.3027C77.106 40.4701 76.865 39.4622 76.865 38.301C77.7305 38.0271 78.6726 37.808 79.7134 37.6546C80.7541 37.5012 81.7511 37.4245 82.7151 37.4245C85.2458 37.4245 87.1739 38.0052 88.4995 39.1555C89.8141 40.3058 90.4824 42.1572 90.4824 44.6878V56.892C89.595 57.0892 88.5214 57.3083 87.2506 57.5164C85.9798 57.7355 84.6871 57.8341 83.3724 57.8341C82.1345 57.8341 81.0061 57.7246 80.0092 57.4945C79.0123 57.2644 78.1577 56.9029 77.4566 56.388C76.7555 55.8841 76.2187 55.2377 75.8352 54.4489C75.4518 53.6602 75.2656 52.7071 75.2656 51.6006C75.2656 50.516 75.4847 49.552 75.9338 48.7303C76.372 47.9087 76.9746 47.2185 77.7414 46.6817C78.4974 46.1339 79.3738 45.7286 80.3707 45.4657C81.3567 45.2027 82.3974 45.0603 83.4929 45.0603C84.3036 45.0603 84.9719 45.0822 85.4868 45.1151C86.0017 45.148 86.4399 45.2027 86.8014 45.2466V44.5454H86.7905ZM86.7905 48.2373C86.407 48.1826 85.925 48.1387 85.3444 48.084C84.7637 48.0292 84.2708 48.0073 83.8654 48.0073C82.2879 48.0073 81.0937 48.3031 80.2721 48.8837C79.4505 49.4643 79.0342 50.3517 79.0342 51.5458C79.0342 52.3017 79.1766 52.9043 79.4505 53.3315C79.7243 53.7588 80.0749 54.0874 80.4912 54.3175C80.9075 54.5475 81.3676 54.69 81.8825 54.7338C82.3865 54.7886 82.8685 54.8105 83.3286 54.8105C83.9092 54.8105 84.5118 54.7776 85.1362 54.7119C85.7607 54.6461 86.3084 54.5585 86.7905 54.427V48.2373Z" fill="#E6E6E6"/>
<path d="M94.5905 37.8962C94.8425 37.8414 95.1054 37.8086 95.3683 37.7867C95.6312 37.7648 95.9051 37.7538 96.1899 37.7538C96.4419 37.7538 96.7048 37.7648 96.9897 37.7867C97.2636 37.8086 97.5374 37.8524 97.7894 37.8962C97.8113 37.951 97.8442 38.1044 97.888 38.3673C97.9209 38.6302 97.9647 38.9151 97.9976 39.2218C98.0304 39.5286 98.0742 39.8134 98.1071 40.0982C98.14 40.3831 98.1619 40.5583 98.1619 40.635C98.4139 40.2297 98.7206 39.8353 99.0712 39.4519C99.4217 39.0684 99.849 38.7288 100.342 38.4221C100.835 38.1153 101.394 37.8743 102.018 37.699C102.643 37.5237 103.333 37.4361 104.089 37.4361C105.228 37.4361 106.291 37.6223 107.266 38.0058C108.241 38.3892 109.073 38.9698 109.774 39.7696C110.476 40.5693 111.012 41.5881 111.407 42.8151C111.801 44.0421 111.998 45.4991 111.998 47.1753C111.998 50.5276 111.089 53.1459 109.281 55.0302C107.463 56.9145 104.899 57.8676 101.58 57.8676C101.021 57.8676 100.452 57.8347 99.8709 57.758C99.2903 57.6814 98.7754 57.5828 98.3481 57.4513V66.3908C98.0414 66.4455 97.7237 66.4784 97.3731 66.5003C97.0335 66.5222 96.7158 66.5332 96.4419 66.5332C96.168 66.5332 95.8503 66.5222 95.5107 66.5003C95.1711 66.4784 94.8534 66.4346 94.5795 66.3908V37.8962H94.5905ZM98.3591 54.2086C98.8411 54.3838 99.3341 54.5153 99.838 54.592C100.342 54.6687 100.999 54.7015 101.821 54.7015C102.73 54.7015 103.574 54.5591 104.33 54.2633C105.086 53.9675 105.743 53.5184 106.291 52.9158C106.838 52.3023 107.266 51.5355 107.583 50.6152C107.901 49.695 108.054 48.5885 108.054 47.3287C108.054 45.302 107.682 43.6915 106.937 42.4974C106.192 41.3033 104.965 40.7117 103.267 40.7117C102.632 40.7117 102.029 40.8213 101.437 41.0513C100.857 41.2814 100.331 41.621 99.8819 42.0811C99.4217 42.5412 99.0602 43.1109 98.7754 43.812C98.4905 44.5132 98.3591 45.3348 98.3591 46.2989V54.2086Z" fill="#E6E6E6"/>
<path d="M116.687 40.8533H114.211C114.156 40.6452 114.124 40.4151 114.102 40.1522C114.08 39.8892 114.069 39.6263 114.069 39.3744C114.069 39.1224 114.08 38.8595 114.102 38.5965C114.124 38.3336 114.167 38.0926 114.211 37.8954H120.379V57.4066C120.105 57.4614 119.787 57.4943 119.448 57.5162C119.108 57.5381 118.791 57.5491 118.517 57.5491C118.265 57.5491 117.969 57.5381 117.618 57.5162C117.279 57.4943 116.961 57.4505 116.687 57.4066V40.8533Z" fill="#E6E6E6"/>
<path d="M128.475 48.5772C128.53 50.7025 129.077 52.2691 130.129 53.2551C131.181 54.2411 132.737 54.7341 134.785 54.7341C136.582 54.7341 138.302 54.4164 139.923 53.781C140.131 54.1644 140.296 54.6245 140.416 55.1723C140.548 55.72 140.613 56.2568 140.646 56.7936C139.814 57.1442 138.893 57.4181 137.885 57.5934C136.889 57.7687 135.771 57.8563 134.555 57.8563C132.78 57.8563 131.258 57.6043 129.987 57.1113C128.716 56.6184 127.675 55.9172 126.854 55.0189C126.032 54.1206 125.429 53.0579 125.046 51.82C124.663 50.593 124.476 49.2455 124.476 47.7665C124.476 46.3204 124.663 44.973 125.024 43.7131C125.386 42.4533 125.955 41.3687 126.711 40.4375C127.467 39.5173 128.431 38.7723 129.581 38.2355C130.732 37.6877 132.101 37.4139 133.668 37.4139C135.015 37.4139 136.187 37.6439 137.206 38.104C138.225 38.5642 139.069 39.1886 139.759 39.9883C140.438 40.7881 140.964 41.7412 141.314 42.8367C141.665 43.9432 141.851 45.1373 141.851 46.43C141.851 46.7806 141.84 47.164 141.807 47.5474C141.786 47.9418 141.753 48.2814 141.731 48.5553H128.475V48.5772ZM138.137 45.7617C138.137 45.0496 138.039 44.3704 137.853 43.7241C137.666 43.0777 137.382 42.519 137.02 42.037C136.648 41.5549 136.187 41.1715 135.618 40.8757C135.048 40.5799 134.369 40.4375 133.58 40.4375C132.035 40.4375 130.852 40.9086 130.02 41.8398C129.198 42.7819 128.694 44.0856 128.519 45.7617H138.137Z" fill="#E6E6E6"/>
<path d="M146.014 37.8954C146.288 37.8406 146.562 37.8078 146.814 37.7858C147.066 37.7639 147.329 37.753 147.614 37.753C147.888 37.753 148.172 37.7639 148.446 37.7858C148.72 37.8078 148.983 37.8516 149.202 37.8954C149.279 38.2788 149.356 38.7718 149.432 39.3963C149.509 40.0207 149.542 40.5466 149.542 40.9738C150.079 40.1084 150.78 39.3634 151.656 38.728C152.533 38.0926 153.65 37.7749 155.019 37.7749C155.228 37.7749 155.436 37.7858 155.644 37.7968C155.863 37.8078 156.038 37.8297 156.192 37.8516C156.246 38.0816 156.279 38.3227 156.301 38.5746C156.323 38.8266 156.334 39.0895 156.334 39.3744C156.334 39.6811 156.312 39.9988 156.279 40.3275C156.246 40.6561 156.192 40.9738 156.148 41.2806C155.94 41.2258 155.732 41.2039 155.523 41.2039C155.304 41.2039 155.14 41.2039 155.009 41.2039C154.329 41.2039 153.672 41.3025 153.048 41.4887C152.423 41.675 151.864 42.0146 151.371 42.4966C150.878 42.9786 150.484 43.6359 150.188 44.4795C149.892 45.3121 149.75 46.3967 149.75 47.7113V57.4067C149.476 57.4614 149.158 57.4943 148.819 57.5162C148.479 57.5381 148.162 57.5491 147.888 57.5491C147.614 57.5491 147.296 57.5381 146.956 57.5162C146.617 57.4943 146.288 57.4505 145.981 57.4067V37.8954H146.014Z" fill="#E6E6E6"/>
<path d="M123.961 26.4148H120.28L122.888 23.8074C122.679 23.5226 122.449 23.2487 122.208 22.9967C121.956 22.7448 121.694 22.5147 121.398 22.3175L118.79 24.9248V21.2439C118.451 21.1891 118.1 21.1562 117.739 21.1562H117.728C117.366 21.1562 117.016 21.1891 116.676 21.2439V24.9248L114.069 22.3175C113.784 22.5257 113.51 22.7557 113.258 22.9967C113.006 23.2487 112.787 23.5116 112.579 23.8074L115.197 26.4148H111.516C111.516 26.4148 111.428 27.1049 111.428 27.4665C111.428 27.828 111.461 28.1785 111.516 28.5182H115.197L112.59 31.1255C112.995 31.6952 113.499 32.1991 114.08 32.6154L116.687 30.0081V33.689C117.027 33.7438 117.377 33.7767 117.739 33.7767H117.75C118.111 33.7767 118.462 33.7438 118.801 33.689V30.0081L121.409 32.6154C121.694 32.4073 121.967 32.1772 122.219 31.9362C122.471 31.6842 122.701 31.4213 122.899 31.1255L120.291 28.5182H123.972C124.027 28.1785 124.06 27.828 124.06 27.4665V27.4555C124.049 27.1049 124.027 26.7544 123.961 26.4148ZM119.316 27.4774C119.316 27.9485 119.229 28.3977 119.075 28.8139C118.659 28.9673 118.21 29.055 117.739 29.055C117.268 29.055 116.818 28.9673 116.402 28.8139C116.249 28.3977 116.161 27.9485 116.161 27.4774V27.4665C116.161 26.9954 116.249 26.5462 116.402 26.1299C116.818 25.9765 117.268 25.8889 117.739 25.8889C118.21 25.8889 118.659 25.9765 119.075 26.1299C119.229 26.5462 119.316 26.9954 119.316 27.4774Z" fill="#E6E6E6"/>
</g>
<defs>
<clipPath id="clip0_113_8865">
<rect width="100" height="50" fill="white" transform="translate(57.1665 20)"/>
</clipPath>
</defs>
</svg>
