<svg width="215" height="90" viewBox="0 0 215 90" fill="none" xmlns="http://www.w3.org/2000/svg">
<g clip-path="url(#clip0_113_8871)">
<path fill-rule="evenodd" clip-rule="evenodd" d="M139.82 41.4581C140.21 42.1306 140.337 42.8958 140.379 43.756L140.435 44.9025V52.92L140.491 54.0678C140.604 55.9422 141.987 57.3282 143.876 57.4461L145.017 57.5026V44.9025L145.074 43.756C145.121 42.9054 145.247 42.1258 145.643 41.4484C146.046 40.7537 146.625 40.1773 147.322 39.7771C148.018 39.3769 148.808 39.167 149.611 39.1684C150.415 39.1699 151.203 39.3827 151.899 39.7854C152.594 40.1881 153.171 40.7667 153.571 41.4629C153.961 42.1354 154.083 42.915 154.13 43.756L154.186 44.8989V52.92L154.243 54.0678C154.361 55.9518 155.732 57.3378 157.627 57.4461L158.769 57.5026V43.756C158.769 41.3252 157.803 38.9939 156.085 37.2748C154.366 35.5556 152.035 34.5893 149.605 34.5883C148.304 34.587 147.017 34.8633 145.832 35.3987C144.646 35.9342 143.588 36.7166 142.729 37.6936C141.869 36.717 140.812 35.9348 139.626 35.3992C138.44 34.8635 137.154 34.5867 135.853 34.5871C133.95 34.5871 132.184 35.1646 130.721 36.162C129.828 35.1658 127.831 34.5871 126.684 34.5871V57.5026L127.831 57.4461C129.749 57.3197 131.135 55.9711 131.209 54.0678L131.271 52.92V44.9025L131.327 43.756C131.375 42.8909 131.496 42.1306 131.887 41.4532C132.29 40.7589 132.869 40.1826 133.565 39.782C134.261 39.3813 135.05 39.1702 135.853 39.1698C136.657 39.1699 137.447 39.3814 138.143 39.7831C138.839 40.1847 139.417 40.7623 139.82 41.4581ZM61.3741 57.4473L62.5207 57.5026H79.707L79.6504 56.3597C79.4952 54.4756 78.161 53.0993 76.2709 52.9765L75.1244 52.92H64.8138L78.5604 39.1686L78.5039 38.0268C78.4148 36.1235 77.024 34.7484 75.1244 34.6437L73.9778 34.592L56.7915 34.5871L56.848 35.7337C56.9984 37.5997 58.3519 39.0049 60.2264 39.1132L61.3741 39.1698H71.6847L57.9381 52.9212L57.9946 54.0678C58.1077 55.9566 59.4708 57.3246 61.3741 57.4461V57.4473ZM122.186 37.9414C123.25 39.0053 124.094 40.2684 124.67 41.6587C125.246 43.0489 125.543 44.5389 125.543 46.0437C125.543 47.5485 125.246 49.0385 124.67 50.4287C124.094 51.8189 123.25 53.082 122.186 54.146C120.036 56.2942 117.121 57.5009 114.082 57.5009C111.043 57.5009 108.128 56.2942 105.978 54.146C101.504 49.6716 101.504 42.4157 105.978 37.9414C107.041 36.8778 108.303 36.0341 109.693 35.4584C111.082 34.8826 112.571 34.5862 114.075 34.5859C115.581 34.5849 117.073 34.8808 118.465 35.4568C119.856 36.0328 121.121 36.8775 122.186 37.9426V37.9414ZM118.944 41.1862C120.232 42.4759 120.956 44.2246 120.956 46.0479C120.956 47.8712 120.232 49.6199 118.944 50.9096C117.654 52.1984 115.905 52.9223 114.082 52.9223C112.259 52.9223 110.51 52.1984 109.22 50.9096C107.931 49.6199 107.208 47.8712 107.208 46.0479C107.208 44.2246 107.931 42.4759 109.22 41.1862C110.51 39.8974 112.259 39.1734 114.082 39.1734C115.905 39.1734 117.654 39.8974 118.944 41.1862ZM90.0272 34.5859C91.5311 34.5863 93.0202 34.883 94.4095 35.4589C95.7987 36.0348 97.061 36.8788 98.124 37.9426C102.6 42.4157 102.6 49.6728 98.124 54.146C95.9741 56.2942 93.0592 57.5009 90.0199 57.5009C86.9807 57.5009 84.0658 56.2942 81.9159 54.146C77.4415 49.6716 77.4415 42.4157 81.9159 37.9414C82.979 36.8778 84.2413 36.0341 85.6306 35.4584C87.0198 34.8826 88.5089 34.5862 90.0127 34.5859H90.0272ZM94.8817 41.1837C96.1708 42.4735 96.895 44.2225 96.895 46.0461C96.895 47.8697 96.1708 49.6186 94.8817 50.9084C93.5919 52.1972 91.8432 52.9211 90.0199 52.9211C88.1967 52.9211 86.448 52.1972 85.1582 50.9084C83.8694 49.6187 83.1455 47.87 83.1455 46.0467C83.1455 44.2234 83.8694 42.4747 85.1582 41.1849C86.448 39.8962 88.1967 39.1722 90.0199 39.1722C91.8432 39.1722 93.5919 39.8962 94.8817 41.1849V41.1837Z" fill="#E6E6E6"/>
</g>
<defs>
<clipPath id="clip0_113_8871">
<rect width="102.083" height="50" fill="white" transform="translate(56.7915 20)"/>
</clipPath>
</defs>
</svg>
