<svg width="143" height="143" viewBox="0 0 143 143" fill="none" xmlns="http://www.w3.org/2000/svg">
<path d="M138.531 2.23438H84.9062C83.6706 2.23438 82.6719 3.23538 82.6719 4.46875V75.9688C82.6719 77.2021 83.6706 78.2031 84.9062 78.2031H138.531C139.767 78.2031 140.766 77.2021 140.766 75.9688V4.46875C140.766 3.23538 139.767 2.23438 138.531 2.23438ZM136.297 73.7344H87.1406V6.70312H136.297V73.7344Z" fill="white"/>
<path d="M138.531 2.23438H84.9062C83.6706 2.23438 82.6719 3.23538 82.6719 4.46875V75.9688C82.6719 77.2021 83.6706 78.2031 84.9062 78.2031H138.531C139.767 78.2031 140.766 77.2021 140.766 75.9688V4.46875C140.766 3.23538 139.767 2.23438 138.531 2.23438ZM136.297 73.7344H87.1406V6.70312H136.297V73.7344Z" fill="#D7D7D7" fill-opacity="0.2"/>
<path d="M134.062 84.9062H75.9688C72.2731 84.9062 69.2656 87.9137 69.2656 91.6094V134.062C69.2656 137.758 72.2731 140.766 75.9688 140.766H134.062C137.758 140.766 140.766 137.758 140.766 134.062V91.6094C140.766 87.9137 137.758 84.9062 134.062 84.9062ZM136.297 134.062C136.297 135.294 135.296 136.297 134.062 136.297H75.9688C74.7354 136.297 73.7344 135.294 73.7344 134.062V91.6094C73.7344 90.3782 74.7354 89.375 75.9688 89.375H134.062C135.296 89.375 136.297 90.3782 136.297 91.6094V134.062Z" fill="white"/>
<path d="M134.062 84.9062H75.9688C72.2731 84.9062 69.2656 87.9137 69.2656 91.6094V134.062C69.2656 137.758 72.2731 140.766 75.9688 140.766H134.062C137.758 140.766 140.766 137.758 140.766 134.062V91.6094C140.766 87.9137 137.758 84.9062 134.062 84.9062ZM136.297 134.062C136.297 135.294 135.296 136.297 134.062 136.297H75.9688C74.7354 136.297 73.7344 135.294 73.7344 134.062V91.6094C73.7344 90.3782 74.7354 89.375 75.9688 89.375H134.062C135.296 89.375 136.297 90.3782 136.297 91.6094V134.062Z" fill="#D7D7D7" fill-opacity="0.2"/>
<path d="M127.359 125.125H122.89C122.89 123.892 121.891 122.891 120.655 122.891C119.42 122.891 118.421 123.892 118.421 125.125H82.671C79.7127 125.125 79.7149 129.594 82.671 129.594H118.421C118.421 130.827 119.42 131.828 120.655 131.828C121.891 131.828 122.89 130.827 122.89 129.594H127.359C130.317 129.594 130.315 125.125 127.359 125.125Z" fill="white"/>
<path d="M127.359 125.125H122.89C122.89 123.892 121.891 122.891 120.655 122.891C119.42 122.891 118.421 123.892 118.421 125.125H82.671C79.7127 125.125 79.7149 129.594 82.671 129.594H118.421C118.421 130.827 119.42 131.828 120.655 131.828C121.891 131.828 122.89 130.827 122.89 129.594H127.359C130.317 129.594 130.315 125.125 127.359 125.125Z" fill="#D7D7D7" fill-opacity="0.2"/>
<path d="M73.7344 69.2656V15.6406C73.7344 11.945 70.7269 8.9375 67.0312 8.9375H8.9375C5.24184 8.9375 2.23438 11.945 2.23438 15.6406V69.2656C2.23438 72.9613 5.24184 75.9688 8.9375 75.9688H67.0312C70.7269 75.9688 73.7344 72.9613 73.7344 69.2656ZM69.2656 69.2656C69.2656 70.4968 68.2646 71.5 67.0312 71.5H8.9375C7.70412 71.5 6.70312 70.4968 6.70312 69.2656V15.6406C6.70312 14.4095 7.70412 13.4062 8.9375 13.4062H67.0312C68.2646 13.4062 69.2656 14.4095 69.2656 15.6406V69.2656Z" fill="white"/>
<path d="M73.7344 69.2656V15.6406C73.7344 11.945 70.7269 8.9375 67.0312 8.9375H8.9375C5.24184 8.9375 2.23438 11.945 2.23438 15.6406V69.2656C2.23438 72.9613 5.24184 75.9688 8.9375 75.9688H67.0312C70.7269 75.9688 73.7344 72.9613 73.7344 69.2656ZM69.2656 69.2656C69.2656 70.4968 68.2646 71.5 67.0312 71.5H8.9375C7.70412 71.5 6.70312 70.4968 6.70312 69.2656V15.6406C6.70312 14.4095 7.70412 13.4062 8.9375 13.4062H67.0312C68.2646 13.4062 69.2656 14.4095 69.2656 15.6406V69.2656Z" fill="#D7D7D7" fill-opacity="0.2"/>
<path d="M46.9219 37.9844C51.8509 37.9844 55.8594 33.9759 55.8594 29.0469C55.8594 24.1178 51.8509 20.1094 46.9219 20.1094C41.9928 20.1094 37.9844 24.1178 37.9844 29.0469C37.9844 33.9759 41.9928 37.9844 46.9219 37.9844ZM46.9219 24.5781C49.3864 24.5781 51.3906 26.5824 51.3906 29.0469C51.3906 31.5114 49.3864 33.5156 46.9219 33.5156C44.4574 33.5156 42.4531 31.5114 42.4531 29.0469C42.4531 26.5824 44.4574 24.5781 46.9219 24.5781Z" fill="white"/>
<path d="M46.9219 37.9844C51.8509 37.9844 55.8594 33.9759 55.8594 29.0469C55.8594 24.1178 51.8509 20.1094 46.9219 20.1094C41.9928 20.1094 37.9844 24.1178 37.9844 29.0469C37.9844 33.9759 41.9928 37.9844 46.9219 37.9844ZM46.9219 24.5781C49.3864 24.5781 51.3906 26.5824 51.3906 29.0469C51.3906 31.5114 49.3864 33.5156 46.9219 33.5156C44.4574 33.5156 42.4531 31.5114 42.4531 29.0469C42.4531 26.5824 44.4574 24.5781 46.9219 24.5781Z" fill="#D7D7D7" fill-opacity="0.2"/>
<path d="M55.2052 45.3422C54.3315 44.4686 52.9194 44.4686 52.0457 45.3422L44.688 52.7L30.627 38.6391C29.7534 37.7655 28.3413 37.7655 27.4676 38.6391L11.827 54.2797C9.73563 56.3711 12.8973 59.5283 14.9864 57.4392L29.0473 43.3782L43.1082 57.4392C43.9819 58.3128 45.394 58.3128 46.2677 57.4392L53.6255 50.0814L60.9832 57.4392C63.0433 59.4992 66.2608 56.3957 64.1427 54.2797L55.2052 45.3422Z" fill="white"/>
<path d="M55.2052 45.3422C54.3315 44.4686 52.9194 44.4686 52.0457 45.3422L44.688 52.7L30.627 38.6391C29.7534 37.7655 28.3413 37.7655 27.4676 38.6391L11.827 54.2797C9.73563 56.3711 12.8973 59.5283 14.9864 57.4392L29.0473 43.3782L43.1082 57.4392C43.9819 58.3128 45.394 58.3128 46.2677 57.4392L53.6255 50.0814L60.9832 57.4392C63.0433 59.4992 66.2608 56.3957 64.1427 54.2797L55.2052 45.3422Z" fill="#D7D7D7" fill-opacity="0.2"/>
<path d="M96.0773 17.875H118.421C121.379 17.875 121.377 13.4062 118.421 13.4062H96.0773C93.119 13.4062 93.1212 17.875 96.0773 17.875Z" fill="white"/>
<path d="M96.0773 17.875H118.421C121.379 17.875 121.377 13.4062 118.421 13.4062H96.0773C93.119 13.4062 93.1212 17.875 96.0773 17.875Z" fill="#D7D7D7" fill-opacity="0.2"/>
<path d="M96.0773 37.9844H127.359C130.317 37.9844 130.315 33.5156 127.359 33.5156H96.0773C93.119 33.5156 93.1212 37.9844 96.0773 37.9844Z" fill="white"/>
<path d="M96.0773 37.9844H127.359C130.317 37.9844 130.315 33.5156 127.359 33.5156H96.0773C93.119 33.5156 93.1212 37.9844 96.0773 37.9844Z" fill="#D7D7D7" fill-opacity="0.2"/>
<path d="M96.0773 58.0938H127.359C130.317 58.0938 130.315 53.625 127.359 53.625H96.0773C93.119 53.625 93.1212 58.0938 96.0773 58.0938Z" fill="white"/>
<path d="M96.0773 58.0938H127.359C130.317 58.0938 130.315 53.625 127.359 53.625H96.0773C93.119 53.625 93.1212 58.0938 96.0773 58.0938Z" fill="#D7D7D7" fill-opacity="0.2"/>
<path d="M96.0773 67.0312H107.249C110.207 67.0312 110.205 62.5625 107.249 62.5625H96.0773C93.119 62.5625 93.1212 67.0312 96.0773 67.0312Z" fill="white"/>
<path d="M96.0773 67.0312H107.249C110.207 67.0312 110.205 62.5625 107.249 62.5625H96.0773C93.119 62.5625 93.1212 67.0312 96.0773 67.0312Z" fill="#D7D7D7" fill-opacity="0.2"/>
<path d="M96.0773 29.0469H100.546C103.504 29.0469 103.502 24.5781 100.546 24.5781H96.0773C93.119 24.5781 93.1212 29.0469 96.0773 29.0469Z" fill="white"/>
<path d="M96.0773 29.0469H100.546C103.504 29.0469 103.502 24.5781 100.546 24.5781H96.0773C93.119 24.5781 93.1212 29.0469 96.0773 29.0469Z" fill="#D7D7D7" fill-opacity="0.2"/>
<path d="M111.718 29.0469H127.359C130.317 29.0469 130.315 24.5781 127.359 24.5781H111.718C108.76 24.5781 108.762 29.0469 111.718 29.0469Z" fill="white"/>
<path d="M111.718 29.0469H127.359C130.317 29.0469 130.315 24.5781 127.359 24.5781H111.718C108.76 24.5781 108.762 29.0469 111.718 29.0469Z" fill="#D7D7D7" fill-opacity="0.2"/>
<path d="M96.0773 49.1562H111.718C114.676 49.1562 114.674 44.6875 111.718 44.6875H96.0773C93.119 44.6875 93.1212 49.1562 96.0773 49.1562Z" fill="white"/>
<path d="M96.0773 49.1562H111.718C114.676 49.1562 114.674 44.6875 111.718 44.6875H96.0773C93.119 44.6875 93.1212 49.1562 96.0773 49.1562Z" fill="#D7D7D7" fill-opacity="0.2"/>
<path d="M127.359 44.6875H122.89C119.931 44.6875 119.934 49.1562 122.89 49.1562H127.359C130.317 49.1562 130.315 44.6875 127.359 44.6875Z" fill="white"/>
<path d="M127.359 44.6875H122.89C119.931 44.6875 119.934 49.1562 122.89 49.1562H127.359C130.317 49.1562 130.315 44.6875 127.359 44.6875Z" fill="#D7D7D7" fill-opacity="0.2"/>
<path d="M33.5156 82.6719C16.2663 82.6719 2.23438 93.6985 2.23438 107.25C2.23438 112.767 4.60728 118.14 8.9375 122.475V138.531C8.9375 140.533 11.3573 141.505 12.7516 140.111L22.5806 130.282C26.0305 131.31 29.7038 131.828 33.5156 131.828C50.765 131.828 64.7969 120.801 64.7969 107.25C64.7969 93.6985 50.765 82.6719 33.5156 82.6719ZM33.5156 127.359C29.6971 127.359 26.055 126.776 22.6856 125.625C21.8835 125.348 20.9853 125.554 20.3842 126.16L13.4062 133.137V121.528C13.4062 120.906 13.1493 120.314 12.6957 119.892C8.77439 116.246 6.70312 111.873 6.70312 107.25C6.70312 96.163 18.7308 87.1406 33.5156 87.1406C48.3005 87.1406 60.3281 96.163 60.3281 107.25C60.3281 118.337 48.3005 127.359 33.5156 127.359Z" fill="white"/>
<path d="M33.5156 82.6719C16.2663 82.6719 2.23438 93.6985 2.23438 107.25C2.23438 112.767 4.60728 118.14 8.9375 122.475V138.531C8.9375 140.533 11.3573 141.505 12.7516 140.111L22.5806 130.282C26.0305 131.31 29.7038 131.828 33.5156 131.828C50.765 131.828 64.7969 120.801 64.7969 107.25C64.7969 93.6985 50.765 82.6719 33.5156 82.6719ZM33.5156 127.359C29.6971 127.359 26.055 126.776 22.6856 125.625C21.8835 125.348 20.9853 125.554 20.3842 126.16L13.4062 133.137V121.528C13.4062 120.906 13.1493 120.314 12.6957 119.892C8.77439 116.246 6.70312 111.873 6.70312 107.25C6.70312 96.163 18.7308 87.1406 33.5156 87.1406C48.3005 87.1406 60.3281 96.163 60.3281 107.25C60.3281 118.337 48.3005 127.359 33.5156 127.359Z" fill="#D7D7D7" fill-opacity="0.2"/>
<path d="M33.5156 110.602C35.3666 110.602 36.8672 109.101 36.8672 107.25C36.8672 105.399 35.3666 103.898 33.5156 103.898C31.6646 103.898 30.1641 105.399 30.1641 107.25C30.1641 109.101 31.6646 110.602 33.5156 110.602Z" fill="white"/>
<path d="M33.5156 110.602C35.3666 110.602 36.8672 109.101 36.8672 107.25C36.8672 105.399 35.3666 103.898 33.5156 103.898C31.6646 103.898 30.1641 105.399 30.1641 107.25C30.1641 109.101 31.6646 110.602 33.5156 110.602Z" fill="#D7D7D7" fill-opacity="0.2"/>
<path d="M49.1562 110.602C51.0073 110.602 52.5078 109.101 52.5078 107.25C52.5078 105.399 51.0073 103.898 49.1562 103.898C47.3052 103.898 45.8047 105.399 45.8047 107.25C45.8047 109.101 47.3052 110.602 49.1562 110.602Z" fill="white"/>
<path d="M49.1562 110.602C51.0073 110.602 52.5078 109.101 52.5078 107.25C52.5078 105.399 51.0073 103.898 49.1562 103.898C47.3052 103.898 45.8047 105.399 45.8047 107.25C45.8047 109.101 47.3052 110.602 49.1562 110.602Z" fill="#D7D7D7" fill-opacity="0.2"/>
<path d="M17.875 110.602C19.726 110.602 21.2266 109.101 21.2266 107.25C21.2266 105.399 19.726 103.898 17.875 103.898C16.024 103.898 14.5234 105.399 14.5234 107.25C14.5234 109.101 16.024 110.602 17.875 110.602Z" fill="white"/>
<path d="M17.875 110.602C19.726 110.602 21.2266 109.101 21.2266 107.25C21.2266 105.399 19.726 103.898 17.875 103.898C16.024 103.898 14.5234 105.399 14.5234 107.25C14.5234 109.101 16.024 110.602 17.875 110.602Z" fill="#D7D7D7" fill-opacity="0.2"/>
<path d="M101.132 120.017L115.984 111.459C119.22 109.598 119.22 104.913 115.984 103.049L101.135 94.4961C97.9081 92.6281 93.8438 94.972 93.8438 98.6989V115.81C93.8438 119.586 97.9438 121.847 101.132 120.017ZM98.3125 98.6989C98.3125 98.4107 98.6387 98.2141 98.9024 98.3683L113.754 106.924C114.009 107.071 114.009 107.44 113.754 107.587L98.9046 116.143C98.641 116.29 98.3125 116.109 98.3125 115.812V98.6989Z" fill="white"/>
<path d="M101.132 120.017L115.984 111.459C119.22 109.598 119.22 104.913 115.984 103.049L101.135 94.4961C97.9081 92.6281 93.8438 94.972 93.8438 98.6989V115.81C93.8438 119.586 97.9438 121.847 101.132 120.017ZM98.3125 98.6989C98.3125 98.4107 98.6387 98.2141 98.9024 98.3683L113.754 106.924C114.009 107.071 114.009 107.44 113.754 107.587L98.9046 116.143C98.641 116.29 98.3125 116.109 98.3125 115.812V98.6989Z" fill="#D7D7D7" fill-opacity="0.2"/>
</svg>
