<svg width="133" height="121" viewBox="0 0 133 121" fill="none" xmlns="http://www.w3.org/2000/svg">
<mask id="mask0_303_1790" style="mask-type:luminance" maskUnits="userSpaceOnUse" x="17" y="10" width="101" height="100">
<path d="M116.588 108.967V11.2024H18.8242V108.967H116.588Z" fill="white" stroke="white" stroke-width="2"/>
</mask>
<g mask="url(#mask0_303_1790)">
<path d="M55.9722 74.1516C54.7341 73.2549 53.5901 72.2093 52.5633 71.0258C49.054 66.982 47.3297 61.8138 47.7074 56.4729C48.0675 51.3816 50.3254 46.666 54.065 43.1951C57.7855 39.7423 62.6239 37.8408 67.6887 37.8408C68.1621 37.8408 68.6419 37.8577 69.1154 37.8912C80.1399 38.671 88.4751 48.2755 87.6955 59.3012C87.4355 62.9753 86.1873 66.4536 84.1075 69.4097" stroke="white" stroke-width="2" stroke-miterlimit="10" stroke-linecap="round" stroke-linejoin="round"/>
<path d="M55.9722 74.1516C54.7341 73.2549 53.5901 72.2093 52.5633 71.0258C49.054 66.982 47.3297 61.8138 47.7074 56.4729C48.0675 51.3816 50.3254 46.666 54.065 43.1951C57.7855 39.7423 62.6239 37.8408 67.6887 37.8408C68.1621 37.8408 68.6419 37.8577 69.1154 37.8912C80.1399 38.671 88.4751 48.2755 87.6955 59.3012C87.4355 62.9753 86.1873 66.4536 84.1075 69.4097" stroke="#D7D7D7" stroke-opacity="0.2" stroke-width="2" stroke-miterlimit="10" stroke-linecap="round" stroke-linejoin="round"/>
<path d="M61.9238 47.076C63.8899 46.0245 66.1663 45.4971 68.5543 45.666C75.3029 46.1434 80.3868 52.002 79.9096 58.7515C79.5342 64.0591 75.8318 68.337 70.9856 69.6907" stroke="white" stroke-width="2" stroke-miterlimit="10" stroke-linecap="round" stroke-linejoin="round"/>
<path d="M61.9238 47.076C63.8899 46.0245 66.1663 45.4971 68.5543 45.666C75.3029 46.1434 80.3868 52.002 79.9096 58.7515C79.5342 64.0591 75.8318 68.337 70.9856 69.6907" stroke="#D7D7D7" stroke-opacity="0.2" stroke-width="2" stroke-miterlimit="10" stroke-linecap="round" stroke-linejoin="round"/>
<path d="M63.9557 69.5554C58.7023 67.8731 55.0757 62.7713 55.4822 57.0233C55.5946 55.432 56.0062 53.9332 56.6581 52.578" stroke="white" stroke-width="2" stroke-miterlimit="10" stroke-linecap="round" stroke-linejoin="round"/>
<path d="M63.9557 69.5554C58.7023 67.8731 55.0757 62.7713 55.4822 57.0233C55.5946 55.432 56.0062 53.9332 56.6581 52.578" stroke="#D7D7D7" stroke-opacity="0.2" stroke-width="2" stroke-miterlimit="10" stroke-linecap="round" stroke-linejoin="round"/>
<path d="M90.0228 84.6456L89.9718 81.0579C89.932 78.044 87.481 75.6196 84.467 75.6138L70.9858 75.5879V60.0334C70.9858 58.1235 69.501 56.4928 67.5922 56.429C65.597 56.3624 63.9583 57.9604 63.9583 59.9413V89.4381L57.3851 81.4669C56.1264 79.9898 53.9086 79.813 52.4318 81.072C50.9548 82.3311 50.7781 84.5489 52.037 86.0261L64.3283 100.707V108.505" stroke="white" stroke-width="2" stroke-miterlimit="10" stroke-linecap="round" stroke-linejoin="round"/>
<path d="M90.0228 84.6456L89.9718 81.0579C89.932 78.044 87.481 75.6196 84.467 75.6138L70.9858 75.5879V60.0334C70.9858 58.1235 69.501 56.4928 67.5922 56.429C65.597 56.3624 63.9583 57.9604 63.9583 59.9413V89.4381L57.3851 81.4669C56.1264 79.9898 53.9086 79.813 52.4318 81.072C50.9548 82.3311 50.7781 84.5489 52.037 86.0261L64.3283 100.707V108.505" stroke="#D7D7D7" stroke-opacity="0.2" stroke-width="2" stroke-miterlimit="10" stroke-linecap="round" stroke-linejoin="round"/>
<path d="M85.498 108.505V102.218C88.4487 99.8676 90.1462 96.2841 90.0967 92.5113" stroke="white" stroke-width="2" stroke-miterlimit="10" stroke-linecap="round" stroke-linejoin="round"/>
<path d="M85.498 108.505V102.218C88.4487 99.8676 90.1462 96.2841 90.0967 92.5113" stroke="#D7D7D7" stroke-opacity="0.2" stroke-width="2" stroke-miterlimit="10" stroke-linecap="round" stroke-linejoin="round"/>
<path d="M70.9922 75.5868V80.3088" stroke="white" stroke-width="2" stroke-miterlimit="10" stroke-linecap="round" stroke-linejoin="round"/>
<path d="M70.9922 75.5868V80.3088" stroke="#D7D7D7" stroke-opacity="0.2" stroke-width="2" stroke-miterlimit="10" stroke-linecap="round" stroke-linejoin="round"/>
<path d="M77.1738 75.6232V80.3088" stroke="white" stroke-width="2" stroke-miterlimit="10" stroke-linecap="round" stroke-linejoin="round"/>
<path d="M77.1738 75.6232V80.3088" stroke="#D7D7D7" stroke-opacity="0.2" stroke-width="2" stroke-miterlimit="10" stroke-linecap="round" stroke-linejoin="round"/>
<path d="M83.332 75.623V80.3086" stroke="white" stroke-width="2" stroke-miterlimit="10" stroke-linecap="round" stroke-linejoin="round"/>
<path d="M83.332 75.623V80.3086" stroke="#D7D7D7" stroke-opacity="0.2" stroke-width="2" stroke-miterlimit="10" stroke-linecap="round" stroke-linejoin="round"/>
<path d="M67.6992 37.311V21.0643" stroke="white" stroke-width="2" stroke-miterlimit="10" stroke-linecap="round" stroke-linejoin="round"/>
<path d="M67.6992 37.311V21.0643" stroke="#D7D7D7" stroke-opacity="0.2" stroke-width="2" stroke-miterlimit="10" stroke-linecap="round" stroke-linejoin="round"/>
<path d="M72.3971 16.364C72.3971 18.9598 70.2931 21.0642 67.6977 21.0642C65.1023 21.0642 62.998 18.9598 62.998 16.364C62.998 13.7682 65.1023 11.6638 67.6977 11.6638C70.2931 11.6638 72.3971 13.7682 72.3971 16.364Z" stroke="white" stroke-width="2" stroke-miterlimit="10" stroke-linecap="round" stroke-linejoin="round"/>
<path d="M72.3971 16.364C72.3971 18.9598 70.2931 21.0642 67.6977 21.0642C65.1023 21.0642 62.998 18.9598 62.998 16.364C62.998 13.7682 65.1023 11.6638 67.6977 11.6638C70.2931 11.6638 72.3971 13.7682 72.3971 16.364Z" stroke="#D7D7D7" stroke-opacity="0.2" stroke-width="2" stroke-miterlimit="10" stroke-linecap="round" stroke-linejoin="round"/>
<path d="M87.8047 57.8875H106.021" stroke="white" stroke-width="2" stroke-miterlimit="10" stroke-linecap="round" stroke-linejoin="round"/>
<path d="M87.8047 57.8875H106.021" stroke="#D7D7D7" stroke-opacity="0.2" stroke-width="2" stroke-miterlimit="10" stroke-linecap="round" stroke-linejoin="round"/>
<path d="M47.6614 57.8877H29.4453" stroke="white" stroke-width="2" stroke-miterlimit="10" stroke-linecap="round" stroke-linejoin="round"/>
<path d="M47.6614 57.8877H29.4453" stroke="#D7D7D7" stroke-opacity="0.2" stroke-width="2" stroke-miterlimit="10" stroke-linecap="round" stroke-linejoin="round"/>
<path d="M82.7031 44.6143L88.8754 38.441V27.4749" stroke="white" stroke-width="2" stroke-miterlimit="10" stroke-linecap="round" stroke-linejoin="round"/>
<path d="M82.7031 44.6143L88.8754 38.441V27.4749" stroke="#D7D7D7" stroke-opacity="0.2" stroke-width="2" stroke-miterlimit="10" stroke-linecap="round" stroke-linejoin="round"/>
<path d="M42.8008 23.7586C42.8008 25.811 44.4642 27.4746 46.5162 27.4746C48.5684 27.4746 50.2318 25.811 50.2318 23.7586C50.2318 21.7062 48.5684 20.0426 46.5162 20.0426C44.4642 20.0426 42.8008 21.7062 42.8008 23.7586Z" stroke="white" stroke-width="2" stroke-miterlimit="10" stroke-linecap="round" stroke-linejoin="round"/>
<path d="M42.8008 23.7586C42.8008 25.811 44.4642 27.4746 46.5162 27.4746C48.5684 27.4746 50.2318 25.811 50.2318 23.7586C50.2318 21.7062 48.5684 20.0426 46.5162 20.0426C44.4642 20.0426 42.8008 21.7062 42.8008 23.7586Z" stroke="#D7D7D7" stroke-opacity="0.2" stroke-width="2" stroke-miterlimit="10" stroke-linecap="round" stroke-linejoin="round"/>
<path d="M22 57.8868C22 59.9391 23.6635 61.6028 25.7154 61.6028C27.7676 61.6028 29.4311 59.9391 29.4311 57.8868C29.4311 55.8344 27.7676 54.1707 25.7154 54.1707C23.6635 54.1707 22 55.8344 22 57.8868Z" stroke="white" stroke-width="2" stroke-miterlimit="10" stroke-linecap="round" stroke-linejoin="round"/>
<path d="M22 57.8868C22 59.9391 23.6635 61.6028 25.7154 61.6028C27.7676 61.6028 29.4311 59.9391 29.4311 57.8868C29.4311 55.8344 27.7676 54.1707 25.7154 54.1707C23.6635 54.1707 22 55.8344 22 57.8868Z" stroke="#D7D7D7" stroke-opacity="0.2" stroke-width="2" stroke-miterlimit="10" stroke-linecap="round" stroke-linejoin="round"/>
<path d="M106.025 57.8868C106.025 59.9391 107.689 61.6028 109.741 61.6028C111.793 61.6028 113.457 59.9391 113.457 57.8868C113.457 55.8344 111.793 54.1707 109.741 54.1707C107.689 54.1707 106.025 55.8344 106.025 57.8868Z" stroke="white" stroke-width="2" stroke-miterlimit="10" stroke-linecap="round" stroke-linejoin="round"/>
<path d="M106.025 57.8868C106.025 59.9391 107.689 61.6028 109.741 61.6028C111.793 61.6028 113.457 59.9391 113.457 57.8868C113.457 55.8344 111.793 54.1707 109.741 54.1707C107.689 54.1707 106.025 55.8344 106.025 57.8868Z" stroke="#D7D7D7" stroke-opacity="0.2" stroke-width="2" stroke-miterlimit="10" stroke-linecap="round" stroke-linejoin="round"/>
<path d="M85.168 23.7588C85.168 25.8112 86.8314 27.4749 88.8834 27.4749C90.9356 27.4749 92.599 25.8112 92.599 23.7588C92.599 21.7065 90.9356 20.0428 88.8834 20.0428C86.8314 20.0428 85.168 21.7065 85.168 23.7588Z" stroke="white" stroke-width="2" stroke-miterlimit="10" stroke-linecap="round" stroke-linejoin="round"/>
<path d="M85.168 23.7588C85.168 25.8112 86.8314 27.4749 88.8834 27.4749C90.9356 27.4749 92.599 25.8112 92.599 23.7588C92.599 21.7065 90.9356 20.0428 88.8834 20.0428C86.8314 20.0428 85.168 21.7065 85.168 23.7588Z" stroke="#D7D7D7" stroke-opacity="0.2" stroke-width="2" stroke-miterlimit="10" stroke-linecap="round" stroke-linejoin="round"/>
<path d="M27.7383 38.4414C27.7383 41.0372 29.8425 43.1416 32.4379 43.1416C35.0333 43.1416 37.1374 41.0372 37.1374 38.4414C37.1374 35.8456 35.0333 33.7412 32.4379 33.7412C29.8425 33.7412 27.7383 35.8456 27.7383 38.4414Z" stroke="white" stroke-width="2" stroke-miterlimit="10" stroke-linecap="round" stroke-linejoin="round"/>
<path d="M27.7383 38.4414C27.7383 41.0372 29.8425 43.1416 32.4379 43.1416C35.0333 43.1416 37.1374 41.0372 37.1374 38.4414C37.1374 35.8456 35.0333 33.7412 32.4379 33.7412C29.8425 33.7412 27.7383 35.8456 27.7383 38.4414Z" stroke="#D7D7D7" stroke-opacity="0.2" stroke-width="2" stroke-miterlimit="10" stroke-linecap="round" stroke-linejoin="round"/>
<path d="M98.2734 38.4414C98.2734 41.0372 100.377 43.1416 102.973 43.1416C105.568 43.1416 107.673 41.0372 107.673 38.4414C107.673 35.8456 105.568 33.7412 102.973 33.7412C100.377 33.7412 98.2734 35.8456 98.2734 38.4414Z" stroke="white" stroke-width="2" stroke-miterlimit="10" stroke-linecap="round" stroke-linejoin="round"/>
<path d="M98.2734 38.4414C98.2734 41.0372 100.377 43.1416 102.973 43.1416C105.568 43.1416 107.673 41.0372 107.673 38.4414C107.673 35.8456 105.568 33.7412 102.973 33.7412C100.377 33.7412 98.2734 35.8456 98.2734 38.4414Z" stroke="#D7D7D7" stroke-opacity="0.2" stroke-width="2" stroke-miterlimit="10" stroke-linecap="round" stroke-linejoin="round"/>
<path d="M52.6761 44.6064L46.5117 38.4413V27.4753" stroke="white" stroke-width="2" stroke-miterlimit="10" stroke-linecap="round" stroke-linejoin="round"/>
<path d="M52.6761 44.6064L46.5117 38.4413V27.4753" stroke="#D7D7D7" stroke-opacity="0.2" stroke-width="2" stroke-miterlimit="10" stroke-linecap="round" stroke-linejoin="round"/>
<path d="M46.5125 38.4399H37.1816" stroke="white" stroke-width="2" stroke-miterlimit="10" stroke-linecap="round" stroke-linejoin="round"/>
<path d="M46.5125 38.4399H37.1816" stroke="#D7D7D7" stroke-opacity="0.2" stroke-width="2" stroke-miterlimit="10" stroke-linecap="round" stroke-linejoin="round"/>
<path d="M98.194 38.4399H88.8633" stroke="white" stroke-width="2" stroke-miterlimit="10" stroke-linecap="round" stroke-linejoin="round"/>
<path d="M98.194 38.4399H88.8633" stroke="#D7D7D7" stroke-opacity="0.2" stroke-width="2" stroke-miterlimit="10" stroke-linecap="round" stroke-linejoin="round"/>
</g>
<g opacity="0.26" clip-path="url(#clip0_303_1790)">
<path d="M23.0343 21.0332H0V0H23.0343V21.0332ZM1.03547 19.9971H21.9988V1.03613H1.03547V19.9971Z" fill="url(#paint0_linear_303_1790)"/>
<path d="M45.0326 21.0332H22.0078V0H45.0326V21.0332ZM23.0433 19.9971H43.9972V1.03613H23.0433V19.9971Z" fill="url(#paint1_linear_303_1790)"/>
<path d="M67.0225 21.0332H43.9883V0H67.0225V21.0332ZM45.0237 19.9971H65.9871V1.03613H45.0331L45.0237 19.9971Z" fill="url(#paint2_linear_303_1790)"/>
<path d="M89.0112 21.0332H65.9863V0H89.0112V21.0332ZM67.0218 19.9971H87.9757V1.03613H67.0218V19.9971Z" fill="url(#paint3_linear_303_1790)"/>
<path d="M111.011 21.0332H87.9766V0H111.011V21.0332ZM89.012 19.9971H109.985V1.03613H89.0214L89.012 19.9971Z" fill="url(#paint4_linear_303_1790)"/>
<path d="M133 21.0332H109.984V0H133.009L133 21.0332ZM111.01 19.9971H131.964V1.03613H111.01V19.9971Z" fill="url(#paint5_linear_303_1790)"/>
<path d="M23.0343 41.0303H0V19.9971H23.0343V41.0303ZM1.03547 39.9942H21.9988V21.0332H1.03547V39.9942Z" fill="url(#paint6_linear_303_1790)"/>
<path d="M45.0326 41.0303H22.0078V19.9971H45.0326V41.0303ZM23.0433 39.9942H43.9972V21.0332H23.0433V39.9942Z" fill="url(#paint7_linear_303_1790)"/>
<path d="M67.0225 41.0303H43.9883V19.9971H67.0225V41.0303ZM45.0237 39.9942H65.9871V21.0332H45.0331L45.0237 39.9942Z" fill="url(#paint8_linear_303_1790)"/>
<path d="M89.0112 41.0303H65.9863V19.9971H89.0112V41.0303ZM67.0218 39.9942H87.9757V21.0332H67.0218V39.9942Z" fill="url(#paint9_linear_303_1790)"/>
<path d="M111.011 41.0303H87.9766V19.9971H111.011V41.0303ZM89.012 39.9942H109.985V21.0332H89.0214L89.012 39.9942Z" fill="url(#paint10_linear_303_1790)"/>
<path d="M133 41.0303H109.984V19.9971H133.009L133 41.0303ZM111.01 39.9942H131.964V21.0332H111.01V39.9942Z" fill="url(#paint11_linear_303_1790)"/>
<path d="M23.0343 61.018H0V39.9941H23.0343V61.018ZM1.03547 59.9818H21.9988V41.0303H1.03547V59.9818Z" fill="url(#paint12_linear_303_1790)"/>
<path d="M45.0326 61.018H22.0078V39.9941H45.0326V61.018ZM23.0433 59.9818H43.9972V41.0303H23.0433V59.9818Z" fill="url(#paint13_linear_303_1790)"/>
<path d="M67.0225 61.018H43.9883V39.9941H67.0225V61.018ZM45.0331 59.9818H65.9965V41.0303H45.0331V59.9818Z" fill="url(#paint14_linear_303_1790)"/>
<path d="M89.0112 61.018H65.9863V39.9941H89.0112V61.018ZM67.0218 59.9818H87.9757V41.0303H67.0218V59.9818Z" fill="url(#paint15_linear_303_1790)"/>
<path d="M111.011 61.018H87.9766V39.9941H111.011V61.018ZM89.012 59.9818H109.985V41.0303H89.0214L89.012 59.9818Z" fill="url(#paint16_linear_303_1790)"/>
<path d="M133 61.018H109.984V39.9941H133.009L133 61.018ZM111.01 59.9818H131.964V41.0303H111.01V59.9818Z" fill="url(#paint17_linear_303_1790)"/>
<path d="M23.0343 81.0152H0V59.9819H23.0343V81.0152ZM1.03547 79.9791H21.9988V61.0181H1.03547V79.9791Z" fill="url(#paint18_linear_303_1790)"/>
<path d="M45.0326 81.0152H22.0078V59.9819H45.0326V81.0152ZM23.0433 79.9791H43.9972V61.0181H23.0433V79.9791Z" fill="url(#paint19_linear_303_1790)"/>
<path d="M67.0225 81.0152H43.9883V59.9819H67.0225V81.0152ZM45.0237 79.9791H65.9871V61.0181H45.0331L45.0237 79.9791Z" fill="url(#paint20_linear_303_1790)"/>
<path d="M89.0112 81.0152H65.9863V59.9819H89.0112V81.0152ZM67.0218 79.9791H87.9757V61.0181H67.0218V79.9791Z" fill="url(#paint21_linear_303_1790)"/>
<path d="M111.011 81.0152H87.9766V59.9819H111.011V81.0152ZM89.012 79.9791H109.985V61.0181H89.0214L89.012 79.9791Z" fill="url(#paint22_linear_303_1790)"/>
<path d="M133 81.0152H109.984V59.9819H133.009L133 81.0152ZM111.01 79.9791H131.964V61.0181H111.01V79.9791Z" fill="url(#paint23_linear_303_1790)"/>
<path d="M23.0343 101.012H0V79.979H23.0343V101.012ZM1.03547 99.9761H21.9988V81.0151H1.03547V99.9761Z" fill="url(#paint24_linear_303_1790)"/>
<path d="M45.0326 101.012H22.0078V79.979H45.0326V101.012ZM23.0433 99.9761H43.9972V81.0151H23.0433V99.9761Z" fill="url(#paint25_linear_303_1790)"/>
<path d="M67.0225 101.012H43.9883V79.979H67.0225V101.012ZM45.0237 99.9761H65.9871V81.0151H45.0331L45.0237 99.9761Z" fill="url(#paint26_linear_303_1790)"/>
<path d="M89.0112 101.012H65.9863V79.979H89.0112V101.012ZM67.0218 99.9761H87.9757V81.0151H67.0218V99.9761Z" fill="url(#paint27_linear_303_1790)"/>
<path d="M111.011 101.012H87.9766V79.979H111.011V101.012ZM89.012 99.9761H109.985V81.0151H89.0214L89.012 99.9761Z" fill="url(#paint28_linear_303_1790)"/>
<path d="M133 101.012H109.984V79.979H133.009L133 101.012ZM111.01 99.9761H131.964V81.0151H111.01V99.9761Z" fill="url(#paint29_linear_303_1790)"/>
<path d="M23.0343 121H0V99.9761H23.0343V121ZM1.03547 119.964H21.9988V101.012H1.03547V119.964Z" fill="url(#paint30_linear_303_1790)"/>
<path d="M45.0326 121H22.0078V99.9761H45.0326V121ZM23.0433 119.964H43.9972V101.012H23.0433V119.964Z" fill="url(#paint31_linear_303_1790)"/>
<path d="M67.0225 121H43.9883V99.9761H67.0225V121ZM45.0237 119.964H65.9871V101.012H45.0331L45.0237 119.964Z" fill="url(#paint32_linear_303_1790)"/>
<path d="M89.0112 121H65.9863V99.9761H89.0112V121ZM67.0218 119.964H87.9757V101.012H67.0218V119.964Z" fill="url(#paint33_linear_303_1790)"/>
<path d="M111.011 121H87.9766V99.9761H111.011V121ZM89.012 119.964H109.985V101.012H89.0214L89.012 119.964Z" fill="url(#paint34_linear_303_1790)"/>
<path d="M133 121H109.984V99.9761H133.009L133 121ZM111.01 119.964H131.964V101.012H111.01V119.964Z" fill="url(#paint35_linear_303_1790)"/>
</g>
<defs>
<linearGradient id="paint0_linear_303_1790" x1="110.361" y1="119.587" x2="15.1264" y2="14.632" gradientUnits="userSpaceOnUse">
<stop stop-color="#929091" stop-opacity="0"/>
<stop offset="0.5" stop-color="#929091" stop-opacity="0.7"/>
<stop offset="1" stop-color="white" stop-opacity="0"/>
</linearGradient>
<linearGradient id="paint1_linear_303_1790" x1="122.428" y1="108.632" x2="27.1938" y2="3.67747" gradientUnits="userSpaceOnUse">
<stop stop-color="#929091" stop-opacity="0"/>
<stop offset="0.5" stop-color="#929091" stop-opacity="0.7"/>
<stop offset="1" stop-color="white" stop-opacity="0"/>
</linearGradient>
<linearGradient id="paint2_linear_303_1790" x1="134.506" y1="97.6778" x2="39.262" y2="-7.27704" gradientUnits="userSpaceOnUse">
<stop stop-color="#929091" stop-opacity="0"/>
<stop offset="0.5" stop-color="#929091" stop-opacity="0.7"/>
<stop offset="1" stop-color="white" stop-opacity="0"/>
</linearGradient>
<linearGradient id="paint3_linear_303_1790" x1="146.573" y1="86.7232" x2="51.3291" y2="-18.2223" gradientUnits="userSpaceOnUse">
<stop stop-color="#929091" stop-opacity="0"/>
<stop offset="0.5" stop-color="#929091" stop-opacity="0.7"/>
<stop offset="1" stop-color="white" stop-opacity="0"/>
</linearGradient>
<linearGradient id="paint4_linear_303_1790" x1="158.642" y1="75.778" x2="63.3978" y2="-29.177" gradientUnits="userSpaceOnUse">
<stop stop-color="#929091" stop-opacity="0"/>
<stop offset="0.5" stop-color="#929091" stop-opacity="0.7"/>
<stop offset="1" stop-color="white" stop-opacity="0"/>
</linearGradient>
<linearGradient id="paint5_linear_303_1790" x1="170.709" y1="64.8234" x2="75.4652" y2="-40.1316" gradientUnits="userSpaceOnUse">
<stop stop-color="#929091" stop-opacity="0"/>
<stop offset="0.5" stop-color="#929091" stop-opacity="0.7"/>
<stop offset="1" stop-color="white" stop-opacity="0"/>
</linearGradient>
<linearGradient id="paint6_linear_303_1790" x1="100.421" y1="128.611" x2="5.17647" y2="23.6558" gradientUnits="userSpaceOnUse">
<stop stop-color="#929091" stop-opacity="0"/>
<stop offset="0.5" stop-color="#929091" stop-opacity="0.7"/>
<stop offset="1" stop-color="white" stop-opacity="0"/>
</linearGradient>
<linearGradient id="paint7_linear_303_1790" x1="112.488" y1="117.656" x2="17.2438" y2="12.7012" gradientUnits="userSpaceOnUse">
<stop stop-color="#929091" stop-opacity="0"/>
<stop offset="0.5" stop-color="#929091" stop-opacity="0.7"/>
<stop offset="1" stop-color="white" stop-opacity="0"/>
</linearGradient>
<linearGradient id="paint8_linear_303_1790" x1="124.556" y1="106.702" x2="29.3214" y2="1.74668" gradientUnits="userSpaceOnUse">
<stop stop-color="#929091" stop-opacity="0"/>
<stop offset="0.5" stop-color="#929091" stop-opacity="0.7"/>
<stop offset="1" stop-color="white" stop-opacity="0"/>
</linearGradient>
<linearGradient id="paint9_linear_303_1790" x1="136.623" y1="95.7469" x2="41.3886" y2="-9.20804" gradientUnits="userSpaceOnUse">
<stop stop-color="#929091" stop-opacity="0"/>
<stop offset="0.5" stop-color="#929091" stop-opacity="0.7"/>
<stop offset="1" stop-color="white" stop-opacity="0"/>
</linearGradient>
<linearGradient id="paint10_linear_303_1790" x1="148.692" y1="84.8017" x2="53.4573" y2="-20.1533" gradientUnits="userSpaceOnUse">
<stop stop-color="#929091" stop-opacity="0"/>
<stop offset="0.5" stop-color="#929091" stop-opacity="0.7"/>
<stop offset="1" stop-color="white" stop-opacity="0"/>
</linearGradient>
<linearGradient id="paint11_linear_303_1790" x1="160.76" y1="73.8471" x2="65.5247" y2="-31.1079" gradientUnits="userSpaceOnUse">
<stop stop-color="#929091" stop-opacity="0"/>
<stop offset="0.5" stop-color="#929091" stop-opacity="0.7"/>
<stop offset="1" stop-color="white" stop-opacity="0"/>
</linearGradient>
<linearGradient id="paint12_linear_303_1790" x1="90.4803" y1="137.625" x2="-4.76389" y2="32.6794" gradientUnits="userSpaceOnUse">
<stop stop-color="#929091" stop-opacity="0"/>
<stop offset="0.5" stop-color="#929091" stop-opacity="0.7"/>
<stop offset="1" stop-color="white" stop-opacity="0"/>
</linearGradient>
<linearGradient id="paint13_linear_303_1790" x1="102.548" y1="126.68" x2="7.30345" y2="21.7248" gradientUnits="userSpaceOnUse">
<stop stop-color="#929091" stop-opacity="0"/>
<stop offset="0.5" stop-color="#929091" stop-opacity="0.7"/>
<stop offset="1" stop-color="white" stop-opacity="0"/>
</linearGradient>
<linearGradient id="paint14_linear_303_1790" x1="114.616" y1="115.725" x2="19.3717" y2="10.7703" gradientUnits="userSpaceOnUse">
<stop stop-color="#929091" stop-opacity="0"/>
<stop offset="0.5" stop-color="#929091" stop-opacity="0.7"/>
<stop offset="1" stop-color="white" stop-opacity="0"/>
</linearGradient>
<linearGradient id="paint15_linear_303_1790" x1="126.683" y1="104.771" x2="31.4388" y2="-0.184439" gradientUnits="userSpaceOnUse">
<stop stop-color="#929091" stop-opacity="0"/>
<stop offset="0.5" stop-color="#929091" stop-opacity="0.7"/>
<stop offset="1" stop-color="white" stop-opacity="0"/>
</linearGradient>
<linearGradient id="paint16_linear_303_1790" x1="138.752" y1="93.8253" x2="43.5075" y2="-11.1297" gradientUnits="userSpaceOnUse">
<stop stop-color="#929091" stop-opacity="0"/>
<stop offset="0.5" stop-color="#929091" stop-opacity="0.7"/>
<stop offset="1" stop-color="white" stop-opacity="0"/>
</linearGradient>
<linearGradient id="paint17_linear_303_1790" x1="150.819" y1="82.8707" x2="55.5843" y2="-22.0843" gradientUnits="userSpaceOnUse">
<stop stop-color="#929091" stop-opacity="0"/>
<stop offset="0.5" stop-color="#929091" stop-opacity="0.7"/>
<stop offset="1" stop-color="white" stop-opacity="0"/>
</linearGradient>
<linearGradient id="paint18_linear_303_1790" x1="80.5305" y1="146.649" x2="-14.7042" y2="41.6936" gradientUnits="userSpaceOnUse">
<stop stop-color="#929091" stop-opacity="0"/>
<stop offset="0.5" stop-color="#929091" stop-opacity="0.7"/>
<stop offset="1" stop-color="white" stop-opacity="0"/>
</linearGradient>
<linearGradient id="paint19_linear_303_1790" x1="92.5979" y1="135.703" x2="-2.63686" y2="30.7485" gradientUnits="userSpaceOnUse">
<stop stop-color="#929091" stop-opacity="0"/>
<stop offset="0.5" stop-color="#929091" stop-opacity="0.7"/>
<stop offset="1" stop-color="white" stop-opacity="0"/>
</linearGradient>
<linearGradient id="paint20_linear_303_1790" x1="104.676" y1="124.749" x2="9.43138" y2="19.794" gradientUnits="userSpaceOnUse">
<stop stop-color="#929091" stop-opacity="0"/>
<stop offset="0.5" stop-color="#929091" stop-opacity="0.7"/>
<stop offset="1" stop-color="white" stop-opacity="0"/>
</linearGradient>
<linearGradient id="paint21_linear_303_1790" x1="116.743" y1="113.794" x2="21.4985" y2="8.83928" gradientUnits="userSpaceOnUse">
<stop stop-color="#929091" stop-opacity="0"/>
<stop offset="0.5" stop-color="#929091" stop-opacity="0.7"/>
<stop offset="1" stop-color="white" stop-opacity="0"/>
</linearGradient>
<linearGradient id="paint22_linear_303_1790" x1="128.811" y1="102.849" x2="33.5672" y2="-2.10598" gradientUnits="userSpaceOnUse">
<stop stop-color="#929091" stop-opacity="0"/>
<stop offset="0.5" stop-color="#929091" stop-opacity="0.7"/>
<stop offset="1" stop-color="white" stop-opacity="0"/>
</linearGradient>
<linearGradient id="paint23_linear_303_1790" x1="140.879" y1="91.8944" x2="45.6346" y2="-13.0606" gradientUnits="userSpaceOnUse">
<stop stop-color="#929091" stop-opacity="0"/>
<stop offset="0.5" stop-color="#929091" stop-opacity="0.7"/>
<stop offset="1" stop-color="white" stop-opacity="0"/>
</linearGradient>
<linearGradient id="paint24_linear_303_1790" x1="70.5901" y1="155.672" x2="-24.654" y2="50.7172" gradientUnits="userSpaceOnUse">
<stop stop-color="#929091" stop-opacity="0"/>
<stop offset="0.5" stop-color="#929091" stop-opacity="0.7"/>
<stop offset="1" stop-color="white" stop-opacity="0"/>
</linearGradient>
<linearGradient id="paint25_linear_303_1790" x1="82.6574" y1="144.727" x2="-12.5773" y2="39.7721" gradientUnits="userSpaceOnUse">
<stop stop-color="#929091" stop-opacity="0"/>
<stop offset="0.5" stop-color="#929091" stop-opacity="0.7"/>
<stop offset="1" stop-color="white" stop-opacity="0"/>
</linearGradient>
<linearGradient id="paint26_linear_303_1790" x1="94.7257" y1="133.772" x2="-0.509014" y2="28.8176" gradientUnits="userSpaceOnUse">
<stop stop-color="#929091" stop-opacity="0"/>
<stop offset="0.5" stop-color="#929091" stop-opacity="0.7"/>
<stop offset="1" stop-color="white" stop-opacity="0"/>
</linearGradient>
<linearGradient id="paint27_linear_303_1790" x1="106.793" y1="122.818" x2="11.5581" y2="17.8629" gradientUnits="userSpaceOnUse">
<stop stop-color="#929091" stop-opacity="0"/>
<stop offset="0.5" stop-color="#929091" stop-opacity="0.7"/>
<stop offset="1" stop-color="white" stop-opacity="0"/>
</linearGradient>
<linearGradient id="paint28_linear_303_1790" x1="118.861" y1="111.873" x2="23.6268" y2="6.91764" gradientUnits="userSpaceOnUse">
<stop stop-color="#929091" stop-opacity="0"/>
<stop offset="0.5" stop-color="#929091" stop-opacity="0.7"/>
<stop offset="1" stop-color="white" stop-opacity="0"/>
</linearGradient>
<linearGradient id="paint29_linear_303_1790" x1="130.938" y1="100.918" x2="35.6942" y2="-4.03695" gradientUnits="userSpaceOnUse">
<stop stop-color="#929091" stop-opacity="0"/>
<stop offset="0.5" stop-color="#929091" stop-opacity="0.7"/>
<stop offset="1" stop-color="white" stop-opacity="0"/>
</linearGradient>
<linearGradient id="paint30_linear_303_1790" x1="60.6497" y1="164.696" x2="-34.5945" y2="59.7409" gradientUnits="userSpaceOnUse">
<stop stop-color="#929091" stop-opacity="0"/>
<stop offset="0.5" stop-color="#929091" stop-opacity="0.7"/>
<stop offset="1" stop-color="white" stop-opacity="0"/>
</linearGradient>
<linearGradient id="paint31_linear_303_1790" x1="72.717" y1="153.751" x2="-22.5272" y2="48.7958" gradientUnits="userSpaceOnUse">
<stop stop-color="#929091" stop-opacity="0"/>
<stop offset="0.5" stop-color="#929091" stop-opacity="0.7"/>
<stop offset="1" stop-color="white" stop-opacity="0"/>
</linearGradient>
<linearGradient id="paint32_linear_303_1790" x1="84.7853" y1="142.796" x2="-10.4589" y2="37.8412" gradientUnits="userSpaceOnUse">
<stop stop-color="#929091" stop-opacity="0"/>
<stop offset="0.5" stop-color="#929091" stop-opacity="0.7"/>
<stop offset="1" stop-color="white" stop-opacity="0"/>
</linearGradient>
<linearGradient id="paint33_linear_303_1790" x1="96.8524" y1="131.841" x2="1.60819" y2="26.8865" gradientUnits="userSpaceOnUse">
<stop stop-color="#929091" stop-opacity="0"/>
<stop offset="0.5" stop-color="#929091" stop-opacity="0.7"/>
<stop offset="1" stop-color="white" stop-opacity="0"/>
</linearGradient>
<linearGradient id="paint34_linear_303_1790" x1="108.921" y1="120.887" x2="13.6769" y2="15.9413" gradientUnits="userSpaceOnUse">
<stop stop-color="#929091" stop-opacity="0"/>
<stop offset="0.5" stop-color="#929091" stop-opacity="0.7"/>
<stop offset="1" stop-color="white" stop-opacity="0"/>
</linearGradient>
<linearGradient id="paint35_linear_303_1790" x1="120.988" y1="109.942" x2="25.7537" y2="4.98667" gradientUnits="userSpaceOnUse">
<stop stop-color="#929091" stop-opacity="0"/>
<stop offset="0.5" stop-color="#929091" stop-opacity="0.7"/>
<stop offset="1" stop-color="white" stop-opacity="0"/>
</linearGradient>
<clipPath id="clip0_303_1790">
<rect width="133" height="121" fill="white"/>
</clipPath>
</defs>
</svg>
