<svg width="227" height="206" viewBox="0 0 227 206" fill="none" xmlns="http://www.w3.org/2000/svg">
<g opacity="0.26" clip-path="url(#clip0_320_1789)">
<path d="M39.3141 35.8086H0V0H39.3141V35.8086ZM1.7673 34.0447H37.5468V1.76398H1.7673V34.0447Z" fill="url(#paint0_linear_320_1789)"/>
<path d="M76.8605 35.8086H37.5625V0H76.8605V35.8086ZM39.3298 34.0447H75.0932V1.76398H39.3298V34.0447Z" fill="url(#paint1_linear_320_1789)"/>
<path d="M114.392 35.8086H75.0781V0H114.392V35.8086ZM76.8454 34.0447H112.625V1.76398H76.8615L76.8454 34.0447Z" fill="url(#paint2_linear_320_1789)"/>
<path d="M151.923 35.8086H112.625V0H151.923V35.8086ZM114.392 34.0447H150.156V1.76398H114.392V34.0447Z" fill="url(#paint3_linear_320_1789)"/>
<path d="M189.468 35.8086H150.154V0H189.468V35.8086ZM151.922 34.0447H187.717V1.76398H151.938L151.922 34.0447Z" fill="url(#paint4_linear_320_1789)"/>
<path d="M227.001 35.8086H187.719V0H227.017L227.001 35.8086ZM189.47 34.0447H225.233V1.76398H189.47V34.0447Z" fill="url(#paint5_linear_320_1789)"/>
<path d="M39.3141 69.8534H0V34.0447H39.3141V69.8534ZM1.7673 68.0894H37.5468V35.8087H1.7673V68.0894Z" fill="url(#paint6_linear_320_1789)"/>
<path d="M76.8605 69.8534H37.5625V34.0447H76.8605V69.8534ZM39.3298 68.0894H75.0932V35.8087H39.3298V68.0894Z" fill="url(#paint7_linear_320_1789)"/>
<path d="M114.392 69.8534H75.0781V34.0447H114.392V69.8534ZM76.8454 68.0894H112.625V35.8087H76.8615L76.8454 68.0894Z" fill="url(#paint8_linear_320_1789)"/>
<path d="M151.923 69.8534H112.625V34.0447H151.923V69.8534ZM114.392 68.0894H150.156V35.8087H114.392V68.0894Z" fill="url(#paint9_linear_320_1789)"/>
<path d="M189.468 69.8534H150.154V34.0447H189.468V69.8534ZM151.922 68.0894H187.717V35.8087H151.938L151.922 68.0894Z" fill="url(#paint10_linear_320_1789)"/>
<path d="M227.001 69.8534H187.719V34.0447H227.017L227.001 69.8534ZM189.47 68.0894H225.233V35.8087H189.47V68.0894Z" fill="url(#paint11_linear_320_1789)"/>
<path d="M39.3141 103.882H0V68.0894H39.3141V103.882ZM1.7673 102.118H37.5468V69.8533H1.7673V102.118Z" fill="url(#paint12_linear_320_1789)"/>
<path d="M76.8605 103.882H37.5625V68.0894H76.8605V103.882ZM39.3298 102.118H75.0932V69.8533H39.3298V102.118Z" fill="url(#paint13_linear_320_1789)"/>
<path d="M114.392 103.882H75.0781V68.0894H114.392V103.882ZM76.8615 102.118H112.641V69.8533H76.8615V102.118Z" fill="url(#paint14_linear_320_1789)"/>
<path d="M151.923 103.882H112.625V68.0894H151.923V103.882ZM114.392 102.118H150.156V69.8533H114.392V102.118Z" fill="url(#paint15_linear_320_1789)"/>
<path d="M189.468 103.882H150.154V68.0894H189.468V103.882ZM151.922 102.118H187.717V69.8533H151.938L151.922 102.118Z" fill="url(#paint16_linear_320_1789)"/>
<path d="M227.001 103.882H187.719V68.0894H227.017L227.001 103.882ZM189.47 102.118H225.233V69.8533H189.47V102.118Z" fill="url(#paint17_linear_320_1789)"/>
<path d="M39.3141 137.927H0V102.118H39.3141V137.927ZM1.7673 136.163H37.5468V103.882H1.7673V136.163Z" fill="url(#paint18_linear_320_1789)"/>
<path d="M76.8605 137.927H37.5625V102.118H76.8605V137.927ZM39.3298 136.163H75.0932V103.882H39.3298V136.163Z" fill="url(#paint19_linear_320_1789)"/>
<path d="M114.392 137.927H75.0781V102.118H114.392V137.927ZM76.8454 136.163H112.625V103.882H76.8615L76.8454 136.163Z" fill="url(#paint20_linear_320_1789)"/>
<path d="M151.923 137.927H112.625V102.118H151.923V137.927ZM114.392 136.163H150.156V103.882H114.392V136.163Z" fill="url(#paint21_linear_320_1789)"/>
<path d="M189.468 137.927H150.154V102.118H189.468V137.927ZM151.922 136.163H187.717V103.882H151.938L151.922 136.163Z" fill="url(#paint22_linear_320_1789)"/>
<path d="M227.001 137.927H187.719V102.118H227.017L227.001 137.927ZM189.47 136.163H225.233V103.882H189.47V136.163Z" fill="url(#paint23_linear_320_1789)"/>
<path d="M39.3141 171.971H0V136.163H39.3141V171.971ZM1.7673 170.207H37.5468V137.927H1.7673V170.207Z" fill="url(#paint24_linear_320_1789)"/>
<path d="M76.8605 171.971H37.5625V136.163H76.8605V171.971ZM39.3298 170.207H75.0932V137.927H39.3298V170.207Z" fill="url(#paint25_linear_320_1789)"/>
<path d="M114.392 171.971H75.0781V136.163H114.392V171.971ZM76.8454 170.207H112.625V137.927H76.8615L76.8454 170.207Z" fill="url(#paint26_linear_320_1789)"/>
<path d="M151.923 171.971H112.625V136.163H151.923V171.971ZM114.392 170.207H150.156V137.927H114.392V170.207Z" fill="url(#paint27_linear_320_1789)"/>
<path d="M189.468 171.971H150.154V136.163H189.468V171.971ZM151.922 170.207H187.717V137.927H151.938L151.922 170.207Z" fill="url(#paint28_linear_320_1789)"/>
<path d="M227.001 171.971H187.719V136.163H227.017L227.001 171.971ZM189.47 170.207H225.233V137.927H189.47V170.207Z" fill="url(#paint29_linear_320_1789)"/>
<path d="M39.3141 206H0V170.207H39.3141V206ZM1.7673 204.236H37.5468V171.971H1.7673V204.236Z" fill="url(#paint30_linear_320_1789)"/>
<path d="M76.8605 206H37.5625V170.207H76.8605V206ZM39.3298 204.236H75.0932V171.971H39.3298V204.236Z" fill="url(#paint31_linear_320_1789)"/>
<path d="M114.392 206H75.0781V170.207H114.392V206ZM76.8454 204.236H112.625V171.971H76.8615L76.8454 204.236Z" fill="url(#paint32_linear_320_1789)"/>
<path d="M151.923 206H112.625V170.207H151.923V206ZM114.392 204.236H150.156V171.971H114.392V204.236Z" fill="url(#paint33_linear_320_1789)"/>
<path d="M189.468 206H150.154V170.207H189.468V206ZM151.922 204.236H187.717V171.971H151.938L151.922 204.236Z" fill="url(#paint34_linear_320_1789)"/>
<path d="M227.001 206H187.719V170.207H227.017L227.001 206ZM189.47 204.236H225.233V171.971H189.47V204.236Z" fill="url(#paint35_linear_320_1789)"/>
</g>
<g clip-path="url(#clip1_320_1789)">
<path d="M147.961 145.165H85.0982C79.3218 145.165 74.6211 140.464 74.6211 134.687C74.6211 128.911 79.3218 124.21 85.0982 124.21H147.961C153.737 124.21 158.438 128.911 158.438 134.687C158.438 140.464 153.737 145.165 147.961 145.165ZM85.0982 127.703C81.2461 127.703 78.1135 130.835 78.1135 134.687C78.1135 138.54 81.2461 141.672 85.0982 141.672H147.961C151.813 141.672 154.946 138.54 154.946 134.687C154.946 130.835 151.813 127.703 147.961 127.703H85.0982Z" fill="white"/>
<path d="M147.961 145.165H85.0982C79.3218 145.165 74.6211 140.464 74.6211 134.687C74.6211 128.911 79.3218 124.21 85.0982 124.21H147.961C153.737 124.21 158.438 128.911 158.438 134.687C158.438 140.464 153.737 145.165 147.961 145.165ZM85.0982 127.703C81.2461 127.703 78.1135 130.835 78.1135 134.687C78.1135 138.54 81.2461 141.672 85.0982 141.672H147.961C151.813 141.672 154.946 138.54 154.946 134.687C154.946 130.835 151.813 127.703 147.961 127.703H85.0982Z" fill="#D7D7D7" fill-opacity="0.2"/>
<path d="M85.0979 138.18C83.1735 138.18 81.6055 136.612 81.6055 134.687C81.6055 132.763 83.1735 131.195 85.0979 131.195C87.0222 131.195 88.5902 132.763 88.5902 134.687C88.5902 136.612 87.0222 138.18 85.0979 138.18ZM85.0979 134.684C85.0979 134.687 85.0979 134.687 85.0979 134.684V134.684Z" fill="white"/>
<path d="M85.0979 138.18C83.1735 138.18 81.6055 136.612 81.6055 134.687C81.6055 132.763 83.1735 131.195 85.0979 131.195C87.0222 131.195 88.5902 132.763 88.5902 134.687C88.5902 136.612 87.0222 138.18 85.0979 138.18ZM85.0979 134.684C85.0979 134.687 85.0979 134.687 85.0979 134.684V134.684Z" fill="#D7D7D7" fill-opacity="0.2"/>
<path d="M106.053 138.18C104.129 138.18 102.561 136.612 102.561 134.687C102.561 132.763 104.129 131.195 106.053 131.195C107.977 131.195 109.545 132.763 109.545 134.687C109.545 136.612 107.977 138.18 106.053 138.18ZM106.053 134.684C106.053 134.687 106.053 134.687 106.053 134.684V134.684Z" fill="white"/>
<path d="M106.053 138.18C104.129 138.18 102.561 136.612 102.561 134.687C102.561 132.763 104.129 131.195 106.053 131.195C107.977 131.195 109.545 132.763 109.545 134.687C109.545 136.612 107.977 138.18 106.053 138.18ZM106.053 134.684C106.053 134.687 106.053 134.687 106.053 134.684V134.684Z" fill="#D7D7D7" fill-opacity="0.2"/>
<path d="M127.006 138.18C125.082 138.18 123.514 136.612 123.514 134.687C123.514 132.763 125.082 131.195 127.006 131.195C128.93 131.195 130.498 132.763 130.498 134.687C130.498 136.612 128.93 138.18 127.006 138.18ZM127.006 134.684C127.006 134.687 127.006 134.687 127.006 134.684V134.684Z" fill="white"/>
<path d="M127.006 138.18C125.082 138.18 123.514 136.612 123.514 134.687C123.514 132.763 125.082 131.195 127.006 131.195C128.93 131.195 130.498 132.763 130.498 134.687C130.498 136.612 128.93 138.18 127.006 138.18ZM127.006 134.684C127.006 134.687 127.006 134.687 127.006 134.684V134.684Z" fill="#D7D7D7" fill-opacity="0.2"/>
<path d="M147.961 138.18C146.037 138.18 144.469 136.612 144.469 134.687C144.469 132.763 146.037 131.195 147.961 131.195C149.885 131.195 151.454 132.763 151.454 134.687C151.454 136.612 149.885 138.18 147.961 138.18ZM147.961 134.684C147.961 134.687 147.961 134.687 147.961 134.684V134.684Z" fill="white"/>
<path d="M147.961 138.18C146.037 138.18 144.469 136.612 144.469 134.687C144.469 132.763 146.037 131.195 147.961 131.195C149.885 131.195 151.454 132.763 151.454 134.687C151.454 136.612 149.885 138.18 147.961 138.18ZM147.961 134.684C147.961 134.687 147.961 134.687 147.961 134.684V134.684Z" fill="#D7D7D7" fill-opacity="0.2"/>
<path d="M132.245 127.703H114.783C113.819 127.703 113.037 126.921 113.037 125.957V108.495C113.037 107.531 113.819 106.749 114.783 106.749H132.245C133.209 106.749 133.991 107.531 133.991 108.495V125.957C133.991 126.921 133.209 127.703 132.245 127.703ZM116.529 124.21H130.499V110.241H116.529V124.21Z" fill="white"/>
<path d="M132.245 127.703H114.783C113.819 127.703 113.037 126.921 113.037 125.957V108.495C113.037 107.531 113.819 106.749 114.783 106.749H132.245C133.209 106.749 133.991 107.531 133.991 108.495V125.957C133.991 126.921 133.209 127.703 132.245 127.703ZM116.529 124.21H130.499V110.241H116.529V124.21Z" fill="#D7D7D7" fill-opacity="0.2"/>
<path d="M142.722 110.241H125.26C124.296 110.241 123.514 109.459 123.514 108.495V91.0328C123.514 90.0689 124.296 89.2866 125.26 89.2866H142.722C143.686 89.2866 144.468 90.0689 144.468 91.0328V108.495C144.468 109.459 143.686 110.241 142.722 110.241ZM127.006 106.749H140.976V92.779H127.006V106.749Z" fill="white"/>
<path d="M142.722 110.241H125.26C124.296 110.241 123.514 109.459 123.514 108.495V91.0328C123.514 90.0689 124.296 89.2866 125.26 89.2866H142.722C143.686 89.2866 144.468 90.0689 144.468 91.0328V108.495C144.468 109.459 143.686 110.241 142.722 110.241ZM127.006 106.749H140.976V92.779H127.006V106.749Z" fill="#D7D7D7" fill-opacity="0.2"/>
<path d="M149.708 127.703H132.246C131.282 127.703 130.5 126.921 130.5 125.957V108.495C130.5 107.531 131.282 106.749 132.246 106.749H149.708C150.672 106.749 151.454 107.531 151.454 108.495V125.957C151.454 126.921 150.672 127.703 149.708 127.703ZM133.992 124.21H147.962V110.241H133.992V124.21Z" fill="white"/>
<path d="M149.708 127.703H132.246C131.282 127.703 130.5 126.921 130.5 125.957V108.495C130.5 107.531 131.282 106.749 132.246 106.749H149.708C150.672 106.749 151.454 107.531 151.454 108.495V125.957C151.454 126.921 150.672 127.703 149.708 127.703ZM133.992 124.21H147.962V110.241H133.992V124.21Z" fill="#D7D7D7" fill-opacity="0.2"/>
<path d="M95.5747 92.7789C90.7622 92.7789 86.8438 88.8604 86.8438 84.048C86.8438 79.2355 90.7622 75.317 95.5747 75.317C100.387 75.317 104.306 79.2355 104.306 84.048C104.306 88.8604 100.387 92.7789 95.5747 92.7789ZM95.5747 78.8094C92.6865 78.8094 90.3361 81.1598 90.3361 84.048C90.3361 86.9362 92.6865 89.2865 95.5747 89.2865C98.4629 89.2865 100.813 86.9362 100.813 84.048C100.813 81.1598 98.4629 78.8094 95.5747 78.8094Z" fill="white"/>
<path d="M95.5747 92.7789C90.7622 92.7789 86.8438 88.8604 86.8438 84.048C86.8438 79.2355 90.7622 75.317 95.5747 75.317C100.387 75.317 104.306 79.2355 104.306 84.048C104.306 88.8604 100.387 92.7789 95.5747 92.7789ZM95.5747 78.8094C92.6865 78.8094 90.3361 81.1598 90.3361 84.048C90.3361 86.9362 92.6865 89.2865 95.5747 89.2865C98.4629 89.2865 100.813 86.9362 100.813 84.048C100.813 81.1598 98.4629 78.8094 95.5747 78.8094Z" fill="#D7D7D7" fill-opacity="0.2"/>
<path d="M98.281 106.748H92.8678C91.0867 106.748 89.6129 105.393 89.4452 103.595L89.0122 99.1491C87.9994 98.6811 87.032 98.1048 86.117 97.4203L82.2021 99.2399C80.5641 99.9977 78.6643 99.3761 77.7737 97.787L75.0706 92.9676C74.2045 91.4204 74.6201 89.4647 76.0345 88.417L79.5269 85.8326C79.4605 85.2878 79.4116 84.6836 79.4116 84.048C79.4116 83.4124 79.4605 82.8082 79.5269 82.2634L76.0345 79.679C74.6201 78.6313 74.2045 76.6756 75.0671 75.1285L77.7737 70.3055C78.6608 68.7234 80.5641 68.0948 82.2021 68.8562L86.117 70.6757C87.0285 69.9912 87.9994 69.4149 89.0122 68.947L89.4452 64.4977C89.6129 62.7026 91.0867 61.3475 92.8678 61.3475H98.281C100.062 61.3475 101.536 62.7026 101.703 64.5012L102.137 68.947C103.153 69.4149 104.12 69.9912 105.032 70.6757L108.947 68.8562C110.585 68.1053 112.488 68.72 113.375 70.309L116.078 75.1285C116.944 76.6756 116.529 78.6313 115.114 79.679L111.622 82.2634C111.688 82.8082 111.737 83.4159 111.737 84.048C111.737 84.6801 111.688 85.2878 111.622 85.8326L115.114 88.417C116.529 89.4647 116.944 91.4204 116.082 92.9676L113.375 97.7905C112.491 99.3726 110.588 99.9942 108.95 99.2399L105.035 97.4203C104.124 98.1048 103.153 98.6811 102.14 99.1491L101.707 103.598C101.536 105.393 100.062 106.748 98.281 106.748ZM86.365 93.6346C86.7771 93.6346 87.1822 93.7813 87.5035 94.0572C88.649 95.0455 89.9132 95.8034 91.2613 96.3098C91.8864 96.5437 92.3195 97.1095 92.3858 97.7731L92.9202 103.26L98.281 103.256L98.7629 97.7731C98.8293 97.1095 99.2623 96.5403 99.8875 96.3098C101.236 95.7999 102.5 95.0455 103.645 94.0572C104.162 93.6101 104.903 93.5089 105.521 93.7952L110.417 96.0723L113.033 91.2598L108.702 88.0188C108.175 87.6277 107.909 86.9711 108.018 86.3216C108.147 85.5812 108.245 84.8303 108.245 84.048C108.245 83.2657 108.147 82.5149 108.018 81.7745C107.909 81.1249 108.175 80.4683 108.702 80.0772L113.036 76.8712L110.326 72.0133L105.521 74.3008C104.896 74.5872 104.162 74.4894 103.645 74.0388C102.503 73.054 101.239 72.2961 99.8875 71.7863C99.2623 71.5523 98.8293 70.9865 98.7629 70.323L98.2286 64.8364L92.8678 64.8399L92.3858 70.323C92.3195 70.9865 91.8864 71.5523 91.2613 71.7863C89.9132 72.2961 88.649 73.054 87.5035 74.0388C86.9866 74.4859 86.2497 74.5906 85.6281 74.3008L80.7318 72.0237L78.116 76.8362L82.4465 80.0772C82.9739 80.4683 83.2393 81.1214 83.131 81.771C83.0018 82.5149 82.904 83.2657 82.904 84.048C82.904 84.8303 83.0018 85.5812 83.131 86.3216C83.2393 86.9711 82.9774 87.6277 82.4465 88.0154L78.1125 91.2249L80.8226 96.0828L85.6281 93.7952C85.8621 93.687 86.117 93.6346 86.365 93.6346Z" fill="white"/>
<path d="M98.281 106.748H92.8678C91.0867 106.748 89.6129 105.393 89.4452 103.595L89.0122 99.1491C87.9994 98.6811 87.032 98.1048 86.117 97.4203L82.2021 99.2399C80.5641 99.9977 78.6643 99.3761 77.7737 97.787L75.0706 92.9676C74.2045 91.4204 74.6201 89.4647 76.0345 88.417L79.5269 85.8326C79.4605 85.2878 79.4116 84.6836 79.4116 84.048C79.4116 83.4124 79.4605 82.8082 79.5269 82.2634L76.0345 79.679C74.6201 78.6313 74.2045 76.6756 75.0671 75.1285L77.7737 70.3055C78.6608 68.7234 80.5641 68.0948 82.2021 68.8562L86.117 70.6757C87.0285 69.9912 87.9994 69.4149 89.0122 68.947L89.4452 64.4977C89.6129 62.7026 91.0867 61.3475 92.8678 61.3475H98.281C100.062 61.3475 101.536 62.7026 101.703 64.5012L102.137 68.947C103.153 69.4149 104.12 69.9912 105.032 70.6757L108.947 68.8562C110.585 68.1053 112.488 68.72 113.375 70.309L116.078 75.1285C116.944 76.6756 116.529 78.6313 115.114 79.679L111.622 82.2634C111.688 82.8082 111.737 83.4159 111.737 84.048C111.737 84.6801 111.688 85.2878 111.622 85.8326L115.114 88.417C116.529 89.4647 116.944 91.4204 116.082 92.9676L113.375 97.7905C112.491 99.3726 110.588 99.9942 108.95 99.2399L105.035 97.4203C104.124 98.1048 103.153 98.6811 102.14 99.1491L101.707 103.598C101.536 105.393 100.062 106.748 98.281 106.748ZM86.365 93.6346C86.7771 93.6346 87.1822 93.7813 87.5035 94.0572C88.649 95.0455 89.9132 95.8034 91.2613 96.3098C91.8864 96.5437 92.3195 97.1095 92.3858 97.7731L92.9202 103.26L98.281 103.256L98.7629 97.7731C98.8293 97.1095 99.2623 96.5403 99.8875 96.3098C101.236 95.7999 102.5 95.0455 103.645 94.0572C104.162 93.6101 104.903 93.5089 105.521 93.7952L110.417 96.0723L113.033 91.2598L108.702 88.0188C108.175 87.6277 107.909 86.9711 108.018 86.3216C108.147 85.5812 108.245 84.8303 108.245 84.048C108.245 83.2657 108.147 82.5149 108.018 81.7745C107.909 81.1249 108.175 80.4683 108.702 80.0772L113.036 76.8712L110.326 72.0133L105.521 74.3008C104.896 74.5872 104.162 74.4894 103.645 74.0388C102.503 73.054 101.239 72.2961 99.8875 71.7863C99.2623 71.5523 98.8293 70.9865 98.7629 70.323L98.2286 64.8364L92.8678 64.8399L92.3858 70.323C92.3195 70.9865 91.8864 71.5523 91.2613 71.7863C89.9132 72.2961 88.649 73.054 87.5035 74.0388C86.9866 74.4859 86.2497 74.5906 85.6281 74.3008L80.7318 72.0237L78.116 76.8362L82.4465 80.0772C82.9739 80.4683 83.2393 81.1214 83.131 81.771C83.0018 82.5149 82.904 83.2657 82.904 84.048C82.904 84.8303 83.0018 85.5812 83.131 86.3216C83.2393 86.9711 82.9774 87.6277 82.4465 88.0154L78.1125 91.2249L80.8226 96.0828L85.6281 93.7952C85.8621 93.687 86.117 93.6346 86.365 93.6346Z" fill="#D7D7D7" fill-opacity="0.2"/>
</g>
<rect x="31" y="37.8842" width="170" height="129.683" rx="13" stroke="white" stroke-width="4"/>
<rect x="31" y="37.8842" width="170" height="129.683" rx="13" stroke="#D7D7D7" stroke-opacity="0.2" stroke-width="4"/>
<rect x="2" y="-2" width="93.6098" height="9.79268" rx="4.89634" transform="matrix(1 0 0 -1 67.1953 175.116)" stroke="white" stroke-width="4"/>
<rect x="2" y="-2" width="93.6098" height="9.79268" rx="4.89634" transform="matrix(1 0 0 -1 67.1953 175.116)" stroke="#D7D7D7" stroke-opacity="0.2" stroke-width="4"/>
<defs>
<linearGradient id="paint0_linear_320_1789" x1="188.361" y1="203.594" x2="26.2656" y2="24.505" gradientUnits="userSpaceOnUse">
<stop stop-color="#929091" stop-opacity="0"/>
<stop offset="0.5" stop-color="#929091" stop-opacity="0.7"/>
<stop offset="1" stop-color="white" stop-opacity="0"/>
</linearGradient>
<linearGradient id="paint1_linear_320_1789" x1="208.957" y1="184.944" x2="46.8621" y2="5.85501" gradientUnits="userSpaceOnUse">
<stop stop-color="#929091" stop-opacity="0"/>
<stop offset="0.5" stop-color="#929091" stop-opacity="0.7"/>
<stop offset="1" stop-color="white" stop-opacity="0"/>
</linearGradient>
<linearGradient id="paint2_linear_320_1789" x1="229.571" y1="166.294" x2="67.4598" y2="-12.7949" gradientUnits="userSpaceOnUse">
<stop stop-color="#929091" stop-opacity="0"/>
<stop offset="0.5" stop-color="#929091" stop-opacity="0.7"/>
<stop offset="1" stop-color="white" stop-opacity="0"/>
</linearGradient>
<linearGradient id="paint3_linear_320_1789" x1="250.168" y1="147.644" x2="88.0569" y2="-31.429" gradientUnits="userSpaceOnUse">
<stop stop-color="#929091" stop-opacity="0"/>
<stop offset="0.5" stop-color="#929091" stop-opacity="0.7"/>
<stop offset="1" stop-color="white" stop-opacity="0"/>
</linearGradient>
<linearGradient id="paint4_linear_320_1789" x1="270.764" y1="129.01" x2="108.652" y2="-50.079" gradientUnits="userSpaceOnUse">
<stop stop-color="#929091" stop-opacity="0"/>
<stop offset="0.5" stop-color="#929091" stop-opacity="0.7"/>
<stop offset="1" stop-color="white" stop-opacity="0"/>
</linearGradient>
<linearGradient id="paint5_linear_320_1789" x1="291.362" y1="110.361" x2="129.251" y2="-68.729" gradientUnits="userSpaceOnUse">
<stop stop-color="#929091" stop-opacity="0"/>
<stop offset="0.5" stop-color="#929091" stop-opacity="0.7"/>
<stop offset="1" stop-color="white" stop-opacity="0"/>
</linearGradient>
<linearGradient id="paint6_linear_320_1789" x1="171.395" y1="218.957" x2="9.28333" y2="39.8677" gradientUnits="userSpaceOnUse">
<stop stop-color="#929091" stop-opacity="0"/>
<stop offset="0.5" stop-color="#929091" stop-opacity="0.7"/>
<stop offset="1" stop-color="white" stop-opacity="0"/>
</linearGradient>
<linearGradient id="paint7_linear_320_1789" x1="191.991" y1="200.307" x2="29.8798" y2="21.2178" gradientUnits="userSpaceOnUse">
<stop stop-color="#929091" stop-opacity="0"/>
<stop offset="0.5" stop-color="#929091" stop-opacity="0.7"/>
<stop offset="1" stop-color="white" stop-opacity="0"/>
</linearGradient>
<linearGradient id="paint8_linear_320_1789" x1="212.589" y1="181.657" x2="50.4936" y2="2.56795" gradientUnits="userSpaceOnUse">
<stop stop-color="#929091" stop-opacity="0"/>
<stop offset="0.5" stop-color="#929091" stop-opacity="0.7"/>
<stop offset="1" stop-color="white" stop-opacity="0"/>
</linearGradient>
<linearGradient id="paint9_linear_320_1789" x1="233.186" y1="163.007" x2="71.0907" y2="-16.0822" gradientUnits="userSpaceOnUse">
<stop stop-color="#929091" stop-opacity="0"/>
<stop offset="0.5" stop-color="#929091" stop-opacity="0.7"/>
<stop offset="1" stop-color="white" stop-opacity="0"/>
</linearGradient>
<linearGradient id="paint10_linear_320_1789" x1="253.782" y1="144.373" x2="91.6862" y2="-34.7163" gradientUnits="userSpaceOnUse">
<stop stop-color="#929091" stop-opacity="0"/>
<stop offset="0.5" stop-color="#929091" stop-opacity="0.7"/>
<stop offset="1" stop-color="white" stop-opacity="0"/>
</linearGradient>
<linearGradient id="paint11_linear_320_1789" x1="274.38" y1="125.723" x2="112.285" y2="-53.3663" gradientUnits="userSpaceOnUse">
<stop stop-color="#929091" stop-opacity="0"/>
<stop offset="0.5" stop-color="#929091" stop-opacity="0.7"/>
<stop offset="1" stop-color="white" stop-opacity="0"/>
</linearGradient>
<linearGradient id="paint12_linear_320_1789" x1="154.429" y1="234.304" x2="-7.68259" y2="55.2303" gradientUnits="userSpaceOnUse">
<stop stop-color="#929091" stop-opacity="0"/>
<stop offset="0.5" stop-color="#929091" stop-opacity="0.7"/>
<stop offset="1" stop-color="white" stop-opacity="0"/>
</linearGradient>
<linearGradient id="paint13_linear_320_1789" x1="175.025" y1="215.67" x2="12.9139" y2="36.5804" gradientUnits="userSpaceOnUse">
<stop stop-color="#929091" stop-opacity="0"/>
<stop offset="0.5" stop-color="#929091" stop-opacity="0.7"/>
<stop offset="1" stop-color="white" stop-opacity="0"/>
</linearGradient>
<linearGradient id="paint14_linear_320_1789" x1="195.623" y1="197.02" x2="33.5117" y2="17.9305" gradientUnits="userSpaceOnUse">
<stop stop-color="#929091" stop-opacity="0"/>
<stop offset="0.5" stop-color="#929091" stop-opacity="0.7"/>
<stop offset="1" stop-color="white" stop-opacity="0"/>
</linearGradient>
<linearGradient id="paint15_linear_320_1789" x1="216.22" y1="178.37" x2="54.1088" y2="-0.719681" gradientUnits="userSpaceOnUse">
<stop stop-color="#929091" stop-opacity="0"/>
<stop offset="0.5" stop-color="#929091" stop-opacity="0.7"/>
<stop offset="1" stop-color="white" stop-opacity="0"/>
</linearGradient>
<linearGradient id="paint16_linear_320_1789" x1="236.816" y1="159.736" x2="74.7043" y2="-19.3537" gradientUnits="userSpaceOnUse">
<stop stop-color="#929091" stop-opacity="0"/>
<stop offset="0.5" stop-color="#929091" stop-opacity="0.7"/>
<stop offset="1" stop-color="white" stop-opacity="0"/>
</linearGradient>
<linearGradient id="paint17_linear_320_1789" x1="257.414" y1="141.086" x2="95.3189" y2="-38.0037" gradientUnits="userSpaceOnUse">
<stop stop-color="#929091" stop-opacity="0"/>
<stop offset="0.5" stop-color="#929091" stop-opacity="0.7"/>
<stop offset="1" stop-color="white" stop-opacity="0"/>
</linearGradient>
<linearGradient id="paint18_linear_320_1789" x1="137.447" y1="249.666" x2="-24.6483" y2="70.5768" gradientUnits="userSpaceOnUse">
<stop stop-color="#929091" stop-opacity="0"/>
<stop offset="0.5" stop-color="#929091" stop-opacity="0.7"/>
<stop offset="1" stop-color="white" stop-opacity="0"/>
</linearGradient>
<linearGradient id="paint19_linear_320_1789" x1="158.043" y1="231.032" x2="-4.05186" y2="51.9429" gradientUnits="userSpaceOnUse">
<stop stop-color="#929091" stop-opacity="0"/>
<stop offset="0.5" stop-color="#929091" stop-opacity="0.7"/>
<stop offset="1" stop-color="white" stop-opacity="0"/>
</linearGradient>
<linearGradient id="paint20_linear_320_1789" x1="178.657" y1="212.382" x2="16.5459" y2="33.293" gradientUnits="userSpaceOnUse">
<stop stop-color="#929091" stop-opacity="0"/>
<stop offset="0.5" stop-color="#929091" stop-opacity="0.7"/>
<stop offset="1" stop-color="white" stop-opacity="0"/>
</linearGradient>
<linearGradient id="paint21_linear_320_1789" x1="199.254" y1="193.732" x2="37.143" y2="14.6429" gradientUnits="userSpaceOnUse">
<stop stop-color="#929091" stop-opacity="0"/>
<stop offset="0.5" stop-color="#929091" stop-opacity="0.7"/>
<stop offset="1" stop-color="white" stop-opacity="0"/>
</linearGradient>
<linearGradient id="paint22_linear_320_1789" x1="219.85" y1="175.098" x2="57.7385" y2="-3.99116" gradientUnits="userSpaceOnUse">
<stop stop-color="#929091" stop-opacity="0"/>
<stop offset="0.5" stop-color="#929091" stop-opacity="0.7"/>
<stop offset="1" stop-color="white" stop-opacity="0"/>
</linearGradient>
<linearGradient id="paint23_linear_320_1789" x1="240.448" y1="156.448" x2="78.337" y2="-22.6412" gradientUnits="userSpaceOnUse">
<stop stop-color="#929091" stop-opacity="0"/>
<stop offset="0.5" stop-color="#929091" stop-opacity="0.7"/>
<stop offset="1" stop-color="white" stop-opacity="0"/>
</linearGradient>
<linearGradient id="paint24_linear_320_1789" x1="120.481" y1="265.029" x2="-41.6304" y2="85.9394" gradientUnits="userSpaceOnUse">
<stop stop-color="#929091" stop-opacity="0"/>
<stop offset="0.5" stop-color="#929091" stop-opacity="0.7"/>
<stop offset="1" stop-color="white" stop-opacity="0"/>
</linearGradient>
<linearGradient id="paint25_linear_320_1789" x1="141.077" y1="246.395" x2="-21.0178" y2="67.3055" gradientUnits="userSpaceOnUse">
<stop stop-color="#929091" stop-opacity="0"/>
<stop offset="0.5" stop-color="#929091" stop-opacity="0.7"/>
<stop offset="1" stop-color="white" stop-opacity="0"/>
</linearGradient>
<linearGradient id="paint26_linear_320_1789" x1="161.675" y1="227.745" x2="-0.420027" y2="48.6557" gradientUnits="userSpaceOnUse">
<stop stop-color="#929091" stop-opacity="0"/>
<stop offset="0.5" stop-color="#929091" stop-opacity="0.7"/>
<stop offset="1" stop-color="white" stop-opacity="0"/>
</linearGradient>
<linearGradient id="paint27_linear_320_1789" x1="182.272" y1="209.095" x2="20.1771" y2="30.0055" gradientUnits="userSpaceOnUse">
<stop stop-color="#929091" stop-opacity="0"/>
<stop offset="0.5" stop-color="#929091" stop-opacity="0.7"/>
<stop offset="1" stop-color="white" stop-opacity="0"/>
</linearGradient>
<linearGradient id="paint28_linear_320_1789" x1="202.868" y1="190.461" x2="40.7726" y2="11.3715" gradientUnits="userSpaceOnUse">
<stop stop-color="#929091" stop-opacity="0"/>
<stop offset="0.5" stop-color="#929091" stop-opacity="0.7"/>
<stop offset="1" stop-color="white" stop-opacity="0"/>
</linearGradient>
<linearGradient id="paint29_linear_320_1789" x1="223.482" y1="171.811" x2="61.3711" y2="-7.27856" gradientUnits="userSpaceOnUse">
<stop stop-color="#929091" stop-opacity="0"/>
<stop offset="0.5" stop-color="#929091" stop-opacity="0.7"/>
<stop offset="1" stop-color="white" stop-opacity="0"/>
</linearGradient>
<linearGradient id="paint30_linear_320_1789" x1="103.515" y1="280.392" x2="-58.5965" y2="101.302" gradientUnits="userSpaceOnUse">
<stop stop-color="#929091" stop-opacity="0"/>
<stop offset="0.5" stop-color="#929091" stop-opacity="0.7"/>
<stop offset="1" stop-color="white" stop-opacity="0"/>
</linearGradient>
<linearGradient id="paint31_linear_320_1789" x1="124.111" y1="261.758" x2="-38" y2="82.6682" gradientUnits="userSpaceOnUse">
<stop stop-color="#929091" stop-opacity="0"/>
<stop offset="0.5" stop-color="#929091" stop-opacity="0.7"/>
<stop offset="1" stop-color="white" stop-opacity="0"/>
</linearGradient>
<linearGradient id="paint32_linear_320_1789" x1="144.709" y1="243.108" x2="-17.4022" y2="64.0183" gradientUnits="userSpaceOnUse">
<stop stop-color="#929091" stop-opacity="0"/>
<stop offset="0.5" stop-color="#929091" stop-opacity="0.7"/>
<stop offset="1" stop-color="white" stop-opacity="0"/>
</linearGradient>
<linearGradient id="paint33_linear_320_1789" x1="165.306" y1="224.458" x2="3.19485" y2="45.3681" gradientUnits="userSpaceOnUse">
<stop stop-color="#929091" stop-opacity="0"/>
<stop offset="0.5" stop-color="#929091" stop-opacity="0.7"/>
<stop offset="1" stop-color="white" stop-opacity="0"/>
</linearGradient>
<linearGradient id="paint34_linear_320_1789" x1="185.902" y1="205.808" x2="23.7903" y2="26.7341" gradientUnits="userSpaceOnUse">
<stop stop-color="#929091" stop-opacity="0"/>
<stop offset="0.5" stop-color="#929091" stop-opacity="0.7"/>
<stop offset="1" stop-color="white" stop-opacity="0"/>
</linearGradient>
<linearGradient id="paint35_linear_320_1789" x1="206.5" y1="187.174" x2="44.4049" y2="8.08408" gradientUnits="userSpaceOnUse">
<stop stop-color="#929091" stop-opacity="0"/>
<stop offset="0.5" stop-color="#929091" stop-opacity="0.7"/>
<stop offset="1" stop-color="white" stop-opacity="0"/>
</linearGradient>
<clipPath id="clip0_320_1789">
<rect width="227" height="206" fill="white"/>
</clipPath>
<clipPath id="clip1_320_1789">
<rect width="83.8171" height="83.8171" fill="white" transform="translate(74.6211 61.3475)"/>
</clipPath>
</defs>
</svg>
