<svg width="169" height="153" viewBox="0 0 169 153" fill="none" xmlns="http://www.w3.org/2000/svg">
<g filter="url(#filter0_d_320_1791)">
<g opacity="0.26" clip-path="url(#clip0_320_1791)">
<path d="M31.8032 25.2051H4V0H31.8032V25.2051ZM5.24984 23.9635H30.5533V1.24164H5.24984V23.9635Z" fill="url(#paint0_linear_320_1791)"/>
<path d="M58.3562 25.2051H30.5645V0H58.3562V25.2051ZM31.8143 23.9635H57.1064V1.24164H31.8143V23.9635Z" fill="url(#paint1_linear_320_1791)"/>
<path d="M84.8988 25.2051H57.0957V0H84.8988V25.2051ZM58.3455 23.9635H83.649V1.24164H58.3569L58.3455 23.9635Z" fill="url(#paint2_linear_320_1791)"/>
<path d="M111.44 25.2051H83.6484V0H111.44V25.2051ZM84.8982 23.9635H110.19V1.24164H84.8982V23.9635Z" fill="url(#paint3_linear_320_1791)"/>
<path d="M137.995 25.2051H110.191V0H137.995V25.2051ZM111.441 23.9635H136.756V1.24164H111.453L111.441 23.9635Z" fill="url(#paint4_linear_320_1791)"/>
<path d="M164.536 25.2051H136.756V0H164.548L164.536 25.2051ZM137.994 23.9635H163.286V1.24164H137.994V23.9635Z" fill="url(#paint5_linear_320_1791)"/>
<path d="M31.8032 49.1686H4V23.9635H31.8032V49.1686ZM5.24984 47.927H30.5533V25.2051H5.24984V47.927Z" fill="url(#paint6_linear_320_1791)"/>
<path d="M58.3562 49.1686H30.5645V23.9635H58.3562V49.1686ZM31.8143 47.927H57.1064V25.2051H31.8143V47.927Z" fill="url(#paint7_linear_320_1791)"/>
<path d="M84.8988 49.1686H57.0957V23.9635H84.8988V49.1686ZM58.3455 47.927H83.649V25.2051H58.3569L58.3455 47.927Z" fill="url(#paint8_linear_320_1791)"/>
<path d="M111.44 49.1686H83.6484V23.9635H111.44V49.1686ZM84.8982 47.927H110.19V25.2051H84.8982V47.927Z" fill="url(#paint9_linear_320_1791)"/>
<path d="M137.995 49.1686H110.191V23.9635H137.995V49.1686ZM111.441 47.927H136.756V25.2051H111.453L111.441 47.927Z" fill="url(#paint10_linear_320_1791)"/>
<path d="M164.536 49.1686H136.756V23.9635H164.548L164.536 49.1686ZM137.994 47.927H163.286V25.2051H137.994V47.927Z" fill="url(#paint11_linear_320_1791)"/>
<path d="M31.8032 73.1208H4V47.927H31.8032V73.1208ZM5.24984 71.8792H30.5533V49.1686H5.24984V71.8792Z" fill="url(#paint12_linear_320_1791)"/>
<path d="M58.3562 73.1208H30.5645V47.927H58.3562V73.1208ZM31.8143 71.8792H57.1064V49.1686H31.8143V71.8792Z" fill="url(#paint13_linear_320_1791)"/>
<path d="M84.8988 73.1208H57.0957V47.927H84.8988V73.1208ZM58.3569 71.8792H83.6604V49.1686H58.3569V71.8792Z" fill="url(#paint14_linear_320_1791)"/>
<path d="M111.44 73.1208H83.6484V47.927H111.44V73.1208ZM84.8982 71.8792H110.19V49.1686H84.8982V71.8792Z" fill="url(#paint15_linear_320_1791)"/>
<path d="M137.995 73.1208H110.191V47.927H137.995V73.1208ZM111.441 71.8792H136.756V49.1686H111.453L111.441 71.8792Z" fill="url(#paint16_linear_320_1791)"/>
<path d="M164.536 73.1208H136.756V47.927H164.548L164.536 73.1208ZM137.994 71.8792H163.286V49.1686H137.994V71.8792Z" fill="url(#paint17_linear_320_1791)"/>
<path d="M31.8032 97.0843H4V71.8792H31.8032V97.0843ZM5.24984 95.8427H30.5533V73.1208H5.24984V95.8427Z" fill="url(#paint18_linear_320_1791)"/>
<path d="M58.3562 97.0843H30.5645V71.8792H58.3562V97.0843ZM31.8143 95.8427H57.1064V73.1208H31.8143V95.8427Z" fill="url(#paint19_linear_320_1791)"/>
<path d="M84.8988 97.0843H57.0957V71.8792H84.8988V97.0843ZM58.3455 95.8427H83.649V73.1208H58.3569L58.3455 95.8427Z" fill="url(#paint20_linear_320_1791)"/>
<path d="M111.44 97.0843H83.6484V71.8792H111.44V97.0843ZM84.8982 95.8427H110.19V73.1208H84.8982V95.8427Z" fill="url(#paint21_linear_320_1791)"/>
<path d="M137.995 97.0843H110.191V71.8792H137.995V97.0843ZM111.441 95.8427H136.756V73.1208H111.453L111.441 95.8427Z" fill="url(#paint22_linear_320_1791)"/>
<path d="M164.536 97.0843H136.756V71.8792H164.548L164.536 97.0843ZM137.994 95.8427H163.286V73.1208H137.994V95.8427Z" fill="url(#paint23_linear_320_1791)"/>
<path d="M31.8032 121.048H4V95.8427H31.8032V121.048ZM5.24984 119.806H30.5533V97.0843H5.24984V119.806Z" fill="url(#paint24_linear_320_1791)"/>
<path d="M58.3562 121.048H30.5645V95.8427H58.3562V121.048ZM31.8143 119.806H57.1064V97.0843H31.8143V119.806Z" fill="url(#paint25_linear_320_1791)"/>
<path d="M84.8988 121.048H57.0957V95.8427H84.8988V121.048ZM58.3455 119.806H83.649V97.0843H58.3569L58.3455 119.806Z" fill="url(#paint26_linear_320_1791)"/>
<path d="M111.44 121.048H83.6484V95.8427H111.44V121.048ZM84.8982 119.806H110.19V97.0843H84.8982V119.806Z" fill="url(#paint27_linear_320_1791)"/>
<path d="M137.995 121.048H110.191V95.8427H137.995V121.048ZM111.441 119.806H136.756V97.0843H111.453L111.441 119.806Z" fill="url(#paint28_linear_320_1791)"/>
<path d="M164.536 121.048H136.756V95.8427H164.548L164.536 121.048ZM137.994 119.806H163.286V97.0843H137.994V119.806Z" fill="url(#paint29_linear_320_1791)"/>
<path d="M31.8032 145H4V119.806H31.8032V145ZM5.24984 143.758H30.5533V121.048H5.24984V143.758Z" fill="url(#paint30_linear_320_1791)"/>
<path d="M58.3562 145H30.5645V119.806H58.3562V145ZM31.8143 143.758H57.1064V121.048H31.8143V143.758Z" fill="url(#paint31_linear_320_1791)"/>
<path d="M84.8988 145H57.0957V119.806H84.8988V145ZM58.3455 143.758H83.649V121.048H58.3569L58.3455 143.758Z" fill="url(#paint32_linear_320_1791)"/>
<path d="M111.44 145H83.6484V119.806H111.44V145ZM84.8982 143.758H110.19V121.048H84.8982V143.758Z" fill="url(#paint33_linear_320_1791)"/>
<path d="M137.995 145H110.191V119.806H137.995V145ZM111.441 143.758H136.756V121.048H111.453L111.441 143.758Z" fill="url(#paint34_linear_320_1791)"/>
<path d="M164.536 145H136.756V119.806H164.548L164.536 145ZM137.994 143.758H163.286V121.048H137.994V143.758Z" fill="url(#paint35_linear_320_1791)"/>
</g>
<path d="M41.0516 21.5189C41.0506 22.0522 40.8362 22.5634 40.4553 22.9401C40.0745 23.3168 39.5584 23.5282 39.0204 23.5278C38.4831 23.5275 37.9679 23.3157 37.588 22.9391C37.2081 22.5624 36.9945 22.0516 36.9941 21.5189C36.9945 20.9861 37.2081 20.4753 37.588 20.0987C37.9679 19.722 38.4831 19.5102 39.0204 19.5099C39.2868 19.5096 39.5507 19.5613 39.797 19.6621C40.0432 19.7628 40.2671 19.9107 40.4557 20.0973C40.6443 20.2838 40.794 20.5054 40.8962 20.7493C40.9985 20.9932 41.0513 21.2547 41.0516 21.5189Z" fill="white"/>
<path d="M41.0516 21.5189C41.0506 22.0522 40.8362 22.5634 40.4553 22.9401C40.0745 23.3168 39.5584 23.5282 39.0204 23.5278C38.4831 23.5275 37.9679 23.3157 37.588 22.9391C37.2081 22.5624 36.9945 22.0516 36.9941 21.5189C36.9945 20.9861 37.2081 20.4753 37.588 20.0987C37.9679 19.722 38.4831 19.5102 39.0204 19.5099C39.2868 19.5096 39.5507 19.5613 39.797 19.6621C40.0432 19.7628 40.2671 19.9107 40.4557 20.0973C40.6443 20.2838 40.794 20.5054 40.8962 20.7493C40.9985 20.9932 41.0513 21.2547 41.0516 21.5189Z" fill="#D7D7D7" fill-opacity="0.2"/>
<path d="M47.2086 21.5189C47.2083 21.783 47.1555 22.0445 47.0532 22.2884C46.951 22.5323 46.8013 22.7539 46.6126 22.9404C46.424 23.127 46.2002 23.2749 45.9539 23.3757C45.7077 23.4764 45.4438 23.5281 45.1774 23.5278C44.6403 23.5272 44.1254 23.3153 43.7458 22.9386C43.3661 22.562 43.1527 22.0514 43.1523 21.5189C43.1527 20.9864 43.3661 20.4757 43.7458 20.0991C44.1254 19.7224 44.6403 19.5105 45.1774 19.5099C45.4438 19.5096 45.7077 19.5613 45.9539 19.6621C46.2002 19.7628 46.424 19.9107 46.6126 20.0973C46.8013 20.2838 46.951 20.5054 47.0532 20.7493C47.1555 20.9932 47.2083 21.2547 47.2086 21.5189Z" fill="white"/>
<path d="M47.2086 21.5189C47.2083 21.783 47.1555 22.0445 47.0532 22.2884C46.951 22.5323 46.8013 22.7539 46.6126 22.9404C46.424 23.127 46.2002 23.2749 45.9539 23.3757C45.7077 23.4764 45.4438 23.5281 45.1774 23.5278C44.6403 23.5272 44.1254 23.3153 43.7458 22.9386C43.3661 22.562 43.1527 22.0514 43.1523 21.5189C43.1527 20.9864 43.3661 20.4757 43.7458 20.0991C44.1254 19.7224 44.6403 19.5105 45.1774 19.5099C45.4438 19.5096 45.7077 19.5613 45.9539 19.6621C46.2002 19.7628 46.424 19.9107 46.6126 20.0973C46.8013 20.2838 46.951 20.5054 47.0532 20.7493C47.1555 20.9932 47.2083 21.2547 47.2086 21.5189Z" fill="#D7D7D7" fill-opacity="0.2"/>
<path d="M53.3688 21.5189C53.3681 22.0521 53.1539 22.5633 52.7732 22.94C52.3926 23.3167 51.8766 23.5282 51.3388 23.5278C50.8015 23.5275 50.2863 23.3157 49.9063 22.9391C49.5264 22.5624 49.3128 22.0516 49.3125 21.5189C49.3128 20.9861 49.5264 20.4753 49.9063 20.0987C50.2863 19.722 50.8015 19.5102 51.3388 19.5099C51.6052 19.5096 51.869 19.5613 52.1152 19.6621C52.3613 19.7629 52.5851 19.9108 52.7736 20.0974C52.9621 20.2839 53.1117 20.5055 53.2138 20.7494C53.316 20.9933 53.3686 21.2548 53.3688 21.5189Z" fill="white"/>
<path d="M53.3688 21.5189C53.3681 22.0521 53.1539 22.5633 52.7732 22.94C52.3926 23.3167 51.8766 23.5282 51.3388 23.5278C50.8015 23.5275 50.2863 23.3157 49.9063 22.9391C49.5264 22.5624 49.3128 22.0516 49.3125 21.5189C49.3128 20.9861 49.5264 20.4753 49.9063 20.0987C50.2863 19.722 50.8015 19.5102 51.3388 19.5099C51.6052 19.5096 51.869 19.5613 52.1152 19.6621C52.3613 19.7629 52.5851 19.9108 52.7736 20.0974C52.9621 20.2839 53.1117 20.5055 53.2138 20.7494C53.316 20.9933 53.3686 21.2548 53.3688 21.5189Z" fill="#D7D7D7" fill-opacity="0.2"/>
<mask id="mask0_320_1791" style="mask-type:luminance" maskUnits="userSpaceOnUse" x="37" y="31" width="101" height="45">
<path d="M131.851 31.3418H43.2703C40.1719 31.3418 37.6602 33.8321 37.6602 36.904V70.277C37.6602 73.3489 40.1719 75.8392 43.2703 75.8392H131.851C134.949 75.8392 137.461 73.3489 137.461 70.277V36.904C137.461 33.8321 134.949 31.3418 131.851 31.3418Z" fill="white"/>
</mask>
<g mask="url(#mask0_320_1791)">
<path d="M38.8613 39.3106V71.6346H135.852V58.5964C135.852 58.5964 131.609 54.1503 125.486 55.4713C119.363 56.7924 113.1 67.3678 105.865 66.4066C98.6298 65.4454 95.9847 42.7954 85.2714 44.2372C74.558 45.679 76.0873 63.8231 65.9288 63.4621C55.7704 63.101 58.6468 46.8109 50.7594 41.9538C45.2625 38.5701 38.8613 39.3106 38.8613 39.3106Z" fill="white"/>
<path d="M38.8613 39.3106V71.6346H135.852V58.5964C135.852 58.5964 131.609 54.1503 125.486 55.4713C119.363 56.7924 113.1 67.3678 105.865 66.4066C98.6298 65.4454 95.9847 42.7954 85.2714 44.2372C74.558 45.679 76.0873 63.8231 65.9288 63.4621C55.7704 63.101 58.6468 46.8109 50.7594 41.9538C45.2625 38.5701 38.8613 39.3106 38.8613 39.3106Z" fill="#D7D7D7" fill-opacity="0.2"/>
<path d="M76.3821 67.1142C70.6281 67.1142 67.5462 60.5274 64.8248 54.7127C62.8441 50.4776 60.9716 46.478 58.3978 45.329C52.1381 42.5394 41.6278 44.6069 41.522 44.6288C41.4026 44.6515 41.2791 44.6267 41.1781 44.5599C41.077 44.493 41.0065 44.3894 40.9819 44.2714C40.9699 44.213 40.9696 44.1527 40.9811 44.0941C40.9926 44.0356 41.0156 43.9798 41.0489 43.9301C41.0821 43.8803 41.1249 43.8376 41.1749 43.8043C41.2248 43.771 41.2809 43.7477 41.3399 43.7359C41.7816 43.6457 52.2427 41.5867 58.7743 44.4983C61.6593 45.7852 63.6007 49.9348 65.6565 54.3272C68.389 60.1663 71.2137 66.203 76.3821 66.203H76.4719C80.5638 66.1481 82.5877 60.9299 84.7296 55.4068C87.275 48.8419 90.1687 41.405 97.3179 41.9624C104.388 42.5162 106.488 49.4152 108.342 55.5019C109.942 60.7469 111.32 65.2808 115.323 65.2808C119.648 65.2808 121.516 61.5264 123.32 57.8951C124.361 55.8044 125.343 53.8308 126.757 52.8123C130.56 50.0751 133.533 51.1144 133.657 51.1607C133.713 51.1812 133.765 51.2126 133.809 51.2531C133.854 51.2935 133.889 51.3423 133.914 51.3964C133.94 51.4506 133.954 51.5092 133.956 51.5688C133.958 51.6284 133.948 51.6879 133.927 51.7438C133.907 51.7998 133.875 51.8512 133.834 51.8951C133.794 51.939 133.744 51.9744 133.69 51.9995C133.635 52.0245 133.576 52.0386 133.516 52.041C133.456 52.0434 133.396 52.034 133.339 52.0133C133.235 51.9755 130.68 51.1119 127.296 53.5478C126.066 54.4346 125.131 56.3106 124.142 58.2976C122.296 61.9972 120.213 66.1896 115.319 66.1896C110.636 66.1896 109.093 61.1251 107.46 55.7641C105.606 49.6726 103.688 43.3737 97.2416 42.8687C90.7641 42.3527 88.1375 49.1591 85.581 55.7337C83.3246 61.552 81.1938 67.0483 76.4768 67.1117L76.3821 67.1142Z" fill="white"/>
<path d="M76.3821 67.1142C70.6281 67.1142 67.5462 60.5274 64.8248 54.7127C62.8441 50.4776 60.9716 46.478 58.3978 45.329C52.1381 42.5394 41.6278 44.6069 41.522 44.6288C41.4026 44.6515 41.2791 44.6267 41.1781 44.5599C41.077 44.493 41.0065 44.3894 40.9819 44.2714C40.9699 44.213 40.9696 44.1527 40.9811 44.0941C40.9926 44.0356 41.0156 43.9798 41.0489 43.9301C41.0821 43.8803 41.1249 43.8376 41.1749 43.8043C41.2248 43.771 41.2809 43.7477 41.3399 43.7359C41.7816 43.6457 52.2427 41.5867 58.7743 44.4983C61.6593 45.7852 63.6007 49.9348 65.6565 54.3272C68.389 60.1663 71.2137 66.203 76.3821 66.203H76.4719C80.5638 66.1481 82.5877 60.9299 84.7296 55.4068C87.275 48.8419 90.1687 41.405 97.3179 41.9624C104.388 42.5162 106.488 49.4152 108.342 55.5019C109.942 60.7469 111.32 65.2808 115.323 65.2808C119.648 65.2808 121.516 61.5264 123.32 57.8951C124.361 55.8044 125.343 53.8308 126.757 52.8123C130.56 50.0751 133.533 51.1144 133.657 51.1607C133.713 51.1812 133.765 51.2126 133.809 51.2531C133.854 51.2935 133.889 51.3423 133.914 51.3964C133.94 51.4506 133.954 51.5092 133.956 51.5688C133.958 51.6284 133.948 51.6879 133.927 51.7438C133.907 51.7998 133.875 51.8512 133.834 51.8951C133.794 51.939 133.744 51.9744 133.69 51.9995C133.635 52.0245 133.576 52.0386 133.516 52.041C133.456 52.0434 133.396 52.034 133.339 52.0133C133.235 51.9755 130.68 51.1119 127.296 53.5478C126.066 54.4346 125.131 56.3106 124.142 58.2976C122.296 61.9972 120.213 66.1896 115.319 66.1896C110.636 66.1896 109.093 61.1251 107.46 55.7641C105.606 49.6726 103.688 43.3737 97.2416 42.8687C90.7641 42.3527 88.1375 49.1591 85.581 55.7337C83.3246 61.552 81.1938 67.0483 76.4768 67.1117L76.3821 67.1142Z" fill="#D7D7D7" fill-opacity="0.2"/>
</g>
<path d="M131.851 31.3418H43.2703C40.1719 31.3418 37.6602 33.8321 37.6602 36.904V70.277C37.6602 73.3489 40.1719 75.8392 43.2703 75.8392H131.851C134.949 75.8392 137.461 73.3489 137.461 70.277V36.904C137.461 33.8321 134.949 31.3418 131.851 31.3418Z" stroke="white" stroke-width="2" stroke-miterlimit="10"/>
<path d="M131.851 31.3418H43.2703C40.1719 31.3418 37.6602 33.8321 37.6602 36.904V70.277C37.6602 73.3489 40.1719 75.8392 43.2703 75.8392H131.851C134.949 75.8392 137.461 73.3489 137.461 70.277V36.904C137.461 33.8321 134.949 31.3418 131.851 31.3418Z" stroke="#D7D7D7" stroke-opacity="0.2" stroke-width="2" stroke-miterlimit="10"/>
<path d="M58.2873 112.408C56.4842 112.406 54.7555 111.695 53.4805 110.431C52.2054 109.167 51.4883 107.453 51.4863 105.665C51.4883 103.877 52.2054 102.163 53.4804 100.899C54.7554 99.6345 56.4841 98.9232 58.2873 98.9209C60.0908 98.9228 61.8199 99.634 63.0951 100.898C64.3703 102.163 65.0876 103.877 65.0896 105.665C65.0873 107.453 64.3699 109.167 63.0947 110.431C61.8195 111.695 60.0906 112.406 58.2873 112.408ZM58.2873 101.648C57.2136 101.651 56.1844 102.074 55.4251 102.827C54.6659 103.58 54.2383 104.6 54.236 105.665C54.2383 106.73 54.6659 107.75 55.4251 108.503C56.1844 109.256 57.2136 109.679 58.2873 109.682C59.3613 109.68 60.3908 109.256 61.1503 108.503C61.9099 107.75 62.3376 106.73 62.3399 105.665C62.3376 104.6 61.9099 103.58 61.1503 102.827C60.3908 102.074 59.3613 101.65 58.2873 101.648Z" fill="white"/>
<path d="M58.2873 112.408C56.4842 112.406 54.7555 111.695 53.4805 110.431C52.2054 109.167 51.4883 107.453 51.4863 105.665C51.4883 103.877 52.2054 102.163 53.4804 100.899C54.7554 99.6345 56.4841 98.9232 58.2873 98.9209C60.0908 98.9228 61.8199 99.634 63.0951 100.898C64.3703 102.163 65.0876 103.877 65.0896 105.665C65.0873 107.453 64.3699 109.167 63.0947 110.431C61.8195 111.695 60.0906 112.406 58.2873 112.408ZM58.2873 101.648C57.2136 101.651 56.1844 102.074 55.4251 102.827C54.6659 103.58 54.2383 104.6 54.236 105.665C54.2383 106.73 54.6659 107.75 55.4251 108.503C56.1844 109.256 57.2136 109.679 58.2873 109.682C59.3613 109.68 60.3908 109.256 61.1503 108.503C61.9099 107.75 62.3376 106.73 62.3399 105.665C62.3376 104.6 61.9099 103.58 61.1503 102.827C60.3908 102.074 59.3613 101.65 58.2873 101.648Z" fill="#D7D7D7" fill-opacity="0.2"/>
<path d="M58.2887 122.459C57.4379 122.459 56.6221 122.123 56.0207 121.527C55.4192 120.93 55.0813 120.121 55.0813 119.278C55.0813 118.434 55.4192 117.625 56.0207 117.029C56.6221 116.432 57.4379 116.097 58.2887 116.097C61.079 116.094 63.7542 114.994 65.7274 113.037C67.7005 111.081 68.8105 108.429 68.8138 105.663C68.8105 102.896 67.7006 100.244 65.7275 98.2874C63.7543 96.3311 61.0791 95.2307 58.2887 95.2275C55.4984 95.2307 52.8233 96.3312 50.8504 98.2875C48.8774 100.244 47.7678 102.896 47.7648 105.663C47.7648 106.506 47.4268 107.315 46.8251 107.912C46.2233 108.509 45.4072 108.844 44.5562 108.844C43.7053 108.844 42.8892 108.509 42.2874 107.912C41.6857 107.315 41.3477 106.506 41.3477 105.663C41.3477 96.4009 48.9484 88.8663 58.2887 88.8663C67.629 88.8663 75.2309 96.4009 75.2309 105.663C75.2309 114.924 67.6302 122.459 58.2887 122.459Z" fill="white"/>
<path d="M58.2887 122.459C57.4379 122.459 56.6221 122.123 56.0207 121.527C55.4192 120.93 55.0813 120.121 55.0813 119.278C55.0813 118.434 55.4192 117.625 56.0207 117.029C56.6221 116.432 57.4379 116.097 58.2887 116.097C61.079 116.094 63.7542 114.994 65.7274 113.037C67.7005 111.081 68.8105 108.429 68.8138 105.663C68.8105 102.896 67.7006 100.244 65.7275 98.2874C63.7543 96.3311 61.0791 95.2307 58.2887 95.2275C55.4984 95.2307 52.8233 96.3312 50.8504 98.2875C48.8774 100.244 47.7678 102.896 47.7648 105.663C47.7648 106.506 47.4268 107.315 46.8251 107.912C46.2233 108.509 45.4072 108.844 44.5562 108.844C43.7053 108.844 42.8892 108.509 42.2874 107.912C41.6857 107.315 41.3477 106.506 41.3477 105.663C41.3477 96.4009 48.9484 88.8663 58.2887 88.8663C67.629 88.8663 75.2309 96.4009 75.2309 105.663C75.2309 114.924 67.6302 122.459 58.2887 122.459Z" fill="#D7D7D7" fill-opacity="0.2"/>
<path d="M99.6467 112.408C97.8436 112.406 96.1148 111.695 94.8398 110.431C93.5648 109.167 92.8477 107.453 92.8457 105.665C92.8477 103.877 93.5648 102.163 94.8398 100.899C96.1147 99.6345 97.8435 98.9232 99.6467 98.9209C101.45 98.9232 103.179 99.6345 104.454 100.899C105.729 102.163 106.446 103.877 106.448 105.665C106.446 107.453 105.729 109.167 104.454 110.431C103.179 111.695 101.45 112.406 99.6467 112.408ZM99.6467 101.648C98.5729 101.651 97.5438 102.074 96.7845 102.827C96.0252 103.58 95.5977 104.6 95.5954 105.665C95.5977 106.73 96.0252 107.75 96.7845 108.503C97.5438 109.256 98.5729 109.679 99.6467 109.682C100.72 109.679 101.75 109.256 102.509 108.503C103.268 107.75 103.696 106.73 103.698 105.665C103.696 104.6 103.268 103.58 102.509 102.827C101.75 102.074 100.72 101.651 99.6467 101.648Z" fill="white"/>
<path d="M99.6467 112.408C97.8436 112.406 96.1148 111.695 94.8398 110.431C93.5648 109.167 92.8477 107.453 92.8457 105.665C92.8477 103.877 93.5648 102.163 94.8398 100.899C96.1147 99.6345 97.8435 98.9232 99.6467 98.9209C101.45 98.9232 103.179 99.6345 104.454 100.899C105.729 102.163 106.446 103.877 106.448 105.665C106.446 107.453 105.729 109.167 104.454 110.431C103.179 111.695 101.45 112.406 99.6467 112.408ZM99.6467 101.648C98.5729 101.651 97.5438 102.074 96.7845 102.827C96.0252 103.58 95.5977 104.6 95.5954 105.665C95.5977 106.73 96.0252 107.75 96.7845 108.503C97.5438 109.256 98.5729 109.679 99.6467 109.682C100.72 109.679 101.75 109.256 102.509 108.503C103.268 107.75 103.696 106.73 103.698 105.665C103.696 104.6 103.268 103.58 102.509 102.827C101.75 102.074 100.72 101.651 99.6467 101.648Z" fill="#D7D7D7" fill-opacity="0.2"/>
<path d="M99.6461 122.459C90.3045 122.459 82.7051 114.924 82.7051 105.663C82.7051 96.4009 90.3045 88.8663 99.6461 88.8663C100.497 88.8663 101.313 89.2015 101.915 89.7981C102.517 90.3947 102.855 91.2038 102.855 92.0475C102.854 92.891 102.516 93.6998 101.914 94.2961C101.313 94.8925 100.497 95.2275 99.6461 95.2275C96.8557 95.2307 94.1805 96.3311 92.2073 98.2874C90.2342 100.244 89.1243 102.896 89.121 105.663C89.1243 108.429 90.2342 111.081 92.2074 113.037C94.1806 114.994 96.8558 116.094 99.6461 116.097C102.436 116.094 105.112 114.994 107.085 113.037C109.058 111.081 110.168 108.429 110.171 105.663C110.171 104.819 110.509 104.01 111.111 103.414C111.712 102.817 112.528 102.482 113.379 102.481C114.23 102.481 115.046 102.817 115.647 103.413C116.249 104.01 116.587 104.819 116.587 105.663C116.587 114.927 108.988 122.459 99.6461 122.459Z" fill="white"/>
<path d="M99.6461 122.459C90.3045 122.459 82.7051 114.924 82.7051 105.663C82.7051 96.4009 90.3045 88.8663 99.6461 88.8663C100.497 88.8663 101.313 89.2015 101.915 89.7981C102.517 90.3947 102.855 91.2038 102.855 92.0475C102.854 92.891 102.516 93.6998 101.914 94.2961C101.313 94.8925 100.497 95.2275 99.6461 95.2275C96.8557 95.2307 94.1805 96.3311 92.2073 98.2874C90.2342 100.244 89.1243 102.896 89.121 105.663C89.1243 108.429 90.2342 111.081 92.2074 113.037C94.1806 114.994 96.8558 116.094 99.6461 116.097C102.436 116.094 105.112 114.994 107.085 113.037C109.058 111.081 110.168 108.429 110.171 105.663C110.171 104.819 110.509 104.01 111.111 103.414C111.712 102.817 112.528 102.482 113.379 102.481C114.23 102.481 115.046 102.817 115.647 103.413C116.249 104.01 116.587 104.819 116.587 105.663C116.587 114.927 108.988 122.459 99.6461 122.459Z" fill="#D7D7D7" fill-opacity="0.2"/>
</g>
<defs>
<filter id="filter0_d_320_1791" x="0" y="0" width="168.535" height="153" filterUnits="userSpaceOnUse" color-interpolation-filters="sRGB">
<feFlood flood-opacity="0" result="BackgroundImageFix"/>
<feColorMatrix in="SourceAlpha" type="matrix" values="0 0 0 0 0 0 0 0 0 0 0 0 0 0 0 0 0 0 127 0" result="hardAlpha"/>
<feOffset dy="4"/>
<feGaussianBlur stdDeviation="2"/>
<feComposite in2="hardAlpha" operator="out"/>
<feColorMatrix type="matrix" values="0 0 0 0 0 0 0 0 0 0 0 0 0 0 0 0 0 0 0.25 0"/>
<feBlend mode="normal" in2="BackgroundImageFix" result="effect1_dropShadow_320_1791"/>
<feBlend mode="normal" in="SourceGraphic" in2="effect1_dropShadow_320_1791" result="shape"/>
</filter>
<linearGradient id="paint0_linear_320_1791" x1="137.21" y1="143.307" x2="23.1684" y2="16.7143" gradientUnits="userSpaceOnUse">
<stop stop-color="#929091" stop-opacity="0"/>
<stop offset="0.5" stop-color="#929091" stop-opacity="0.7"/>
<stop offset="1" stop-color="white" stop-opacity="0"/>
</linearGradient>
<linearGradient id="paint1_linear_320_1791" x1="151.776" y1="130.179" x2="37.7343" y2="3.58689" gradientUnits="userSpaceOnUse">
<stop stop-color="#929091" stop-opacity="0"/>
<stop offset="0.5" stop-color="#929091" stop-opacity="0.7"/>
<stop offset="1" stop-color="white" stop-opacity="0"/>
</linearGradient>
<linearGradient id="paint2_linear_320_1791" x1="166.354" y1="117.052" x2="52.3011" y2="-9.54051" gradientUnits="userSpaceOnUse">
<stop stop-color="#929091" stop-opacity="0"/>
<stop offset="0.5" stop-color="#929091" stop-opacity="0.7"/>
<stop offset="1" stop-color="white" stop-opacity="0"/>
</linearGradient>
<linearGradient id="paint3_linear_320_1791" x1="180.92" y1="103.924" x2="66.8669" y2="-22.6567" gradientUnits="userSpaceOnUse">
<stop stop-color="#929091" stop-opacity="0"/>
<stop offset="0.5" stop-color="#929091" stop-opacity="0.7"/>
<stop offset="1" stop-color="white" stop-opacity="0"/>
</linearGradient>
<linearGradient id="paint4_linear_320_1791" x1="195.487" y1="90.8084" x2="81.4343" y2="-35.7843" gradientUnits="userSpaceOnUse">
<stop stop-color="#929091" stop-opacity="0"/>
<stop offset="0.5" stop-color="#929091" stop-opacity="0.7"/>
<stop offset="1" stop-color="white" stop-opacity="0"/>
</linearGradient>
<linearGradient id="paint5_linear_320_1791" x1="210.053" y1="77.6809" x2="96.0003" y2="-48.9116" gradientUnits="userSpaceOnUse">
<stop stop-color="#929091" stop-opacity="0"/>
<stop offset="0.5" stop-color="#929091" stop-opacity="0.7"/>
<stop offset="1" stop-color="white" stop-opacity="0"/>
</linearGradient>
<linearGradient id="paint6_linear_320_1791" x1="125.211" y1="154.12" x2="11.1584" y2="27.5278" gradientUnits="userSpaceOnUse">
<stop stop-color="#929091" stop-opacity="0"/>
<stop offset="0.5" stop-color="#929091" stop-opacity="0.7"/>
<stop offset="1" stop-color="white" stop-opacity="0"/>
</linearGradient>
<linearGradient id="paint7_linear_320_1791" x1="139.777" y1="140.993" x2="25.7244" y2="14.4005" gradientUnits="userSpaceOnUse">
<stop stop-color="#929091" stop-opacity="0"/>
<stop offset="0.5" stop-color="#929091" stop-opacity="0.7"/>
<stop offset="1" stop-color="white" stop-opacity="0"/>
</linearGradient>
<linearGradient id="paint8_linear_320_1791" x1="154.344" y1="127.866" x2="40.3026" y2="1.27319" gradientUnits="userSpaceOnUse">
<stop stop-color="#929091" stop-opacity="0"/>
<stop offset="0.5" stop-color="#929091" stop-opacity="0.7"/>
<stop offset="1" stop-color="white" stop-opacity="0"/>
</linearGradient>
<linearGradient id="paint9_linear_320_1791" x1="168.91" y1="114.738" x2="54.8683" y2="-11.8544" gradientUnits="userSpaceOnUse">
<stop stop-color="#929091" stop-opacity="0"/>
<stop offset="0.5" stop-color="#929091" stop-opacity="0.7"/>
<stop offset="1" stop-color="white" stop-opacity="0"/>
</linearGradient>
<linearGradient id="paint10_linear_320_1791" x1="183.477" y1="101.622" x2="69.4357" y2="-24.9706" gradientUnits="userSpaceOnUse">
<stop stop-color="#929091" stop-opacity="0"/>
<stop offset="0.5" stop-color="#929091" stop-opacity="0.7"/>
<stop offset="1" stop-color="white" stop-opacity="0"/>
</linearGradient>
<linearGradient id="paint11_linear_320_1791" x1="198.043" y1="88.4945" x2="84.0017" y2="-38.098" gradientUnits="userSpaceOnUse">
<stop stop-color="#929091" stop-opacity="0"/>
<stop offset="0.5" stop-color="#929091" stop-opacity="0.7"/>
<stop offset="1" stop-color="white" stop-opacity="0"/>
</linearGradient>
<linearGradient id="paint12_linear_320_1791" x1="113.213" y1="164.923" x2="-0.840002" y2="38.3413" gradientUnits="userSpaceOnUse">
<stop stop-color="#929091" stop-opacity="0"/>
<stop offset="0.5" stop-color="#929091" stop-opacity="0.7"/>
<stop offset="1" stop-color="white" stop-opacity="0"/>
</linearGradient>
<linearGradient id="paint13_linear_320_1791" x1="127.779" y1="151.806" x2="13.726" y2="25.2139" gradientUnits="userSpaceOnUse">
<stop stop-color="#929091" stop-opacity="0"/>
<stop offset="0.5" stop-color="#929091" stop-opacity="0.7"/>
<stop offset="1" stop-color="white" stop-opacity="0"/>
</linearGradient>
<linearGradient id="paint14_linear_320_1791" x1="142.346" y1="138.679" x2="28.2928" y2="12.0866" gradientUnits="userSpaceOnUse">
<stop stop-color="#929091" stop-opacity="0"/>
<stop offset="0.5" stop-color="#929091" stop-opacity="0.7"/>
<stop offset="1" stop-color="white" stop-opacity="0"/>
</linearGradient>
<linearGradient id="paint15_linear_320_1791" x1="156.912" y1="125.552" x2="42.8586" y2="-1.04097" gradientUnits="userSpaceOnUse">
<stop stop-color="#929091" stop-opacity="0"/>
<stop offset="0.5" stop-color="#929091" stop-opacity="0.7"/>
<stop offset="1" stop-color="white" stop-opacity="0"/>
</linearGradient>
<linearGradient id="paint16_linear_320_1791" x1="171.479" y1="112.435" x2="57.4259" y2="-14.1572" gradientUnits="userSpaceOnUse">
<stop stop-color="#929091" stop-opacity="0"/>
<stop offset="0.5" stop-color="#929091" stop-opacity="0.7"/>
<stop offset="1" stop-color="white" stop-opacity="0"/>
</linearGradient>
<linearGradient id="paint17_linear_320_1791" x1="186.045" y1="99.308" x2="72.0033" y2="-27.2845" gradientUnits="userSpaceOnUse">
<stop stop-color="#929091" stop-opacity="0"/>
<stop offset="0.5" stop-color="#929091" stop-opacity="0.7"/>
<stop offset="1" stop-color="white" stop-opacity="0"/>
</linearGradient>
<linearGradient id="paint18_linear_320_1791" x1="101.203" y1="175.736" x2="-12.8383" y2="49.1434" gradientUnits="userSpaceOnUse">
<stop stop-color="#929091" stop-opacity="0"/>
<stop offset="0.5" stop-color="#929091" stop-opacity="0.7"/>
<stop offset="1" stop-color="white" stop-opacity="0"/>
</linearGradient>
<linearGradient id="paint19_linear_320_1791" x1="115.769" y1="162.62" x2="1.7277" y2="36.0273" gradientUnits="userSpaceOnUse">
<stop stop-color="#929091" stop-opacity="0"/>
<stop offset="0.5" stop-color="#929091" stop-opacity="0.7"/>
<stop offset="1" stop-color="white" stop-opacity="0"/>
</linearGradient>
<linearGradient id="paint20_linear_320_1791" x1="130.347" y1="149.492" x2="16.2945" y2="22.8999" gradientUnits="userSpaceOnUse">
<stop stop-color="#929091" stop-opacity="0"/>
<stop offset="0.5" stop-color="#929091" stop-opacity="0.7"/>
<stop offset="1" stop-color="white" stop-opacity="0"/>
</linearGradient>
<linearGradient id="paint21_linear_320_1791" x1="144.913" y1="136.365" x2="30.8603" y2="9.77241" gradientUnits="userSpaceOnUse">
<stop stop-color="#929091" stop-opacity="0"/>
<stop offset="0.5" stop-color="#929091" stop-opacity="0.7"/>
<stop offset="1" stop-color="white" stop-opacity="0"/>
</linearGradient>
<linearGradient id="paint22_linear_320_1791" x1="159.48" y1="123.249" x2="45.4276" y2="-3.3438" gradientUnits="userSpaceOnUse">
<stop stop-color="#929091" stop-opacity="0"/>
<stop offset="0.5" stop-color="#929091" stop-opacity="0.7"/>
<stop offset="1" stop-color="white" stop-opacity="0"/>
</linearGradient>
<linearGradient id="paint23_linear_320_1791" x1="174.046" y1="110.121" x2="59.9936" y2="-16.4712" gradientUnits="userSpaceOnUse">
<stop stop-color="#929091" stop-opacity="0"/>
<stop offset="0.5" stop-color="#929091" stop-opacity="0.7"/>
<stop offset="1" stop-color="white" stop-opacity="0"/>
</linearGradient>
<linearGradient id="paint24_linear_320_1791" x1="89.2047" y1="186.549" x2="-24.848" y2="59.9568" gradientUnits="userSpaceOnUse">
<stop stop-color="#929091" stop-opacity="0"/>
<stop offset="0.5" stop-color="#929091" stop-opacity="0.7"/>
<stop offset="1" stop-color="white" stop-opacity="0"/>
</linearGradient>
<linearGradient id="paint25_linear_320_1791" x1="103.771" y1="173.433" x2="-10.2707" y2="46.8408" gradientUnits="userSpaceOnUse">
<stop stop-color="#929091" stop-opacity="0"/>
<stop offset="0.5" stop-color="#929091" stop-opacity="0.7"/>
<stop offset="1" stop-color="white" stop-opacity="0"/>
</linearGradient>
<linearGradient id="paint26_linear_320_1791" x1="118.338" y1="160.306" x2="4.29613" y2="33.7135" gradientUnits="userSpaceOnUse">
<stop stop-color="#929091" stop-opacity="0"/>
<stop offset="0.5" stop-color="#929091" stop-opacity="0.7"/>
<stop offset="1" stop-color="white" stop-opacity="0"/>
</linearGradient>
<linearGradient id="paint27_linear_320_1791" x1="132.903" y1="147.178" x2="18.8619" y2="20.586" gradientUnits="userSpaceOnUse">
<stop stop-color="#929091" stop-opacity="0"/>
<stop offset="0.5" stop-color="#929091" stop-opacity="0.7"/>
<stop offset="1" stop-color="white" stop-opacity="0"/>
</linearGradient>
<linearGradient id="paint28_linear_320_1791" x1="147.471" y1="134.062" x2="33.4292" y2="7.46978" gradientUnits="userSpaceOnUse">
<stop stop-color="#929091" stop-opacity="0"/>
<stop offset="0.5" stop-color="#929091" stop-opacity="0.7"/>
<stop offset="1" stop-color="white" stop-opacity="0"/>
</linearGradient>
<linearGradient id="paint29_linear_320_1791" x1="162.048" y1="120.935" x2="47.9952" y2="-5.6577" gradientUnits="userSpaceOnUse">
<stop stop-color="#929091" stop-opacity="0"/>
<stop offset="0.5" stop-color="#929091" stop-opacity="0.7"/>
<stop offset="1" stop-color="white" stop-opacity="0"/>
</linearGradient>
<linearGradient id="paint30_linear_320_1791" x1="77.2063" y1="197.363" x2="-36.8466" y2="70.7704" gradientUnits="userSpaceOnUse">
<stop stop-color="#929091" stop-opacity="0"/>
<stop offset="0.5" stop-color="#929091" stop-opacity="0.7"/>
<stop offset="1" stop-color="white" stop-opacity="0"/>
</linearGradient>
<linearGradient id="paint31_linear_320_1791" x1="91.7723" y1="184.247" x2="-22.2806" y2="57.6543" gradientUnits="userSpaceOnUse">
<stop stop-color="#929091" stop-opacity="0"/>
<stop offset="0.5" stop-color="#929091" stop-opacity="0.7"/>
<stop offset="1" stop-color="white" stop-opacity="0"/>
</linearGradient>
<linearGradient id="paint32_linear_320_1791" x1="106.339" y1="171.119" x2="-7.71374" y2="44.527" gradientUnits="userSpaceOnUse">
<stop stop-color="#929091" stop-opacity="0"/>
<stop offset="0.5" stop-color="#929091" stop-opacity="0.7"/>
<stop offset="1" stop-color="white" stop-opacity="0"/>
</linearGradient>
<linearGradient id="paint33_linear_320_1791" x1="120.905" y1="157.992" x2="6.85199" y2="31.3994" gradientUnits="userSpaceOnUse">
<stop stop-color="#929091" stop-opacity="0"/>
<stop offset="0.5" stop-color="#929091" stop-opacity="0.7"/>
<stop offset="1" stop-color="white" stop-opacity="0"/>
</linearGradient>
<linearGradient id="paint34_linear_320_1791" x1="135.472" y1="144.865" x2="21.4192" y2="18.2832" gradientUnits="userSpaceOnUse">
<stop stop-color="#929091" stop-opacity="0"/>
<stop offset="0.5" stop-color="#929091" stop-opacity="0.7"/>
<stop offset="1" stop-color="white" stop-opacity="0"/>
</linearGradient>
<linearGradient id="paint35_linear_320_1791" x1="150.038" y1="131.748" x2="35.9967" y2="5.15588" gradientUnits="userSpaceOnUse">
<stop stop-color="#929091" stop-opacity="0"/>
<stop offset="0.5" stop-color="#929091" stop-opacity="0.7"/>
<stop offset="1" stop-color="white" stop-opacity="0"/>
</linearGradient>
<clipPath id="clip0_320_1791">
<rect width="160.536" height="145" fill="white" transform="translate(4)"/>
</clipPath>
</defs>
</svg>
