<svg width="68" height="69" viewBox="0 0 68 69" fill="none" xmlns="http://www.w3.org/2000/svg">
<rect x="0.5" y="0.805664" width="67" height="67" rx="33.5" fill="#202020"/>
<rect x="0.5" y="0.805664" width="67" height="67" rx="33.5" stroke="white"/>
<path d="M13 22.7498C13 21.0929 14.3431 19.7498 16 19.7498H18.5921C19.484 19.7498 20.3297 20.1466 20.8997 20.8327L32.6924 35.028C33.892 36.4719 36.108 36.4719 37.3076 35.028L49.1003 20.8327C49.6703 20.1466 50.516 19.7498 51.4079 19.7498H54C55.6569 19.7498 57 21.0929 57 22.7498V45.7498C57 47.4066 55.6569 48.7498 54 48.7498H16C14.3431 48.7498 13 47.4066 13 45.7498V22.7498Z" fill="#D9D9D9"/>
<path d="M35.7732 32.3607C35.3731 32.8493 34.6258 32.8493 34.2258 32.3607L25.0787 21.1892C24.5441 20.5363 25.0086 19.5557 25.8524 19.5557L44.1466 19.5557C44.9904 19.5557 45.4549 20.5363 44.9203 21.1892L35.7732 32.3607Z" fill="#D9D9D9"/>
</svg>
