<svg width="227" height="206" viewBox="0 0 227 206" fill="none" xmlns="http://www.w3.org/2000/svg">
<g opacity="0.26" clip-path="url(#clip0_320_1790)">
<path d="M39.3141 35.8086H0V0H39.3141V35.8086ZM1.7673 34.0447H37.5468V1.76398H1.7673V34.0447Z" fill="url(#paint0_linear_320_1790)"/>
<path d="M76.8605 35.8086H37.5625V0H76.8605V35.8086ZM39.3298 34.0447H75.0932V1.76398H39.3298V34.0447Z" fill="url(#paint1_linear_320_1790)"/>
<path d="M114.392 35.8086H75.0781V0H114.392V35.8086ZM76.8454 34.0447H112.625V1.76398H76.8615L76.8454 34.0447Z" fill="url(#paint2_linear_320_1790)"/>
<path d="M151.923 35.8086H112.625V0H151.923V35.8086ZM114.392 34.0447H150.156V1.76398H114.392V34.0447Z" fill="url(#paint3_linear_320_1790)"/>
<path d="M189.468 35.8086H150.154V0H189.468V35.8086ZM151.922 34.0447H187.717V1.76398H151.938L151.922 34.0447Z" fill="url(#paint4_linear_320_1790)"/>
<path d="M227.001 35.8086H187.719V0H227.017L227.001 35.8086ZM189.47 34.0447H225.233V1.76398H189.47V34.0447Z" fill="url(#paint5_linear_320_1790)"/>
<path d="M39.3141 69.8534H0V34.0447H39.3141V69.8534ZM1.7673 68.0894H37.5468V35.8087H1.7673V68.0894Z" fill="url(#paint6_linear_320_1790)"/>
<path d="M76.8605 69.8534H37.5625V34.0447H76.8605V69.8534ZM39.3298 68.0894H75.0932V35.8087H39.3298V68.0894Z" fill="url(#paint7_linear_320_1790)"/>
<path d="M114.392 69.8534H75.0781V34.0447H114.392V69.8534ZM76.8454 68.0894H112.625V35.8087H76.8615L76.8454 68.0894Z" fill="url(#paint8_linear_320_1790)"/>
<path d="M151.923 69.8534H112.625V34.0447H151.923V69.8534ZM114.392 68.0894H150.156V35.8087H114.392V68.0894Z" fill="url(#paint9_linear_320_1790)"/>
<path d="M189.468 69.8534H150.154V34.0447H189.468V69.8534ZM151.922 68.0894H187.717V35.8087H151.938L151.922 68.0894Z" fill="url(#paint10_linear_320_1790)"/>
<path d="M227.001 69.8534H187.719V34.0447H227.017L227.001 69.8534ZM189.47 68.0894H225.233V35.8087H189.47V68.0894Z" fill="url(#paint11_linear_320_1790)"/>
<path d="M39.3141 103.882H0V68.0894H39.3141V103.882ZM1.7673 102.118H37.5468V69.8533H1.7673V102.118Z" fill="url(#paint12_linear_320_1790)"/>
<path d="M76.8605 103.882H37.5625V68.0894H76.8605V103.882ZM39.3298 102.118H75.0932V69.8533H39.3298V102.118Z" fill="url(#paint13_linear_320_1790)"/>
<path d="M114.392 103.882H75.0781V68.0894H114.392V103.882ZM76.8615 102.118H112.641V69.8533H76.8615V102.118Z" fill="url(#paint14_linear_320_1790)"/>
<path d="M151.923 103.882H112.625V68.0894H151.923V103.882ZM114.392 102.118H150.156V69.8533H114.392V102.118Z" fill="url(#paint15_linear_320_1790)"/>
<path d="M189.468 103.882H150.154V68.0894H189.468V103.882ZM151.922 102.118H187.717V69.8533H151.938L151.922 102.118Z" fill="url(#paint16_linear_320_1790)"/>
<path d="M227.001 103.882H187.719V68.0894H227.017L227.001 103.882ZM189.47 102.118H225.233V69.8533H189.47V102.118Z" fill="url(#paint17_linear_320_1790)"/>
<path d="M39.3141 137.927H0V102.118H39.3141V137.927ZM1.7673 136.163H37.5468V103.882H1.7673V136.163Z" fill="url(#paint18_linear_320_1790)"/>
<path d="M76.8605 137.927H37.5625V102.118H76.8605V137.927ZM39.3298 136.163H75.0932V103.882H39.3298V136.163Z" fill="url(#paint19_linear_320_1790)"/>
<path d="M114.392 137.927H75.0781V102.118H114.392V137.927ZM76.8454 136.163H112.625V103.882H76.8615L76.8454 136.163Z" fill="url(#paint20_linear_320_1790)"/>
<path d="M151.923 137.927H112.625V102.118H151.923V137.927ZM114.392 136.163H150.156V103.882H114.392V136.163Z" fill="url(#paint21_linear_320_1790)"/>
<path d="M189.468 137.927H150.154V102.118H189.468V137.927ZM151.922 136.163H187.717V103.882H151.938L151.922 136.163Z" fill="url(#paint22_linear_320_1790)"/>
<path d="M227.001 137.927H187.719V102.118H227.017L227.001 137.927ZM189.47 136.163H225.233V103.882H189.47V136.163Z" fill="url(#paint23_linear_320_1790)"/>
<path d="M39.3141 171.971H0V136.163H39.3141V171.971ZM1.7673 170.207H37.5468V137.927H1.7673V170.207Z" fill="url(#paint24_linear_320_1790)"/>
<path d="M76.8605 171.971H37.5625V136.163H76.8605V171.971ZM39.3298 170.207H75.0932V137.927H39.3298V170.207Z" fill="url(#paint25_linear_320_1790)"/>
<path d="M114.392 171.971H75.0781V136.163H114.392V171.971ZM76.8454 170.207H112.625V137.927H76.8615L76.8454 170.207Z" fill="url(#paint26_linear_320_1790)"/>
<path d="M151.923 171.971H112.625V136.163H151.923V171.971ZM114.392 170.207H150.156V137.927H114.392V170.207Z" fill="url(#paint27_linear_320_1790)"/>
<path d="M189.468 171.971H150.154V136.163H189.468V171.971ZM151.922 170.207H187.717V137.927H151.938L151.922 170.207Z" fill="url(#paint28_linear_320_1790)"/>
<path d="M227.001 171.971H187.719V136.163H227.017L227.001 171.971ZM189.47 170.207H225.233V137.927H189.47V170.207Z" fill="url(#paint29_linear_320_1790)"/>
<path d="M39.3141 206H0V170.207H39.3141V206ZM1.7673 204.236H37.5468V171.971H1.7673V204.236Z" fill="url(#paint30_linear_320_1790)"/>
<path d="M76.8605 206H37.5625V170.207H76.8605V206ZM39.3298 204.236H75.0932V171.971H39.3298V204.236Z" fill="url(#paint31_linear_320_1790)"/>
<path d="M114.392 206H75.0781V170.207H114.392V206ZM76.8454 204.236H112.625V171.971H76.8615L76.8454 204.236Z" fill="url(#paint32_linear_320_1790)"/>
<path d="M151.923 206H112.625V170.207H151.923V206ZM114.392 204.236H150.156V171.971H114.392V204.236Z" fill="url(#paint33_linear_320_1790)"/>
<path d="M189.468 206H150.154V170.207H189.468V206ZM151.922 204.236H187.717V171.971H151.938L151.922 204.236Z" fill="url(#paint34_linear_320_1790)"/>
<path d="M227.001 206H187.719V170.207H227.017L227.001 206ZM189.47 204.236H225.233V171.971H189.47V204.236Z" fill="url(#paint35_linear_320_1790)"/>
</g>
<g clip-path="url(#clip1_320_1790)">
<path d="M94.0738 50.1137C93.5652 49.6051 92.8598 49.3125 92.1406 49.3125C91.4215 49.3125 90.716 49.6048 90.2074 50.1137C89.6988 50.6223 89.4062 51.3277 89.4062 52.0469C89.4062 52.766 89.6988 53.4715 90.2074 53.9798C90.716 54.4887 91.4215 54.7812 92.1406 54.7812C92.8598 54.7812 93.5652 54.4887 94.0738 53.9798C94.5824 53.4715 94.875 52.766 94.875 52.0469C94.875 51.3277 94.5824 50.6223 94.0738 50.1137Z" fill="white"/>
<path d="M94.0738 50.1137C93.5652 49.6051 92.8598 49.3125 92.1406 49.3125C91.4215 49.3125 90.716 49.6048 90.2074 50.1137C89.6988 50.6223 89.4062 51.3277 89.4062 52.0469C89.4062 52.766 89.6988 53.4715 90.2074 53.9798C90.716 54.4887 91.4215 54.7812 92.1406 54.7812C92.8598 54.7812 93.5652 54.4887 94.0738 53.9798C94.5824 53.4715 94.875 52.766 94.875 52.0469C94.875 51.3277 94.5824 50.6223 94.0738 50.1137Z" fill="#D7D7D7" fill-opacity="0.2"/>
<path d="M82.0356 49.3125H71.0508C69.5406 49.3125 68.3164 50.537 68.3164 52.0469C68.3164 53.5568 69.5406 54.7812 71.0508 54.7812H82.0356C83.5458 54.7812 84.77 53.5568 84.77 52.0469C84.77 50.537 83.5458 49.3125 82.0356 49.3125Z" fill="white"/>
<path d="M82.0356 49.3125H71.0508C69.5406 49.3125 68.3164 50.537 68.3164 52.0469C68.3164 53.5568 69.5406 54.7812 71.0508 54.7812H82.0356C83.5458 54.7812 84.77 53.5568 84.77 52.0469C84.77 50.537 83.5458 49.3125 82.0356 49.3125Z" fill="#D7D7D7" fill-opacity="0.2"/>
<path d="M84.2288 64.625H71.0508C69.5406 64.625 68.3164 65.8495 68.3164 67.3594C68.3164 68.8693 69.5406 70.0938 71.0508 70.0938H84.2288C85.739 70.0938 86.9632 68.8693 86.9632 67.3594C86.9632 65.8495 85.739 64.625 84.2288 64.625Z" fill="white"/>
<path d="M84.2288 64.625H71.0508C69.5406 64.625 68.3164 65.8495 68.3164 67.3594C68.3164 68.8693 69.5406 70.0938 71.0508 70.0938H84.2288C85.739 70.0938 86.9632 68.8693 86.9632 67.3594C86.9632 65.8495 85.739 64.625 84.2288 64.625Z" fill="#D7D7D7" fill-opacity="0.2"/>
<path d="M176.945 90.9073C176.945 90.9064 176.945 90.9059 176.946 90.9051L158.899 76.8512C158.886 76.8414 158.872 76.8334 158.859 76.8236V73.9219C158.859 72.412 157.635 71.1875 156.125 71.1875C154.615 71.1875 153.391 72.412 153.391 73.9219V111.018C153.391 111.035 153.393 111.051 153.393 111.068L130.768 133.693L128.148 131.314C124.053 127.594 119.064 125.114 113.717 124.078L120.816 116.978C121.884 115.911 121.884 114.179 120.816 113.111L111.632 103.926L151.658 86.8615C152.494 86.5052 153.098 85.7573 153.271 84.8657C153.443 83.974 153.162 83.0547 152.519 82.4124L139.449 69.3421C140.556 67.5366 141.149 65.4573 141.149 63.2862C141.149 60.1816 139.94 57.2632 137.745 55.0678C135.55 52.8727 132.631 51.6638 129.526 51.6638C127.355 51.6638 125.276 52.2569 123.471 53.3632L110.4 40.2929C109.758 39.6503 108.839 39.3681 107.946 39.542C107.054 39.7148 106.307 40.3194 105.951 41.155L87.5236 84.4334L77.6055 94.3512C74.8186 97.1381 73.2836 100.844 73.2836 104.785C73.2836 108.726 74.8186 112.432 77.6055 115.219C80.3924 118.005 84.098 119.541 88.0393 119.541C91.9807 119.541 95.686 118.006 98.4729 115.219L99.5158 114.176L108.882 123.542C108.588 123.534 108.294 123.528 107.999 123.528C100.533 123.528 93.3779 126.292 87.8515 131.313L85.2317 133.693L62.6061 111.067C62.6064 111.05 62.6086 111.034 62.6086 111.017V39.4688H93.23C94.7402 39.4688 95.9644 38.2443 95.9644 36.7344C95.9644 35.2245 94.7402 34 93.23 34H59.875C58.3648 34 57.1406 35.2245 57.1406 36.7344V76.3866C57.1171 76.4044 57.0922 76.4197 57.0693 76.4383L39.0224 90.9305C39.0227 90.9311 39.0227 90.9313 39.0229 90.9319C38.3998 91.4331 38 92.2006 38 93.0625V160.055C38 167.744 44.2557 174 51.9453 174H164.055C171.744 174 178 167.744 178 160.055V93.0625C178 92.1859 177.586 91.4077 176.945 90.9073ZM158.859 83.7517L171.143 93.3176L158.859 105.602V83.7517ZM129.527 57.1331C131.17 57.1331 132.716 57.7732 133.878 58.9356C135.04 60.0977 135.68 61.6429 135.68 63.2868C135.68 63.9649 135.566 64.6242 135.356 65.249L127.564 57.4574C128.189 57.2477 128.849 57.1331 129.527 57.1331ZM109.397 47.0236L121.305 58.9318C121.306 58.9329 121.307 58.9342 121.308 58.9356C121.309 58.937 121.311 58.9378 121.312 58.9389L133.878 71.5047L133.878 71.5052L133.879 71.5055L145.791 83.4181L139.986 85.893L106.924 52.8308L109.397 47.0236ZM104.614 58.2555L134.563 88.2046L107.465 99.7579L93.0717 85.365L104.614 58.2555ZM94.6065 111.352C92.8527 113.106 90.5205 114.072 88.0399 114.072C85.5593 114.072 83.2271 113.106 81.473 111.352C79.7189 109.598 78.7529 107.266 78.7529 104.786C78.7529 102.305 79.7189 99.9728 81.473 98.2187L89.8323 89.8595L102.965 102.994L94.6065 111.352ZM103.383 110.309L106.832 106.861L115.016 115.045L111.567 118.493L103.383 110.309ZM57.1406 83.3946V105.602L44.8242 93.2854L57.1406 83.3946ZM48.2077 167.328C48.1303 167.398 48.0589 167.473 47.9914 167.549C45.3043 166.126 43.4688 163.301 43.4688 160.055V99.6641L81.1799 137.375L48.2077 167.328ZM55.016 168.531L64.046 160.328H84.1171C85.6273 160.328 86.8515 159.104 86.8515 157.594C86.8515 156.084 85.6273 154.859 84.1171 154.859H70.066L91.5295 135.361C100.919 126.831 115.081 126.831 124.471 135.361L160.984 168.531H55.016ZM172.531 160.055C172.531 163.301 170.696 166.126 168.009 167.549C167.941 167.472 167.87 167.398 167.792 167.328L134.82 137.375L172.531 99.6641V160.055Z" fill="white"/>
<path d="M176.945 90.9073C176.945 90.9064 176.945 90.9059 176.946 90.9051L158.899 76.8512C158.886 76.8414 158.872 76.8334 158.859 76.8236V73.9219C158.859 72.412 157.635 71.1875 156.125 71.1875C154.615 71.1875 153.391 72.412 153.391 73.9219V111.018C153.391 111.035 153.393 111.051 153.393 111.068L130.768 133.693L128.148 131.314C124.053 127.594 119.064 125.114 113.717 124.078L120.816 116.978C121.884 115.911 121.884 114.179 120.816 113.111L111.632 103.926L151.658 86.8615C152.494 86.5052 153.098 85.7573 153.271 84.8657C153.443 83.974 153.162 83.0547 152.519 82.4124L139.449 69.3421C140.556 67.5366 141.149 65.4573 141.149 63.2862C141.149 60.1816 139.94 57.2632 137.745 55.0678C135.55 52.8727 132.631 51.6638 129.526 51.6638C127.355 51.6638 125.276 52.2569 123.471 53.3632L110.4 40.2929C109.758 39.6503 108.839 39.3681 107.946 39.542C107.054 39.7148 106.307 40.3194 105.951 41.155L87.5236 84.4334L77.6055 94.3512C74.8186 97.1381 73.2836 100.844 73.2836 104.785C73.2836 108.726 74.8186 112.432 77.6055 115.219C80.3924 118.005 84.098 119.541 88.0393 119.541C91.9807 119.541 95.686 118.006 98.4729 115.219L99.5158 114.176L108.882 123.542C108.588 123.534 108.294 123.528 107.999 123.528C100.533 123.528 93.3779 126.292 87.8515 131.313L85.2317 133.693L62.6061 111.067C62.6064 111.05 62.6086 111.034 62.6086 111.017V39.4688H93.23C94.7402 39.4688 95.9644 38.2443 95.9644 36.7344C95.9644 35.2245 94.7402 34 93.23 34H59.875C58.3648 34 57.1406 35.2245 57.1406 36.7344V76.3866C57.1171 76.4044 57.0922 76.4197 57.0693 76.4383L39.0224 90.9305C39.0227 90.9311 39.0227 90.9313 39.0229 90.9319C38.3998 91.4331 38 92.2006 38 93.0625V160.055C38 167.744 44.2557 174 51.9453 174H164.055C171.744 174 178 167.744 178 160.055V93.0625C178 92.1859 177.586 91.4077 176.945 90.9073ZM158.859 83.7517L171.143 93.3176L158.859 105.602V83.7517ZM129.527 57.1331C131.17 57.1331 132.716 57.7732 133.878 58.9356C135.04 60.0977 135.68 61.6429 135.68 63.2868C135.68 63.9649 135.566 64.6242 135.356 65.249L127.564 57.4574C128.189 57.2477 128.849 57.1331 129.527 57.1331ZM109.397 47.0236L121.305 58.9318C121.306 58.9329 121.307 58.9342 121.308 58.9356C121.309 58.937 121.311 58.9378 121.312 58.9389L133.878 71.5047L133.878 71.5052L133.879 71.5055L145.791 83.4181L139.986 85.893L106.924 52.8308L109.397 47.0236ZM104.614 58.2555L134.563 88.2046L107.465 99.7579L93.0717 85.365L104.614 58.2555ZM94.6065 111.352C92.8527 113.106 90.5205 114.072 88.0399 114.072C85.5593 114.072 83.2271 113.106 81.473 111.352C79.7189 109.598 78.7529 107.266 78.7529 104.786C78.7529 102.305 79.7189 99.9728 81.473 98.2187L89.8323 89.8595L102.965 102.994L94.6065 111.352ZM103.383 110.309L106.832 106.861L115.016 115.045L111.567 118.493L103.383 110.309ZM57.1406 83.3946V105.602L44.8242 93.2854L57.1406 83.3946ZM48.2077 167.328C48.1303 167.398 48.0589 167.473 47.9914 167.549C45.3043 166.126 43.4688 163.301 43.4688 160.055V99.6641L81.1799 137.375L48.2077 167.328ZM55.016 168.531L64.046 160.328H84.1171C85.6273 160.328 86.8515 159.104 86.8515 157.594C86.8515 156.084 85.6273 154.859 84.1171 154.859H70.066L91.5295 135.361C100.919 126.831 115.081 126.831 124.471 135.361L160.984 168.531H55.016ZM172.531 160.055C172.531 163.301 170.696 166.126 168.009 167.549C167.941 167.472 167.87 167.398 167.792 167.328L134.82 137.375L172.531 99.6641V160.055Z" fill="#D7D7D7" fill-opacity="0.2"/>
<path d="M158.167 34.9089C157.099 33.8414 155.368 33.8414 154.3 34.9089L143.254 45.9547C142.186 47.0225 142.186 48.7539 143.254 49.8219C143.788 50.3557 144.488 50.6228 145.187 50.6228C145.887 50.6228 146.587 50.3557 147.121 49.8219L158.167 38.7761C159.234 37.7084 159.234 35.9769 158.167 34.9089Z" fill="white"/>
<path d="M158.167 34.9089C157.099 33.8414 155.368 33.8414 154.3 34.9089L143.254 45.9547C142.186 47.0225 142.186 48.7539 143.254 49.8219C143.788 50.3557 144.488 50.6228 145.187 50.6228C145.887 50.6228 146.587 50.3557 147.121 49.8219L158.167 38.7761C159.234 37.7084 159.234 35.9769 158.167 34.9089Z" fill="#D7D7D7" fill-opacity="0.2"/>
<path d="M134.91 34C133.4 34 132.176 35.2245 132.176 36.7344V42.2269C132.176 43.7368 133.4 44.9613 134.91 44.9613C136.42 44.9613 137.645 43.7368 137.645 42.2269V36.7344C137.645 35.2245 136.42 34 134.91 34Z" fill="white"/>
<path d="M134.91 34C133.4 34 132.176 35.2245 132.176 36.7344V42.2269C132.176 43.7368 133.4 44.9613 134.91 44.9613C136.42 44.9613 137.645 43.7368 137.645 42.2269V36.7344C137.645 35.2245 136.42 34 134.91 34Z" fill="#D7D7D7" fill-opacity="0.2"/>
<path d="M156.313 55.1971H150.637C149.127 55.1971 147.902 56.4216 147.902 57.9315C147.902 59.4414 149.127 60.6659 150.637 60.6659H156.313C157.823 60.6659 159.047 59.4414 159.047 57.9315C159.047 56.4216 157.823 55.1971 156.313 55.1971Z" fill="white"/>
<path d="M156.313 55.1971H150.637C149.127 55.1971 147.902 56.4216 147.902 57.9315C147.902 59.4414 149.127 60.6659 150.637 60.6659H156.313C157.823 60.6659 159.047 59.4414 159.047 57.9315C159.047 56.4216 157.823 55.1971 156.313 55.1971Z" fill="#D7D7D7" fill-opacity="0.2"/>
<path d="M97.2613 155.661C96.75 155.152 96.0473 154.859 95.3281 154.859C94.6063 154.859 93.9035 155.152 93.3922 155.661C92.8836 156.169 92.5938 156.875 92.5938 157.594C92.5938 158.313 92.8836 159.018 93.3922 159.527C93.9035 160.036 94.609 160.328 95.3281 160.328C96.0473 160.328 96.75 160.036 97.2613 159.527C97.7699 159.018 98.0625 158.313 98.0625 157.594C98.0625 156.875 97.7699 156.169 97.2613 155.661Z" fill="white"/>
<path d="M97.2613 155.661C96.75 155.152 96.0473 154.859 95.3281 154.859C94.6063 154.859 93.9035 155.152 93.3922 155.661C92.8836 156.169 92.5938 156.875 92.5938 157.594C92.5938 158.313 92.8836 159.018 93.3922 159.527C93.9035 160.036 94.609 160.328 95.3281 160.328C96.0473 160.328 96.75 160.036 97.2613 159.527C97.7699 159.018 98.0625 158.313 98.0625 157.594C98.0625 156.875 97.7699 156.169 97.2613 155.661Z" fill="#D7D7D7" fill-opacity="0.2"/>
</g>
<defs>
<linearGradient id="paint0_linear_320_1790" x1="188.361" y1="203.594" x2="26.2656" y2="24.505" gradientUnits="userSpaceOnUse">
<stop stop-color="#929091" stop-opacity="0"/>
<stop offset="0.5" stop-color="#929091" stop-opacity="0.7"/>
<stop offset="1" stop-color="white" stop-opacity="0"/>
</linearGradient>
<linearGradient id="paint1_linear_320_1790" x1="208.957" y1="184.944" x2="46.8621" y2="5.85501" gradientUnits="userSpaceOnUse">
<stop stop-color="#929091" stop-opacity="0"/>
<stop offset="0.5" stop-color="#929091" stop-opacity="0.7"/>
<stop offset="1" stop-color="white" stop-opacity="0"/>
</linearGradient>
<linearGradient id="paint2_linear_320_1790" x1="229.571" y1="166.294" x2="67.4598" y2="-12.7949" gradientUnits="userSpaceOnUse">
<stop stop-color="#929091" stop-opacity="0"/>
<stop offset="0.5" stop-color="#929091" stop-opacity="0.7"/>
<stop offset="1" stop-color="white" stop-opacity="0"/>
</linearGradient>
<linearGradient id="paint3_linear_320_1790" x1="250.168" y1="147.644" x2="88.0569" y2="-31.429" gradientUnits="userSpaceOnUse">
<stop stop-color="#929091" stop-opacity="0"/>
<stop offset="0.5" stop-color="#929091" stop-opacity="0.7"/>
<stop offset="1" stop-color="white" stop-opacity="0"/>
</linearGradient>
<linearGradient id="paint4_linear_320_1790" x1="270.764" y1="129.01" x2="108.652" y2="-50.079" gradientUnits="userSpaceOnUse">
<stop stop-color="#929091" stop-opacity="0"/>
<stop offset="0.5" stop-color="#929091" stop-opacity="0.7"/>
<stop offset="1" stop-color="white" stop-opacity="0"/>
</linearGradient>
<linearGradient id="paint5_linear_320_1790" x1="291.362" y1="110.361" x2="129.251" y2="-68.729" gradientUnits="userSpaceOnUse">
<stop stop-color="#929091" stop-opacity="0"/>
<stop offset="0.5" stop-color="#929091" stop-opacity="0.7"/>
<stop offset="1" stop-color="white" stop-opacity="0"/>
</linearGradient>
<linearGradient id="paint6_linear_320_1790" x1="171.395" y1="218.957" x2="9.28333" y2="39.8677" gradientUnits="userSpaceOnUse">
<stop stop-color="#929091" stop-opacity="0"/>
<stop offset="0.5" stop-color="#929091" stop-opacity="0.7"/>
<stop offset="1" stop-color="white" stop-opacity="0"/>
</linearGradient>
<linearGradient id="paint7_linear_320_1790" x1="191.991" y1="200.307" x2="29.8798" y2="21.2178" gradientUnits="userSpaceOnUse">
<stop stop-color="#929091" stop-opacity="0"/>
<stop offset="0.5" stop-color="#929091" stop-opacity="0.7"/>
<stop offset="1" stop-color="white" stop-opacity="0"/>
</linearGradient>
<linearGradient id="paint8_linear_320_1790" x1="212.589" y1="181.657" x2="50.4936" y2="2.56795" gradientUnits="userSpaceOnUse">
<stop stop-color="#929091" stop-opacity="0"/>
<stop offset="0.5" stop-color="#929091" stop-opacity="0.7"/>
<stop offset="1" stop-color="white" stop-opacity="0"/>
</linearGradient>
<linearGradient id="paint9_linear_320_1790" x1="233.186" y1="163.007" x2="71.0907" y2="-16.0822" gradientUnits="userSpaceOnUse">
<stop stop-color="#929091" stop-opacity="0"/>
<stop offset="0.5" stop-color="#929091" stop-opacity="0.7"/>
<stop offset="1" stop-color="white" stop-opacity="0"/>
</linearGradient>
<linearGradient id="paint10_linear_320_1790" x1="253.782" y1="144.373" x2="91.6862" y2="-34.7163" gradientUnits="userSpaceOnUse">
<stop stop-color="#929091" stop-opacity="0"/>
<stop offset="0.5" stop-color="#929091" stop-opacity="0.7"/>
<stop offset="1" stop-color="white" stop-opacity="0"/>
</linearGradient>
<linearGradient id="paint11_linear_320_1790" x1="274.38" y1="125.723" x2="112.285" y2="-53.3663" gradientUnits="userSpaceOnUse">
<stop stop-color="#929091" stop-opacity="0"/>
<stop offset="0.5" stop-color="#929091" stop-opacity="0.7"/>
<stop offset="1" stop-color="white" stop-opacity="0"/>
</linearGradient>
<linearGradient id="paint12_linear_320_1790" x1="154.429" y1="234.304" x2="-7.68259" y2="55.2303" gradientUnits="userSpaceOnUse">
<stop stop-color="#929091" stop-opacity="0"/>
<stop offset="0.5" stop-color="#929091" stop-opacity="0.7"/>
<stop offset="1" stop-color="white" stop-opacity="0"/>
</linearGradient>
<linearGradient id="paint13_linear_320_1790" x1="175.025" y1="215.67" x2="12.9139" y2="36.5804" gradientUnits="userSpaceOnUse">
<stop stop-color="#929091" stop-opacity="0"/>
<stop offset="0.5" stop-color="#929091" stop-opacity="0.7"/>
<stop offset="1" stop-color="white" stop-opacity="0"/>
</linearGradient>
<linearGradient id="paint14_linear_320_1790" x1="195.623" y1="197.02" x2="33.5117" y2="17.9305" gradientUnits="userSpaceOnUse">
<stop stop-color="#929091" stop-opacity="0"/>
<stop offset="0.5" stop-color="#929091" stop-opacity="0.7"/>
<stop offset="1" stop-color="white" stop-opacity="0"/>
</linearGradient>
<linearGradient id="paint15_linear_320_1790" x1="216.22" y1="178.37" x2="54.1088" y2="-0.719681" gradientUnits="userSpaceOnUse">
<stop stop-color="#929091" stop-opacity="0"/>
<stop offset="0.5" stop-color="#929091" stop-opacity="0.7"/>
<stop offset="1" stop-color="white" stop-opacity="0"/>
</linearGradient>
<linearGradient id="paint16_linear_320_1790" x1="236.816" y1="159.736" x2="74.7043" y2="-19.3537" gradientUnits="userSpaceOnUse">
<stop stop-color="#929091" stop-opacity="0"/>
<stop offset="0.5" stop-color="#929091" stop-opacity="0.7"/>
<stop offset="1" stop-color="white" stop-opacity="0"/>
</linearGradient>
<linearGradient id="paint17_linear_320_1790" x1="257.414" y1="141.086" x2="95.3189" y2="-38.0037" gradientUnits="userSpaceOnUse">
<stop stop-color="#929091" stop-opacity="0"/>
<stop offset="0.5" stop-color="#929091" stop-opacity="0.7"/>
<stop offset="1" stop-color="white" stop-opacity="0"/>
</linearGradient>
<linearGradient id="paint18_linear_320_1790" x1="137.447" y1="249.666" x2="-24.6483" y2="70.5768" gradientUnits="userSpaceOnUse">
<stop stop-color="#929091" stop-opacity="0"/>
<stop offset="0.5" stop-color="#929091" stop-opacity="0.7"/>
<stop offset="1" stop-color="white" stop-opacity="0"/>
</linearGradient>
<linearGradient id="paint19_linear_320_1790" x1="158.043" y1="231.032" x2="-4.05186" y2="51.9429" gradientUnits="userSpaceOnUse">
<stop stop-color="#929091" stop-opacity="0"/>
<stop offset="0.5" stop-color="#929091" stop-opacity="0.7"/>
<stop offset="1" stop-color="white" stop-opacity="0"/>
</linearGradient>
<linearGradient id="paint20_linear_320_1790" x1="178.657" y1="212.382" x2="16.5459" y2="33.293" gradientUnits="userSpaceOnUse">
<stop stop-color="#929091" stop-opacity="0"/>
<stop offset="0.5" stop-color="#929091" stop-opacity="0.7"/>
<stop offset="1" stop-color="white" stop-opacity="0"/>
</linearGradient>
<linearGradient id="paint21_linear_320_1790" x1="199.254" y1="193.732" x2="37.143" y2="14.6429" gradientUnits="userSpaceOnUse">
<stop stop-color="#929091" stop-opacity="0"/>
<stop offset="0.5" stop-color="#929091" stop-opacity="0.7"/>
<stop offset="1" stop-color="white" stop-opacity="0"/>
</linearGradient>
<linearGradient id="paint22_linear_320_1790" x1="219.85" y1="175.098" x2="57.7385" y2="-3.99116" gradientUnits="userSpaceOnUse">
<stop stop-color="#929091" stop-opacity="0"/>
<stop offset="0.5" stop-color="#929091" stop-opacity="0.7"/>
<stop offset="1" stop-color="white" stop-opacity="0"/>
</linearGradient>
<linearGradient id="paint23_linear_320_1790" x1="240.448" y1="156.448" x2="78.337" y2="-22.6412" gradientUnits="userSpaceOnUse">
<stop stop-color="#929091" stop-opacity="0"/>
<stop offset="0.5" stop-color="#929091" stop-opacity="0.7"/>
<stop offset="1" stop-color="white" stop-opacity="0"/>
</linearGradient>
<linearGradient id="paint24_linear_320_1790" x1="120.481" y1="265.029" x2="-41.6304" y2="85.9394" gradientUnits="userSpaceOnUse">
<stop stop-color="#929091" stop-opacity="0"/>
<stop offset="0.5" stop-color="#929091" stop-opacity="0.7"/>
<stop offset="1" stop-color="white" stop-opacity="0"/>
</linearGradient>
<linearGradient id="paint25_linear_320_1790" x1="141.077" y1="246.395" x2="-21.0178" y2="67.3055" gradientUnits="userSpaceOnUse">
<stop stop-color="#929091" stop-opacity="0"/>
<stop offset="0.5" stop-color="#929091" stop-opacity="0.7"/>
<stop offset="1" stop-color="white" stop-opacity="0"/>
</linearGradient>
<linearGradient id="paint26_linear_320_1790" x1="161.675" y1="227.745" x2="-0.420027" y2="48.6557" gradientUnits="userSpaceOnUse">
<stop stop-color="#929091" stop-opacity="0"/>
<stop offset="0.5" stop-color="#929091" stop-opacity="0.7"/>
<stop offset="1" stop-color="white" stop-opacity="0"/>
</linearGradient>
<linearGradient id="paint27_linear_320_1790" x1="182.272" y1="209.095" x2="20.1771" y2="30.0055" gradientUnits="userSpaceOnUse">
<stop stop-color="#929091" stop-opacity="0"/>
<stop offset="0.5" stop-color="#929091" stop-opacity="0.7"/>
<stop offset="1" stop-color="white" stop-opacity="0"/>
</linearGradient>
<linearGradient id="paint28_linear_320_1790" x1="202.868" y1="190.461" x2="40.7726" y2="11.3715" gradientUnits="userSpaceOnUse">
<stop stop-color="#929091" stop-opacity="0"/>
<stop offset="0.5" stop-color="#929091" stop-opacity="0.7"/>
<stop offset="1" stop-color="white" stop-opacity="0"/>
</linearGradient>
<linearGradient id="paint29_linear_320_1790" x1="223.482" y1="171.811" x2="61.3711" y2="-7.27856" gradientUnits="userSpaceOnUse">
<stop stop-color="#929091" stop-opacity="0"/>
<stop offset="0.5" stop-color="#929091" stop-opacity="0.7"/>
<stop offset="1" stop-color="white" stop-opacity="0"/>
</linearGradient>
<linearGradient id="paint30_linear_320_1790" x1="103.515" y1="280.392" x2="-58.5965" y2="101.302" gradientUnits="userSpaceOnUse">
<stop stop-color="#929091" stop-opacity="0"/>
<stop offset="0.5" stop-color="#929091" stop-opacity="0.7"/>
<stop offset="1" stop-color="white" stop-opacity="0"/>
</linearGradient>
<linearGradient id="paint31_linear_320_1790" x1="124.111" y1="261.758" x2="-38" y2="82.6682" gradientUnits="userSpaceOnUse">
<stop stop-color="#929091" stop-opacity="0"/>
<stop offset="0.5" stop-color="#929091" stop-opacity="0.7"/>
<stop offset="1" stop-color="white" stop-opacity="0"/>
</linearGradient>
<linearGradient id="paint32_linear_320_1790" x1="144.709" y1="243.108" x2="-17.4022" y2="64.0183" gradientUnits="userSpaceOnUse">
<stop stop-color="#929091" stop-opacity="0"/>
<stop offset="0.5" stop-color="#929091" stop-opacity="0.7"/>
<stop offset="1" stop-color="white" stop-opacity="0"/>
</linearGradient>
<linearGradient id="paint33_linear_320_1790" x1="165.306" y1="224.458" x2="3.19485" y2="45.3681" gradientUnits="userSpaceOnUse">
<stop stop-color="#929091" stop-opacity="0"/>
<stop offset="0.5" stop-color="#929091" stop-opacity="0.7"/>
<stop offset="1" stop-color="white" stop-opacity="0"/>
</linearGradient>
<linearGradient id="paint34_linear_320_1790" x1="185.902" y1="205.808" x2="23.7903" y2="26.7341" gradientUnits="userSpaceOnUse">
<stop stop-color="#929091" stop-opacity="0"/>
<stop offset="0.5" stop-color="#929091" stop-opacity="0.7"/>
<stop offset="1" stop-color="white" stop-opacity="0"/>
</linearGradient>
<linearGradient id="paint35_linear_320_1790" x1="206.5" y1="187.174" x2="44.4049" y2="8.08408" gradientUnits="userSpaceOnUse">
<stop stop-color="#929091" stop-opacity="0"/>
<stop offset="0.5" stop-color="#929091" stop-opacity="0.7"/>
<stop offset="1" stop-color="white" stop-opacity="0"/>
</linearGradient>
<clipPath id="clip0_320_1790">
<rect width="227" height="206" fill="white"/>
</clipPath>
<clipPath id="clip1_320_1790">
<rect width="140" height="140" fill="white" transform="translate(38 34)"/>
</clipPath>
</defs>
</svg>
