<svg width="68" height="68" viewBox="0 0 68 68" fill="none" xmlns="http://www.w3.org/2000/svg">
<rect x="0.5" y="0.5" width="67" height="67" rx="33.5" fill="#202020"/>
<rect x="0.5" y="0.5" width="67" height="67" rx="33.5" stroke="white"/>
<g clip-path="url(#clip0_87_5206)">
<path d="M37.4095 20.7124C37.4513 20.7612 37.4583 20.7751 37.4652 20.7751C38.1548 20.8726 38.4752 21.388 38.8443 21.9035C39.2692 22.4885 39.7777 23.0249 40.3209 23.5124C41.7488 24.801 42.6264 26.3612 42.919 28.2627C43.4274 31.592 41.519 35.0119 38.3846 36.3423C33.6274 38.3622 28.313 35.2905 27.7627 30.1502C27.4702 27.4129 28.4732 25.1492 30.5627 23.3662C31.2384 22.788 31.8025 22.1194 32.2692 21.3602C32.3528 21.2209 32.506 21.1094 32.6523 21.0398C32.8891 20.9283 33.1538 20.8657 33.4533 20.7612C33.3558 20.6428 33.2861 20.5592 33.2095 20.4756C32.7428 19.995 32.2762 19.5005 31.8025 19.0338C31.6354 18.8667 31.5588 18.6925 31.5657 18.4557C31.5797 17.4667 31.5727 16.4846 31.5727 15.4955C31.5727 15.0985 32.0602 14.4647 32.4573 14.388C32.91 14.2975 33.3767 14.2487 33.8294 14.1582C33.9617 14.1303 34.108 14.0468 34.1846 13.9423C34.8463 13.0507 36.0095 13.0438 36.6642 13.9283C36.7548 14.0468 36.9289 14.1373 37.0752 14.1721C37.4931 14.2627 37.918 14.3114 38.3428 14.388C38.7677 14.4716 39.2204 15.0219 39.2204 15.4537C39.2204 16.4497 39.2135 17.4527 39.2274 18.4487C39.2344 18.7065 39.1508 18.8806 38.9767 19.0617C38.4473 19.598 37.9389 20.1482 37.4095 20.7124ZM34.4841 24.592C34.4632 24.6756 34.4423 24.7244 34.4493 24.7662C34.5399 25.2328 34.3239 25.4348 33.8921 25.6089C33.0702 25.9502 32.701 26.6398 32.7219 27.5244C32.7428 28.402 33.2165 28.9453 34.0105 29.2308C34.3588 29.3562 34.7209 29.4468 35.0692 29.5652C35.3896 29.6696 35.71 29.7741 36.0165 29.8995C36.2742 30.004 36.4204 30.206 36.3926 30.4985C36.3647 30.798 36.1767 30.9721 35.912 31.0209C35.6403 31.0766 35.3478 31.1254 35.0901 31.0627C34.5886 30.9443 34.108 30.7423 33.5787 30.5612C33.3418 30.8746 33.0702 31.2298 32.7428 31.6686C33.2374 31.8846 33.6622 32.1075 34.115 32.2607C34.3727 32.3443 34.4772 32.4557 34.4423 32.7204C34.4214 32.9084 34.4354 33.1035 34.4354 33.3194C34.8324 33.3194 35.1667 33.3194 35.501 33.3194C35.9816 33.3194 36.0025 33.3194 35.9747 32.8249C35.9607 32.5184 36.0304 32.3512 36.3647 32.3094C36.5389 32.2885 36.713 32.191 36.8732 32.1005C37.6115 31.6965 37.918 31.0487 37.904 30.2269C37.8901 29.4468 37.5001 28.9104 36.8035 28.597C36.4901 28.4577 36.1558 28.3532 35.8214 28.2418C35.4035 28.1025 34.9856 27.9771 34.5677 27.8239C34.31 27.7264 34.2055 27.5174 34.2264 27.2388C34.2473 26.9741 34.4075 26.793 34.6513 26.7512C34.9438 26.7025 35.2573 26.6746 35.5428 26.7234C35.8911 26.7861 36.2185 26.9463 36.5876 27.0716C36.8175 26.7164 37.0543 26.3403 37.3329 25.9015C37.0125 25.7552 36.7408 25.5741 36.4483 25.5254C36.0374 25.4557 35.912 25.2676 35.9607 24.8776C35.9747 24.7871 35.8493 24.606 35.7727 24.599C35.3548 24.5781 34.916 24.592 34.4841 24.592Z" fill="url(#paint0_linear_87_5206)"/>
<path d="M34.8596 48.7194C33.376 48.7194 31.8854 48.6776 30.4019 48.7333C29.4058 48.7681 28.5561 48.4686 27.7551 47.9393C26.6198 47.1801 25.582 46.3164 24.6765 45.2856C23.3392 43.7602 21.9879 42.2348 20.6506 40.7094C19.5571 39.4557 20.0516 37.603 21.6118 37.0945C21.7929 37.0318 22.0019 37.0109 22.1899 37.0109C23.4297 37.004 24.6765 36.997 25.9163 37.0179C26.0904 37.0179 26.2994 37.1084 26.4247 37.2269C27.2745 38.0487 28.1103 38.8915 28.9392 39.7343C29.1063 39.9015 29.2596 39.9363 29.4964 39.9015C29.9979 39.8249 30.5133 39.7552 31.0218 39.7552C33.369 39.7413 35.7093 39.7482 38.0566 39.7482C38.8576 39.7482 39.4496 40.1592 39.6586 40.8418C39.979 41.8726 39.2267 42.8408 38.0775 42.8477C36.5243 42.8547 34.9641 42.8477 33.4108 42.8477C33.1322 42.8477 32.8536 42.8408 32.575 42.8477C32.0735 42.8617 31.7461 43.1821 31.7392 43.6348C31.7392 44.0945 32.0665 44.4428 32.5611 44.4428C35.0337 44.4497 37.5063 44.4497 39.979 44.4428C40.4805 44.4428 40.8427 44.1642 41.1909 43.8298C42.8068 42.2766 44.4228 40.7234 46.0456 39.1771C46.7073 38.5433 47.5849 38.5154 48.2118 39.0796C48.8874 39.6925 48.9014 40.6816 48.2188 41.3711C47.5014 42.1025 46.77 42.792 46.0456 43.4955C44.4437 45.0487 42.8417 46.595 41.2466 48.1482C40.8566 48.5244 40.4247 48.7194 39.8745 48.7194C38.2029 48.7124 36.5312 48.7194 34.8596 48.7194Z" fill="url(#paint1_linear_87_5206)"/>
<path d="M26.5716 19.2846C27.2472 19.9602 27.9228 20.6358 28.5845 21.2975C28.1736 21.7084 27.7417 22.1403 27.3099 22.5652C26.6691 21.9035 25.9935 21.2069 25.3457 20.5383C25.7288 20.1482 26.1606 19.7025 26.5716 19.2846Z" fill="url(#paint2_linear_87_5206)"/>
<path d="M44.158 19.2846C44.5689 19.6955 44.9938 20.1343 45.3908 20.5313C44.7291 21.193 44.0396 21.8826 43.3709 22.5443C42.9669 22.1403 42.5421 21.7015 42.1172 21.2766C42.7789 20.6288 43.4615 19.9602 44.158 19.2846Z" fill="url(#paint3_linear_87_5206)"/>
<path d="M45.7596 30.2617C45.7596 29.6696 45.7526 29.1263 45.7665 28.5831C45.7665 28.5134 45.8989 28.388 45.9685 28.388C46.8183 28.3741 47.661 28.3741 48.5108 28.388C48.5804 28.388 48.7128 28.4925 48.7128 28.5482C48.7267 29.1124 48.7198 29.6766 48.7198 30.2617C47.7237 30.2617 46.7625 30.2617 45.7596 30.2617Z" fill="url(#paint4_linear_87_5206)"/>
<path d="M24.9488 30.2826C23.9876 30.2826 23.0891 30.2895 22.1837 30.2756C22.114 30.2756 22.0026 30.1433 21.9956 30.0666C21.9817 29.5791 21.9747 29.0915 21.9956 28.604C21.9956 28.5273 22.1349 28.388 22.2115 28.388C23.0474 28.3741 23.8832 28.3741 24.719 28.388C24.7956 28.388 24.9349 28.4995 24.9349 28.5691C24.9558 29.1124 24.9488 29.6696 24.9488 30.2826Z" fill="url(#paint5_linear_87_5206)"/>
</g>
<defs>
<linearGradient id="paint0_linear_87_5206" x1="35.3568" y1="36.9692" x2="35.3568" y2="13.2692" gradientUnits="userSpaceOnUse">
<stop stop-color="#D1D1D1"/>
<stop offset="1" stop-color="#F4F4F4"/>
</linearGradient>
<linearGradient id="paint1_linear_87_5206" x1="34.3936" y1="48.7361" x2="34.3936" y2="37.004" gradientUnits="userSpaceOnUse">
<stop stop-color="#D1D1D1"/>
<stop offset="1" stop-color="#F4F4F4"/>
</linearGradient>
<linearGradient id="paint2_linear_87_5206" x1="26.9651" y1="22.5652" x2="26.9651" y2="19.2846" gradientUnits="userSpaceOnUse">
<stop stop-color="#D1D1D1"/>
<stop offset="1" stop-color="#F4F4F4"/>
</linearGradient>
<linearGradient id="paint3_linear_87_5206" x1="43.754" y1="22.5443" x2="43.754" y2="19.2846" gradientUnits="userSpaceOnUse">
<stop stop-color="#D1D1D1"/>
<stop offset="1" stop-color="#F4F4F4"/>
</linearGradient>
<linearGradient id="paint4_linear_87_5206" x1="47.2397" y1="30.2617" x2="47.2397" y2="28.3776" gradientUnits="userSpaceOnUse">
<stop stop-color="#D1D1D1"/>
<stop offset="1" stop-color="#F4F4F4"/>
</linearGradient>
<linearGradient id="paint5_linear_87_5206" x1="23.4662" y1="30.2843" x2="23.4662" y2="28.3776" gradientUnits="userSpaceOnUse">
<stop stop-color="#D1D1D1"/>
<stop offset="1" stop-color="#F4F4F4"/>
</linearGradient>
<clipPath id="clip0_87_5206">
<rect width="28.6617" height="35.4667" fill="white" transform="translate(20.0664 13.2667)"/>
</clipPath>
</defs>
</svg>
