<svg width="161" height="145" viewBox="0 0 161 145" fill="none" xmlns="http://www.w3.org/2000/svg">
<path d="M112 134H55C48.3726 134 43 128.627 43 122V30C43 23.3726 48.3726 18 55 18H100C106.627 18 112 23.3726 112 30V47" stroke="white" stroke-width="3"/>
<path d="M112 134H55C48.3726 134 43 128.627 43 122V30C43 23.3726 48.3726 18 55 18H100C106.627 18 112 23.3726 112 30V47" stroke="#D7D7D7" stroke-opacity="0.2" stroke-width="3"/>
<g opacity="0.26" clip-path="url(#clip0_320_1793)">
<path d="M27.8032 25.2051H0V0H27.8032V25.2051ZM1.24984 23.9635H26.5533V1.24164H1.24984V23.9635Z" fill="url(#paint0_linear_320_1793)"/>
<path d="M54.3562 25.2051H26.5645V0H54.3562V25.2051ZM27.8143 23.9635H53.1064V1.24164H27.8143V23.9635Z" fill="url(#paint1_linear_320_1793)"/>
<path d="M80.8988 25.2051H53.0957V0H80.8988V25.2051ZM54.3455 23.9635H79.649V1.24164H54.3569L54.3455 23.9635Z" fill="url(#paint2_linear_320_1793)"/>
<path d="M107.44 25.2051H79.6484V0H107.44V25.2051ZM80.8982 23.9635H106.19V1.24164H80.8982V23.9635Z" fill="url(#paint3_linear_320_1793)"/>
<path d="M133.995 25.2051H106.191V0H133.995V25.2051ZM107.441 23.9635H132.756V1.24164H107.453L107.441 23.9635Z" fill="url(#paint4_linear_320_1793)"/>
<path d="M160.536 25.2051H132.756V0H160.548L160.536 25.2051ZM133.994 23.9635H159.286V1.24164H133.994V23.9635Z" fill="url(#paint5_linear_320_1793)"/>
<path d="M27.8032 49.1686H0V23.9635H27.8032V49.1686ZM1.24984 47.927H26.5533V25.2051H1.24984V47.927Z" fill="url(#paint6_linear_320_1793)"/>
<path d="M54.3562 49.1686H26.5645V23.9635H54.3562V49.1686ZM27.8143 47.927H53.1064V25.2051H27.8143V47.927Z" fill="url(#paint7_linear_320_1793)"/>
<path d="M80.8988 49.1686H53.0957V23.9635H80.8988V49.1686ZM54.3455 47.927H79.649V25.2051H54.3569L54.3455 47.927Z" fill="url(#paint8_linear_320_1793)"/>
<path d="M107.44 49.1686H79.6484V23.9635H107.44V49.1686ZM80.8982 47.927H106.19V25.2051H80.8982V47.927Z" fill="url(#paint9_linear_320_1793)"/>
<path d="M133.995 49.1686H106.191V23.9635H133.995V49.1686ZM107.441 47.927H132.756V25.2051H107.453L107.441 47.927Z" fill="url(#paint10_linear_320_1793)"/>
<path d="M160.536 49.1686H132.756V23.9635H160.548L160.536 49.1686ZM133.994 47.927H159.286V25.2051H133.994V47.927Z" fill="url(#paint11_linear_320_1793)"/>
<path d="M27.8032 73.1208H0V47.927H27.8032V73.1208ZM1.24984 71.8792H26.5533V49.1686H1.24984V71.8792Z" fill="url(#paint12_linear_320_1793)"/>
<path d="M54.3562 73.1208H26.5645V47.927H54.3562V73.1208ZM27.8143 71.8792H53.1064V49.1686H27.8143V71.8792Z" fill="url(#paint13_linear_320_1793)"/>
<path d="M80.8988 73.1208H53.0957V47.927H80.8988V73.1208ZM54.3569 71.8792H79.6604V49.1686H54.3569V71.8792Z" fill="url(#paint14_linear_320_1793)"/>
<path d="M107.44 73.1208H79.6484V47.927H107.44V73.1208ZM80.8982 71.8792H106.19V49.1686H80.8982V71.8792Z" fill="url(#paint15_linear_320_1793)"/>
<path d="M133.995 73.1208H106.191V47.927H133.995V73.1208ZM107.441 71.8792H132.756V49.1686H107.453L107.441 71.8792Z" fill="url(#paint16_linear_320_1793)"/>
<path d="M160.536 73.1208H132.756V47.927H160.548L160.536 73.1208ZM133.994 71.8792H159.286V49.1686H133.994V71.8792Z" fill="url(#paint17_linear_320_1793)"/>
<path d="M27.8032 97.0843H0V71.8792H27.8032V97.0843ZM1.24984 95.8427H26.5533V73.1208H1.24984V95.8427Z" fill="url(#paint18_linear_320_1793)"/>
<path d="M54.3562 97.0843H26.5645V71.8792H54.3562V97.0843ZM27.8143 95.8427H53.1064V73.1208H27.8143V95.8427Z" fill="url(#paint19_linear_320_1793)"/>
<path d="M80.8988 97.0843H53.0957V71.8792H80.8988V97.0843ZM54.3455 95.8427H79.649V73.1208H54.3569L54.3455 95.8427Z" fill="url(#paint20_linear_320_1793)"/>
<path d="M107.44 97.0843H79.6484V71.8792H107.44V97.0843ZM80.8982 95.8427H106.19V73.1208H80.8982V95.8427Z" fill="url(#paint21_linear_320_1793)"/>
<path d="M133.995 97.0843H106.191V71.8792H133.995V97.0843ZM107.441 95.8427H132.756V73.1208H107.453L107.441 95.8427Z" fill="url(#paint22_linear_320_1793)"/>
<path d="M160.536 97.0843H132.756V71.8792H160.548L160.536 97.0843ZM133.994 95.8427H159.286V73.1208H133.994V95.8427Z" fill="url(#paint23_linear_320_1793)"/>
<path d="M27.8032 121.048H0V95.8427H27.8032V121.048ZM1.24984 119.806H26.5533V97.0843H1.24984V119.806Z" fill="url(#paint24_linear_320_1793)"/>
<path d="M54.3562 121.048H26.5645V95.8427H54.3562V121.048ZM27.8143 119.806H53.1064V97.0843H27.8143V119.806Z" fill="url(#paint25_linear_320_1793)"/>
<path d="M80.8988 121.048H53.0957V95.8427H80.8988V121.048ZM54.3455 119.806H79.649V97.0843H54.3569L54.3455 119.806Z" fill="url(#paint26_linear_320_1793)"/>
<path d="M107.44 121.048H79.6484V95.8427H107.44V121.048ZM80.8982 119.806H106.19V97.0843H80.8982V119.806Z" fill="url(#paint27_linear_320_1793)"/>
<path d="M133.995 121.048H106.191V95.8427H133.995V121.048ZM107.441 119.806H132.756V97.0843H107.453L107.441 119.806Z" fill="url(#paint28_linear_320_1793)"/>
<path d="M160.536 121.048H132.756V95.8427H160.548L160.536 121.048ZM133.994 119.806H159.286V97.0843H133.994V119.806Z" fill="url(#paint29_linear_320_1793)"/>
<path d="M27.8032 145H0V119.806H27.8032V145ZM1.24984 143.758H26.5533V121.048H1.24984V143.758Z" fill="url(#paint30_linear_320_1793)"/>
<path d="M54.3562 145H26.5645V119.806H54.3562V145ZM27.8143 143.758H53.1064V121.048H27.8143V143.758Z" fill="url(#paint31_linear_320_1793)"/>
<path d="M80.8988 145H53.0957V119.806H80.8988V145ZM54.3455 143.758H79.649V121.048H54.3569L54.3455 143.758Z" fill="url(#paint32_linear_320_1793)"/>
<path d="M107.44 145H79.6484V119.806H107.44V145ZM80.8982 143.758H106.19V121.048H80.8982V143.758Z" fill="url(#paint33_linear_320_1793)"/>
<path d="M133.995 145H106.191V119.806H133.995V145ZM107.441 143.758H132.756V121.048H107.453L107.441 143.758Z" fill="url(#paint34_linear_320_1793)"/>
<path d="M160.536 145H132.756V119.806H160.548L160.536 145ZM133.994 143.758H159.286V121.048H133.994V143.758Z" fill="url(#paint35_linear_320_1793)"/>
</g>
<mask id="mask0_320_1793" style="mask-type:luminance" maskUnits="userSpaceOnUse" x="46" y="47" width="81" height="81">
<path d="M125.747 126.083V48.3166H47.9805V126.083H125.747Z" fill="white" stroke="white" stroke-width="2.5"/>
</mask>
<g mask="url(#mask0_320_1793)">
<path d="M88.4252 79.1349C90.081 78.159 91.192 76.3572 91.192 74.2962C91.192 71.1964 88.6791 68.6835 85.5793 68.6835C82.4797 68.6835 79.9668 71.1964 79.9668 74.2962C79.9668 76.1367 80.8527 77.7702 82.2213 78.7938" stroke="white" stroke-width="2.5" stroke-miterlimit="10" stroke-linecap="round" stroke-linejoin="round"/>
<path d="M88.4252 79.1349C90.081 78.159 91.192 76.3572 91.192 74.2962C91.192 71.1964 88.6791 68.6835 85.5793 68.6835C82.4797 68.6835 79.9668 71.1964 79.9668 74.2962C79.9668 76.1367 80.8527 77.7702 82.2213 78.7938" stroke="#D7D7D7" stroke-opacity="0.2" stroke-width="2.5" stroke-miterlimit="10" stroke-linecap="round" stroke-linejoin="round"/>
<path d="M89.5718 88.1775C95.6136 86.4538 100.037 80.8921 100.037 74.2971C100.037 66.3262 93.5753 59.8646 85.6045 59.8646C77.6335 59.8646 71.1719 66.3262 71.1719 74.2971C71.1719 80.7734 75.4376 86.2534 81.3126 88.0808" stroke="white" stroke-width="2.5" stroke-miterlimit="10" stroke-linecap="round" stroke-linejoin="round"/>
<path d="M89.5718 88.1775C95.6136 86.4538 100.037 80.8921 100.037 74.2971C100.037 66.3262 93.5753 59.8646 85.6045 59.8646C77.6335 59.8646 71.1719 66.3262 71.1719 74.2971C71.1719 80.7734 75.4376 86.2534 81.3126 88.0808" stroke="#D7D7D7" stroke-opacity="0.2" stroke-width="2.5" stroke-miterlimit="10" stroke-linecap="round" stroke-linejoin="round"/>
<path d="M105.853 58.2754C104.139 59.9897 101.359 59.9897 99.6451 58.2754C97.9308 56.5612 97.9308 53.7819 99.6451 52.0677C101.359 50.3534 104.139 50.3534 105.853 52.0677C107.567 53.7819 107.567 56.5612 105.853 58.2754Z" stroke="white" stroke-width="2.5" stroke-miterlimit="10" stroke-linecap="round" stroke-linejoin="round"/>
<path d="M105.853 58.2754C104.139 59.9897 101.359 59.9897 99.6451 58.2754C97.9308 56.5612 97.9308 53.7819 99.6451 52.0677C101.359 50.3534 104.139 50.3534 105.853 52.0677C107.567 53.7819 107.567 56.5612 105.853 58.2754Z" stroke="#D7D7D7" stroke-opacity="0.2" stroke-width="2.5" stroke-miterlimit="10" stroke-linecap="round" stroke-linejoin="round"/>
<path d="M71.5326 96.5254C69.8183 98.2397 67.0391 98.2397 65.3248 96.5254C63.6105 94.8112 63.6105 92.0319 65.3248 90.3177C67.0391 88.6034 69.8183 88.6034 71.5326 90.3177C73.2468 92.0319 73.2468 94.8112 71.5326 96.5254Z" stroke="white" stroke-width="2.5" stroke-miterlimit="10" stroke-linecap="round" stroke-linejoin="round"/>
<path d="M71.5326 96.5254C69.8183 98.2397 67.0391 98.2397 65.3248 96.5254C63.6105 94.8112 63.6105 92.0319 65.3248 90.3177C67.0391 88.6034 69.8183 88.6034 71.5326 90.3177C73.2468 92.0319 73.2468 94.8112 71.5326 96.5254Z" stroke="#D7D7D7" stroke-opacity="0.2" stroke-width="2.5" stroke-miterlimit="10" stroke-linecap="round" stroke-linejoin="round"/>
<path d="M89.5488 99.6505C101.835 97.7434 111.239 87.1186 111.239 74.2976C111.239 68.4846 109.306 63.1235 106.047 58.8212" stroke="white" stroke-width="2.5" stroke-miterlimit="10" stroke-linecap="round" stroke-linejoin="round"/>
<path d="M89.5488 99.6505C101.835 97.7434 111.239 87.1186 111.239 74.2976C111.239 68.4846 109.306 63.1235 106.047 58.8212" stroke="#D7D7D7" stroke-opacity="0.2" stroke-width="2.5" stroke-miterlimit="10" stroke-linecap="round" stroke-linejoin="round"/>
<path d="M84.0805 48.6831C70.6097 49.4613 59.9258 60.6318 59.9258 74.2976C59.9258 80.155 61.8889 85.5539 65.1926 89.8726" stroke="white" stroke-width="2.5" stroke-miterlimit="10" stroke-linecap="round" stroke-linejoin="round"/>
<path d="M84.0805 48.6831C70.6097 49.4613 59.9258 60.6318 59.9258 74.2976C59.9258 80.155 61.8889 85.5539 65.1926 89.8726" stroke="#D7D7D7" stroke-opacity="0.2" stroke-width="2.5" stroke-miterlimit="10" stroke-linecap="round" stroke-linejoin="round"/>
<path d="M113.807 125.766V107.039C113.807 104.807 111.998 102.998 109.766 102.998C107.534 102.998 105.725 104.807 105.725 107.039V103.825C105.725 101.593 103.916 99.7841 101.685 99.7841C99.4531 99.7841 97.644 101.593 97.644 103.825C97.644 101.593 95.835 99.7841 93.6034 99.7841C91.3718 99.7841 89.5626 101.593 89.5626 103.825V81.93C89.5626 79.6984 87.7537 77.8893 85.522 77.8893C83.2904 77.8893 81.4813 79.6984 81.4813 81.93V101.216V117.9L76.6057 109.9C75.4071 107.933 72.8581 107.283 70.8636 108.434C68.9398 109.545 68.1989 111.952 69.1649 113.952L75.0129 125.766" stroke="white" stroke-width="2.5" stroke-miterlimit="10" stroke-linecap="round" stroke-linejoin="round"/>
<path d="M113.807 125.766V107.039C113.807 104.807 111.998 102.998 109.766 102.998C107.534 102.998 105.725 104.807 105.725 107.039V103.825C105.725 101.593 103.916 99.7841 101.685 99.7841C99.4531 99.7841 97.644 101.593 97.644 103.825C97.644 101.593 95.835 99.7841 93.6034 99.7841C91.3718 99.7841 89.5626 101.593 89.5626 103.825V81.93C89.5626 79.6984 87.7537 77.8893 85.522 77.8893C83.2904 77.8893 81.4813 79.6984 81.4813 81.93V101.216V117.9L76.6057 109.9C75.4071 107.933 72.8581 107.283 70.8636 108.434C68.9398 109.545 68.1989 111.952 69.1649 113.952L75.0129 125.766" stroke="#D7D7D7" stroke-opacity="0.2" stroke-width="2.5" stroke-miterlimit="10" stroke-linecap="round" stroke-linejoin="round"/>
<path d="M89.5508 103.824V111.703" stroke="white" stroke-width="2.5" stroke-miterlimit="10" stroke-linecap="round" stroke-linejoin="round"/>
<path d="M89.5508 103.824V111.703" stroke="#D7D7D7" stroke-opacity="0.2" stroke-width="2.5" stroke-miterlimit="10" stroke-linecap="round" stroke-linejoin="round"/>
<path d="M97.6562 103.824V112.274" stroke="white" stroke-width="2.5" stroke-miterlimit="10" stroke-linecap="round" stroke-linejoin="round"/>
<path d="M97.6562 103.824V112.274" stroke="#D7D7D7" stroke-opacity="0.2" stroke-width="2.5" stroke-miterlimit="10" stroke-linecap="round" stroke-linejoin="round"/>
<path d="M105.719 107.038V112.38" stroke="white" stroke-width="2.5" stroke-miterlimit="10" stroke-linecap="round" stroke-linejoin="round"/>
<path d="M105.719 107.038V112.38" stroke="#D7D7D7" stroke-opacity="0.2" stroke-width="2.5" stroke-miterlimit="10" stroke-linecap="round" stroke-linejoin="round"/>
</g>
<defs>
<linearGradient id="paint0_linear_320_1793" x1="133.21" y1="143.307" x2="19.1684" y2="16.7143" gradientUnits="userSpaceOnUse">
<stop stop-color="#929091" stop-opacity="0"/>
<stop offset="0.5" stop-color="#929091" stop-opacity="0.7"/>
<stop offset="1" stop-color="white" stop-opacity="0"/>
</linearGradient>
<linearGradient id="paint1_linear_320_1793" x1="147.776" y1="130.179" x2="33.7343" y2="3.58689" gradientUnits="userSpaceOnUse">
<stop stop-color="#929091" stop-opacity="0"/>
<stop offset="0.5" stop-color="#929091" stop-opacity="0.7"/>
<stop offset="1" stop-color="white" stop-opacity="0"/>
</linearGradient>
<linearGradient id="paint2_linear_320_1793" x1="162.354" y1="117.052" x2="48.3011" y2="-9.54051" gradientUnits="userSpaceOnUse">
<stop stop-color="#929091" stop-opacity="0"/>
<stop offset="0.5" stop-color="#929091" stop-opacity="0.7"/>
<stop offset="1" stop-color="white" stop-opacity="0"/>
</linearGradient>
<linearGradient id="paint3_linear_320_1793" x1="176.92" y1="103.924" x2="62.8669" y2="-22.6567" gradientUnits="userSpaceOnUse">
<stop stop-color="#929091" stop-opacity="0"/>
<stop offset="0.5" stop-color="#929091" stop-opacity="0.7"/>
<stop offset="1" stop-color="white" stop-opacity="0"/>
</linearGradient>
<linearGradient id="paint4_linear_320_1793" x1="191.487" y1="90.8084" x2="77.4343" y2="-35.7843" gradientUnits="userSpaceOnUse">
<stop stop-color="#929091" stop-opacity="0"/>
<stop offset="0.5" stop-color="#929091" stop-opacity="0.7"/>
<stop offset="1" stop-color="white" stop-opacity="0"/>
</linearGradient>
<linearGradient id="paint5_linear_320_1793" x1="206.053" y1="77.6809" x2="92.0003" y2="-48.9116" gradientUnits="userSpaceOnUse">
<stop stop-color="#929091" stop-opacity="0"/>
<stop offset="0.5" stop-color="#929091" stop-opacity="0.7"/>
<stop offset="1" stop-color="white" stop-opacity="0"/>
</linearGradient>
<linearGradient id="paint6_linear_320_1793" x1="121.211" y1="154.12" x2="7.15845" y2="27.5278" gradientUnits="userSpaceOnUse">
<stop stop-color="#929091" stop-opacity="0"/>
<stop offset="0.5" stop-color="#929091" stop-opacity="0.7"/>
<stop offset="1" stop-color="white" stop-opacity="0"/>
</linearGradient>
<linearGradient id="paint7_linear_320_1793" x1="135.777" y1="140.993" x2="21.7244" y2="14.4005" gradientUnits="userSpaceOnUse">
<stop stop-color="#929091" stop-opacity="0"/>
<stop offset="0.5" stop-color="#929091" stop-opacity="0.7"/>
<stop offset="1" stop-color="white" stop-opacity="0"/>
</linearGradient>
<linearGradient id="paint8_linear_320_1793" x1="150.344" y1="127.866" x2="36.3026" y2="1.27319" gradientUnits="userSpaceOnUse">
<stop stop-color="#929091" stop-opacity="0"/>
<stop offset="0.5" stop-color="#929091" stop-opacity="0.7"/>
<stop offset="1" stop-color="white" stop-opacity="0"/>
</linearGradient>
<linearGradient id="paint9_linear_320_1793" x1="164.91" y1="114.738" x2="50.8683" y2="-11.8544" gradientUnits="userSpaceOnUse">
<stop stop-color="#929091" stop-opacity="0"/>
<stop offset="0.5" stop-color="#929091" stop-opacity="0.7"/>
<stop offset="1" stop-color="white" stop-opacity="0"/>
</linearGradient>
<linearGradient id="paint10_linear_320_1793" x1="179.477" y1="101.622" x2="65.4357" y2="-24.9706" gradientUnits="userSpaceOnUse">
<stop stop-color="#929091" stop-opacity="0"/>
<stop offset="0.5" stop-color="#929091" stop-opacity="0.7"/>
<stop offset="1" stop-color="white" stop-opacity="0"/>
</linearGradient>
<linearGradient id="paint11_linear_320_1793" x1="194.043" y1="88.4945" x2="80.0017" y2="-38.098" gradientUnits="userSpaceOnUse">
<stop stop-color="#929091" stop-opacity="0"/>
<stop offset="0.5" stop-color="#929091" stop-opacity="0.7"/>
<stop offset="1" stop-color="white" stop-opacity="0"/>
</linearGradient>
<linearGradient id="paint12_linear_320_1793" x1="109.213" y1="164.923" x2="-4.84" y2="38.3413" gradientUnits="userSpaceOnUse">
<stop stop-color="#929091" stop-opacity="0"/>
<stop offset="0.5" stop-color="#929091" stop-opacity="0.7"/>
<stop offset="1" stop-color="white" stop-opacity="0"/>
</linearGradient>
<linearGradient id="paint13_linear_320_1793" x1="123.779" y1="151.806" x2="9.72601" y2="25.2139" gradientUnits="userSpaceOnUse">
<stop stop-color="#929091" stop-opacity="0"/>
<stop offset="0.5" stop-color="#929091" stop-opacity="0.7"/>
<stop offset="1" stop-color="white" stop-opacity="0"/>
</linearGradient>
<linearGradient id="paint14_linear_320_1793" x1="138.346" y1="138.679" x2="24.2928" y2="12.0866" gradientUnits="userSpaceOnUse">
<stop stop-color="#929091" stop-opacity="0"/>
<stop offset="0.5" stop-color="#929091" stop-opacity="0.7"/>
<stop offset="1" stop-color="white" stop-opacity="0"/>
</linearGradient>
<linearGradient id="paint15_linear_320_1793" x1="152.912" y1="125.552" x2="38.8586" y2="-1.04097" gradientUnits="userSpaceOnUse">
<stop stop-color="#929091" stop-opacity="0"/>
<stop offset="0.5" stop-color="#929091" stop-opacity="0.7"/>
<stop offset="1" stop-color="white" stop-opacity="0"/>
</linearGradient>
<linearGradient id="paint16_linear_320_1793" x1="167.479" y1="112.435" x2="53.4259" y2="-14.1572" gradientUnits="userSpaceOnUse">
<stop stop-color="#929091" stop-opacity="0"/>
<stop offset="0.5" stop-color="#929091" stop-opacity="0.7"/>
<stop offset="1" stop-color="white" stop-opacity="0"/>
</linearGradient>
<linearGradient id="paint17_linear_320_1793" x1="182.045" y1="99.308" x2="68.0033" y2="-27.2845" gradientUnits="userSpaceOnUse">
<stop stop-color="#929091" stop-opacity="0"/>
<stop offset="0.5" stop-color="#929091" stop-opacity="0.7"/>
<stop offset="1" stop-color="white" stop-opacity="0"/>
</linearGradient>
<linearGradient id="paint18_linear_320_1793" x1="97.2032" y1="175.736" x2="-16.8383" y2="49.1434" gradientUnits="userSpaceOnUse">
<stop stop-color="#929091" stop-opacity="0"/>
<stop offset="0.5" stop-color="#929091" stop-opacity="0.7"/>
<stop offset="1" stop-color="white" stop-opacity="0"/>
</linearGradient>
<linearGradient id="paint19_linear_320_1793" x1="111.769" y1="162.62" x2="-2.2723" y2="36.0273" gradientUnits="userSpaceOnUse">
<stop stop-color="#929091" stop-opacity="0"/>
<stop offset="0.5" stop-color="#929091" stop-opacity="0.7"/>
<stop offset="1" stop-color="white" stop-opacity="0"/>
</linearGradient>
<linearGradient id="paint20_linear_320_1793" x1="126.347" y1="149.492" x2="12.2945" y2="22.8999" gradientUnits="userSpaceOnUse">
<stop stop-color="#929091" stop-opacity="0"/>
<stop offset="0.5" stop-color="#929091" stop-opacity="0.7"/>
<stop offset="1" stop-color="white" stop-opacity="0"/>
</linearGradient>
<linearGradient id="paint21_linear_320_1793" x1="140.913" y1="136.365" x2="26.8603" y2="9.77241" gradientUnits="userSpaceOnUse">
<stop stop-color="#929091" stop-opacity="0"/>
<stop offset="0.5" stop-color="#929091" stop-opacity="0.7"/>
<stop offset="1" stop-color="white" stop-opacity="0"/>
</linearGradient>
<linearGradient id="paint22_linear_320_1793" x1="155.48" y1="123.249" x2="41.4276" y2="-3.3438" gradientUnits="userSpaceOnUse">
<stop stop-color="#929091" stop-opacity="0"/>
<stop offset="0.5" stop-color="#929091" stop-opacity="0.7"/>
<stop offset="1" stop-color="white" stop-opacity="0"/>
</linearGradient>
<linearGradient id="paint23_linear_320_1793" x1="170.046" y1="110.121" x2="55.9936" y2="-16.4712" gradientUnits="userSpaceOnUse">
<stop stop-color="#929091" stop-opacity="0"/>
<stop offset="0.5" stop-color="#929091" stop-opacity="0.7"/>
<stop offset="1" stop-color="white" stop-opacity="0"/>
</linearGradient>
<linearGradient id="paint24_linear_320_1793" x1="85.2047" y1="186.549" x2="-28.848" y2="59.9568" gradientUnits="userSpaceOnUse">
<stop stop-color="#929091" stop-opacity="0"/>
<stop offset="0.5" stop-color="#929091" stop-opacity="0.7"/>
<stop offset="1" stop-color="white" stop-opacity="0"/>
</linearGradient>
<linearGradient id="paint25_linear_320_1793" x1="99.7707" y1="173.433" x2="-14.2707" y2="46.8408" gradientUnits="userSpaceOnUse">
<stop stop-color="#929091" stop-opacity="0"/>
<stop offset="0.5" stop-color="#929091" stop-opacity="0.7"/>
<stop offset="1" stop-color="white" stop-opacity="0"/>
</linearGradient>
<linearGradient id="paint26_linear_320_1793" x1="114.338" y1="160.306" x2="0.296129" y2="33.7135" gradientUnits="userSpaceOnUse">
<stop stop-color="#929091" stop-opacity="0"/>
<stop offset="0.5" stop-color="#929091" stop-opacity="0.7"/>
<stop offset="1" stop-color="white" stop-opacity="0"/>
</linearGradient>
<linearGradient id="paint27_linear_320_1793" x1="128.903" y1="147.178" x2="14.8619" y2="20.586" gradientUnits="userSpaceOnUse">
<stop stop-color="#929091" stop-opacity="0"/>
<stop offset="0.5" stop-color="#929091" stop-opacity="0.7"/>
<stop offset="1" stop-color="white" stop-opacity="0"/>
</linearGradient>
<linearGradient id="paint28_linear_320_1793" x1="143.471" y1="134.062" x2="29.4292" y2="7.46978" gradientUnits="userSpaceOnUse">
<stop stop-color="#929091" stop-opacity="0"/>
<stop offset="0.5" stop-color="#929091" stop-opacity="0.7"/>
<stop offset="1" stop-color="white" stop-opacity="0"/>
</linearGradient>
<linearGradient id="paint29_linear_320_1793" x1="158.048" y1="120.935" x2="43.9952" y2="-5.6577" gradientUnits="userSpaceOnUse">
<stop stop-color="#929091" stop-opacity="0"/>
<stop offset="0.5" stop-color="#929091" stop-opacity="0.7"/>
<stop offset="1" stop-color="white" stop-opacity="0"/>
</linearGradient>
<linearGradient id="paint30_linear_320_1793" x1="73.2063" y1="197.363" x2="-40.8466" y2="70.7704" gradientUnits="userSpaceOnUse">
<stop stop-color="#929091" stop-opacity="0"/>
<stop offset="0.5" stop-color="#929091" stop-opacity="0.7"/>
<stop offset="1" stop-color="white" stop-opacity="0"/>
</linearGradient>
<linearGradient id="paint31_linear_320_1793" x1="87.7723" y1="184.247" x2="-26.2806" y2="57.6543" gradientUnits="userSpaceOnUse">
<stop stop-color="#929091" stop-opacity="0"/>
<stop offset="0.5" stop-color="#929091" stop-opacity="0.7"/>
<stop offset="1" stop-color="white" stop-opacity="0"/>
</linearGradient>
<linearGradient id="paint32_linear_320_1793" x1="102.339" y1="171.119" x2="-11.7137" y2="44.527" gradientUnits="userSpaceOnUse">
<stop stop-color="#929091" stop-opacity="0"/>
<stop offset="0.5" stop-color="#929091" stop-opacity="0.7"/>
<stop offset="1" stop-color="white" stop-opacity="0"/>
</linearGradient>
<linearGradient id="paint33_linear_320_1793" x1="116.905" y1="157.992" x2="2.85199" y2="31.3994" gradientUnits="userSpaceOnUse">
<stop stop-color="#929091" stop-opacity="0"/>
<stop offset="0.5" stop-color="#929091" stop-opacity="0.7"/>
<stop offset="1" stop-color="white" stop-opacity="0"/>
</linearGradient>
<linearGradient id="paint34_linear_320_1793" x1="131.472" y1="144.865" x2="17.4192" y2="18.2832" gradientUnits="userSpaceOnUse">
<stop stop-color="#929091" stop-opacity="0"/>
<stop offset="0.5" stop-color="#929091" stop-opacity="0.7"/>
<stop offset="1" stop-color="white" stop-opacity="0"/>
</linearGradient>
<linearGradient id="paint35_linear_320_1793" x1="146.038" y1="131.748" x2="31.9967" y2="5.15588" gradientUnits="userSpaceOnUse">
<stop stop-color="#929091" stop-opacity="0"/>
<stop offset="0.5" stop-color="#929091" stop-opacity="0.7"/>
<stop offset="1" stop-color="white" stop-opacity="0"/>
</linearGradient>
<clipPath id="clip0_320_1793">
<rect width="160.536" height="145" fill="white"/>
</clipPath>
</defs>
</svg>
