<svg width="40" height="40" viewBox="0 0 40 40" fill="none" xmlns="http://www.w3.org/2000/svg">
<rect x="2" y="2" width="36" height="36" rx="6" fill="#F7F7F7"/>
<rect x="2" y="2" width="36" height="36" rx="6" fill="#D7D7D7" fill-opacity="0.2"/>
<path d="M20 32H14C10.6863 32 8 29.3137 8 26V14C8 10.6863 10.6863 8 14 8H26C29.3137 8 32 10.6863 32 14V20" stroke="black" stroke-width="1.5"/>
<path d="M18.2136 20.6444C17.9437 19.9235 18.5554 19.1807 19.3147 19.3074L35.6754 22.0366C36.5613 22.1844 36.8184 23.3344 36.0799 23.8453L29.2186 28.5929C29.0618 28.7013 28.9393 28.8524 28.8655 29.0282L25.8702 36.1641C25.5198 36.9988 24.3291 36.9755 24.0116 36.1277L18.2136 20.6444Z" fill="#202020"/>
</svg>
