<svg width="227" height="206" viewBox="0 0 227 206" fill="none" xmlns="http://www.w3.org/2000/svg">
<g opacity="0.26" clip-path="url(#clip0_303_1789)">
<path d="M39.3141 35.8086H0V0H39.3141V35.8086ZM1.7673 34.0447H37.5468V1.76398H1.7673V34.0447Z" fill="url(#paint0_linear_303_1789)"/>
<path d="M76.8605 35.8086H37.5625V0H76.8605V35.8086ZM39.3298 34.0447H75.0932V1.76398H39.3298V34.0447Z" fill="url(#paint1_linear_303_1789)"/>
<path d="M114.392 35.8086H75.0781V0H114.392V35.8086ZM76.8454 34.0447H112.625V1.76398H76.8615L76.8454 34.0447Z" fill="url(#paint2_linear_303_1789)"/>
<path d="M151.923 35.8086H112.625V0H151.923V35.8086ZM114.392 34.0447H150.156V1.76398H114.392V34.0447Z" fill="url(#paint3_linear_303_1789)"/>
<path d="M189.468 35.8086H150.154V0H189.468V35.8086ZM151.922 34.0447H187.717V1.76398H151.938L151.922 34.0447Z" fill="url(#paint4_linear_303_1789)"/>
<path d="M227.001 35.8086H187.719V0H227.017L227.001 35.8086ZM189.47 34.0447H225.233V1.76398H189.47V34.0447Z" fill="url(#paint5_linear_303_1789)"/>
<path d="M39.3141 69.8534H0V34.0447H39.3141V69.8534ZM1.7673 68.0894H37.5468V35.8087H1.7673V68.0894Z" fill="url(#paint6_linear_303_1789)"/>
<path d="M76.8605 69.8534H37.5625V34.0447H76.8605V69.8534ZM39.3298 68.0894H75.0932V35.8087H39.3298V68.0894Z" fill="url(#paint7_linear_303_1789)"/>
<path d="M114.392 69.8534H75.0781V34.0447H114.392V69.8534ZM76.8454 68.0894H112.625V35.8087H76.8615L76.8454 68.0894Z" fill="url(#paint8_linear_303_1789)"/>
<path d="M151.923 69.8534H112.625V34.0447H151.923V69.8534ZM114.392 68.0894H150.156V35.8087H114.392V68.0894Z" fill="url(#paint9_linear_303_1789)"/>
<path d="M189.468 69.8534H150.154V34.0447H189.468V69.8534ZM151.922 68.0894H187.717V35.8087H151.938L151.922 68.0894Z" fill="url(#paint10_linear_303_1789)"/>
<path d="M227.001 69.8534H187.719V34.0447H227.017L227.001 69.8534ZM189.47 68.0894H225.233V35.8087H189.47V68.0894Z" fill="url(#paint11_linear_303_1789)"/>
<path d="M39.3141 103.882H0V68.0894H39.3141V103.882ZM1.7673 102.118H37.5468V69.8533H1.7673V102.118Z" fill="url(#paint12_linear_303_1789)"/>
<path d="M76.8605 103.882H37.5625V68.0894H76.8605V103.882ZM39.3298 102.118H75.0932V69.8533H39.3298V102.118Z" fill="url(#paint13_linear_303_1789)"/>
<path d="M114.392 103.882H75.0781V68.0894H114.392V103.882ZM76.8615 102.118H112.641V69.8533H76.8615V102.118Z" fill="url(#paint14_linear_303_1789)"/>
<path d="M151.923 103.882H112.625V68.0894H151.923V103.882ZM114.392 102.118H150.156V69.8533H114.392V102.118Z" fill="url(#paint15_linear_303_1789)"/>
<path d="M189.468 103.882H150.154V68.0894H189.468V103.882ZM151.922 102.118H187.717V69.8533H151.938L151.922 102.118Z" fill="url(#paint16_linear_303_1789)"/>
<path d="M227.001 103.882H187.719V68.0894H227.017L227.001 103.882ZM189.47 102.118H225.233V69.8533H189.47V102.118Z" fill="url(#paint17_linear_303_1789)"/>
<path d="M39.3141 137.927H0V102.118H39.3141V137.927ZM1.7673 136.163H37.5468V103.882H1.7673V136.163Z" fill="url(#paint18_linear_303_1789)"/>
<path d="M76.8605 137.927H37.5625V102.118H76.8605V137.927ZM39.3298 136.163H75.0932V103.882H39.3298V136.163Z" fill="url(#paint19_linear_303_1789)"/>
<path d="M114.392 137.927H75.0781V102.118H114.392V137.927ZM76.8454 136.163H112.625V103.882H76.8615L76.8454 136.163Z" fill="url(#paint20_linear_303_1789)"/>
<path d="M151.923 137.927H112.625V102.118H151.923V137.927ZM114.392 136.163H150.156V103.882H114.392V136.163Z" fill="url(#paint21_linear_303_1789)"/>
<path d="M189.468 137.927H150.154V102.118H189.468V137.927ZM151.922 136.163H187.717V103.882H151.938L151.922 136.163Z" fill="url(#paint22_linear_303_1789)"/>
<path d="M227.001 137.927H187.719V102.118H227.017L227.001 137.927ZM189.47 136.163H225.233V103.882H189.47V136.163Z" fill="url(#paint23_linear_303_1789)"/>
<path d="M39.3141 171.971H0V136.163H39.3141V171.971ZM1.7673 170.207H37.5468V137.927H1.7673V170.207Z" fill="url(#paint24_linear_303_1789)"/>
<path d="M76.8605 171.971H37.5625V136.163H76.8605V171.971ZM39.3298 170.207H75.0932V137.927H39.3298V170.207Z" fill="url(#paint25_linear_303_1789)"/>
<path d="M114.392 171.971H75.0781V136.163H114.392V171.971ZM76.8454 170.207H112.625V137.927H76.8615L76.8454 170.207Z" fill="url(#paint26_linear_303_1789)"/>
<path d="M151.923 171.971H112.625V136.163H151.923V171.971ZM114.392 170.207H150.156V137.927H114.392V170.207Z" fill="url(#paint27_linear_303_1789)"/>
<path d="M189.468 171.971H150.154V136.163H189.468V171.971ZM151.922 170.207H187.717V137.927H151.938L151.922 170.207Z" fill="url(#paint28_linear_303_1789)"/>
<path d="M227.001 171.971H187.719V136.163H227.017L227.001 171.971ZM189.47 170.207H225.233V137.927H189.47V170.207Z" fill="url(#paint29_linear_303_1789)"/>
<path d="M39.3141 206H0V170.207H39.3141V206ZM1.7673 204.236H37.5468V171.971H1.7673V204.236Z" fill="url(#paint30_linear_303_1789)"/>
<path d="M76.8605 206H37.5625V170.207H76.8605V206ZM39.3298 204.236H75.0932V171.971H39.3298V204.236Z" fill="url(#paint31_linear_303_1789)"/>
<path d="M114.392 206H75.0781V170.207H114.392V206ZM76.8454 204.236H112.625V171.971H76.8615L76.8454 204.236Z" fill="url(#paint32_linear_303_1789)"/>
<path d="M151.923 206H112.625V170.207H151.923V206ZM114.392 204.236H150.156V171.971H114.392V204.236Z" fill="url(#paint33_linear_303_1789)"/>
<path d="M189.468 206H150.154V170.207H189.468V206ZM151.922 204.236H187.717V171.971H151.938L151.922 204.236Z" fill="url(#paint34_linear_303_1789)"/>
<path d="M227.001 206H187.719V170.207H227.017L227.001 206ZM189.47 204.236H225.233V171.971H189.47V204.236Z" fill="url(#paint35_linear_303_1789)"/>
</g>
<g clip-path="url(#clip1_303_1789)">
<path d="M63.4004 48.3333V55.4333H117.834V50.7H68.1337V48.3333C68.1337 44.4124 71.3128 41.2333 75.2337 41.2333H120.2V36.5H75.2337C68.7011 36.5081 63.4085 41.8007 63.4004 48.3333Z" fill="#1D1D1D"/>
<path d="M63.4004 88.5667V166.667C63.4085 173.199 68.7011 178.492 75.2337 178.5H127.3V173.767H75.2337C71.3128 173.767 68.1337 170.588 68.1337 166.667V159.567H122.567V154.833H68.1337V88.5667H63.4004Z" fill="#1D1D1D"/>
<path d="M143.867 98.0334V127.82L127.79 111.743C123.599 107.552 116.802 107.552 112.61 111.743C108.419 115.935 108.419 122.732 112.61 126.923L131.449 145.762L130.398 147.601C125.494 156.108 126.138 166.721 132.034 174.573V178.5H136.767V173.767C136.767 173.229 136.584 172.707 136.248 172.288C131.113 165.916 130.42 157.042 134.507 149.951L136.455 146.541C136.981 145.616 136.825 144.454 136.074 143.7L115.957 123.584C113.676 121.23 113.706 117.481 116.023 115.164C118.341 112.846 122.09 112.816 124.444 115.097L149.294 139.947L152.64 136.6L148.6 132.553V98.0334H143.867Z" fill="#1D1D1D"/>
<path d="M103.633 164.3H108.366V169.033H103.633V164.3Z" fill="#1D1D1D"/>
<path d="M165.167 178.5V131.271C165.173 124.989 162.904 118.916 158.777 114.178L155.156 109.819L151.512 112.841L155.163 117.246C158.561 121.128 160.434 126.112 160.434 131.271V178.5H165.167Z" fill="#1D1D1D"/>
<path d="M113.1 95.6667H117.833V105.133H113.1V95.6667Z" fill="#1D1D1D"/>
<path d="M52.4447 55.9591C51.8888 56.4086 51.5664 57.0846 51.5664 57.7999V81.4666C51.5664 82.7736 52.6261 83.8333 53.9331 83.8333C54.0452 83.8333 54.1584 83.8252 54.2694 83.8102L75.2331 80.8137V90.9333C75.2331 94.8542 78.4121 98.0333 82.3331 98.0333H94.1664V147.733C94.1664 149.04 95.2261 150.1 96.5331 150.1H115.466C116.773 150.1 117.833 149.04 117.833 147.733V135.9H113.1V145.367H108.366V126.433H103.633V145.367H98.8997V95.6666C98.8997 94.3596 97.8401 93.2999 96.5331 93.2999H82.3331C81.0261 93.2999 79.9664 92.2403 79.9664 90.9333V80.1388L84.6997 79.4616V86.1999C84.6997 87.5069 85.7594 88.5666 87.0664 88.5666H115.466C119.387 88.5666 122.566 91.7457 122.566 95.6666V105.133H127.3V95.6666C127.292 89.134 121.999 83.8414 115.466 83.8333H115.405C116.971 81.7971 117.824 79.3022 117.833 76.7333V71.9999C117.833 65.465 112.535 60.1666 106 60.1666C99.4648 60.1666 94.1664 65.465 94.1664 71.9999V76.7333C94.1756 79.3022 95.0285 81.7971 96.5943 83.8333H89.4331V64.8999C89.4331 63.7836 88.6542 62.8199 87.5633 62.5853L54.43 55.4853C53.7308 55.335 53.0005 55.5084 52.4447 55.9591ZM98.8997 76.7333V71.9999C98.8997 68.079 102.079 64.8999 106 64.8999C109.921 64.8999 113.1 68.079 113.1 71.9999V76.7333C113.1 80.6542 109.921 83.8333 106 83.8333C102.079 83.8333 98.8997 80.6542 98.8997 76.7333ZM56.2997 60.7271L84.6997 66.8148V74.6809L56.2997 78.7382V60.7271Z" fill="#1D1D1D"/>
<path d="M36.791 60.0972L37.9374 55.5049L47.404 57.8681L46.2577 62.4604L36.791 60.0972Z" fill="#1D1D1D"/>
<path d="M36.793 79.1681L46.2596 76.8049L47.406 81.3973L37.9393 83.7605L36.793 79.1681Z" fill="#1D1D1D"/>
<path d="M35 67.2666H44.4667V71.9999H35V67.2666Z" fill="#1D1D1D"/>
<path d="M165.167 36.5H136.767C130.234 36.5081 124.942 41.8007 124.934 48.3333V72C124.942 78.5326 130.234 83.8253 136.767 83.8334H138.612L136.814 92.8262C136.629 93.753 137.013 94.6995 137.79 95.2368C138.566 95.773 139.587 95.7973 140.387 95.298L158.746 83.8334H165.167C171.7 83.8253 176.992 78.5326 177 72V48.3333C176.992 41.8007 171.7 36.5081 165.167 36.5ZM172.267 72C172.267 75.921 169.088 79.1 165.167 79.1H158.067C157.623 79.1 157.189 79.2248 156.813 79.4594L142.53 88.3864L143.82 81.9405C143.962 81.2437 143.784 80.5202 143.334 79.9702C142.885 79.419 142.211 79.1 141.5 79.1H136.767C132.846 79.1 129.667 75.921 129.667 72V48.3333C129.667 44.4124 132.846 41.2333 136.767 41.2333H165.167C169.088 41.2333 172.267 44.4124 172.267 48.3333V72Z" fill="#1D1D1D"/>
<path d="M165.167 53.0667H156.967L152.943 47.0194C152.478 46.3989 151.749 46.0337 150.974 46.0337C150.198 46.0337 149.469 46.3989 149.005 47.0194L144.967 53.0667H136.767C135.81 53.0667 134.947 53.6433 134.58 54.5273C134.214 55.4114 134.417 56.4295 135.094 57.1066L141.247 63.2602L139.204 71.4245C138.973 72.3236 139.288 73.2746 140.011 73.857C140.733 74.4395 141.729 74.5458 142.558 74.1298L150.967 69.913L159.376 74.1298C160.202 74.5435 161.195 74.4372 161.916 73.8582C162.636 73.2792 162.954 72.334 162.73 71.4372L160.687 63.2718L166.84 57.1182C167.525 56.4422 167.733 55.4195 167.366 54.5297C166.998 53.641 166.129 53.062 165.167 53.0667ZM156.393 60.86C155.805 61.4482 155.57 62.3022 155.771 63.1088L156.89 67.581L152.024 65.1485C151.359 64.8156 150.575 64.8156 149.909 65.1485L145.05 67.581L146.17 63.1088C146.371 62.3022 146.135 61.4482 145.547 60.86L142.48 57.8H146.233C147.025 57.8 147.763 57.4048 148.203 56.7472L150.967 52.5929L153.731 56.7392C154.169 57.4002 154.907 57.7988 155.7 57.8H159.454L156.393 60.86Z" fill="#1D1D1D"/>
</g>
<defs>
<linearGradient id="paint0_linear_303_1789" x1="188.361" y1="203.594" x2="26.2656" y2="24.505" gradientUnits="userSpaceOnUse">
<stop stop-color="#929091" stop-opacity="0"/>
<stop offset="0.5" stop-color="#929091" stop-opacity="0.7"/>
<stop offset="1" stop-color="white" stop-opacity="0"/>
</linearGradient>
<linearGradient id="paint1_linear_303_1789" x1="208.957" y1="184.944" x2="46.8621" y2="5.85501" gradientUnits="userSpaceOnUse">
<stop stop-color="#929091" stop-opacity="0"/>
<stop offset="0.5" stop-color="#929091" stop-opacity="0.7"/>
<stop offset="1" stop-color="white" stop-opacity="0"/>
</linearGradient>
<linearGradient id="paint2_linear_303_1789" x1="229.571" y1="166.294" x2="67.4598" y2="-12.7949" gradientUnits="userSpaceOnUse">
<stop stop-color="#929091" stop-opacity="0"/>
<stop offset="0.5" stop-color="#929091" stop-opacity="0.7"/>
<stop offset="1" stop-color="white" stop-opacity="0"/>
</linearGradient>
<linearGradient id="paint3_linear_303_1789" x1="250.168" y1="147.644" x2="88.0569" y2="-31.429" gradientUnits="userSpaceOnUse">
<stop stop-color="#929091" stop-opacity="0"/>
<stop offset="0.5" stop-color="#929091" stop-opacity="0.7"/>
<stop offset="1" stop-color="white" stop-opacity="0"/>
</linearGradient>
<linearGradient id="paint4_linear_303_1789" x1="270.764" y1="129.01" x2="108.652" y2="-50.079" gradientUnits="userSpaceOnUse">
<stop stop-color="#929091" stop-opacity="0"/>
<stop offset="0.5" stop-color="#929091" stop-opacity="0.7"/>
<stop offset="1" stop-color="white" stop-opacity="0"/>
</linearGradient>
<linearGradient id="paint5_linear_303_1789" x1="291.362" y1="110.361" x2="129.251" y2="-68.729" gradientUnits="userSpaceOnUse">
<stop stop-color="#929091" stop-opacity="0"/>
<stop offset="0.5" stop-color="#929091" stop-opacity="0.7"/>
<stop offset="1" stop-color="white" stop-opacity="0"/>
</linearGradient>
<linearGradient id="paint6_linear_303_1789" x1="171.395" y1="218.957" x2="9.28333" y2="39.8677" gradientUnits="userSpaceOnUse">
<stop stop-color="#929091" stop-opacity="0"/>
<stop offset="0.5" stop-color="#929091" stop-opacity="0.7"/>
<stop offset="1" stop-color="white" stop-opacity="0"/>
</linearGradient>
<linearGradient id="paint7_linear_303_1789" x1="191.991" y1="200.307" x2="29.8798" y2="21.2178" gradientUnits="userSpaceOnUse">
<stop stop-color="#929091" stop-opacity="0"/>
<stop offset="0.5" stop-color="#929091" stop-opacity="0.7"/>
<stop offset="1" stop-color="white" stop-opacity="0"/>
</linearGradient>
<linearGradient id="paint8_linear_303_1789" x1="212.589" y1="181.657" x2="50.4936" y2="2.56795" gradientUnits="userSpaceOnUse">
<stop stop-color="#929091" stop-opacity="0"/>
<stop offset="0.5" stop-color="#929091" stop-opacity="0.7"/>
<stop offset="1" stop-color="white" stop-opacity="0"/>
</linearGradient>
<linearGradient id="paint9_linear_303_1789" x1="233.186" y1="163.007" x2="71.0907" y2="-16.0822" gradientUnits="userSpaceOnUse">
<stop stop-color="#929091" stop-opacity="0"/>
<stop offset="0.5" stop-color="#929091" stop-opacity="0.7"/>
<stop offset="1" stop-color="white" stop-opacity="0"/>
</linearGradient>
<linearGradient id="paint10_linear_303_1789" x1="253.782" y1="144.373" x2="91.6862" y2="-34.7163" gradientUnits="userSpaceOnUse">
<stop stop-color="#929091" stop-opacity="0"/>
<stop offset="0.5" stop-color="#929091" stop-opacity="0.7"/>
<stop offset="1" stop-color="white" stop-opacity="0"/>
</linearGradient>
<linearGradient id="paint11_linear_303_1789" x1="274.38" y1="125.723" x2="112.285" y2="-53.3663" gradientUnits="userSpaceOnUse">
<stop stop-color="#929091" stop-opacity="0"/>
<stop offset="0.5" stop-color="#929091" stop-opacity="0.7"/>
<stop offset="1" stop-color="white" stop-opacity="0"/>
</linearGradient>
<linearGradient id="paint12_linear_303_1789" x1="154.429" y1="234.304" x2="-7.68259" y2="55.2303" gradientUnits="userSpaceOnUse">
<stop stop-color="#929091" stop-opacity="0"/>
<stop offset="0.5" stop-color="#929091" stop-opacity="0.7"/>
<stop offset="1" stop-color="white" stop-opacity="0"/>
</linearGradient>
<linearGradient id="paint13_linear_303_1789" x1="175.025" y1="215.67" x2="12.9139" y2="36.5804" gradientUnits="userSpaceOnUse">
<stop stop-color="#929091" stop-opacity="0"/>
<stop offset="0.5" stop-color="#929091" stop-opacity="0.7"/>
<stop offset="1" stop-color="white" stop-opacity="0"/>
</linearGradient>
<linearGradient id="paint14_linear_303_1789" x1="195.623" y1="197.02" x2="33.5117" y2="17.9305" gradientUnits="userSpaceOnUse">
<stop stop-color="#929091" stop-opacity="0"/>
<stop offset="0.5" stop-color="#929091" stop-opacity="0.7"/>
<stop offset="1" stop-color="white" stop-opacity="0"/>
</linearGradient>
<linearGradient id="paint15_linear_303_1789" x1="216.22" y1="178.37" x2="54.1088" y2="-0.719681" gradientUnits="userSpaceOnUse">
<stop stop-color="#929091" stop-opacity="0"/>
<stop offset="0.5" stop-color="#929091" stop-opacity="0.7"/>
<stop offset="1" stop-color="white" stop-opacity="0"/>
</linearGradient>
<linearGradient id="paint16_linear_303_1789" x1="236.816" y1="159.736" x2="74.7043" y2="-19.3537" gradientUnits="userSpaceOnUse">
<stop stop-color="#929091" stop-opacity="0"/>
<stop offset="0.5" stop-color="#929091" stop-opacity="0.7"/>
<stop offset="1" stop-color="white" stop-opacity="0"/>
</linearGradient>
<linearGradient id="paint17_linear_303_1789" x1="257.414" y1="141.086" x2="95.3189" y2="-38.0037" gradientUnits="userSpaceOnUse">
<stop stop-color="#929091" stop-opacity="0"/>
<stop offset="0.5" stop-color="#929091" stop-opacity="0.7"/>
<stop offset="1" stop-color="white" stop-opacity="0"/>
</linearGradient>
<linearGradient id="paint18_linear_303_1789" x1="137.447" y1="249.666" x2="-24.6483" y2="70.5767" gradientUnits="userSpaceOnUse">
<stop stop-color="#929091" stop-opacity="0"/>
<stop offset="0.5" stop-color="#929091" stop-opacity="0.7"/>
<stop offset="1" stop-color="white" stop-opacity="0"/>
</linearGradient>
<linearGradient id="paint19_linear_303_1789" x1="158.043" y1="231.032" x2="-4.05186" y2="51.9428" gradientUnits="userSpaceOnUse">
<stop stop-color="#929091" stop-opacity="0"/>
<stop offset="0.5" stop-color="#929091" stop-opacity="0.7"/>
<stop offset="1" stop-color="white" stop-opacity="0"/>
</linearGradient>
<linearGradient id="paint20_linear_303_1789" x1="178.657" y1="212.382" x2="16.5459" y2="33.2929" gradientUnits="userSpaceOnUse">
<stop stop-color="#929091" stop-opacity="0"/>
<stop offset="0.5" stop-color="#929091" stop-opacity="0.7"/>
<stop offset="1" stop-color="white" stop-opacity="0"/>
</linearGradient>
<linearGradient id="paint21_linear_303_1789" x1="199.254" y1="193.732" x2="37.143" y2="14.6428" gradientUnits="userSpaceOnUse">
<stop stop-color="#929091" stop-opacity="0"/>
<stop offset="0.5" stop-color="#929091" stop-opacity="0.7"/>
<stop offset="1" stop-color="white" stop-opacity="0"/>
</linearGradient>
<linearGradient id="paint22_linear_303_1789" x1="219.85" y1="175.098" x2="57.7385" y2="-3.99128" gradientUnits="userSpaceOnUse">
<stop stop-color="#929091" stop-opacity="0"/>
<stop offset="0.5" stop-color="#929091" stop-opacity="0.7"/>
<stop offset="1" stop-color="white" stop-opacity="0"/>
</linearGradient>
<linearGradient id="paint23_linear_303_1789" x1="240.448" y1="156.448" x2="78.337" y2="-22.6413" gradientUnits="userSpaceOnUse">
<stop stop-color="#929091" stop-opacity="0"/>
<stop offset="0.5" stop-color="#929091" stop-opacity="0.7"/>
<stop offset="1" stop-color="white" stop-opacity="0"/>
</linearGradient>
<linearGradient id="paint24_linear_303_1789" x1="120.481" y1="265.029" x2="-41.6304" y2="85.9392" gradientUnits="userSpaceOnUse">
<stop stop-color="#929091" stop-opacity="0"/>
<stop offset="0.5" stop-color="#929091" stop-opacity="0.7"/>
<stop offset="1" stop-color="white" stop-opacity="0"/>
</linearGradient>
<linearGradient id="paint25_linear_303_1789" x1="141.077" y1="246.395" x2="-21.0178" y2="67.3054" gradientUnits="userSpaceOnUse">
<stop stop-color="#929091" stop-opacity="0"/>
<stop offset="0.5" stop-color="#929091" stop-opacity="0.7"/>
<stop offset="1" stop-color="white" stop-opacity="0"/>
</linearGradient>
<linearGradient id="paint26_linear_303_1789" x1="161.675" y1="227.745" x2="-0.420027" y2="48.6555" gradientUnits="userSpaceOnUse">
<stop stop-color="#929091" stop-opacity="0"/>
<stop offset="0.5" stop-color="#929091" stop-opacity="0.7"/>
<stop offset="1" stop-color="white" stop-opacity="0"/>
</linearGradient>
<linearGradient id="paint27_linear_303_1789" x1="182.272" y1="209.095" x2="20.1771" y2="30.0054" gradientUnits="userSpaceOnUse">
<stop stop-color="#929091" stop-opacity="0"/>
<stop offset="0.5" stop-color="#929091" stop-opacity="0.7"/>
<stop offset="1" stop-color="white" stop-opacity="0"/>
</linearGradient>
<linearGradient id="paint28_linear_303_1789" x1="202.868" y1="190.461" x2="40.7726" y2="11.3714" gradientUnits="userSpaceOnUse">
<stop stop-color="#929091" stop-opacity="0"/>
<stop offset="0.5" stop-color="#929091" stop-opacity="0.7"/>
<stop offset="1" stop-color="white" stop-opacity="0"/>
</linearGradient>
<linearGradient id="paint29_linear_303_1789" x1="223.482" y1="171.811" x2="61.3711" y2="-7.27868" gradientUnits="userSpaceOnUse">
<stop stop-color="#929091" stop-opacity="0"/>
<stop offset="0.5" stop-color="#929091" stop-opacity="0.7"/>
<stop offset="1" stop-color="white" stop-opacity="0"/>
</linearGradient>
<linearGradient id="paint30_linear_303_1789" x1="103.515" y1="280.391" x2="-58.5965" y2="101.302" gradientUnits="userSpaceOnUse">
<stop stop-color="#929091" stop-opacity="0"/>
<stop offset="0.5" stop-color="#929091" stop-opacity="0.7"/>
<stop offset="1" stop-color="white" stop-opacity="0"/>
</linearGradient>
<linearGradient id="paint31_linear_303_1789" x1="124.111" y1="261.758" x2="-38" y2="82.668" gradientUnits="userSpaceOnUse">
<stop stop-color="#929091" stop-opacity="0"/>
<stop offset="0.5" stop-color="#929091" stop-opacity="0.7"/>
<stop offset="1" stop-color="white" stop-opacity="0"/>
</linearGradient>
<linearGradient id="paint32_linear_303_1789" x1="144.709" y1="243.108" x2="-17.4022" y2="64.0182" gradientUnits="userSpaceOnUse">
<stop stop-color="#929091" stop-opacity="0"/>
<stop offset="0.5" stop-color="#929091" stop-opacity="0.7"/>
<stop offset="1" stop-color="white" stop-opacity="0"/>
</linearGradient>
<linearGradient id="paint33_linear_303_1789" x1="165.306" y1="224.457" x2="3.19485" y2="45.368" gradientUnits="userSpaceOnUse">
<stop stop-color="#929091" stop-opacity="0"/>
<stop offset="0.5" stop-color="#929091" stop-opacity="0.7"/>
<stop offset="1" stop-color="white" stop-opacity="0"/>
</linearGradient>
<linearGradient id="paint34_linear_303_1789" x1="185.902" y1="205.807" x2="23.7903" y2="26.734" gradientUnits="userSpaceOnUse">
<stop stop-color="#929091" stop-opacity="0"/>
<stop offset="0.5" stop-color="#929091" stop-opacity="0.7"/>
<stop offset="1" stop-color="white" stop-opacity="0"/>
</linearGradient>
<linearGradient id="paint35_linear_303_1789" x1="206.5" y1="187.173" x2="44.4049" y2="8.08395" gradientUnits="userSpaceOnUse">
<stop stop-color="#929091" stop-opacity="0"/>
<stop offset="0.5" stop-color="#929091" stop-opacity="0.7"/>
<stop offset="1" stop-color="white" stop-opacity="0"/>
</linearGradient>
<clipPath id="clip0_303_1789">
<rect width="227" height="206" fill="white"/>
</clipPath>
<clipPath id="clip1_303_1789">
<rect width="142" height="142" fill="white" transform="translate(35 36.5)"/>
</clipPath>
</defs>
</svg>
