<svg width="78" height="78" viewBox="0 0 78 78" fill="none" xmlns="http://www.w3.org/2000/svg">
<rect width="78" height="78" rx="39" fill="url(#paint0_linear_42_5929)" fill-opacity="0.05"/>
<rect x="10" y="10" width="58" height="58" rx="29" fill="url(#paint1_linear_42_5929)" fill-opacity="0.1"/>
<rect x="10.5" y="10.5" width="57" height="57" rx="28.5" stroke="url(#paint2_linear_42_5929)" stroke-opacity="0.2"/>
<g clip-path="url(#clip0_42_5929)">
<path d="M48.6571 38.0185C48.6571 38.7663 48.6671 39.5092 48.6521 40.2571C48.642 40.6605 48.7574 41.0148 48.9682 41.3493C49.5102 42.2251 50.2279 42.9582 50.9556 43.6814C51.2266 43.952 51.5076 44.2079 51.7937 44.4588C51.9342 44.5818 51.9995 44.7097 51.9995 44.9016C51.9894 45.7232 51.9894 46.54 51.9944 47.3616C51.9995 48.0455 51.6983 48.5572 51.071 48.8426C50.4286 49.1328 49.8264 49.0098 49.2995 48.5621C48.2104 47.6273 47.1264 46.6876 46.0424 45.7528C45.3047 45.1132 44.5719 44.4637 43.8192 43.8438C43.5532 43.6224 43.237 43.46 42.9309 43.2927C42.4792 43.0467 41.9924 42.9139 41.4654 42.9336C41.084 42.9483 40.6926 42.9533 40.3112 42.9237C39.7541 42.8795 39.3576 42.5006 39.2824 41.9791C39.2121 41.5215 39.4881 41.0295 39.9498 40.8524C40.1255 40.7835 40.3212 40.754 40.5119 40.754C41.9573 40.7442 43.4026 40.7491 44.853 40.7491C45.395 40.7491 45.5907 40.5572 45.5907 40.0209C45.5907 38.9385 45.5857 37.8561 45.5907 36.7737C45.5957 36.3604 45.4502 36.0357 45.134 35.7552C43.3123 34.1513 41.5006 32.5375 39.6838 30.9237C39.197 30.4908 39.1418 29.8512 39.5483 29.3838C39.9498 28.9164 40.6073 28.8721 41.1242 29.2657C43.4478 31.0369 45.7664 32.8081 48.1 34.5695C48.4864 34.8598 48.6671 35.214 48.6621 35.6814C48.6521 36.4588 48.6571 37.2362 48.6571 38.0185Z" fill="url(#paint3_linear_42_5929)"/>
<path d="M25.0053 46.2054C25.0053 45.7626 25.0103 45.3198 25.0003 44.877C24.9952 44.7048 25.0655 44.5916 25.1809 44.4735C25.9387 43.7109 26.6865 42.9385 27.4292 42.1611C27.5848 41.9988 27.7003 41.8069 27.8358 41.6298C28.1921 41.1525 28.3577 40.631 28.3426 40.0209C28.3125 38.6138 28.3476 37.2017 28.3276 35.7897C28.3175 35.2337 28.5183 34.8401 28.975 34.4957C31.2936 32.7638 33.5871 31.0024 35.8906 29.246C36.3724 28.877 37.0348 28.936 37.4263 29.3788C37.8278 29.8315 37.7926 30.4809 37.3259 30.904C36.6183 31.5437 35.9006 32.1685 35.188 32.8032C34.0588 33.802 32.9296 34.8056 31.8004 35.8044C31.5345 36.0406 31.404 36.3259 31.404 36.6703C31.404 37.8167 31.399 38.9631 31.404 40.1144C31.404 40.5375 31.6248 40.7441 32.0614 40.7441C33.5519 40.7491 35.0374 40.7441 36.5279 40.7491C37.2305 40.7491 37.7224 41.2312 37.7073 41.8807C37.6973 42.3776 37.3309 42.8253 36.824 42.8991C36.5229 42.9434 36.2068 42.9631 35.9006 42.9336C34.8718 42.8352 34.0036 43.2042 33.2358 43.8044C32.4529 44.4145 31.7201 45.0935 30.9724 45.738C29.8733 46.6826 28.7792 47.6371 27.6752 48.5769C26.7819 49.3395 25.462 49.0049 25.0805 47.9176C25.0304 47.7798 25.0153 47.6273 25.0103 47.4846C25.0003 47.0615 25.0053 46.6334 25.0053 46.2054Z" fill="url(#paint4_linear_42_5929)"/>
<path d="M39.2132 39.0369C39.2132 39.2731 39.2132 39.4945 39.2132 39.7355C38.7917 39.7355 38.3902 39.7355 37.9536 39.7355C37.9536 39.5437 37.9485 39.3567 37.9536 39.1697C37.9586 39.032 37.9184 38.9729 37.7729 38.9385C37.3563 38.8401 36.9699 38.6728 36.6086 38.3874C36.8394 38.0873 37.0602 37.802 37.261 37.5363C37.6424 37.679 37.9887 37.8462 38.355 37.9299C38.621 37.9889 38.9171 37.9496 39.1931 37.9053C39.4039 37.8708 39.5394 37.7085 39.5545 37.4871C39.5746 37.2608 39.4541 37.1033 39.2534 37.0246C38.9121 36.8967 38.5558 36.7983 38.2095 36.6851C37.9586 36.6015 37.6976 36.5277 37.4517 36.4243C36.8746 36.1833 36.5684 35.7552 36.5534 35.1255C36.5383 34.4662 36.7892 33.9348 37.3915 33.6494C37.7829 33.4625 38.1192 33.3247 37.9234 32.7786C38.35 32.7786 38.7214 32.7737 39.0978 32.7884C39.1379 32.7884 39.2082 32.9114 39.2082 32.9803C39.2333 33.3985 39.2333 33.3887 39.6298 33.5264C39.8606 33.6052 40.0814 33.7183 40.3324 33.8315C40.1216 34.1513 39.951 34.4317 39.7602 34.6974C39.7301 34.7368 39.6097 34.7318 39.5394 34.7122C39.2082 34.6285 38.887 34.5203 38.5558 34.4563C38.4253 34.4317 38.2747 34.4711 38.1392 34.5055C37.9385 34.5596 37.803 34.6925 37.7879 34.909C37.7729 35.1205 37.8682 35.2829 38.064 35.3616C38.3199 35.4649 38.5809 35.5437 38.8418 35.6273C39.1279 35.7208 39.424 35.7897 39.7 35.893C40.498 36.198 40.8192 36.6802 40.779 37.4723C40.7389 38.2005 40.2822 38.7417 39.5294 38.9533C39.4391 38.9828 39.3437 39.0074 39.2132 39.0369Z" fill="url(#paint5_linear_42_5929)"/>
</g>
<defs>
<linearGradient id="paint0_linear_42_5929" x1="39" y1="0" x2="39" y2="78" gradientUnits="userSpaceOnUse">
<stop stop-color="#CAFF33"/>
<stop offset="1" stop-color="#CAFF33" stop-opacity="0"/>
</linearGradient>
<linearGradient id="paint1_linear_42_5929" x1="39" y1="-28.4054" x2="39" y2="159.703" gradientUnits="userSpaceOnUse">
<stop stop-color="#CAFF33"/>
<stop offset="0.467671" stop-color="#CAFF33" stop-opacity="0"/>
</linearGradient>
<linearGradient id="paint2_linear_42_5929" x1="39" y1="-90.7162" x2="39" y2="120.514" gradientUnits="userSpaceOnUse">
<stop stop-color="#CAFF33"/>
<stop offset="0.716291" stop-color="#CAFF33" stop-opacity="0"/>
</linearGradient>
<linearGradient id="paint3_linear_42_5929" x1="45.6355" y1="48.9995" x2="45.6355" y2="28.999" gradientUnits="userSpaceOnUse">
<stop stop-color="#D1D1D1"/>
<stop offset="1" stop-color="#F4F4F4"/>
</linearGradient>
<linearGradient id="paint4_linear_42_5929" x1="31.3538" y1="48.9902" x2="31.3538" y2="29.0037" gradientUnits="userSpaceOnUse">
<stop stop-color="#D1D1D1"/>
<stop offset="1" stop-color="#F4F4F4"/>
</linearGradient>
<linearGradient id="paint5_linear_42_5929" x1="38.6675" y1="39.7355" x2="38.6675" y2="32.7778" gradientUnits="userSpaceOnUse">
<stop stop-color="#D1D1D1"/>
<stop offset="1" stop-color="#F4F4F4"/>
</linearGradient>
<clipPath id="clip0_42_5929">
<rect width="27" height="20" fill="white" transform="translate(25 29)"/>
</clipPath>
</defs>
</svg>
