<svg width="97" height="96" viewBox="0 0 97 96" fill="none" xmlns="http://www.w3.org/2000/svg">
<path d="M97 48.2933C97 21.6216 75.2858 0 48.5 0C21.7142 0 0 21.6216 0 48.2933C0 72.3976 17.7357 92.3771 40.9219 96V62.2531H28.6074V48.2933H40.9219V37.6537C40.9219 25.5502 48.1628 18.8646 59.241 18.8646C64.5457 18.8646 70.0977 19.8078 70.0977 19.8078V31.6925H63.9821C57.9575 31.6925 56.0781 35.4154 56.0781 39.2383V48.2933H69.5293L67.379 62.2531H56.0781V96C79.2643 92.3771 97 72.3976 97 48.2933Z" fill="white"/>
<path d="M97 48.2933C97 21.6216 75.2858 0 48.5 0C21.7142 0 0 21.6216 0 48.2933C0 72.3976 17.7357 92.3771 40.9219 96V62.2531H28.6074V48.2933H40.9219V37.6537C40.9219 25.5502 48.1628 18.8646 59.241 18.8646C64.5457 18.8646 70.0977 19.8078 70.0977 19.8078V31.6925H63.9821C57.9575 31.6925 56.0781 35.4154 56.0781 39.2383V48.2933H69.5293L67.379 62.2531H56.0781V96C79.2643 92.3771 97 72.3976 97 48.2933Z" fill="#D7D7D7" fill-opacity="0.2"/>
</svg>
