<svg width="70" height="70" viewBox="0 0 70 70" fill="none" xmlns="http://www.w3.org/2000/svg">
<g clip-path="url(#clip0_64_17499)">
<path d="M64.8184 0H5.16797C2.31055 0 0 2.25586 0 5.04492V64.9414C0 67.7305 2.31055 70 5.16797 70H64.8184C67.6758 70 70 67.7305 70 64.9551V5.04492C70 2.25586 67.6758 0 64.8184 0ZM20.7676 59.6504H10.377V26.2363H20.7676V59.6504ZM15.5723 21.6836C12.2363 21.6836 9.54297 18.9902 9.54297 15.668C9.54297 12.3457 12.2363 9.65234 15.5723 9.65234C18.8945 9.65234 21.5879 12.3457 21.5879 15.668C21.5879 18.9766 18.8945 21.6836 15.5723 21.6836ZM59.6504 59.6504H49.2734V43.4082C49.2734 39.5391 49.2051 34.5488 43.873 34.5488C38.4727 34.5488 37.6523 38.7734 37.6523 43.1348V59.6504H27.2891V26.2363H37.2422V30.8027H37.3789C38.7598 28.1777 42.1504 25.4023 47.1953 25.4023C57.709 25.4023 59.6504 32.3203 59.6504 41.3164V59.6504Z" fill="white"/>
<path d="M64.8184 0H5.16797C2.31055 0 0 2.25586 0 5.04492V64.9414C0 67.7305 2.31055 70 5.16797 70H64.8184C67.6758 70 70 67.7305 70 64.9551V5.04492C70 2.25586 67.6758 0 64.8184 0ZM20.7676 59.6504H10.377V26.2363H20.7676V59.6504ZM15.5723 21.6836C12.2363 21.6836 9.54297 18.9902 9.54297 15.668C9.54297 12.3457 12.2363 9.65234 15.5723 9.65234C18.8945 9.65234 21.5879 12.3457 21.5879 15.668C21.5879 18.9766 18.8945 21.6836 15.5723 21.6836ZM59.6504 59.6504H49.2734V43.4082C49.2734 39.5391 49.2051 34.5488 43.873 34.5488C38.4727 34.5488 37.6523 38.7734 37.6523 43.1348V59.6504H27.2891V26.2363H37.2422V30.8027H37.3789C38.7598 28.1777 42.1504 25.4023 47.1953 25.4023C57.709 25.4023 59.6504 32.3203 59.6504 41.3164V59.6504Z" fill="#D7D7D7" fill-opacity="0.2"/>
</g>
<defs>
<clipPath id="clip0_64_17499">
<rect width="70" height="70" fill="white"/>
</clipPath>
</defs>
</svg>
