<svg width="70" height="66" viewBox="0 0 70 66" fill="none" xmlns="http://www.w3.org/2000/svg">
<path d="M19.1672 66C49.3484 66 65.8609 40.6052 65.8609 18.5896C65.8609 17.8757 65.8453 17.1459 65.8141 16.432C69.0262 14.0734 71.7983 11.1519 74 7.80474C71.0084 9.15617 67.8321 10.0388 64.5797 10.4224C68.0043 8.33817 70.5684 5.06389 71.7969 1.20657C68.5752 3.14517 65.0519 4.51269 61.3781 5.25051C58.9028 2.57997 55.63 0.811766 52.0656 0.219259C48.5013 -0.373248 44.844 0.242948 41.6591 1.97258C38.4743 3.70221 35.9393 6.44894 34.4462 9.7881C32.953 13.1273 32.5848 16.8729 33.3984 20.4458C26.875 20.1134 20.4931 18.3928 14.6666 15.3955C8.84009 12.3982 3.69898 8.19104 -0.423438 3.04689C-2.51867 6.71475 -3.15981 11.055 -2.21656 15.1856C-1.27332 19.3162 1.18354 22.9271 4.65469 25.2846C2.04876 25.2006 -0.500081 24.4882 -2.78125 23.2063V23.4125C-2.78358 27.2617 -1.47301 30.9929 0.927699 33.9718C3.32841 36.9508 6.67108 38.9937 10.3875 39.7533C7.97352 40.4239 5.43994 40.5216 2.98281 40.0388C4.03152 43.3491 6.07191 46.2444 8.81924 48.3206C11.5666 50.3968 14.8837 51.5503 18.3078 51.6201C12.4947 56.2565 5.31391 58.7712 -2.07812 58.7593C-3.38904 58.7573 -4.69867 58.6757 -6 58.515C1.50952 63.4067 10.2451 66.0047 19.1672 66Z" fill="white"/>
<path d="M19.1672 66C49.3484 66 65.8609 40.6052 65.8609 18.5896C65.8609 17.8757 65.8453 17.1459 65.8141 16.432C69.0262 14.0734 71.7983 11.1519 74 7.80474C71.0084 9.15617 67.8321 10.0388 64.5797 10.4224C68.0043 8.33817 70.5684 5.06389 71.7969 1.20657C68.5752 3.14517 65.0519 4.51269 61.3781 5.25051C58.9028 2.57997 55.63 0.811766 52.0656 0.219259C48.5013 -0.373248 44.844 0.242948 41.6591 1.97258C38.4743 3.70221 35.9393 6.44894 34.4462 9.7881C32.953 13.1273 32.5848 16.8729 33.3984 20.4458C26.875 20.1134 20.4931 18.3928 14.6666 15.3955C8.84009 12.3982 3.69898 8.19104 -0.423438 3.04689C-2.51867 6.71475 -3.15981 11.055 -2.21656 15.1856C-1.27332 19.3162 1.18354 22.9271 4.65469 25.2846C2.04876 25.2006 -0.500081 24.4882 -2.78125 23.2063V23.4125C-2.78358 27.2617 -1.47301 30.9929 0.927699 33.9718C3.32841 36.9508 6.67108 38.9937 10.3875 39.7533C7.97352 40.4239 5.43994 40.5216 2.98281 40.0388C4.03152 43.3491 6.07191 46.2444 8.81924 48.3206C11.5666 50.3968 14.8837 51.5503 18.3078 51.6201C12.4947 56.2565 5.31391 58.7712 -2.07812 58.7593C-3.38904 58.7573 -4.69867 58.6757 -6 58.515C1.50952 63.4067 10.2451 66.0047 19.1672 66Z" fill="#D7D7D7" fill-opacity="0.2"/>
</svg>
